<?xml version="1.0" encoding="utf-8"?>
<!-- Generator: Adobe Illustrator 20.0.0, SVG Export Plug-In . SVG Version: 6.00 Build 0)  -->
<svg version="1.1" id="Capa_1" xmlns="http://www.w3.org/2000/svg" xmlns:xlink="http://www.w3.org/1999/xlink" x="0px" y="0px"
	 viewBox="0 0 498 309.8" style="enable-background:new 0 0 498 309.8;" xml:space="preserve">
<style type="text/css">
	.st0{fill:#F4ECE9;}
	.st1{fill:#E6E2E7;}
	.st2{fill:#F3EAE8;}
	.st3{fill:#FFFFFF;}
</style>
<path class="st0" d="M17.2,89.5c1,0.2,1.7,0.7,1.4,1.9c-0.3,1.3-1,2.4-2.5,2.6c-1.2,0.2-1.8-0.6-1.7-1.6
	C14.5,90.8,15.4,89.7,17.2,89.5z"/>
<path class="st1" d="M488.4,109.6c0.7-2,2.3-2.3,4.1-2.1c0.8,1.4,0.6,2.8,0.2,4.3c-0.2,0.5-0.6,0.8-1.1,0.9
	C489,113.3,488.6,111.5,488.4,109.6z"/>
<path class="st2" d="M49,203.7c-1.1-0.2-1.7-0.8-1.6-1.9c0.2-1.6,1.2-2.8,2.8-2.9c0.9-0.1,1.7,0.7,1.6,1.9
	C51.5,202.4,50.5,203.3,49,203.7z"/>
<path class="st1" d="M452.7,151.2c0.1-0.4,0.5-0.5,0.8-0.4c0.2,0.3,0.1,0.6,0,0.9c0,0.1-0.1,0.2-0.2,0.2
	C452.8,152,452.8,151.6,452.7,151.2z"/>
<path class="st1" d="M452.7,137.7c0.1-0.4,0.4-0.4,0.7-0.4c0.1,0.2,0.1,0.5,0,0.8c0,0.1-0.1,0.1-0.2,0.2
	C452.8,138.3,452.7,138,452.7,137.7z"/>
<path class="st1" d="M448.3,153.4c0.2-0.6,0.7-0.7,1.2-0.6c0.2,0.4,0.2,0.8,0.1,1.2c-0.1,0.2-0.2,0.2-0.3,0.3
	C448.4,154.4,448.3,153.9,448.3,153.4z"/>
<path class="st1" d="M456.7,83.1c0.2-0.6,0.6-0.6,1.2-0.6c0.2,0.4,0.2,0.8,0.1,1.2c-0.1,0.1-0.2,0.2-0.3,0.3
	C456.8,84.2,456.7,83.7,456.7,83.1z"/>
<path class="st1" d="M470.2,116.3c0.2-0.6,0.7-0.7,1.2-0.6c0.2,0.4,0.2,0.8,0.1,1.3c-0.1,0.2-0.2,0.2-0.3,0.3
	C470.3,117.4,470.2,116.9,470.2,116.3z"/>
<path class="st1" d="M474.8,110.5c0.1-0.3,0.4-0.4,0.7-0.3c0.1,0.2,0.1,0.5,0,0.7c0,0.1-0.1,0.1-0.2,0.1
	C474.9,111.1,474.8,110.8,474.8,110.5z"/>
<path class="st1" d="M440.5,124.9c0.1-0.3,0.3-0.3,0.6-0.3c0.1,0.2,0.1,0.4,0,0.6c0,0.1-0.1,0.1-0.2,0.1
	C440.6,125.5,440.5,125.2,440.5,124.9z"/>
<path class="st1" d="M444.7,98.5c0.3-0.7,0.8-0.8,1.4-0.7c0.3,0.5,0.2,1,0.1,1.5c-0.1,0.2-0.2,0.3-0.4,0.3
	C444.9,99.8,444.7,99.2,444.7,98.5z"/>
<path class="st1" d="M436.6,103.8c0.2-0.7,0.8-0.8,1.4-0.7c0.3,0.5,0.2,1,0.1,1.5c-0.1,0.2-0.2,0.3-0.4,0.3
	C436.8,105.1,436.6,104.5,436.6,103.8z"/>
<path class="st1" d="M441.6,92.1c0.4-0.8,1.2-1,2.1-0.9c0.4,0.6,0.3,1.2,0.1,1.8c-0.1,0.2-0.3,0.3-0.6,0.4
	C441.9,93.6,441.7,92.9,441.6,92.1z"/>
<path class="st1" d="M453.6,64.7c0.4-1,1.4-1.1,2.5-1.1c0.5,0.7,0.4,1.4,0.1,2.2c-0.1,0.3-0.3,0.4-0.7,0.5
	C454,66.6,453.7,65.7,453.6,64.7z"/>
<path class="st0" d="M37.7,68.1c0.3,0.1,0.4,0.2,0.4,0.5c-0.1,0.3-0.3,0.6-0.7,0.7c-0.3,0-0.5-0.2-0.4-0.4
	C37,68.4,37.3,68.2,37.7,68.1z"/>
<path class="st0" d="M39.8,70.2c0.3,0.1,0.4,0.2,0.4,0.5c-0.1,0.3-0.3,0.6-0.7,0.7c-0.3,0-0.5-0.2-0.4-0.4
	C39.1,70.5,39.3,70.2,39.8,70.2z"/>
<path class="st0" d="M39.2,147.5c0.3,0.1,0.4,0.2,0.4,0.5c-0.1,0.3-0.3,0.6-0.7,0.7c-0.3,0-0.5-0.2-0.4-0.4
	C38.5,147.8,38.8,147.5,39.2,147.5z"/>
<path class="st0" d="M43.9,195.7c0.3,0.1,0.4,0.2,0.4,0.5c-0.1,0.3-0.3,0.6-0.7,0.7c-0.3,0-0.5-0.2-0.4-0.4
	C43.2,196,43.4,195.7,43.9,195.7z"/>
<path class="st0" d="M39.8,193.6c0.3,0.1,0.4,0.2,0.4,0.5c-0.1,0.3-0.3,0.6-0.7,0.7c-0.3,0-0.5-0.2-0.4-0.4
	C39.1,193.9,39.3,193.7,39.8,193.6z"/>
<path class="st0" d="M62.4,181.3c0.3,0.1,0.4,0.2,0.4,0.5c-0.1,0.3-0.3,0.6-0.7,0.7c-0.3,0-0.5-0.2-0.4-0.4
	C61.7,181.6,61.9,181.3,62.4,181.3z"/>
<path class="st0" d="M47.6,50.8c0.3,0.1,0.4,0.2,0.4,0.5c-0.1,0.3-0.3,0.6-0.7,0.7c-0.3,0-0.5-0.2-0.4-0.4
	C46.9,51.1,47.1,50.8,47.6,50.8z"/>
<path class="st0" d="M8.9,113.4c0.3,0.1,0.4,0.2,0.4,0.5c-0.1,0.3-0.3,0.6-0.7,0.7c-0.3,0-0.5-0.2-0.4-0.4
	C8.2,113.7,8.5,113.4,8.9,113.4z"/>
<path class="st0" d="M25.4,127.8c0.3,0.1,0.4,0.2,0.4,0.5c-0.1,0.3-0.3,0.6-0.7,0.7c-0.3,0-0.5-0.2-0.4-0.4
	C24.7,128.1,24.9,127.8,25.4,127.8z"/>
<path class="st0" d="M30.6,109.2c0.4,0.1,0.6,0.3,0.5,0.6c-0.1,0.4-0.3,0.8-0.8,0.9c-0.4,0.1-0.6-0.2-0.6-0.5
	C29.7,109.7,30.1,109.3,30.6,109.2z"/>
<path class="st0" d="M111.1,220.2c0.8-0.6,1.7-0.8,2.4,0.2c0.7,1.1,1.2,2.4,0.3,3.6c-0.6,1-1.6,0.9-2.3,0.2
	C110.3,223,110.1,221.7,111.1,220.2z"/>
<path class="st2" d="M147.9,295.2c-0.9,0.7-1.7,0.7-2.4-0.1c-1.1-1.2-1.3-2.7-0.3-4c0.5-0.7,1.7-0.8,2.4,0.1
	C148.6,292.4,148.7,293.8,147.9,295.2z"/>
<path class="st0" d="M111.5,190.5c0.2-0.2,0.5-0.2,0.6,0.1c0.2,0.3,0.3,0.6,0,0.9c-0.2,0.2-0.4,0.2-0.6,0
	C111.3,191.2,111.2,190.8,111.5,190.5z"/>
<path class="st0" d="M159.3,276.3c0.2-0.2,0.5-0.2,0.6,0.1c0.2,0.3,0.3,0.6,0,0.9c-0.2,0.2-0.4,0.2-0.6,0
	C159.1,277.1,159,276.7,159.3,276.3z"/>
<path class="st0" d="M138.6,293.7c0.2-0.2,0.5-0.2,0.6,0.1c0.2,0.3,0.3,0.6,0,0.9c-0.2,0.2-0.4,0.2-0.6,0
	C138.3,294.4,138.3,294.1,138.6,293.7z"/>
<path class="st0" d="M134.3,295.4c0.2-0.2,0.5-0.2,0.6,0.1c0.2,0.3,0.3,0.6,0,0.9c-0.2,0.2-0.4,0.2-0.6,0
	C134.1,296.2,134,295.8,134.3,295.4z"/>
<path class="st0" d="M140,270.3c0.2-0.2,0.5-0.2,0.6,0.1c0.2,0.3,0.3,0.6,0,0.9c-0.2,0.2-0.4,0.2-0.6,0
	C139.7,271,139.7,270.7,140,270.3z"/>
<path class="st0" d="M90.7,229.7c0.2-0.2,0.5-0.2,0.6,0.1c0.2,0.3,0.3,0.6,0,0.9c-0.2,0.2-0.4,0.2-0.6,0
	C90.5,230.4,90.4,230.1,90.7,229.7z"/>
<path class="st0" d="M123.6,242.2c0.2-0.2,0.5-0.2,0.6,0.1c0.2,0.3,0.3,0.6,0,0.9c-0.2,0.2-0.4,0.2-0.6,0
	C123.3,242.9,123.3,242.5,123.6,242.2z"/>
<path class="st0" d="M145.3,239.3c0.2-0.2,0.5-0.2,0.6,0.1c0.2,0.3,0.3,0.6,0,0.9c-0.2,0.2-0.4,0.2-0.6,0
	C145,240.1,145,239.7,145.3,239.3z"/>
<path class="st0" d="M134.8,223.1c0.3-0.2,0.6-0.3,0.8,0.1c0.3,0.4,0.4,0.8,0.1,1.2c-0.2,0.3-0.5,0.3-0.8,0.1
	C134.5,224.1,134.5,223.6,134.8,223.1z"/>
<path class="st0" d="M59,169.1c0.3,0.1,0.4,0.2,0.4,0.5c-0.1,0.3-0.3,0.6-0.7,0.7c-0.3,0-0.5-0.2-0.4-0.4
	C58.3,169.4,58.6,169.1,59,169.1z"/>
<path class="st0" d="M88.3,175.1c0.4,0.1,0.6,0.3,0.5,0.6c-0.1,0.4-0.3,0.8-0.8,0.9c-0.4,0.1-0.6-0.2-0.6-0.5
	C87.4,175.5,87.7,175.1,88.3,175.1z"/>
<path class="st0" d="M57.8,184.5c0.2-0.2,0.5-0.2,0.6,0.1c0.2,0.3,0.3,0.6,0,0.9c-0.2,0.2-0.4,0.2-0.6,0
	C57.5,185.2,57.5,184.8,57.8,184.5z"/>
<path class="st0" d="M398,23.3c0.2-0.2,0.5-0.2,0.6,0.1c0.2,0.3,0.3,0.6,0,0.9c-0.2,0.2-0.4,0.2-0.6,0C397.7,24,397.7,23.6,398,23.3
	z"/>
<path class="st1" d="M398.7,34.4c0.1-0.3,0.4-0.4,0.7-0.3c0.1,0.2,0.1,0.5,0,0.7c0,0.1-0.1,0.1-0.2,0.1
	C398.8,34.9,398.7,34.7,398.7,34.4z"/>
<path class="st1" d="M405.6,51.2c0.3-0.7,0.8-0.8,1.4-0.7c0.3,0.5,0.2,1,0.1,1.5c-0.1,0.2-0.2,0.3-0.4,0.3
	C405.8,52.4,405.6,51.8,405.6,51.2z"/>
<path class="st1" d="M397.5,56.5c0.2-0.7,0.8-0.8,1.4-0.7c0.3,0.5,0.2,1,0.1,1.5c-0.1,0.2-0.2,0.3-0.4,0.3
	C397.7,57.8,397.5,57.2,397.5,56.5z"/>
<path class="st1" d="M402.5,44.8c0.4-0.8,1.2-1,2.1-0.9c0.4,0.6,0.3,1.2,0.1,1.8c-0.1,0.2-0.3,0.3-0.6,0.4
	C402.8,46.3,402.6,45.6,402.5,44.8z"/>
<path class="st2" d="M419.5,223.1c-0.9,0.7-1.7,0.7-2.4-0.1c-1.1-1.2-1.3-2.7-0.3-4c0.5-0.7,1.7-0.8,2.4,0.1
	C420.2,220.4,420.2,221.7,419.5,223.1z"/>
<path class="st0" d="M430.9,204.3c0.2-0.2,0.5-0.2,0.6,0.1c0.2,0.3,0.3,0.6,0,0.9c-0.2,0.2-0.4,0.2-0.6,0
	C430.7,205,430.6,204.7,430.9,204.3z"/>
<path class="st0" d="M410.1,221.7c0.2-0.2,0.5-0.2,0.6,0.1c0.2,0.3,0.3,0.6,0,0.9c-0.2,0.2-0.4,0.2-0.6,0
	C409.9,222.4,409.9,222.1,410.1,221.7z"/>
<path class="st0" d="M405.9,223.4c0.2-0.2,0.5-0.2,0.6,0.1c0.2,0.3,0.3,0.6,0,0.9c-0.2,0.2-0.4,0.2-0.6,0
	C405.6,224.1,405.6,223.8,405.9,223.4z"/>
<path class="st0" d="M411.5,198.3c0.2-0.2,0.5-0.2,0.6,0.1c0.2,0.3,0.3,0.6,0,0.9c-0.2,0.2-0.4,0.2-0.6,0
	C411.3,199,411.3,198.6,411.5,198.3z"/>
<g>
	<path class="st3" d="M408.4,84.1c0,0,30.9-6,6.3,5.6C390,101.1,328.2,122,328.2,122l-56.7,17.5c0,0-35.2-4.4-0.7-15.8
		S408.4,84.1,408.4,84.1z"/>
	<path class="st3" d="M114.3,173.9l67-22.3c0,0,8.5,8-9.7,14.8c-18.2,6.7-33.3,13.8-41.7,15.4s-8.4,1.6-8.4,1.6
		S94,180.7,114.3,173.9z"/>
	<path class="st3" d="M136.9,119.7c-0.2-3.4-0.3-6.7-0.4-10.1c-0.1-3.4-0.3-6.5-0.5-9.3c-0.2-2.8-0.4-4.8-0.7-6
		c-0.1-1.1-0.7-2-1.9-2.8c-1.1-0.8-2.4-1.4-3.9-1.7c-1.5-0.3-2.9-0.2-4.4,0.2c-1.5,0.5-2.6,1.4-3.5,2.9c-0.2,1.1-0.3,2-0.3,2.8
		c0,0.8,0,1.5,0,2.3c0,0.8,1,16.3,1.1,19.2c0.1,2.9,0.4,6,0.8,9.3c0.4,3.3,1,6.5,1.7,9.6c0.8,3.1,1.8,5.8,3,7.9
		c1.3,2.1,2.8,3.4,4.7,3.9c1.9,0.5,3.5-0.5,4.9-2.6C139.5,143.7,137.1,123,136.9,119.7z"/>
	<path class="st3" d="M184.1,95.9C184.2,95.6,184.1,96.1,184.1,95.9L184.1,95.9z"/>
	<path class="st3" d="M123.8,114.4c-1.6,6.2-2.1,8.2-5.4,15.2c-3.1,6.5-7.3,9.3-11.7,8.9c-5.3,0-9.5-2.1-12.8-6.1
		c-3.3-4.1-5.5-9.3-6.6-15.8c-1.1-6.5-1.4-13.7-0.7-21.7c0.6-8,2.2-15.9,4.6-23.6c2.5-7.7,5.7-14.9,9.7-21.5
		c4-6.6,8.7-11.7,14.3-15.3c3.8-2.4,7.1-3.4,9.6-3c2.6,0.4,4.4,1.5,5.5,3.5c1.1,2,1.6,4.4,1.4,7.4c-0.1,3-1,6-2.6,8.9
		c0.4,0.7,1,1.3,1.8,1.8c1.6,1.1,3.3,1.6,4.9,1.3c4.3-6.3,5.8-12.7,4.5-19.5c-0.8-4.2-3.2-7.5-7.1-10.2c-4-2.6-8.7-3.8-14.1-3.6
		C108.9,21.7,99.9,25,92,31.2c-7.9,6.2-14.4,13.9-19.4,23c-5.1,9.2-8.8,19.2-11.1,30.1c-2.3,10.9-3.1,21.4-2.4,31.4
		c0.7,10,3,18.9,6.8,26.5c3.8,7.7,9.4,12.9,16.6,15.7c7.9,2.9,14.7,2.8,20.4-0.1c5.6-2.9,10.4-7.3,14.3-13c3.9-5.7,7.1-12,9.6-18.9
		C129.4,119.1,124.4,112.2,123.8,114.4z"/>
	<path class="st3" d="M371.1,69.8c-3.8,1.4-0.9-7.8,0.5-12.6c1.6-5.6,6.2-8.7-2.8-13s-10,0-10,0s-4.3,37.9-11.9,34.2
		c-7.6-3.8,0.5-28,5.2-37.6c4.7-9.6,9-2.7,10.9,0c1.9,2.7,5.7,0,5.7,0c0-18.6-17.1-14.1-17.1-14.1c-20.4,6.2-23.2,30.8-24.7,38.1
		c-1.4,7.3-6.2,15-11.9,21.2c-3.7,4.1-13.8,5.5-13.8,5.5s1.4,9.7,13.3,3.2c11.9-6.5,14.7-19.1,14.7-19.1s2.8,10,14.4,11.9
		c11.6,1.9,15-12.8,15-12.8s3.3,5.7,11.9,4.1c2.3-0.4,3.9-1.5,5.2-2.7c0.1-4.2-1.7-4.8-2.1-8.8C372.4,70.4,372.3,69.3,371.1,69.8z"
		/>
	<path class="st3" d="M403.5,144.6c-2.1,0-3.5,0-3.5,0s-0.6-0.2-1,0.1c-0.3,0.2-0.3,0.5-0.3,0.6c-0.2,1.3-4.7,17.1-7.2,23.4
		c-1.3,3.2-4.9,11.9-13.4,16.3c-0.9,0.4-1.6,0.7-2.1,0.9c0,0-5.9,1-4.6-8.2c8.9-4.6,13.8-17.1,13.8-17.1c5.1-10.6,5.3-19.7,1.5-22.4
		c-4.5-3.2-13.7,3.1-15.6,4.4c-10.1,6.9-19.2,21.2-15.9,35.6c0.4,2,3,13.4,12,16.6c4.9,1.7,9.5,0.2,11.5-0.5
		c11.8-4.1,17.1-17.3,21.2-27.3c2-4.9,4.4-12,5.7-21C405.4,146,405.6,144.6,403.5,144.6z M375.2,153.2c1.9-4.3,5.3-10.3,6.9-9.8
		c1.2,0.4,0.9,4.2,0.8,5.5c-0.8,11.2-11,20.8-11,20.8S372.4,159.5,375.2,153.2z"/>
	<path class="st3" d="M384.6,45.3l-6.2,12.9c0,0-3.6,9.3-7.2,11.3c-2.6,1.5-2.8-3.5-2.1-10c-4.5,4.2-8.6,9.2-11.9,14.6
		c2.2,3.5,5,5.7,9.9,5.7c7.2,0,13.4-5.1,17.5-20.1C388.7,44.8,384.6,45.3,384.6,45.3z"/>
	<path class="st3" d="M227.9,222c0,0,11.7-18.2,11.8-22.8c0.2-4.6-0.8-4.3-1.7-6.2c-1.3-2.8-3.6-8.6-0.7-14.1c2.9-5.5,7.2-5,7.2-5
		s7.4-0.5,7.4,3.1s-0.2,6.5-0.9,8.6s-2.7,8.2,2.1,9.6c4.8,1.4,7.9,1.5,7.7,6.2c-0.2,4.6-2.1,15.6-2.1,15.6s-0.3,4.2,3.4,1.7
		c5.2-3.5,5.7-8.2,5.7-8.2l3.7,5.7c0,0-6.8,11.8-11.3,12.7c-4.5,0.9-8.6-1-8.6-1s-6.7-2.9-5.3-14.7c1.4-11.8,1.4-11.8,1.4-11.8
		s-1-2.9-1.5-0.9c-0.5,2.1-8.7,25-19,32.2S227.9,222,227.9,222z"/>
	<path class="st3" d="M309.9,204.4c0,0,5-1.2,6.9-14.5c0-5.7,0.8-20,10.6-30.3c2.6-2.7,8.1-8.6,14.9-7.9c0.9,0.1,3.4,0.4,5.5,2.3
		c3.1,2.8,3.9,8,2.1,13.2c0,0-2.1,0.9-4.5,0.5c-2.4-0.4-1.8-1.9-1.7-4.9c0.1-2-0.2-5.2-1.5-5.6c-0.9-0.2-2,1.2-2.4,1.7
		c-4.8,6.2-10.8,35.5-4,37.7c1.6,0.5,3.3-0.9,6.7-3.6c1.4-1.2,7.3-6.2,10.7-17c2.3-7.5,1.7-12.1,2.2-12.1c0.9,0,4.7,13.4-1.2,25.8
		c-1,2.1-4.1,8.4-11.2,12.6c-3.2,1.9-8,4.7-13.5,3.1c-6.5-1.9-9.1-8.5-9.5-9.5c0,0-0.4,7.1-3.7,11.2c-3.3,4.1-7.3,4.8-7.3,4.8
		L309.9,204.4z"/>
	<path class="st3" d="M380.4,184.9c0,0,4.1,1.5,9.1-10.5c5-12,7.5-19,8.1-24s0.9-4.8,0-7.2c-0.9-2.4-1.9-6,0.5-9.8
		c2.4-3.8,5.7-9.1,9.8-10.6c4.1-1.5,6.9,0,6.9,0s2.7,2.7-1.5,8.9c-4.3,6.2-1.2,10.5-1.2,10.5s3.9,4.3,6.9,7.4s6.3,7,4.6,10.8
		c3.9-7.2,2.6-2.6,4.8-11.7c2.2-9.1,2.4-11.8,2.4-11.8s1.2-1.9,3.1-1.2c1.2,0.4,2,0.3,2.4,0.7c0.4,0.4,0.3,1.1,0.3,1.3
		c-1.7,27.2-16.9,38.6-16.9,38.6c-4.1,3.3-6.9,5.3-10.4,5.7c-3.5,0.4-8.7-0.4-11-3.9c-1.1-1.6-1.9-4.4-0.7-5.8
		c0.9-1,2.8-1.2,3.4-0.5c0.6,0.7-0.3,1.7,0.2,2.4c0.9,1.3,5.9,0.7,8.4-2.4c2.7-3.3,1.1-8.2,0.5-10.1c-1.5-4.9-5-7.7-6.7-8.9
		c0,0-0.3,4.5-3.1,12c-2.7,7.5-6.2,15.6-8.9,19.2c-2.7,3.6-6,6.7-9.1,6.7S380.4,184.9,380.4,184.9z"/>
	<path class="st3" d="M319.2,197.3c-1.1-1.4-3.3-1-3.8,0.7l-0.6,2.4l-1.5,0.9c0,0-5.3,7.5-4.6-0.3c0.6-7.4,2.5-19,2.7-20
		c0,0,0-0.1,0-0.1l1.3-5.8c0-0.2,0.1-0.4,0.2-0.5c0.6-1.1,3.1-6.2-1.4-7.9c-5.1-1.9-7.2-2.2-7.2-2.2s-4.1-1.4-3.7,2.3
		s-7.6,29.6-11.2,37.2s-4.1,8.4-4.1,8.4s-2.4,3.1-0.3-5.7s5-20.8,5.7-26.6c0.6-5.8,0-6.3-3.3-7.7c-3.3-1.4-6.4-1.3-6.4-1.3
		s-3.5-1.5-3.5,6.4c0,7.7-5.8,24.5-6.3,25.8c0,0.1,0,0.1-0.1,0.1c-0.4,0.9-4.5,10.4-6,12.4c-0.8,1.1-2.3,3.3-3.1,3.4
		c-0.8,0.1-1.2,0.2-1.5,0.9c-0.6,1.2-1.2,2.4-1.8,3.6c-0.8,1.4,0.3,3.1,1.9,3.1c0.9,0,1.7-0.2,2.5-0.6c3.8-2.2,6.7-6.4,9.1-11.1
		c0.7-1.4,2.7-1.6,3.6-0.3c2.3,3.2,5.4,6.6,9.1,4.9c4.9-2.3,7.2-6.7,10-13.5c2.8-6.8,2.1-4.8,2.1-4.8s-0.5,9.9,10,11.3
		c1.5,0.2,3.1-0.2,4.4-1c7.9-5,8.4-11.1,8.3-13.1C319.6,198.1,319.5,197.7,319.2,197.3L319.2,197.3z"/>
	<path class="st3" d="M213,234.3c-1,0.6-17.2,10.3-25,3.9c-3.1-2.5-3.7-6.7-3.9-11c-1.2-21,5.7-38.7,8.3-44.8
		c8.8-21,18.3-30.1,22.5-33.8c3.5-3.1,10.8-9.4,14.2-7.3c5.1,3-1.8,23.4-2.7,25.9c-1.9,5.6-4.1,9.9-5.6,12.7l-2,1.7
		c0,0-6.8,3.9-0.5,6.4c6.4,2.4,12.6-8.1,12.6-8.1c0,0,12.8-19.9,9.2-38.2c-0.6-3.1-1.2-5.8-3.4-8.1c-6.1-6.3-19-4.1-26.9-0.2
		c-6.9,3.4-10.9,8.4-16.1,15.2c-4.2,5.4-6.6,9.8-9.8,15.7c-5,9.3-9.1,16.9-12.2,27.9c-2.1,7.2-4.6,16.3-3.7,28.1
		c0.6,8.4,1.1,15.1,6.1,21c8.6,10.3,23,9.6,24.2,9.5c12.3-0.8,21.4-9.5,29.5-18.3c14.4-15.5,23.2-38.5,17.6-44.2
		c-1.1-1.1-3.1-2.4-3-0.9c0,4.4-2.1,11.5-4.4,16.4C234.6,211.2,231.6,222.6,213,234.3z"/>
	<g>
		<path class="st3" d="M247.5,102.2c-5.1,7.2-9.9,7.3-7.2-6.5c2.7-13.9,9.9-45.8,10.4-60.2s-5.7-8.7-5.7-8.7l-4.8-1.1
			c0,0-7.1-5.1-6,5.2c1,10.3-4.1,31.9-4.1,31.9s-12.9-11.8-27.8,12.3c-14.9,24.2-5.1,43.2-5.1,43.2s10.8,13.4,22.6,5.1
			c7.5-7.6,7.2-12.3,7.2-12.3s7.2,10.3,13.9,7.2c4.3-2,7.8-5.3,10.2-10c-1-4.2,0.2-9.2,0-13.6C250.1,97.8,248.5,100.8,247.5,102.2z
			 M228.5,78.6c-0.2,0.2-0.3,0.5-0.4,1.6c-0.7,5.4-1.7,22-9.1,32.4c-0.7,0.9-3.6,5-5.4,4.4c-0.7-0.2-1.8-1-2.3-4.2
			c-1-6.2,0.1-9.8,0.1-9.8c2-16.2,10.9-30,14-31.9c0.2-0.1,1-0.6,1.3-0.3c0.5,0.4-0.8,2.8-0.7,3.9c0.1,1.5,0,2.7,0,2.7
			s1.4,0.5,2.3,0.6c0.3,0,0.4,0.1,0.4,0.1C228.8,78.3,228.6,78.5,228.5,78.6z"/>
		<path class="st3" d="M249,99.7c0,0,10.2-21.4,10.4-26.7c0.2-5.3-1-3.7-2-7.1c-1-3.3-4.1-9.8-0.8-16.1c3.3-6.3,8.2-5.7,8.2-5.7
			s6-1.1,8.4,3.5c1.9,3.6-0.2,7.4-1,9.8c-0.8,2.4-3.1,9.4,2.4,11c5.5,1.6,9,1.8,8.8,7.1s-2.4,17.8-2.4,17.8s-1.2,10.6,2.4,4.3
			c3.5-6.3,6.5-16.1,6.5-16.1l4.7,6.9c0,0-6.7,17.4-11.8,18.3s-9.8-1.2-9.8-1.2s-7.6-3.3-6.1-16.8c1.6-13.5,1.6-13.5,1.6-13.5
			s-1.2-3.3-1.8-1c-0.6,2.4-8.6,22.4-15.6,33.9C246.9,115.4,249,99.7,249,99.7z"/>
	</g>
	<path class="st3" d="M337,47.6c-2.1,0-3.5,0-3.5,0s-0.6-0.2-1,0.1c-0.3,0.2-0.3,0.5-0.3,0.6c-0.2,1.3-4.7,17.1-7.2,23.4
		c-1.3,3.2-4.9,11.9-13.4,16.3c-0.9,0.4-1.6,0.7-2.1,0.9c0,0-5.9,1-4.6-8.2c8.9-4.6,13.8-17.1,13.8-17.1c5.1-10.6,5.3-19.7,1.5-22.4
		c-4.5-3.2-13.7,3.1-15.6,4.4c-10.1,6.9-19.2,21.2-15.9,35.6c0.4,2,3,13.4,12,16.6c4.9,1.7,9.5,0.2,11.5-0.5
		c11.8-4.1,17.1-17.3,21.2-27.3c2-4.9,4.4-12,5.7-21C338.9,48.9,339.1,47.6,337,47.6z M308.7,56.2c1.9-4.3,5.3-10.3,6.9-9.8
		c1.2,0.4,0.9,4.2,0.8,5.5c-0.8,11.2-11,20.8-11,20.8S306,62.4,308.7,56.2z"/>
	<path class="st3" d="M188.4,121.2c2.7-6.9,2.4-13.2,2.6-17.6c0.3-7.1-0.5-9.4-1.2-10.9c-1.9-3.7-5.7-7.3-10.7-8.2
		c-1.5-0.3-6.5-1.2-10.8,2.2c-4.6,3.7-4.5,9.4-4.5,10.1c-0.8-1.1-2.6-3.2-5.5-4.4c-4-1.7-7.1,5.3-6.1,6.1c1.1,1,1.1,2.5,1,2.7
		l-0.9,14.3c0,0-2,15.9,3.9,20.5c5.3,4.1,10.6,3.6,10.6,3.6s-3.4-10.1-1.6-19c1.1-5,2.3-18.4,3.8-23.1c1.5-4.7,6.9-9.4,7.1-0.6
		s-0.1,16-0.1,16l-0.7,11.1c0,0,0.5,5.5,4.6,7.2c5.8,2.5,9.3,1.8,9.3,1.8S186,127.2,188.4,121.2z"/>
	<path class="st3" d="M190.1,115.1c0,0-0.7,10.4,2.9,8.5c3.6-1.9,3.2-3.2,4.1-6.6c0.9-3.4,5.3,4.7,5.3,4.7s-2.2,5.6-5.7,8
		c-3.4,2.4-7.4,3.1-7.4,3.1l-8.1-15.2l5.4-3.3L190.1,115.1z"/>
	<path class="st3" d="M258.2,288.3c0,0,48-44.6,94-51.4s17.8-10.1,17.8-10.1s-35.5-0.9-68.7,13.8c-33.2,14.7-50.2,29.8-50.2,29.8
		s-7.7,9.6-7.7,14.1s-1.1,6.5,2.7,6.9C250,291.8,258.2,288.3,258.2,288.3z"/>
	<path class="st3" d="M334.9,74.3"/>
	<path class="st3" d="M152.7,98.9c0,0-1-2.4-2.6,0c-1.7,2.4-4.2,23.8-4.2,23.8s-3.2,19.4-5.3,21.9c-3.9,4.6-7.8,3.3-7.8,3.3
		l5.2-16.7c0,0,0.3,3.8,1.7,1.7s4.9-22.6,4.9-22.6S147,89.5,156.8,92C166.7,94.5,152.7,98.9,152.7,98.9z"/>
</g>
</svg>
