<?xml version="1.0" encoding="utf-8"?>
<!-- Generator: Adobe Illustrator 20.0.0, SVG Export Plug-In . SVG Version: 6.00 Build 0)  -->
<svg version="1.1"
	 id="svg8" inkscape:version="0.92.1 r15371" sodipodi:docname="arrow-left.svg" xmlns:cc="http://creativecommons.org/ns#" xmlns:dc="http://purl.org/dc/elements/1.1/" xmlns:inkscape="http://www.inkscape.org/namespaces/inkscape" xmlns:rdf="http://www.w3.org/1999/02/22-rdf-syntax-ns#" xmlns:sodipodi="http://sodipodi.sourceforge.net/DTD/sodipodi-0.dtd" xmlns:svg="http://www.w3.org/2000/svg"
	 xmlns="http://www.w3.org/2000/svg" xmlns:xlink="http://www.w3.org/1999/xlink" x="0px" y="0px" viewBox="0 0 437 243"
	 style="enable-background:new 0 0 437 243;" xml:space="preserve">
<style type="text/css">
	.st0{fill:#B1B1B1;}
</style>
<sodipodi:namedview  bordercolor="#666666" borderopacity="1.0" id="base" inkscape:current-layer="layer1" inkscape:cx="171.25988" inkscape:cy="560" inkscape:document-units="mm" inkscape:guide-bbox="true" inkscape:pageopacity="0.0" inkscape:pageshadow="2" inkscape:window-height="705" inkscape:window-maximized="1" inkscape:window-width="1366" inkscape:window-x="-8" inkscape:window-y="-8" inkscape:zoom="0.74101562" pagecolor="#ffffff" showgrid="false" showguides="true">
	<sodipodi:guide  id="guide3680" inkscape:locked="false" orientation="0,1" position="45.345984,201.73608"></sodipodi:guide>
	<sodipodi:guide  id="guide3682" inkscape:locked="false" orientation="0,1" position="31.420839,146.74961"></sodipodi:guide>
	<sodipodi:guide  id="guide3684" inkscape:locked="false" orientation="1,0" position="31.063784,201.73609"></sodipodi:guide>
	<sodipodi:guide  id="guide3686" inkscape:locked="false" orientation="1,0" position="62.484623,201.73609"></sodipodi:guide>
	<sodipodi:guide  id="guide3688" inkscape:locked="false" orientation="1,0" position="149.9631,171.74346"></sodipodi:guide>
	<sodipodi:guide  id="guide3690" inkscape:locked="false" orientation="0,1" position="73.910385,174.24284"></sodipodi:guide>
</sodipodi:namedview>
<path class="st0" d="M133.4,2c5.4,5.9,19.9,21.4,19.9,21.4s-58.6,54.5-86.2,80.1c-0.8,0.7-1.8,1.2-2.7,1.8c0.2,0.7,0.2,0.7,0.4,1.4
	l368,0v29c-2.2,0.1-243.4,0.2-361.9,0.2c-2,0-4,0-5.9,0c-0.6,2,1.1,2.5,1.9,3.3c27.4,25.5,59.1,55.1,86.7,80.5
	c-2.7,2.9-22.3,20.6-22.3,20.6c-3.9-3.5-28.5-27.3-41.1-39C63.1,176,36,150.7,8.8,125.5c-1-0.9-0.8-0.8-3.4-3.2
	c-0.7-0.7-0.6-1.3,0.2-2c1.7-1.4,2.3-2.1,3.5-3.2C49.3,79.8,131.4,3.7,133.4,2z"/>
</svg>
