<?xml version="1.0" encoding="utf-8"?>
<!-- Generator: Adobe Illustrator 20.0.0, SVG Export Plug-In . SVG Version: 6.00 Build 0)  -->
<svg version="1.1" id="Capa_1" xmlns="http://www.w3.org/2000/svg" xmlns:xlink="http://www.w3.org/1999/xlink" x="0px" y="0px"
	 viewBox="0 0 216 144" style="enable-background:new 0 0 216 144;" xml:space="preserve">
<style type="text/css">
	.st0{fill:#FFFFFF;}
	.st1{fill:none;stroke:#747776;stroke-miterlimit:10;}
	.st2{fill:#A13CD6;}
	.st3{opacity:0.7;fill:#FB2700;}
	.st4{fill:#54EAB4;}
	.st5{fill:#747776;}
	.st6{fill:none;stroke:#747776;stroke-width:2;stroke-miterlimit:10;}
	.st7{fill:none;stroke:#747776;stroke-width:3;stroke-linecap:round;stroke-linejoin:round;}
	.st8{fill:none;stroke:#686A69;stroke-width:2;stroke-miterlimit:10;}
	.st9{fill:#686A69;}
	.st10{fill:none;stroke:#747776;stroke-width:2.2;stroke-linecap:round;stroke-linejoin:round;}
	.st11{fill:none;stroke:#747776;stroke-width:2.5;stroke-miterlimit:10;}
	.st12{fill:#605D5D;}
	.st13{opacity:0.7;fill:#8E1FAA;}
	.st14{opacity:0.7;fill:#610971;}
	.st15{fill:#610971;}
	.st16{fill:#8C62C3;}
</style>
<path class="st0" d="M357,108h31c0,0-0.5,10.6,0,13.3c0.5,2.7,1.6,6.1,6.4,6.1s5.5,4.6,5.5,4.6H345c0,0,2.8-3.6,6.2-4.7
	c3.4-1.1,6-2.1,6-6.3C357.2,116.8,357,108,357,108z"/>
<g>
	<ellipse class="st1" cx="299.2" cy="20.3" rx="2.8" ry="2.6"/>
	<ellipse class="st1" cx="308.7" cy="20.3" rx="2.8" ry="2.6"/>
	<ellipse class="st1" cx="318.1" cy="20.3" rx="2.8" ry="2.6"/>
</g>
<ellipse class="st2" cx="308.7" cy="20.3" rx="1.9" ry="1.8"/>
<ellipse class="st3" cx="299.2" cy="20.3" rx="1.9" ry="1.8"/>
<ellipse class="st4" cx="318.1" cy="20.3" rx="1.9" ry="1.8"/>
<path class="st5" d="M447.7,29.8H296.6c-0.7,0-1.3-0.6-1.3-1.3v0c0-0.7,0.6-1.3,1.3-1.3h151.1c0.7,0,1.3,0.6,1.3,1.3v0
	C449,29.3,448.4,29.8,447.7,29.8z"/>
<path class="st5" d="M390,92.1h-12.9c-0.9,0-1.7-0.8-1.7-1.7l0,0c0-0.9,0.8-1.7,1.7-1.7H390c0.9,0,1.7,0.8,1.7,1.7l0,0
	C391.7,91.3,390.9,92.1,390,92.1z"/>
<path class="st5" d="M355,62.1h-16.2c-0.9,0-1.7-0.8-1.7-1.7v0c0-0.9,0.8-1.7,1.7-1.7H355c0.9,0,1.7,0.8,1.7,1.7v0
	C356.7,61.3,355.9,62.1,355,62.1z"/>
<path class="st5" d="M355,91.8h-16.2c-0.9,0-1.7-0.8-1.7-1.7v0c0-0.9,0.8-1.7,1.7-1.7H355c0.9,0,1.7,0.8,1.7,1.7v0
	C356.7,91,355.9,91.8,355,91.8z"/>
<path class="st5" d="M407.3,85.3h-25.9c-0.9,0-1.7-0.8-1.7-1.7l0,0c0-0.9,0.8-1.7,1.7-1.7h25.9c0.9,0,1.7,0.8,1.7,1.7l0,0
	C409,84.5,408.3,85.3,407.3,85.3z"/>
<path class="st5" d="M381.9,62.1h-10.6c-0.9,0-1.7-0.8-1.7-1.7v0c0-0.9,0.8-1.7,1.7-1.7h10.6c0.9,0,1.7,0.8,1.7,1.7v0
	C383.6,61.3,382.8,62.1,381.9,62.1z"/>
<path class="st2" d="M364,62.1h-2.7c-0.9,0-1.7-0.8-1.7-1.7v0c0-0.9,0.8-1.7,1.7-1.7h2.7c0.9,0,1.7,0.8,1.7,1.7v0
	C365.7,61.3,364.9,62.1,364,62.1z"/>
<path class="st2" d="M372.3,85h-2.7c-0.9,0-1.7-0.8-1.7-1.7v0c0-0.9,0.8-1.7,1.7-1.7h2.7c0.9,0,1.7,0.8,1.7,1.7v0
	C374,84.2,373.2,85,372.3,85z"/>
<path class="st5" d="M371,46.6h-32.7c-0.9,0-1.7-0.8-1.7-1.7l0,0c0-0.9,0.8-1.7,1.7-1.7H371c0.9,0,1.7,0.8,1.7,1.7v0
	C372.7,45.8,372,46.6,371,46.6z"/>
<path class="st5" d="M359.5,54.3h-10.9c-0.9,0-1.7-0.8-1.7-1.7v0c0-0.9,0.8-1.7,1.7-1.7h10.9c0.9,0,1.7,0.8,1.7,1.7v0
	C361.2,53.6,360.4,54.3,359.5,54.3z"/>
<path class="st5" d="M403.5,54.3h-37.2c-0.9,0-1.7-0.8-1.7-1.7v0c0-0.9,0.8-1.7,1.7-1.7h37.2c0.9,0,1.7,0.8,1.7,1.7v0
	C405.2,53.6,404.4,54.3,403.5,54.3z"/>
<path class="st2" d="M340.3,54.3h-1.7c-0.9,0-1.7-0.8-1.7-1.7v0c0-0.9,0.8-1.7,1.7-1.7h1.7c0.9,0,1.7,0.8,1.7,1.7v0
	C342,53.6,341.2,54.3,340.3,54.3z"/>
<path class="st5" d="M397,78.2h-58.3c-0.9,0-1.7-0.8-1.7-1.7v0c0-0.9,0.8-1.7,1.7-1.7H397c0.9,0,1.7,0.8,1.7,1.7v0
	C398.7,77.4,398,78.2,397,78.2z"/>
<path class="st2" d="M366,92.1h-2.2c-0.9,0-1.7-0.8-1.7-1.7v0c0-0.9,0.8-1.7,1.7-1.7h2.2c0.9,0,1.7,0.8,1.7,1.7l0,0
	C367.6,91.3,366.9,92.1,366,92.1z"/>
<path class="st5" d="M359.5,85h-20.7c-0.9,0-1.7-0.8-1.7-1.7v0c0-0.9,0.8-1.7,1.7-1.7h20.7c0.9,0,1.7,0.8,1.7,1.7v0
	C361.2,84.2,360.5,85,359.5,85z"/>
<path class="st6" d="M326.6,41.1c0-0.5-1.9-0.8-1.9,1.2c0.1,2,0,8.6,0,8.6s-1.4,1-2.1,1.5c-0.6,0.6,1.8,1.4,1.9,2.6
	c0.1,1.2,0.1,8.1,0.1,8.1s-0.1,1.5,1.5,1.3"/>
<path class="st6" d="M326.6,72.1c0-0.5-1.9-0.8-1.9,1.2c0.1,2,0,8.6,0,8.6s-1.4,1-2.1,1.5c-0.6,0.6,1.8,1.4,1.9,2.6
	c0.1,1.2,0.1,8.1,0.1,8.1s-0.1,1.5,1.5,1.3"/>
<g>
	<path class="st7" d="M357.2,113.2v7.9c0,0,0,6.3-6.7,6.3"/>
	<path class="st7" d="M394.4,127.3c-6.7,0-6.7-6.3-6.7-6.3v-7.9"/>
</g>
<path class="st8" d="M283.3,90.2c0,0,4-4.6,5.8-9.1c1.8-4.5-1.8-8.4-5.5-8.6c-5-0.2-7.7,4.3-6.3,8.8
	C278.3,84.3,283.3,90.2,283.3,90.2z"/>
<path class="st4" d="M283.3,73.4c-1.8,0-3.3,0.7-4.2,2c-1.1,1.5-1.4,3.5-0.8,5.6c0.6,1.9,3.3,5.6,5,7.6c1.2-1.5,3.6-4.8,4.9-7.9
	c0.7-1.6,0.5-3.3-0.4-4.7c-0.9-1.5-2.6-2.4-4.3-2.5C283.5,73.4,283.4,73.4,283.3,73.4z"/>
<path class="st8" d="M281.3,104.4c-2.7,0-6.4-0.3-11.5,0.6c-4.7,0.8-7.9-5-6.7-8.5c1.6-4.7,7.1-5.5,11.2-2.4
	C277,96.2,279.5,100.4,281.3,104.4z"/>
<path class="st4" d="M269,93.3c-0.6,0-1.2,0.1-1.7,0.2c-1.1,0.3-2.6,1.2-3.3,3.3c-0.6,1.6,0,3.9,1.4,5.6c0.7,0.8,2.1,2,4.1,1.7
	c4.3-0.8,7.7-0.7,10.1-0.7c-1.9-3.9-4-6.9-6-8.4C272.2,93.9,270.6,93.3,269,93.3z"/>
<path class="st8" d="M284.9,98c2.7,0,6.4-0.3,11.5,0.6c4.7,0.8,7.9-5,6.7-8.5c-1.6-4.7-7.1-5.5-11.2-2.4
	C289.2,89.8,286.7,94,284.9,98z"/>
<path class="st9" d="M283.4,110.5h-0.2c-0.7,0-1.2-0.5-1.2-1.2V89.7c0-0.7,0.5-1.2,1.2-1.2h0.2c0.7,0,1.2,0.5,1.2,1.2v19.6
	C284.6,110,284.1,110.5,283.4,110.5z"/>
<path class="st9" d="M298.5,117.3h1.1c0.6,0,1,0.5,0.9,1.1l-2.2,13.9c-0.1,0.9-0.8,1.4-1.5,1.4h-27c-0.8,0-1.5-0.5-1.6-1.4
	l-2.2-13.9c-0.1-0.6,0.3-1.1,0.9-1.1h1.1c0.6,0,1.1,0.4,1.2,1l2,12h24.2l1.9-12C297.4,117.7,297.9,117.3,298.5,117.3z"/>
<path class="st9" d="M303.7,113.4c0,0.9-0.8,1.6-1.6,1.6h-4.2h-29.2h-4.2c-0.9,0-1.6-0.8-1.6-1.6s0.8-1.6,1.6-1.6h2.3h33h2.3
	C303,111.8,303.7,112.6,303.7,113.4z"/>
<g>
	<line class="st10" x1="381.6" y1="131.8" x2="400.9" y2="131.8"/>
	<line class="st10" x1="372.1" y1="131.8" x2="373.4" y2="131.8"/>
	<line class="st10" x1="343.9" y1="131.8" x2="363.3" y2="131.8"/>
</g>
<path class="st11" d="M445,107H299.8c-5.3,0-9.7-4.4-9.7-9.7V19.4c0-5.3,4.4-9.7,9.7-9.7H445c5.3,0,9.7,4.4,9.7,9.7v77.9
	C454.7,102.6,450.4,107,445,107z"/>
<path class="st4" d="M288.6,97c2.2,0,4.9,0.1,8.2,0.7c2,0.4,3.5-0.9,4.1-1.7c1.4-1.6,2-3.9,1.4-5.6c-0.7-2.1-2.2-3-3.3-3.3
	c-2-0.6-4.4-0.1-6.3,1.4c-2,1.5-4.1,4.5-6,8.4C287.2,97,287.9,97,288.6,97z"/>
<g>
	<path class="st12" d="M283,67L283,67c-0.6,0-1-0.5-1-1v-9.6c0-0.6,0.5-1,1-1l0,0c0.6,0,1,0.5,1,1V66C284,66.5,283.5,67,283,67z"/>
	<path class="st12" d="M275.7,68.5L275.7,68.5c-0.5,0.2-1.1,0.1-1.4-0.4l-2.5-4.5c-0.3-0.5-0.1-1.1,0.4-1.4v0
		c0.5-0.2,1.1-0.1,1.4,0.4l2.5,4.5C276.4,67.6,276.2,68.3,275.7,68.5z"/>
	<path class="st12" d="M267.5,79.9L267.5,79.9c0,0.5-0.4,1-1,1l-5.4,0c-0.5,0-1-0.4-1-1v0c0-0.5,0.4-1,1-1l5.4,0
		C267.1,78.9,267.5,79.3,267.5,79.9z"/>
	<path class="st12" d="M290.7,68.8L290.7,68.8c-0.5-0.3-0.7-0.9-0.4-1.4l2.7-4.4c0.3-0.5,0.9-0.6,1.4-0.4l0,0
		c0.5,0.3,0.7,0.9,0.4,1.4l-2.7,4.4C291.8,68.9,291.2,69,290.7,68.8z"/>
	<path class="st12" d="M298.5,79.9L298.5,79.9c0-0.5,0.4-1,1-1l5.4,0c0.5,0,1,0.4,1,1l0,0c0,0.5-0.4,1-1,1l-5.4,0
		C299,80.9,298.5,80.4,298.5,79.9z"/>
	<path class="st12" d="M296.6,73.8L296.6,73.8c-0.3-0.5-0.2-1.1,0.3-1.4l8.4-5.4c0.5-0.3,1.1-0.2,1.4,0.3l0,0
		c0.3,0.5,0.2,1.1-0.3,1.4l-8.4,5.4C297.5,74.3,296.9,74.2,296.6,73.8z"/>
	<path class="st12" d="M260,66.9L260,66.9c0.3-0.4,1-0.5,1.4-0.2l8,5.9c0.5,0.3,0.5,1,0.2,1.4l0,0c-0.3,0.4-1,0.5-1.4,0.2l-8-5.9
		C259.7,68,259.6,67.4,260,66.9z"/>
</g>
<path class="st4" d="M304.7-80h45c0,0,1.3,11.8-7.5,21c-8.8,9.2-28.2,5.6-33.2-3.8S304.7-80,304.7-80z"/>
<path class="st13" d="M242.5-128h-47.3c-0.7,0-1.3,0.1-1.3,1v24.1c0,0.9,0.8,1.6,1.6,1.6l47.1,0c0.6,0,1-0.7,1-1.4l0-23.6
	C243.7-127.2,243.7-128,242.5-128z"/>
<path class="st14" d="M244-153.3c0-1-1-1.7-1.8-1.7l-77.5,0c-1.2,0-1.8,0.9-1.8,1.7v13.8c0,0.8,0.7,1.5,1.6,1.6h77.4
	c0.9,0,1.9-0.7,1.9-1.7V-153.3z"/>
<g>
	<path class="st0" d="M298-48.5c-0.9,1-2.3,1.5-3.6,1.5h-179c-1.4,0-2.7-0.5-3.6-1.5c-0.9-1-1.4-2.5-1.3-3.9
		c0.2-2.5,2.5-4.6,5.1-4.6h5.9h70.9h1.1c0.7,0,1.4,0,2,0h3h15.1h0.7c0.8,0,1.4,0,2,0h2.3h69.7h5.9c2.6,0,4.9,2.1,5.1,4.6
		C299.4-51,298.9-49.5,298-48.5z"/>
	<path class="st9" d="M122-114.2c0.6,0,1-0.5,1-1v-1v-1.1v-3.5c0-0.6-0.4-1-1-1s-1,0.5-1,1v3.1v1.5v1
		C121-114.7,121.4-114.2,122-114.2z"/>
	<path class="st9" d="M287-74.9c0.6,0,1-0.5,1-1v-0.3v-0.7v-0.6v0c0-0.6-0.4-1-1-1s-1,0.5-1,1v0.1v0.4v0.7v0.3
		C286-75.4,286.4-74.9,287-74.9z"/>
	<path class="st9" d="M286-62.8c0,0.6,0.4,1,1,1s1-0.5,1-1v-1v-0.3v-0.7v0v-0.4l0.1-1.2c0-0.6-0.4-1-1-1c-0.6,0-1,0.4-1.1,1l0,1.3
		v0.1v0.3l0,1c0,0,0,0,0,0v0V-62.8z"/>
	<path class="st9" d="M214.7-56.1L214.7-56.1c-0.4,0-0.8,0.3-1,0.6c-0.7,1.4-2,2.5-3.5,2.5h-10.8c-1.5,0-2.9-1.1-3.5-2.5
		c-0.2-0.4-0.6-0.6-1-0.6c-0.8,0-1.3,0.8-1,1.5c0.9,2.3,3.1,3.5,5.5,3.5h10.8c2.5,0,4.6-1.2,5.5-3.5C216-55.3,215.5-56.1,214.7-56.1
		z"/>
	<path class="st9" d="M301.2-52.6c-0.3-3.5-3.5-6.4-7.1-6.4h-4h-2c-0.8,0-1.5,0-2,0H124.8h-2c-0.8,0-1.5,0-2,0h-5.3
		c-3.7,0-6.8,2.9-7.1,6.4c-0.2,1.9,0.5,3.9,1.8,5.3c1.3,1.4,3.2,2.3,5.1,2.3h179c1.9,0,3.8-0.8,5.1-2.3
		C300.8-48.7,301.4-50.7,301.2-52.6z M298-48.6c-0.9,1-2.3,1.6-3.6,1.6h-179c-1.4,0-2.7-0.5-3.6-1.6c-0.9-1-1.4-2.5-1.3-3.9
		c0.2-2.5,2.5-4.6,5.1-4.6h5.9h70.9h1.1c0.7,0,1.4,0,2,0h3h15.1h0.7c0.8,0,1.4,0,2,0h2.3h69.7h5.9c2.6,0,4.9,2.1,5.1,4.6
		C299.4-51.1,298.9-49.6,298-48.6z"/>
	<path class="st9" d="M121.9-131c0.5,0,1-0.4,1-0.9c0,0,0,0,0,0v-0.1v-10.7V-160c0-4.4,4-8,8.4-8h147c4.4,0,7.7,3.6,7.7,8v63.4v1.3
		v1.8v1.1v0.1v0.3v0.4v0.6v0.7v1.8v1.1v0.4v1c0,0.6,0.4,1,1,1s1-0.5,1-1v-1v-0.6v-0.6v-2.2v-0.7v-0.6V-92v-0.3v-0.2v-0.6v-2.2v-1.3
		v-63c0-5.5-4.2-10.4-9.7-10.4h-147c-5.5,0-10.4,4.9-10.4,10.4v17v10.5v0.1C121-131.4,121.4-131,121.9-131z"/>
	<path class="st9" d="M246-126.2c0-1.9-1.5-3.8-3.4-3.8h-47.5c-1.9,0-3.1,1.8-3.1,3.8v22.3c0,1.9,1.2,4,3.1,4h47.5
		c1.9,0,3.4-2,3.4-4V-126.2z M244-104c0,0.8-0.6,2-1.4,2h-47.5c-0.8,0-1.1-1.2-1.1-2v-22.3c0-0.8,0.3-1.8,1.1-1.8h47.5
		c0.8,0,1.4,1,1.4,1.8V-104z"/>
	<path class="st9" d="M242.6-94h-47.5c-1.9,0-3.1,1.1-3.1,2.9v21.5c0,1.8,1.2,3.6,3.1,3.6h47.5c1.9,0,3.4-1.7,3.4-3.6v-21.5
		C246-92.9,244.5-94,242.6-94z M244-69.6c0,0.8-0.6,1.6-1.4,1.6h-47.5c-0.8,0-1.1-0.8-1.1-1.6v-21.5c0-0.8,0.3-0.9,1.1-0.9h47.5
		c0.8,0,1.4,0.2,1.4,0.9V-69.6z"/>
	<path class="st3" d="M244-69.3c0,0.8-0.8,1.3-1.6,1.3h-47.5c-0.8,0-0.9-0.5-0.9-1.3v-21.5c0-0.8,0.1-1.2,0.9-1.2h47.5
		c0.8,0,1.6,0.5,1.6,1.2V-69.3z"/>
	<path class="st9" d="M187-126.5c0-1.9-1.6-3.5-3.5-3.5h-19c-1.9,0-3.5,1.6-3.5,3.5v57c0,1.9,1.6,3.5,3.5,3.5h19
		c1.9,0,3.5-1.6,3.5-3.5V-126.5z M185-70.5c0,0.8-0.7,1.5-1.5,1.5h-19c-0.8,0-1.5-0.7-1.5-1.5v-56c0-0.8,0.7-1.5,1.5-1.5h19
		c0.8,0,1.5,0.7,1.5,1.5V-70.5z"/>
	<path class="st9" d="M246-153.3c0-2-1.7-3.7-3.7-3.7h-77.6c-2,0-3.7,1.7-3.7,3.7v13.6c0,2,1.7,3.7,3.7,3.7h77.6
		c2,0,3.7-1.7,3.7-3.7V-153.3z M244-139.7c0,0.9-0.7,1.7-1.7,1.7h-77.7c-0.9,0-1.7-0.7-1.7-1.7v-13.7c0-0.9,0.7-1.7,1.7-1.7h77.7
		c0.9,0,1.7,0.7,1.7,1.7V-139.7z"/>
	<path class="st9" d="M122-61.8c0.6,0,1-0.5,1-1v-0.3v-0.7v-1.1v-3.5v-33.5v-0.4v-1.7c0-0.6-0.4-1-1-1s-1,0.5-1,1v1.7v0.4v33.5v3.1
		v1.5v0.7v0.3C121-62.3,121.4-61.8,122-61.8z"/>
</g>
<path class="st9" d="M273.4-84.8l-7.4-7.4l2-2c0.7-0.7,1-1.7,0.8-2.7c-0.2-1-0.9-1.8-1.8-2.1l-9.8-3.6c-1.1-0.4-2.3-0.1-3.1,0.7
	c-0.8,0.8-1.1,2-0.7,3.1l3.6,9.8c0.3,0.9,1.1,1.6,2.1,1.8c0.2,0,0.4,0.1,0.6,0.1c0.8,0,1.5-0.3,2.1-0.9l2-2l7.4,7.4
	c0.3,0.3,0.7,0.4,1,0.4s0.8-0.1,1-0.4C274-83.3,274-84.3,273.4-84.8z M259.8-90.2L259.8-90.2l-3.6-9.8l9.8,3.6l-3,3c0,0,0,0,0,0
	c0,0,0,0,0,0L259.8-90.2z"/>
<g>
	<path class="st9" d="M335.7-49h-17.8c-0.8,0-1.5,0.7-1.8,1.4c-0.4,1.2,0.5,2.6,1.7,2.6h17.8c0.8,0,1.5-0.7,1.8-1.4
		C337.8-47.6,336.9-49,335.7-49z"/>
	<path class="st9" d="M355.8-83h-12.9h-2.7H340c-1,0-1.8,1-1.8,2s0.8,2,1.8,2h0.1h2.7h4.4c0,0,0.7,0.1,0.7,0.1v2.6
		c0,11.6-9.6,20.9-21.2,20.5c-11.1-0.4-19.8-9.9-19.8-21v-2.1c0,0-0.8-0.1-0.7-0.1H324h2.8h0.1c1,0,1.8-1,1.8-2s-0.8-2-1.8-2h-0.1
		H324h-19.6c-1,0-1.5,1.3-1.5,2.3v3.9c0,13.3,10.3,24.5,23.6,24.7c10.7,0.1,19.9-6.4,23.3-15.9c1.6-4.8,1.5-4.8,1.8-8.2
		c0.1-0.7,0-2.6,0-2.6c0,0,3.9-0.1,3.9-0.1c2.3,0,4.4,1.6,5,3.8c0.8,3.2-1,6.2-4.1,6.2c0,0,0,0,0,0c0,0,0,0,0,0h-0.8
		c-1,0-2,0.8-2,1.7c0,0.9,0.4,1.6,1.4,1.7c0,0,0,0,0,0c2,0.2,2,0.1,3.7-0.6c2.5-1,4.5-3.3,5.2-5.9C365.3-77.6,361.1-83,355.8-83z"/>
	<path class="st9" d="M318.3-90.4c-0.6,0.6-0.6,1.8,0,2.4c0.4,0.4,0.8,0.5,1.3,0.5s0.9-0.2,1.3-0.5c2-2,2-5.2,0-7.1
		c-0.6-0.6-0.6-1.7,0-2.3c1-1,0.4-3.2-1.6-2.8c-0.5,0.1-0.9,0.4-1.2,0.8c-1.6,2-1.5,4.9,0.4,6.7C319-92.1,319-91.1,318.3-90.4z"/>
	<path class="st9" d="M325.4-90.4c-0.6,0.6-0.6,1.8,0,2.4c0.4,0.4,0.8,0.5,1.3,0.5s0.9-0.2,1.3-0.5c2-2,2-5.2,0-7.1
		c-0.6-0.6-0.6-1.7,0-2.3c1-1,0.4-3.2-1.6-2.8c-0.5,0.1-0.9,0.4-1.2,0.8c-1.6,2-1.5,4.9,0.4,6.7C326.1-92.1,326.1-91.1,325.4-90.4z"
		/>
	<path class="st9" d="M332.6-90.4c-0.6,0.6-0.6,1.8,0,2.4c0.4,0.4,0.8,0.5,1.3,0.5s0.9-0.2,1.3-0.5c2-2,2-5.2,0-7.1
		c-0.6-0.6-0.6-1.7,0-2.3c1-1,0.4-3.2-1.6-2.8c-0.5,0.1-0.9,0.4-1.2,0.8c-1.6,2-1.5,4.9,0.4,6.7C333.3-92.1,333.3-91.1,332.6-90.4z"
		/>
	<path class="st9" d="M333.2-83c-1,0-1.8,1-1.8,2s0.8,2,1.8,2h1.3c1,0,1.8-1,1.8-2s-0.8-2-1.8-2H333.2z"/>
</g>
<g>
	<path class="st12" d="M253.1-103.3L253.1-103.3c-0.2,0.2-0.5,0.2-0.7,0l-3.1-3.2c-0.2-0.2-0.2-0.5,0-0.7l0,0c0.2-0.2,0.5-0.2,0.7,0
		l3.1,3.2C253.3-103.8,253.3-103.5,253.1-103.3z"/>
	<path class="st12" d="M251.3-100.3L251.3-100.3c-0.1,0.2-0.3,0.4-0.6,0.3l-2.3-0.7c-0.3-0.1-0.4-0.4-0.3-0.6l0,0
		c0.1-0.2,0.3-0.4,0.6-0.3l2.3,0.7C251.2-100.9,251.3-100.6,251.3-100.3z"/>
	<path class="st12" d="M252.3-93.9L252.3-93.9c0.2,0.2,0.2,0.5,0,0.7l-1.8,1.8c-0.2,0.2-0.5,0.2-0.6,0l0,0c-0.2-0.2-0.2-0.5,0-0.7
		l1.8-1.8C251.8-94,252.1-94,252.3-93.9z"/>
	<path class="st12" d="M256.2-105.2L256.2-105.2c-0.3,0.1-0.5-0.1-0.6-0.3l-0.6-2.4c-0.1-0.3,0.1-0.5,0.3-0.6l0,0
		c0.3-0.1,0.5,0.1,0.6,0.3l0.6,2.4C256.6-105.6,256.4-105.3,256.2-105.2z"/>
	<path class="st12" d="M262.3-104.2L262.3-104.2c-0.2-0.2-0.2-0.5,0-0.7l1.8-1.8c0.2-0.2,0.5-0.2,0.6,0l0,0c0.2,0.2,0.2,0.5,0,0.7
		l-1.8,1.8C262.8-104,262.5-104,262.3-104.2z"/>
	<path class="st12" d="M259.7-105.5L259.7-105.5c-0.3,0-0.4-0.3-0.4-0.6l1-4.6c0.1-0.2,0.3-0.4,0.5-0.4l0,0c0.3,0,0.4,0.3,0.4,0.6
		l-1,4.6C260.2-105.6,260-105.5,259.7-105.5z"/>
	<path class="st12" d="M245.7-95.7L245.7-95.7c0-0.2,0.1-0.5,0.4-0.5l4.5-0.7c0.3,0,0.5,0.1,0.5,0.4v0c0,0.2-0.1,0.5-0.4,0.5
		l-4.5,0.7C245.9-95.2,245.7-95.4,245.7-95.7z"/>
</g>
<path class="st0" d="M107.9,110h31c0,0-0.5,10.6,0,13.3c0.5,2.7,1.6,6.1,6.4,6.1s5.5,4.6,5.5,4.6H95.9c0,0,0.8-4.3,6.2-4.7
	c3.5-0.3,6-2.1,6-6.3C108,118.8,107.9,110,107.9,110z"/>
<g>
	<path class="st5" d="M51.2,25.4c-1.8,0-3.3-1.4-3.3-3.1s1.5-3.1,3.3-3.1s3.3,1.4,3.3,3.1S53,25.4,51.2,25.4z M51.2,20.2
		c-1.3,0-2.3,1-2.3,2.1s1,2.1,2.3,2.1s2.3-1,2.3-2.1S52.4,20.2,51.2,20.2z"/>
	<path class="st5" d="M60.7,25.4c-1.8,0-3.3-1.4-3.3-3.1s1.5-3.1,3.3-3.1s3.3,1.4,3.3,3.1S62.5,25.4,60.7,25.4z M60.7,20.2
		c-1.3,0-2.3,1-2.3,2.1s1,2.1,2.3,2.1s2.3-1,2.3-2.1S62,20.2,60.7,20.2z"/>
	<path class="st5" d="M70.1,25.4c-1.8,0-3.3-1.4-3.3-3.1s1.5-3.1,3.3-3.1s3.3,1.4,3.3,3.1S71.9,25.4,70.1,25.4z M70.1,20.2
		c-1.3,0-2.3,1-2.3,2.1s1,2.1,2.3,2.1s2.3-1,2.3-2.1S71.3,20.2,70.1,20.2z"/>
</g>
<ellipse class="st2" cx="60.7" cy="22.3" rx="2.3" ry="2.1"/>
<ellipse class="st3" cx="51.2" cy="22.3" rx="2.3" ry="2.1"/>
<ellipse class="st15" cx="70.1" cy="22.3" rx="2.3" ry="2.1"/>
<path class="st5" d="M198.8,31.8H47.7c-0.7,0-1.3-0.6-1.3-1.3v0c0-0.7,0.6-1.3,1.3-1.3h151.1c0.7,0,1.3,0.6,1.3,1.3v0
	C200.1,31.3,199.5,31.8,198.8,31.8z"/>
<g>
	<path class="st5" d="M147.5,94.1h-12.9c-0.9,0-1.7-0.8-1.7-1.7l0,0c0-0.9,0.8-1.7,1.7-1.7h12.9c0.9,0,1.7,0.8,1.7,1.7l0,0
		C149.2,93.3,148.4,94.1,147.5,94.1z"/>
	<path class="st5" d="M112.5,64.1H96.3c-0.9,0-1.7-0.8-1.7-1.7v0c0-0.9,0.8-1.7,1.7-1.7h16.2c0.9,0,1.7,0.8,1.7,1.7v0
		C114.2,63.3,113.4,64.1,112.5,64.1z"/>
	<path class="st5" d="M112.5,93.8H96.3c-0.9,0-1.7-0.8-1.7-1.7v0c0-0.9,0.8-1.7,1.7-1.7h16.2c0.9,0,1.7,0.8,1.7,1.7v0
		C114.2,93,113.4,93.8,112.5,93.8z"/>
	<path class="st5" d="M164.8,87.3h-25.9c-0.9,0-1.7-0.8-1.7-1.7l0,0c0-0.9,0.8-1.7,1.7-1.7h25.9c0.9,0,1.7,0.8,1.7,1.7l0,0
		C166.5,86.5,165.8,87.3,164.8,87.3z"/>
	<path class="st5" d="M139.4,64.1h-10.6c-0.9,0-1.7-0.8-1.7-1.7v0c0-0.9,0.8-1.7,1.7-1.7h10.6c0.9,0,1.7,0.8,1.7,1.7v0
		C141.1,63.3,140.3,64.1,139.4,64.1z"/>
	<path class="st2" d="M121.5,64.1h-2.7c-0.9,0-1.7-0.8-1.7-1.7v0c0-0.9,0.8-1.7,1.7-1.7h2.7c0.9,0,1.7,0.8,1.7,1.7v0
		C123.2,63.3,122.4,64.1,121.5,64.1z"/>
	<path class="st2" d="M129.8,87h-2.7c-0.9,0-1.7-0.8-1.7-1.7v0c0-0.9,0.8-1.7,1.7-1.7h2.7c0.9,0,1.7,0.8,1.7,1.7v0
		C131.5,86.2,130.7,87,129.8,87z"/>
	<path class="st5" d="M128.5,48.6H95.8c-0.9,0-1.7-0.8-1.7-1.7l0,0c0-0.9,0.8-1.7,1.7-1.7h32.7c0.9,0,1.7,0.8,1.7,1.7v0
		C130.2,47.8,129.5,48.6,128.5,48.6z"/>
	<path class="st5" d="M117,56.3h-10.9c-0.9,0-1.7-0.8-1.7-1.7v0c0-0.9,0.8-1.7,1.7-1.7H117c0.9,0,1.7,0.8,1.7,1.7v0
		C118.7,55.6,118,56.3,117,56.3z"/>
	<path class="st5" d="M161,56.3h-37.2c-0.9,0-1.7-0.8-1.7-1.7v0c0-0.9,0.8-1.7,1.7-1.7H161c0.9,0,1.7,0.8,1.7,1.7v0
		C162.7,55.6,161.9,56.3,161,56.3z"/>
	<path class="st2" d="M97.8,56.3h-1.7c-0.9,0-1.7-0.8-1.7-1.7v0c0-0.9,0.8-1.7,1.7-1.7h1.7c0.9,0,1.7,0.8,1.7,1.7v0
		C99.5,55.6,98.7,56.3,97.8,56.3z"/>
	<path class="st5" d="M154.5,80.2H96.3c-0.9,0-1.7-0.8-1.7-1.7v0c0-0.9,0.8-1.7,1.7-1.7h58.3c0.9,0,1.7,0.8,1.7,1.7v0
		C156.2,79.4,155.5,80.2,154.5,80.2z"/>
	<path class="st2" d="M123.5,94.1h-2.2c-0.9,0-1.7-0.8-1.7-1.7v0c0-0.9,0.8-1.7,1.7-1.7h2.2c0.9,0,1.7,0.8,1.7,1.7l0,0
		C125.2,93.3,124.4,94.1,123.5,94.1z"/>
	<path class="st5" d="M117.1,87H96.3c-0.9,0-1.7-0.8-1.7-1.7v0c0-0.9,0.8-1.7,1.7-1.7h20.7c0.9,0,1.7,0.8,1.7,1.7v0
		C118.7,86.2,118,87,117.1,87z"/>
	<path class="st5" d="M83.4,67.5c-0.8,0-1.3-0.3-1.6-0.6c-0.7-0.7-0.7-1.7-0.7-1.8c0-2.3,0-7-0.1-7.9c0-0.2-0.6-0.6-0.9-0.8
		c-0.6-0.4-1.1-0.9-1.1-1.6c0-0.4,0.1-0.7,0.4-1c0.5-0.4,1.2-1,1.7-1.3c0-1.6,0.1-6.4,0-8.1c-0.1-1.4,0.7-2.1,1.1-2.3
		c0.6-0.4,1.5-0.5,2.1-0.1c0.4,0.2,0.7,1.1,0.7,1.1h-2c0,1,0.3,0.7,0.4,0.7c0,0-0.1,0-0.1,0.1c0,0-0.1,0.2-0.1,0.6
		c0.1,2,0,8.4,0,8.7l0,0.5l-0.4,0.3c-0.3,0.2-0.8,0.6-1.3,0.9c0.7,0.5,1.5,1.2,1.6,2.3c0.1,1.2,0.1,7.9,0.1,8.1c0,0.1,0,0.3,0.1,0.3
		c0,0,0.1,0,0.3,0l0.2,2C83.6,67.5,83.5,67.5,83.4,67.5z"/>
	<path class="st5" d="M83.4,98.5c-0.8,0-1.3-0.3-1.6-0.6c-0.7-0.7-0.7-1.7-0.7-1.8c0-2.3,0-7-0.1-7.9c0-0.2-0.6-0.7-0.9-0.8
		c-0.6-0.4-1.1-0.9-1.1-1.6c0-0.4,0.1-0.7,0.4-1c0.5-0.4,1.2-1,1.7-1.3c0-1.6,0.1-6.4,0-8.1c-0.1-1.4,0.7-2.1,1.1-2.3
		c0.6-0.4,1.5-0.5,2.1-0.1c0.4,0.2,0.7,1.1,0.7,1.1h-2c0,0,0.3,0.7,0.4,0.7c0,0-0.1,0-0.1,0.1c0,0-0.1,0.2-0.1,0.5
		c0.1,2,0,8.4,0,8.7l0,0.5l-0.4,0.3c-0.3,0.2-0.8,0.6-1.3,0.9c0.7,0.5,1.5,1.2,1.6,2.3c0.1,1.2,0.1,7.9,0.1,8.1c0,0.1,0,0.3,0.1,0.3
		c0,0,0.1,0,0.3,0l0.2,2C83.6,98.5,83.5,98.5,83.4,98.5z"/>
</g>
<g>
	<path class="st5" d="M101.4,130.8c-0.8,0-1.5-0.7-1.5-1.5s0.7-1.5,1.5-1.5c5,0,5.2-4.3,5.2-4.8v-7.9c0-0.8,0.7-1.5,1.5-1.5
		s1.5,0.7,1.5,1.5v7.9C109.5,125.7,107.8,130.8,101.4,130.8z"/>
	<path class="st5" d="M145.2,130.8c-6.5,0-8.2-5.1-8.2-7.8v-7.9c0-0.8,0.7-1.5,1.5-1.5s1.5,0.7,1.5,1.5v7.9c0,0.8,0.3,4.8,5.2,4.8
		c0.8,0,1.5,0.7,1.5,1.5S146.1,130.8,145.2,130.8z"/>
</g>
<path class="st9" d="M32.3,93.8l-0.8-0.9c-0.2-0.2-5.2-6.1-6.2-9.2c-0.8-2.6-0.4-5.4,1.1-7.4c1.4-1.9,3.6-2.8,6.1-2.7
	c2.3,0.1,4.6,1.4,5.9,3.4c1.3,2,1.5,4.3,0.5,6.5c-1.9,4.7-5.8,9.2-6,9.4L32.3,93.8z M32.3,75.5c-1.8,0-3.3,0.7-4.2,2
	C27,78.9,26.7,81,27.3,83c0.6,1.9,3.3,5.6,5,7.6c1.2-1.5,3.6-4.8,4.9-7.9c0.7-1.6,0.5-3.3-0.4-4.7c-0.9-1.5-2.6-2.4-4.3-2.5
	C32.5,75.5,32.4,75.5,32.3,75.5z"/>
<path class="st16" d="M32.3,75.4c-1.8,0-3.3,0.7-4.2,2c-1.1,1.5-1.4,3.5-0.8,5.6c0.6,1.9,3.3,5.6,5,7.6c1.2-1.5,3.6-4.8,4.9-7.9
	c0.7-1.6,0.5-3.3-0.4-4.7c-0.9-1.5-2.6-2.4-4.3-2.5C32.5,75.4,32.4,75.4,32.3,75.4z"/>
<path class="st9" d="M17.9,108.2c-1.8,0-3.6-0.8-4.9-2.4c-1.8-2.1-2.6-5.2-1.8-7.5c0.8-2.3,2.4-3.9,4.6-4.6c2.6-0.8,5.6-0.1,8.1,1.7
	c3.5,2.7,6.3,8.3,7.3,10.6l0.6,1.4h-1.5c-0.5,0-1,0-1.5,0c-2.5,0-5.7-0.1-9.8,0.6C18.6,108.1,18.2,108.2,17.9,108.2z M18.1,95.3
	c-0.6,0-1.2,0.1-1.7,0.2c-1.1,0.3-2.6,1.2-3.3,3.3c-0.6,1.6,0,3.9,1.4,5.6c0.7,0.8,2.1,2,4.1,1.7c4.3-0.8,7.7-0.7,10.1-0.7
	c-1.9-3.9-4-6.9-6-8.4C21.3,95.9,19.7,95.3,18.1,95.3z"/>
<path class="st16" d="M18,95.3c-0.6,0-1.2,0.1-1.7,0.2c-1.1,0.3-2.6,1.2-3.3,3.3c-0.6,1.6,0,3.9,1.4,5.6c0.7,0.8,2.1,2,4.1,1.7
	c4.3-0.8,7.7-0.7,10.1-0.7c-1.9-3.9-4-6.9-6-8.4C21.2,95.9,19.6,95.3,18,95.3z"/>
<path class="st9" d="M32.4,112.5h-0.2c-0.7,0-1.2-0.5-1.2-1.2V91.7c0-0.7,0.5-1.2,1.2-1.2h0.2c0.7,0,1.2,0.5,1.2,1.2v19.6
	C33.6,112,33.1,112.5,32.4,112.5z"/>
<path class="st9" d="M47.2,118.6h1.1c0.6,0,1,0.5,0.9,1.1l-2.2,13.9c-0.1,0.9-0.8,1.4-1.5,1.4h-27c-0.8,0-1.5-0.5-1.6-1.4l-2.2-13.9
	c-0.1-0.6,0.3-1.1,0.9-1.1h1.1c0.6,0,1.1,0.4,1.2,1l2,12h24.2l1.9-12C46.1,119.1,46.6,118.6,47.2,118.6z"/>
<path class="st9" d="M52.7,115.4c0,0.9-0.8,1.6-1.6,1.6h-4.2H17.7h-4.2c-0.9,0-1.6-0.8-1.6-1.6s0.8-1.6,1.6-1.6h2.3h33h2.3
	C52,113.8,52.7,114.6,52.7,115.4z"/>
<g>
	<path class="st5" d="M151.8,134.9h-19.4c-0.6,0-1.1-0.5-1.1-1.1s0.5-1.1,1.1-1.1h19.4c0.6,0,1.1,0.5,1.1,1.1
		S152.4,134.9,151.8,134.9z"/>
	<path class="st5" d="M124.3,134.9H123c-0.6,0-1.1-0.5-1.1-1.1s0.5-1.1,1.1-1.1h1.3c0.6,0,1.1,0.5,1.1,1.1S124.9,134.9,124.3,134.9z
		"/>
	<path class="st5" d="M114.2,134.9H94.8c-0.6,0-1.1-0.5-1.1-1.1s0.5-1.1,1.1-1.1h19.4c0.6,0,1.1,0.5,1.1,1.1
		S114.8,134.9,114.2,134.9z"/>
</g>
<path class="st5" d="M195.9,110.3H50.7c-6,0-10.9-4.9-10.9-10.9V21.4c0-6,4.9-10.9,10.9-10.9h145.2c6,0,10.9,4.9,10.9,10.9v77.9
	C206.8,105.3,201.9,110.3,195.9,110.3z M50.7,12.9c-4.7,0-8.4,3.8-8.4,8.4v77.9c0,4.7,3.8,8.4,8.4,8.4h145.2c4.7,0,8.4-3.8,8.4-8.4
	V21.4c0-4.7-3.8-8.4-8.4-8.4H50.7z"/>
<g>
	<path class="st5" d="M32,70.4L32,70.4c-0.6,0-1-0.5-1-1v-9.6c0-0.6,0.5-1,1-1h0c0.6,0,1,0.5,1,1v9.6C33,69.9,32.5,70.4,32,70.4z"/>
	<path class="st5" d="M24.7,71.9L24.7,71.9c-0.5,0.2-1.1,0.1-1.4-0.4l-2.5-4.5c-0.3-0.5-0.1-1.1,0.4-1.4h0c0.5-0.2,1.1-0.1,1.4,0.4
		l2.5,4.5C25.4,71,25.2,71.6,24.7,71.9z"/>
	<path class="st5" d="M16.5,83.2L16.5,83.2c0,0.5-0.4,1-1,1l-5.4,0c-0.5,0-1-0.4-1-1l0,0c0-0.5,0.4-1,1-1l5.4,0
		C16.1,82.3,16.5,82.7,16.5,83.2z"/>
	<path class="st5" d="M39.7,72.1L39.7,72.1c-0.5-0.3-0.7-0.9-0.4-1.4l2.7-4.4c0.3-0.5,0.9-0.6,1.4-0.4l0,0c0.5,0.3,0.7,0.9,0.4,1.4
		l-2.7,4.4C40.8,72.2,40.2,72.4,39.7,72.1z"/>
	<path class="st5" d="M47.5,83.2L47.5,83.2c0-0.5,0.4-1,1-1l5.4,0c0.5,0,1,0.4,1,1l0,0c0,0.5-0.4,1-1,1l-5.4,0
		C48,84.2,47.5,83.8,47.5,83.2z"/>
	<path class="st5" d="M45.6,77.1L45.6,77.1c-0.3-0.5-0.2-1.1,0.3-1.4l8.4-5.4c0.5-0.3,1.1-0.2,1.4,0.3l0,0c0.3,0.5,0.2,1.1-0.3,1.4
		l-8.4,5.4C46.5,77.7,45.9,77.6,45.6,77.1z"/>
	<path class="st5" d="M9,70.3L9,70.3c0.3-0.4,1-0.5,1.4-0.2l8,5.9c0.5,0.3,0.5,1,0.2,1.4l0,0c-0.3,0.4-1,0.5-1.4,0.2l-8-5.9
		C8.7,71.4,8.6,70.7,9,70.3z"/>
</g>
<path class="st16" d="M37.6,99c2.2,0,4.9,0.1,8.2,0.7c2,0.4,3.5-0.9,4.1-1.7c1.4-1.6,2-3.9,1.4-5.6c-0.7-2.1-2.2-3-3.3-3.3
	c-2-0.6-4.4-0.1-6.3,1.4c-2,1.5-4.1,4.5-6,8.4C36.2,99,36.9,99,37.6,99z"/>
<path class="st9" d="M46.3,101.8c-0.4,0-0.7,0-1.1-0.1c-4.2-0.7-7.3-0.7-9.8-0.6c-0.5,0-1.1,0-1.5,0h-1.5l0.6-1.4
	c1-2.3,3.7-7.9,7.3-10.6c2.5-1.9,5.5-2.5,8.1-1.7c2.2,0.7,3.9,2.3,4.6,4.6c0.8,2.3,0.1,5.4-1.8,7.5
	C49.9,100.9,48.2,101.8,46.3,101.8z M37.4,99c2.2,0,4.9,0.1,8.2,0.7c2,0.4,3.5-0.9,4.1-1.7c1.4-1.6,2-3.9,1.4-5.6
	c-0.7-2.1-2.2-3-3.3-3.3c-2-0.6-4.4-0.1-6.3,1.4c-2,1.5-4.1,4.5-6,8.4C36.1,99,36.7,99,37.4,99z"/>
</svg>
