<svg id="Capa_1" data-name="Capa 1" xmlns="http://www.w3.org/2000/svg" viewBox="0 0 196.22 125.24"><defs><style>.cls-1{fill:#fff;}.cls-11,.cls-12,.cls-2,.cls-7,.cls-8,.cls-9{fill:none;}.cls-11,.cls-12,.cls-2,.cls-7,.cls-8{stroke:#747776;}.cls-12,.cls-2,.cls-7,.cls-9{stroke-miterlimit:10;}.cls-3{fill:#a13cd6;}.cls-4{fill:#fb2700;opacity:0.7;}.cls-5{fill:#54eab4;}.cls-6{fill:#747776;}.cls-7,.cls-9{stroke-width:2px;}.cls-11,.cls-8{stroke-linecap:round;stroke-linejoin:round;}.cls-8{stroke-width:3px;}.cls-9{stroke:#686a69;}.cls-10{fill:#686a69;}.cls-11{stroke-width:2.2px;}.cls-12{stroke-width:2.5px;}.cls-13{fill:#605d5d;}</style></defs><title>front-end</title><path class="cls-1" d="M109.31,114h31s-.47,10.6,0,13.3,1.57,6.08,6.37,6.08a5.45,5.45,0,0,1,5.46,4.62H97.31s2.79-3.63,6.18-4.73,6-2.07,6-6.26S109.31,114,109.31,114Z" transform="translate(-12.07 -14.42)"/><ellipse class="cls-2" cx="39.41" cy="11.89" rx="2.8" ry="2.64"/><ellipse class="cls-2" cx="48.97" cy="11.89" rx="2.8" ry="2.64"/><ellipse class="cls-2" cx="58.3" cy="11.89" rx="2.8" ry="2.64"/><ellipse class="cls-3" cx="48.97" cy="11.89" rx="1.94" ry="1.83"/><ellipse class="cls-4" cx="39.41" cy="11.89" rx="1.94" ry="1.83"/><ellipse class="cls-5" cx="58.3" cy="11.89" rx="1.94" ry="1.83"/><rect class="cls-6" x="35.62" y="18.89" width="153.62" height="2.54" rx="1.25" ry="1.25"/><rect class="cls-6" x="115.7" y="80.34" width="16.23" height="3.33" rx="1.67" ry="1.67"/><rect class="cls-6" x="77.35" y="50.27" width="19.56" height="3.39" rx="1.69" ry="1.69"/><rect class="cls-6" x="77.35" y="79.98" width="19.56" height="3.39" rx="1.69" ry="1.69"/><rect class="cls-6" x="119.96" y="73.51" width="29.3" height="3.39" rx="1.69" ry="1.69"/><rect class="cls-6" x="109.84" y="50.32" width="13.97" height="3.33" rx="1.67" ry="1.67"/><rect class="cls-3" x="99.84" y="50.32" width="6.07" height="3.33" rx="1.67" ry="1.67"/><rect class="cls-3" x="108.16" y="73.22" width="6.07" height="3.33" rx="1.67" ry="1.67"/><rect class="cls-6" x="76.85" y="34.75" width="36.11" height="3.39" rx="1.69" ry="1.69"/><rect class="cls-6" x="87.14" y="42.51" width="14.31" height="3.39" rx="1.69" ry="1.69"/><rect class="cls-6" x="104.85" y="42.54" width="40.56" height="3.39" rx="1.69" ry="1.69"/><rect class="cls-3" x="77.13" y="42.52" width="5.11" height="3.39" rx="1.69" ry="1.69"/><rect class="cls-6" x="77.35" y="66.43" width="61.59" height="3.33" rx="1.67" ry="1.67"/><rect class="cls-3" x="102.34" y="80.34" width="5.55" height="3.33" rx="1.67" ry="1.67"/><rect class="cls-6" x="77.38" y="73.22" width="24.07" height="3.33" rx="1.67" ry="1.67"/><path class="cls-7" d="M78.88,47.13c0-.52-1.94-.77-1.87,1.23S77,57,77,57A24.77,24.77,0,0,0,75,58.52c-.62.56,1.82,1.37,1.91,2.58s.09,8.07.09,8.07a1.25,1.25,0,0,0,1.47,1.34" transform="translate(-12.07 -14.42)"/><path class="cls-7" d="M78.88,78.1c0-.52-1.94-.77-1.87,1.23S77,88,77,88A24.77,24.77,0,0,0,75,89.5c-.62.56,1.82,1.37,1.91,2.58s.09,8.07.09,8.07a1.25,1.25,0,0,0,1.47,1.34" transform="translate(-12.07 -14.42)"/><path class="cls-8" d="M109.47,119.16V127s0,6.28-6.66,6.28" transform="translate(-12.07 -14.42)"/><path class="cls-8" d="M146.68,133.3C140,133.3,140,127,140,127v-7.85" transform="translate(-12.07 -14.42)"/><path class="cls-9" d="M35.6,96.22a39.61,39.61,0,0,0,5.83-9.14,6.22,6.22,0,0,0-5.53-8.55c-5-.19-7.68,4.27-6.27,8.81C30.57,90.3,35.6,96.22,35.6,96.22Z" transform="translate(-12.07 -14.42)"/><path class="cls-5" d="M35.61,79.41a5.15,5.15,0,0,0-4.23,2,6.14,6.14,0,0,0-.79,5.55c.6,1.93,3.35,5.57,5,7.61a36.32,36.32,0,0,0,4.91-7.95,4.94,4.94,0,0,0-.37-4.67,5.51,5.51,0,0,0-4.27-2.5Z" transform="translate(-12.07 -14.42)"/><path class="cls-9" d="M33.6,110.44a55.35,55.35,0,0,0-11.53.64c-4.69.84-7.87-5-6.65-8.52,1.62-4.69,7.14-5.46,11.22-2.36C29.32,102.24,31.84,106.4,33.6,110.44Z" transform="translate(-12.07 -14.42)"/><path class="cls-5" d="M21.32,99.35a5.86,5.86,0,0,0-1.71.25,5,5,0,0,0-3.34,3.3,6.18,6.18,0,0,0,1.41,5.55,4.4,4.4,0,0,0,4.12,1.65,49,49,0,0,1,10.14-.67c-1.86-3.88-4-6.91-6-8.42A7.75,7.75,0,0,0,21.32,99.35Z" transform="translate(-12.07 -14.42)"/><path class="cls-9" d="M37.22,104a55.35,55.35,0,0,1,11.53.64c4.69.84,7.87-5,6.65-8.52-1.62-4.69-7.14-5.46-11.22-2.36C41.5,95.83,39,100,37.22,104Z" transform="translate(-12.07 -14.42)"/><rect class="cls-10" x="22.22" y="80.12" width="2.63" height="21.96" rx="1.19" ry="1.19"/><path class="cls-10" d="M50.83,123.28H52a.94.94,0,0,1,.93,1.09l-2.24,13.85a1.55,1.55,0,0,1-1.54,1.43h-27a1.65,1.65,0,0,1-1.65-1.43L18.2,124.37a.94.94,0,0,1,.93-1.09h1.15a1.23,1.23,0,0,1,1.22,1l2,12H47.69l1.92-12A1.23,1.23,0,0,1,50.83,123.28Z" transform="translate(-12.07 -14.42)"/><path class="cls-10" d="M56,119.44a1.69,1.69,0,0,1-1.65,1.65H16.81a1.65,1.65,0,0,1,0-3.3H54.39A1.69,1.69,0,0,1,56,119.44Z" transform="translate(-12.07 -14.42)"/><line class="cls-11" x1="121.79" y1="123.42" x2="141.16" y2="123.42"/><line class="cls-11" x1="112.37" y1="123.42" x2="113.64" y2="123.42"/><line class="cls-11" x1="84.19" y1="123.42" x2="103.56" y2="123.42"/><rect class="cls-12" x="30.38" y="1.25" width="164.59" height="97.33" rx="9.69" ry="9.69"/><path class="cls-5" d="M40.88,103a45.57,45.57,0,0,1,8.21.7A4.39,4.39,0,0,0,53.21,102a6.18,6.18,0,0,0,1.41-5.55,5,5,0,0,0-3.34-3.3A7.2,7.2,0,0,0,45,94.59c-2,1.52-4.14,4.54-6,8.42Z" transform="translate(-12.07 -14.42)"/><rect class="cls-13" x="22.18" y="46.88" width="2.05" height="11.69" rx="1.03" ry="1.03"/><path class="cls-13" d="M28,74.52h0a1,1,0,0,1-1.35-.42l-2.47-4.52a1,1,0,0,1,.43-1.39h0a1,1,0,0,1,1.36.42l2.47,4.52A1,1,0,0,1,28,74.52Z" transform="translate(-12.07 -14.42)"/><rect class="cls-13" x="15.12" y="82.17" width="1.97" height="7.42" rx="0.99" ry="0.99" transform="translate(-81.84 87.57) rotate(-90)"/><path class="cls-13" d="M43,74.77h0a1,1,0,0,1-.38-1.41l2.66-4.43a1,1,0,0,1,1.37-.37h0A1,1,0,0,1,47,70L44.37,74.4A1,1,0,0,1,43,74.77Z" transform="translate(-12.07 -14.42)"/><rect class="cls-13" x="53.57" y="82.17" width="1.97" height="7.42" rx="0.99" ry="0.99" transform="translate(128.37 16.9) rotate(90)"/><path class="cls-13" d="M48.86,79.79h0a1,1,0,0,1,.28-1.4L57.59,73a1,1,0,0,1,1.36.27h0a1,1,0,0,1-.28,1.4l-8.45,5.42A1,1,0,0,1,48.86,79.79Z" transform="translate(-12.07 -14.42)"/><path class="cls-13" d="M12.29,72.92h0a1,1,0,0,1,1.38-.18l8,5.94a1,1,0,0,1,.18,1.43h0a1,1,0,0,1-1.38.18l-8-5.95A1,1,0,0,1,12.29,72.92Z" transform="translate(-12.07 -14.42)"/></svg>