<?xml version="1.0" encoding="utf-8"?>
<!-- Generator: Adobe Illustrator 20.0.0, SVG Export Plug-In . SVG Version: 6.00 Build 0)  -->
<svg version="1.1" xmlns="http://www.w3.org/2000/svg" xmlns:xlink="http://www.w3.org/1999/xlink" x="0px" y="0px"
	 viewBox="0 0 179.8 121.6" style="enable-background:new 0 0 179.8 121.6;" xml:space="preserve">
<style type="text/css">
	.st0{fill:#DBDBDD;}
	.st1{fill:none;stroke:#AFACAC;stroke-width:2;stroke-miterlimit:10;}
	.st2{fill:#AFACAC;}
	.st3{fill:none;stroke:#AFACAC;stroke-miterlimit:10;}
	.st4{fill:none;stroke:#8E1FAA;stroke-miterlimit:10;}
	.st5{opacity:0.56;fill:#A058AF;}
</style>
<g id="Capa_2">
	<path class="st0" d="M31.2,100.9h104.4c5.4,0,9.7-4.3,9.7-9.7v-53c0-5.4-4.3-9.7-9.7-9.7H31.2V100.9z"/>
</g>
<g id="Capa_3">
	<path class="st1" d="M132.8,98.2H8.4V25.8h124.4c4.9,0,8.9,4,8.9,8.9v54.7C141.7,94.3,137.7,98.2,132.8,98.2z"/>
</g>
<g id="Capa_4">
	<path class="st1" d="M143.2,12.4H8.4v13.4h123.7c5.3,0,9.5,4.3,9.5,9.5v53.3c0,5.3-4.3,9.5-9.5,9.5H8.4v13.4h134.8
		c6.2,0,11.2-5.1,11.2-11.2V23.7C154.4,17.5,149.4,12.4,143.2,12.4z"/>
</g>
<g id="Capa_5">
	<rect x="25.8" y="25.5" class="st2" width="2.7" height="72.4"/>
</g>
<g id="Capa_6">
	<circle class="st2" cx="17.6" cy="61" r="6.5"/>
	<circle class="st3" cx="17.6" cy="44.5" r="4.1"/>
	<circle class="st3" cx="17.6" cy="77.5" r="4.1"/>
</g>
<g id="Capa_7">
	<circle class="st4" cx="47.5" cy="58.8" r="2.2"/>
</g>
<g id="Capa_8">
	<line class="st4" x1="49.6" y1="58.8" x2="84.7" y2="58.5"/>
</g>
<g id="Capa_9">
	<path class="st5" d="M77.6,55.2l0.1-0.4c0.1-0.6,0.7-1.1,1.3-1l4.4,0.7c0.6,0.1,1.1,0.7,1,1.3l-0.1,0.4c-0.1,0.6-0.7,1.1-1.3,1
		l-4.4-0.7C77.9,56.5,77.5,55.9,77.6,55.2z"/>
	<path class="st5" d="M79,44.1l0.3-0.2c0.5-0.4,1.3-0.2,1.6,0.3l5.4,8.1c0.4,0.5,0.2,1.3-0.3,1.6l-0.3,0.2c-0.5,0.4-1.3,0.2-1.6-0.3
		l-5.4-8.1C78.3,45.2,78.4,44.5,79,44.1z"/>
	<path class="st5" d="M89.9,61.6L89.9,61.6c0.6-0.1,1.2,0.3,1.3,1l1,6.4c0.1,0.6-0.3,1.2-1,1.3l0,0c-0.6,0.1-1.2-0.3-1.3-1l-1-6.4
		C88.8,62.3,89.2,61.7,89.9,61.6z"/>
	<path class="st5" d="M77.1,65.6l-0.2-0.3c-0.4-0.5-0.3-1.3,0.3-1.6l4.9-3.6c0.5-0.4,1.3-0.3,1.6,0.3l0.2,0.3
		c0.4,0.5,0.3,1.3-0.3,1.6l-4.9,3.6C78.2,66.2,77.5,66.1,77.1,65.6z"/>
	<path class="st5" d="M85.7,66.4l-0.4-0.1c-0.6-0.2-1-0.8-0.8-1.4l0.6-2.4c0.2-0.6,0.8-1,1.4-0.8l0.4,0.1c0.6,0.2,1,0.8,0.8,1.4
		l-0.6,2.4C87,66.2,86.3,66.5,85.7,66.4z"/>
	<path class="st5" d="M88.2,53.4L88.2,53.4c-0.7-0.1-1.2-0.8-1.1-1.6l0.7-4c0.1-0.7,0.8-1.2,1.6-1.1l0,0c0.7,0.1,1.2,0.8,1.1,1.6
		l-0.7,4C89.6,53.1,88.9,53.6,88.2,53.4z"/>
</g>
<g id="Capa_10">
	<path class="st4" d="M170.4,40.3l-77,19.6c-1.5,0.4-3.1-0.5-3.5-2.1l-0.2-0.9c-0.4-1.6,0.5-3.1,2.1-3.5l77.5-19.5
		c1.2-0.3,2.7,0.5,3,2l0.3,1C172.9,38.4,172,40,170.4,40.3z"/>
</g>
<g id="Capa_11">
	<path class="st4" d="M89,55.7c-0.1,1.3,0.1,2,0.9,3.5c0.7,0.5-4,0-4,0s-1-0.6-0.3-1.3S88.4,54.9,89,55.7z"/>
</g>
<g id="Capa_12">
	<rect x="157" y="35.7" transform="matrix(0.9692 -0.2463 0.2463 0.9692 -4.6194 41.1174)" class="st4" width="10.1" height="6.6"/>
</g>
<g id="Capa_13">
	<path class="st4" d="M116.6,55.6l-11.2,3.1l-0.4-1.5l-2.2,0.6l0.8,3c0.2,0.8,1,1.3,1.8,1l12-3.3c0.8-0.2,1.3-1.1,1.1-2v0
		C118.3,55.8,117.4,55.3,116.6,55.6z"/>
</g>
</svg>
