<?xml version="1.0" encoding="utf-8"?>
<!-- Generator: Adobe Illustrator 20.0.0, SVG Export Plug-In . SVG Version: 6.00 Build 0)  -->
<svg version="1.1" id="Capa_1" xmlns="http://www.w3.org/2000/svg" xmlns:xlink="http://www.w3.org/1999/xlink" x="0px" y="0px"
	 viewBox="0 0 300 300" style="enable-background:new 0 0 300 300;" xml:space="preserve">
<style type="text/css">
	.st0{fill:#8D8D8D;}
</style>
<path class="st0" d="M287,7c0.1-0.3-59.1,27.1-99.2,45.6l4.4,8.4c16.5-7.7,54.1-25.4,70.6-33.1c1-0.5,2-0.9,3-1.3
	c0.1,0.1,0.2,0.2,0.3,0.3c-0.7,0.7-1.3,1.5-2,2.2C209.3,83.9,154.5,138.6,99.8,193.5c-1.9,1.9-3.2,2.3-5.7,1
	c-24-12.2-48.2-24.2-72.3-36.2c-5.4-2.7-7.9-7.8-5.3-12.4c1.2-2.2,3.7-4.2,6.1-5.4c35.6-16.8,71.3-33.5,107-50.2
	c20.9-9.8,41.7-19.5,62.6-29.3l-4.4-8.4c-16.6,7.7-32.5,15.1-44.9,20.9C101.3,93,59.7,112.4,18.1,131.8c-5.4,2.5-9.3,6.2-11.2,11.8
	C4,152.8,8,162,17,166.5c25,12.5,49.9,25,74.8,37.5c1.7,0.8,3.3,2.5,4.2,4.2c12.4,24.5,24.6,49.1,37,73.6c1.5,2.9,3.4,5.8,5.9,7.9
	c9.8,8.1,23.6,4.3,29.3-8c6.1-13.1,12.3-26.3,18.4-39.4l-9-3.6c-6,12.9-12.1,25.8-18.1,38.7c-1,2.2-2.8,4.5-4.8,5.8
	c-4.6,2.9-10,0.8-12.7-4.5c-6.4-12.7-12.7-25.4-19.1-38.1c-5.9-11.8-11.7-23.6-17.7-35.3c-0.9-1.8-1-2.9,0.6-4.5
	C161,145.7,216.1,90.6,271.3,35.5c0.6-0.6,1.2-1,1.8-1.5c0.1,0.1,0.2,0.2,0.3,0.3c-3.4,7.4-6.9,14.8-10.3,22.1
	c-20.9,44.7-64.6,137.6-85.5,182.3l9,3.6C211.2,189.8,258.4,89,283,36.5c3.8-8.1,7.5-16.1,10.7-23c-1.2-1.2-2.4-2.3-3.4-3.3
	C289.2,9.1,288.1,8,287,7z"/>
</svg>
