<?xml version="1.0" encoding="utf-8"?>
<!-- Generator: Adobe Illustrator 20.0.0, SVG Export Plug-In . SVG Version: 6.00 Build 0)  -->
<svg version="1.1" xmlns="http://www.w3.org/2000/svg" xmlns:xlink="http://www.w3.org/1999/xlink" x="0px" y="0px"
	 viewBox="0 0 300 300" style="enable-background:new 0 0 300 300;" xml:space="preserve">
<style type="text/css">
	.st0{display:none;}
	.st1{display:inline;}
	.st2{stroke:#000000;stroke-width:2;stroke-miterlimit:10;}
</style>
<g id="Capa_1" class="st0">
	<path class="st1" d="M287,7c0.1-0.3-37.9,17.2-78,35.7l4.3,8.3c16.5-7.7,33-15.4,49.5-23.1c1-0.5,2-0.9,3-1.3
		c0.1,0.1,0.2,0.2,0.3,0.3c-0.7,0.7-1.3,1.5-2,2.2C209.3,83.9,154.5,138.6,99.8,193.5c-1.9,1.9-3.2,2.3-5.7,1
		c-24-12.2-48.2-24.2-72.3-36.2c-5.4-2.7-7.9-7.8-5.3-12.4c1.2-2.2,3.7-4.2,6.1-5.4c35.6-16.8,71.3-33.5,107-50.2
		c20.9-9.8,41.7-19.5,62.6-29.3l-4.4-8.4c-16.6,7.7-32.5,15.1-44.9,20.9c-41.6,19.5-83.2,38.9-124.8,58.3
		c-5.4,2.5-9.3,6.2-11.2,11.8C4,152.8,8,162,17,166.5C42,179,66.9,191.5,91.8,204c1.7,0.8,3.3,2.5,4.2,4.2
		c12.4,24.5,24.6,49.1,37,73.6c1.5,2.9,3.4,5.8,5.9,7.9c9.8,8.1,23.6,4.3,29.3-8c6.1-13.1,12.3-26.3,18.4-39.4l-9-3.6
		c-6,12.9-12.1,25.8-18.1,38.7c-1,2.2-2.8,4.5-4.8,5.8c-4.6,2.9-10,0.8-12.7-4.5c-6.4-12.7-12.7-25.4-19.1-38.1
		c-5.9-11.8-11.7-23.6-17.7-35.3c-0.9-1.8-1-2.9,0.6-4.5C161,145.7,216.1,90.6,271.3,35.5c0.6-0.6,1.2-1,1.8-1.5
		c0.1,0.1,0.2,0.2,0.3,0.3c-3.4,7.4-6.9,14.8-10.3,22.1c-20.9,44.7-41.8,89.4-62.7,134.1l8.9,3.6c24.6-52.5,49.1-105.1,73.7-157.6
		c3.8-8.1,7.5-16.1,10.7-23C291.1,11,289.1,9,287,7z"/>
</g>
<g id="Capa_2" class="st0">
	<path class="st1" d="M167.4,267.6c0.1,8.2-6.6,15.1-14.8,15.1c-8.1,0.1-15-6.7-15.1-14.9c-0.1-8.2,6.6-15.1,14.8-15.1
		C160.5,252.7,167.3,259.4,167.4,267.6z M152.4,259.5c-4.4,0.1-8.1,4-8.1,8.6c0,4.5,3.7,8.1,8.2,8c4.4,0,8.1-3.9,8.1-8.5
		C160.5,263.2,156.8,259.5,152.4,259.5z"/>
	<g class="st1">
		<path d="M234.2,42.8c0-22.7-16.1-38.8-38.8-38.8c-28.7,0-57.2,0-85.9,0C87,4,71,20.1,71,42.8V180h7c0-44.9,0-90,0-135h149
			c0,65,0,129,0,194c-50,0-99,0-149,0c0-11,0-22.7,0-34h-7v53c0,22.9,15.9,39,38.7,39c28.6,0,57.1,0,85.7,0
			c22.8,0,38.9-16.1,38.9-39c0-35.8,0-71.5,0-107.3C234.3,114.8,234.3,78.8,234.2,42.8z M78,38c0.7-7,3.5-12.8,8.2-17.7
			c5.8-6.1,13-9.4,21.5-9.4c30-0.1,60-0.1,90,0c14.1,0.1,26.6,11,29.1,24.9c0.1,0.6,0.1,1.2,0.2,2.2H78z M226,268.8
			c-4,12.6-15.5,21.3-28.7,21.3c-29.9,0.1-59.8,0.1-89.7,0c-16.5-0.1-29.9-13.5-30.1-30c-0.1-4.6,0-9.1,0-14.1
			c50.1,0,99.8,0,149.9,0C227.1,254,228.4,261.3,226,268.8z"/>
	</g>
</g>
<g id="Capa_3">
	<path class="st2" d="M71.5,218.5c55,0,109.5,0,164.3,0c0-45.6,0-91.1,0-136.9c-54.6,0-109.3,0-164.3,0c0,1.1,0,2.2,0,3.3
		c0,33.6,0,67.2,0,100.8c0,1,0.3,2.2-0.1,2.8c-0.9,1.1-2.1,2.4-3.4,2.7c-1.7,0.4-3-0.9-3.3-2.8c-0.1-0.7-0.1-1.5-0.1-2.3
		c0-45.2,0-90.5,0-135.7c0-25,19.5-44.5,44.6-44.6c29.7,0,59.4,0,89.1,0c25,0,44.5,19.5,44.6,44.6c0,66.3,0,132.5,0,198.8
		c0,25-19.6,44.5-44.6,44.6c-29.8,0.1-59.6,0.1-89.4,0c-24.5,0-44.1-19.6-44.2-44.1c-0.1-13,0-26.1,0-39.1c0-1.9,0.1-3.7,2.3-4.4
		c2.4-0.7,4.4,0.8,4.5,3.6C71.6,212.8,71.5,215.5,71.5,218.5z M235.6,74.4c0-9,0.3-17.8-0.1-26.5c-0.7-19.3-17-35-36.3-35
		c-30.4-0.1-60.7-0.1-91.1,0c-16.8,0-32.3,11.7-35.2,28.2c-1.9,10.8-1.3,22.1-1.9,33.3C126.3,74.4,180.8,74.4,235.6,74.4z
		 M236.5,225.6c-55.6,0-110.2,0-165.1,0c0,8.5-0.1,16.7,0,25c0.2,19.9,16.5,36.4,36.4,36.5c30.5,0.1,61.1,0.1,91.6,0
		c16.8-0.1,32.2-11.8,35.1-28.3C236.6,248,236,236.8,236.5,225.6z"/>
	<path class="st2" d="M153.7,48c-3.3,0-4.6-1.3-4.5-2.8c0-2.8,1.5-5.5,4.6-5.5c3.1,0,5.2,2.5,4.7,5.4C157.2,47.5,157,48,153.7,48z"
		/>
	<path class="st2" d="M153.7,259.7c-4.9,0-9.7,0-14.6,0c-2.9,0-4.3-1.2-4.2-3.5c0-2.2,1.4-3.4,4.3-3.4c9.7,0,19.4,0,29.1,0
		c2.9,0,4.3,1.2,4.2,3.5c0,2.2-1.4,3.4-4.3,3.4C163.4,259.7,158.6,259.7,153.7,259.7z"/>
</g>
<g id="Capa_4" class="st0">
	<path class="st1" d="M152.4,34.2c-5,0-10,0-15,0c-3,0-4.6-1.4-4.5-3.8c0.2-2.7,1.9-3.6,4.4-3.6c10.2,0,20.4,0,30.6,0
		c2.5,0,4.3,0.9,4.3,3.6c0,2.7-1.7,3.7-4.2,3.7C162.8,34.2,157.6,34.2,152.4,34.2z"/>
	<path class="st1" d="M168.3,261.8c0.1,8.6-7.1,15.8-15.7,15.8c-8.5,0-15.5-6.9-15.7-15.5c-0.2-8.5,6.9-15.8,15.5-16
		C161,246.1,168.2,253.1,168.3,261.8z M160.9,262.3c0.3-4.5-3.4-8.5-8-8.8c-4.5-0.2-8.5,3.5-8.7,8.1c-0.2,4.4,3.3,8.3,7.8,8.6
		C156.6,270.6,160.6,267,160.9,262.3z"/>
	<g class="st1">
		<path d="M233,159.1c0,21,0,42,0,63.1c0,1.2,0,2.9,0,3.9c-54,0-107,0-161,0c0-1,0-2.5,0-3.6c0-8.5,0.2-16.9,0.2-25.4h-7.3
			c0,26.1,0,52.2-0.2,78.4c-0.1,13.1,9.1,21.1,21.1,21c44.9-0.4,89.8-0.1,134.7-0.1c12.3,0,19.8-7.5,19.8-19.8
			c0-75.5,0-151.4,0-226.4H233C233,86,233,122.7,233,159.1z M233,277.2c0,7.2-4.5,11.6-11.7,11.6c-45.8,0-91.6,0-137.4,0
			c-6.8,0-11.6-4.2-11.6-10.7c-0.1-14.4,0-28.6,0-43c0-0.4,0.1-1.2,0.2-1.2c53.4,0,106.7,0,160.4,0c0.1,1,0.2,1.4,0.2,2.1
			C233,249.9,233.1,263.4,233,277.2z"/>
		<path d="M240,23.6c0-12-7.3-19.5-19.3-19.5C175.3,4,130,4,84.6,4c-1.9,0-3.9,0-5.7,0.5C70,6.6,64.8,13.8,64.8,23.8
			c0,42.1,0,84.1,0,126.2c0,4.7,0,10,0,14h7.3c0-46,0-93.1,0-139.8c0-1.8,0-3.6,0.5-5.4c1.4-4.8,5.5-7.5,11-7.5
			c45.9,0,91.8,0,137.7,0c7.4,0,11.5,4.5,11.5,12.4c0,3.5,0,7.2,0,10.2h7C240,31,240,27.1,240,23.6z"/>
	</g>
</g>
</svg>
