<?xml version="1.0" encoding="utf-8"?>
<!-- Generator: Adobe Illustrator 20.0.0, SVG Export Plug-In . SVG Version: 6.00 Build 0)  -->
<svg version="1.1" id="Capa_1" xmlns="http://www.w3.org/2000/svg" xmlns:xlink="http://www.w3.org/1999/xlink" x="0px" y="0px"
	 viewBox="0 0 48 224.9" style="enable-background:new 0 0 48 224.9;" xml:space="preserve">
<style type="text/css">
	.st0{clip-path:url(#SVGID_2_);fill:url(#SVGID_3_);}
	.st1{clip-path:url(#SVGID_5_);fill:url(#SVGID_6_);}
</style>
<g>
	<defs>
		<path id="SVGID_1_" d="M11.8,221.9L11.8,221.9c-1.9,0-3.4-1.5-3.4-3.4V11c0-1.9,1.5-3.4,3.4-3.4h0c1.9,0,3.4,1.5,3.4,3.4v207.5
			C15.2,220.3,13.7,221.9,11.8,221.9z"/>
	</defs>
	<clipPath id="SVGID_2_">
		<use xlink:href="#SVGID_1_"  style="overflow:visible;"/>
	</clipPath>
	
		<linearGradient id="SVGID_3_" gradientUnits="userSpaceOnUse" x1="-214.3439" y1="1309.4974" x2="64.8936" y2="1309.4974" gradientTransform="matrix(0 1 -1 0 1321.3334 183.3333)">
		<stop  offset="0" style="stop-color:#F15A24"/>
		<stop  offset="0.5224" style="stop-color:#93278F"/>
		<stop  offset="1" style="stop-color:#2E3192"/>
	</linearGradient>
	<polygon class="st0" points="-68.2,248.2 -68.2,-31 91.8,-31 91.8,248.2 	"/>
</g>
<g>
	<defs>
		<path id="SVGID_4_" d="M36.3,221.9L36.3,221.9c-1.9,0-3.4-1.5-3.4-3.4V62.3c0-1.9,1.5-3.4,3.4-3.4h0c1.9,0,3.4,1.5,3.4,3.4v156.2
			C39.8,220.3,38.2,221.9,36.3,221.9z"/>
	</defs>
	<clipPath id="SVGID_5_">
		<use xlink:href="#SVGID_4_"  style="overflow:visible;"/>
	</clipPath>
	
		<linearGradient id="SVGID_6_" gradientUnits="userSpaceOnUse" x1="-153.8241" y1="1284.9835" x2="58.5847" y2="1284.9835" gradientTransform="matrix(0 1 -1 0 1321.3334 183.3333)">
		<stop  offset="0" style="stop-color:#F15A24"/>
		<stop  offset="0.5224" style="stop-color:#93278F"/>
		<stop  offset="1" style="stop-color:#2E3192"/>
	</linearGradient>
	<polygon class="st1" points="-43.7,241.9 -43.7,29.5 116.4,29.5 116.4,241.9 	"/>
</g>
</svg>
