<?xml version="1.0" encoding="utf-8"?>
<!-- Generator: Adobe Illustrator 20.0.0, SVG Export Plug-In . SVG Version: 6.00 Build 0)  -->
<svg version="1.1" id="Capa_1" xmlns="http://www.w3.org/2000/svg" xmlns:xlink="http://www.w3.org/1999/xlink" x="0px" y="0px"
	 viewBox="0 0 173.9 168.7" style="enable-background:new 0 0 173.9 168.7;" xml:space="preserve">
<style type="text/css">
	.st0{stroke:#000000;stroke-miterlimit:10;}
	.st1{fill:url(#SVGID_1_);stroke:url(#SVGID_2_);stroke-miterlimit:10;}
</style>
<circle class="st0" cx="88.5" cy="83.1" r="79.1"/>
<linearGradient id="SVGID_1_" gradientUnits="userSpaceOnUse" x1="35.0733" y1="75.7847" x2="144.3998" y2="75.7847">
	<stop  offset="0" style="stop-color:#FB2700"/>
	<stop  offset="5.742788e-02" style="stop-color:#F52709"/>
	<stop  offset="0.153" style="stop-color:#E52523"/>
	<stop  offset="0.2749" style="stop-color:#CA234C"/>
	<stop  offset="0.4168" style="stop-color:#A62185"/>
	<stop  offset="0.5" style="stop-color:#8E1FAA"/>
	<stop  offset="0.9944" style="stop-color:#610971"/>
</linearGradient>
<linearGradient id="SVGID_2_" gradientUnits="userSpaceOnUse" x1="34.5733" y1="75.7847" x2="144.8998" y2="75.7847">
	<stop  offset="0" style="stop-color:#FB2700"/>
	<stop  offset="5.742788e-02" style="stop-color:#F52709"/>
	<stop  offset="0.153" style="stop-color:#E52523"/>
	<stop  offset="0.2749" style="stop-color:#CA234C"/>
	<stop  offset="0.4168" style="stop-color:#A62185"/>
	<stop  offset="0.5" style="stop-color:#8E1FAA"/>
	<stop  offset="0.9944" style="stop-color:#610971"/>
</linearGradient>
<path class="st1" d="M144,130.7c-0.5,1.3-1.5,2.3-2.8,2.8c-1,0.2-1.7,0.3-2.1,0.3c-2.3,0-3.9-1-4.8-2.9L89.8,34.8L67.4,83h25.3
	c1.5,0,2.8,0.5,3.8,1.4c1,1,1.5,2.1,1.5,3.4c0,1.3-0.5,2.5-1.5,3.5c-1,1-2.3,1.5-3.8,1.5H62.8L45.2,131c-1,1.9-2.6,2.9-4.8,2.9
	c-0.5,0-1.2-0.1-2.1-0.3c-1.3-0.6-2.2-1.5-2.8-2.8c-0.5-1.3-0.5-2.6,0.1-3.8l19-41L85,20.6c0.7-1.7,2.2-2.7,4.4-2.9H90
	c2.1,0.2,3.7,1.2,4.6,2.9l49.3,106.3C144.5,128.1,144.6,129.4,144,130.7z"/>
</svg>
