<?xml version="1.0" encoding="utf-8"?>
<!-- Generator: Adobe Illustrator 20.0.0, SVG Export Plug-In . SVG Version: 6.00 Build 0)  -->
<svg version="1.1" id="Capa_1" xmlns="http://www.w3.org/2000/svg" xmlns:xlink="http://www.w3.org/1999/xlink" x="0px" y="0px"
	 viewBox="0 0 152.1 206.7" style="enable-background:new 0 0 152.1 206.7;" xml:space="preserve">
<path d="M391.3,35.3c-11.7,37.3-23.2,73.6-34.6,110c-0.4-0.1-0.7-0.1-1.1-0.2c0-5.6,0-11.1,0-16.7c0-24,0-48,0-72
	c0-13.4-4.2-17.9-17.7-17.6c-3.2,0.1-8.8,0.2-8.8,0.2s-0.7-2-1.5-3.8c4.8,0.1,4.8,0.1,6.6,0.1c14-0.1,28-0.1,42-0.1
	C380.9,35.3,385.7,35.3,391.3,35.3z"/>
<path d="M412.1,121.9c-15.2,0-29.6,0-44.7,0c7.3-23,14.5-45.6,21.6-68.1c0.4,0,0.7-0.1,1.1-0.1C397.4,76.3,404.7,98.9,412.1,121.9z"
	/>
<path d="M412.1,129.8c0-1.4-0.2-2.9-0.3-4.7c-14.6,0-28.7-0.1-42.8,0.1c-1.2,0-3,1.8-3.5,3.2c-2.2,6.6-4.5,13.3-5.9,20.1
	c-1.6,7.8-3.4,15.7-3.2,23.6c0.4,14.4,10.2,23.1,24.6,23.2c2,0,3.9,0.3,6.8,0.6c-4.3,3.2-70.3,3-73.6-0.2c2.3-0.2,4-0.2,5.7-0.5
	c10.3-1.6,22.3-8.3,17.4-23.7c-3.7-11.7-11.2-19.7-22.9-22.8c-9.7-2.6-20.2-0.8-28.3,5.2c-19.9,14.8-19.8,44.9-0.9,60.8
	c6.6,5.5,14.7,9.8,22.9,12.8c6,2.2,24.6,6,35.8,5.1c7.4-0.6,43.6-1.5,61.9-31.5c4.3-7.1,6.4-15.2,6.3-23.5
	C412,161.6,412.1,145.7,412.1,129.8z M317.4,225.9c-2.6-0.5-0.3-0.1-5.2-1.1c-11.9-3.5-21.3-11.7-21.5-18.6
	c-0.3-1.7-0.3-2.5-0.2-5.6c30-0.5,52.6,0.6,63.9,0C352.8,218.6,335,230.6,317.4,225.9z"/>
<g>
	<path d="M136.1,9.2v-5h-90v5h20v140c0,12.5-0.1,22.1-1,29l56-149.1V9.2H136.1z"/>
	<path d="M71.5,179.2h15.6v4H64.4c-0.3,2-0.7,3-1.2,4.2c-2.1,5.8-6.9,8.7-14.3,8.7c-4.1,0-7.4-0.9-9.9-2.7c-0.4-0.3-4.2-4.6-1.6-5.1
		c4.7-1,8.5-5,8.5-5l2.3-3.2c5-7.8,3.4-12.1,3.4-17.6c0-5.5-1.9-10.2-5.7-14.1c-3.8-3.9-9.6-5.8-17.3-5.8c-7.7,0-13.8,2.3-18.2,6.8
		c-4.5,4.6-6.7,10.8-6.7,18.8c0,10.4,4.4,18.5,13.2,24.2c8.8,5.8,20.7,8.6,35.8,8.6c22.6,0,39.6-5.6,51-17
		c10.7-10.8,16.4-27.8,16.9-50.8H87.9L71.5,179.2z"/>
</g>
<path d="M145.4,121.4c-17.3,0-34.9,0-52.2,0c8.3-25.2,26.6-74.6,27-74.7C128.6,71.4,136.9,96.2,145.4,121.4z"/>
</svg>
