<?xml version="1.0" encoding="utf-8"?>
<!-- Generator: Adobe Illustrator 20.0.0, SVG Export Plug-In . SVG Version: 6.00 Build 0)  -->
<svg version="1.1" id="Capa_1" xmlns="http://www.w3.org/2000/svg" xmlns:xlink="http://www.w3.org/1999/xlink" x="0px" y="0px"
	 viewBox="0 0 139.7 127" style="enable-background:new 0 0 139.7 127;" xml:space="preserve">
<style type="text/css">
	.st0{fill:url(#SVGID_1_);stroke:url(#SVGID_2_);stroke-miterlimit:10;}
</style>
<linearGradient id="SVGID_1_" gradientUnits="userSpaceOnUse" x1="17.3777" y1="64.5231" x2="126.7041" y2="64.5231">
	<stop  offset="0" style="stop-color:#FB2700"/>
	<stop  offset="5.742788e-02" style="stop-color:#F52709"/>
	<stop  offset="0.153" style="stop-color:#E52523"/>
	<stop  offset="0.2749" style="stop-color:#CA234C"/>
	<stop  offset="0.4168" style="stop-color:#A62185"/>
	<stop  offset="0.5" style="stop-color:#8E1FAA"/>
	<stop  offset="0.9944" style="stop-color:#610971"/>
</linearGradient>
<linearGradient id="SVGID_2_" gradientUnits="userSpaceOnUse" x1="16.8777" y1="64.5231" x2="127.2041" y2="64.5231">
	<stop  offset="0" style="stop-color:#FB2700"/>
	<stop  offset="5.742788e-02" style="stop-color:#F52709"/>
	<stop  offset="0.153" style="stop-color:#E52523"/>
	<stop  offset="0.2749" style="stop-color:#CA234C"/>
	<stop  offset="0.4168" style="stop-color:#A62185"/>
	<stop  offset="0.5" style="stop-color:#8E1FAA"/>
	<stop  offset="0.9944" style="stop-color:#610971"/>
</linearGradient>
<path class="st0" d="M126.3,119.4c-0.5,1.3-1.5,2.3-2.8,2.8c-1,0.2-1.7,0.3-2.1,0.3c-2.3,0-3.9-1-4.8-2.9L72.1,23.5L49.7,71.7H75
	c1.5,0,2.8,0.5,3.8,1.4c1,1,1.5,2.1,1.5,3.4c0,1.3-0.5,2.5-1.5,3.5c-1,1-2.3,1.5-3.8,1.5H45.1l-17.6,38.1c-1,1.9-2.6,2.9-4.8,2.9
	c-0.5,0-1.2-0.1-2.1-0.3c-1.3-0.6-2.2-1.5-2.8-2.8c-0.5-1.3-0.5-2.6,0.1-3.8l19-41L67.3,9.3c0.7-1.7,2.2-2.7,4.4-2.9h0.5
	c2.1,0.2,3.7,1.2,4.6,2.9l49.3,106.3C126.8,116.9,126.9,118.1,126.3,119.4z"/>
</svg>
