<?xml version="1.0" encoding="utf-8"?>
<!-- Generator: Adobe Illustrator 20.0.0, SVG Export Plug-In . SVG Version: 6.00 Build 0)  -->
<svg version="1.1" id="Capa_1" xmlns="http://www.w3.org/2000/svg" xmlns:xlink="http://www.w3.org/1999/xlink" x="0px" y="0px"
	 viewBox="0 0 139.7 127" style="enable-background:new 0 0 139.7 127;" xml:space="preserve">
<style type="text/css">
	.st0{stroke:#000000;stroke-miterlimit:10;}
</style>
<path class="st0" d="M126.3,119.4c-0.5,1.3-1.5,2.3-2.8,2.8c-1,0.2-1.7,0.3-2.1,0.3c-2.3,0-3.9-1-4.8-2.9L72.1,23.5L49.7,71.7H75
	c1.5,0,2.8,0.5,3.8,1.4c1,1,1.5,2.1,1.5,3.4c0,1.3-0.5,2.5-1.5,3.5c-1,1-2.3,1.5-3.8,1.5H45.1l-17.6,38.1c-1,1.9-2.6,2.9-4.8,2.9
	c-0.5,0-1.2-0.1-2.1-0.3c-1.3-0.6-2.2-1.5-2.8-2.8c-0.5-1.3-0.5-2.6,0.1-3.8l19-41L67.3,9.3c0.7-1.7,2.2-2.7,4.4-2.9h0.5
	c2.1,0.2,3.7,1.2,4.6,2.9l49.3,106.3C126.8,116.9,126.9,118.1,126.3,119.4z"/>
</svg>
