<?xml version="1.0" encoding="utf-8"?>
<!-- Generator: Adobe Illustrator 20.0.0, SVG Export Plug-In . SVG Version: 6.00 Build 0)  -->
<svg version="1.1" id="Capa_1" xmlns="http://www.w3.org/2000/svg" xmlns:xlink="http://www.w3.org/1999/xlink" x="0px" y="0px"
	 viewBox="0 0 152.1 206.7" style="enable-background:new 0 0 152.1 206.7;" xml:space="preserve">
<path d="M124,4.2c-11.7,37.3-23.2,73.6-34.6,110c-0.4-0.1-0.7-0.1-1.1-0.2c0-5.6,0-11.1,0-16.7c0-24,0-48,0-72
	c0-13.4-4.2-17.9-17.7-17.6C67.5,7.9,61.8,8,61.8,8s-0.7-2-1.5-3.8c4.8,0.1,4.8,0.1,6.6,0.1c14-0.1,28-0.1,42-0.1
	C113.7,4.2,118.5,4.2,124,4.2z"/>
<path d="M144.9,90.8c-15.2,0-29.6,0-44.7,0c7.3-23,14.5-45.6,21.6-68.1c0.4,0,0.7-0.1,1.1-0.1C130.2,45.2,137.5,67.8,144.9,90.8z"/>
<path d="M144.9,98.7c0-1.4-0.2-2.9-0.3-4.7c-14.6,0-28.7-0.1-42.8,0.1c-1.2,0-3,1.8-3.5,3.2c-2.2,6.6-4.5,13.3-5.9,20.1
	c-1.6,7.8-3.4,15.7-3.2,23.6c0.4,14.4,10.2,23.1,24.6,23.2c2,0,3.9,0.3,6.8,0.6c-4.3,3.2-70.3,3-73.6-0.2c2.3-0.2,4-0.2,5.7-0.5
	c10.3-1.6,22.3-8.3,17.4-23.7c-3.7-11.7-11.2-19.7-22.9-22.8c-9.7-2.6-20.2-0.8-28.3,5.2c-19.9,14.8-19.8,44.9-0.9,60.8
	c6.6,5.5,14.7,9.8,22.9,12.8c6,2.2,24.6,6,35.8,5.1c7.4-0.6,43.6-1.5,61.9-31.5c4.3-7.1,6.4-15.2,6.3-23.5
	C144.8,130.5,144.9,114.6,144.9,98.7z M50.2,194.8c-2.6-0.5-0.3-0.1-5.2-1.1c-11.9-3.5-21.3-11.7-21.5-18.6
	c-0.3-1.7-0.3-2.5-0.2-5.6c30-0.5,52.6,0.6,63.9,0C85.6,187.5,67.7,199.5,50.2,194.8z"/>
</svg>
