<?xml version="1.0" encoding="utf-8"?>
<!-- Generator: Adobe Illustrator 20.0.0, SVG Export Plug-In . SVG Version: 6.00 Build 0)  -->
<svg version="1.1" id="Capa_1" xmlns="http://www.w3.org/2000/svg" xmlns:xlink="http://www.w3.org/1999/xlink" x="0px" y="0px"
	 viewBox="0 0 173.9 168.7" style="enable-background:new 0 0 173.9 168.7;" xml:space="preserve">
<style type="text/css">
	.st0{stroke:#000000;stroke-miterlimit:10;}
	.st1{fill:#F7F7F7;stroke:#FFFFFF;stroke-miterlimit:10;}
</style>
<circle class="st0" cx="87.5" cy="84.1" r="79.1"/>
<path class="st1" d="M143,131.7c-0.5,1.3-1.5,2.3-2.8,2.8c-1,0.2-1.7,0.3-2.1,0.3c-2.3,0-3.9-1-4.8-2.9L88.8,35.8L66.4,84h25.3
	c1.5,0,2.8,0.5,3.8,1.4c1,1,1.5,2.1,1.5,3.4c0,1.3-0.5,2.5-1.5,3.5c-1,1-2.3,1.5-3.8,1.5H61.8L44.2,132c-1,1.9-2.6,2.9-4.8,2.9
	c-0.5,0-1.2-0.1-2.1-0.3c-1.3-0.6-2.2-1.5-2.8-2.8c-0.5-1.3-0.5-2.6,0.1-3.8l19-41L84,21.6c0.7-1.7,2.2-2.7,4.4-2.9H89
	c2.1,0.2,3.7,1.2,4.6,2.9l49.3,106.3C143.5,129.1,143.6,130.4,143,131.7z"/>
</svg>
