<?xml version="1.0" encoding="utf-8"?>
<!-- Generator: Adobe Illustrator 20.0.0, SVG Export Plug-In . SVG Version: 6.00 Build 0)  -->
<svg version="1.1" xmlns="http://www.w3.org/2000/svg" xmlns:xlink="http://www.w3.org/1999/xlink" x="0px" y="0px"
	 viewBox="0 0 350 156.6" style="enable-background:new 0 0 350 156.6;" xml:space="preserve">
<style type="text/css">
	.st0{fill:#080808;}
	.st1{fill:#FFFFFF;}
	.st2{display:none;}
</style>
<g id="Capa_2">
	<rect x="-397.9" y="-31.9" class="st0" width="362.2" height="454"/>
	<path class="st1" d="M-1074.6,170.5c-0.1,1.6-1.2,3.4-1.6,5c-1.5,2.9-2.7,4.4-4.7,6.3c-2.8,2.7-6.2,2.1-7.9-1.4
		c-0.2-0.4-0.3-0.7-0.5-1.1c-1.4-5-1.1-9.9,1.2-14.5c0.4-0.7,0.9-1.4,1.6-1.9c0.9-0.6,1.8-0.5,2.4,0.5c1.6,2.3,0,6.1-2.8,6.6
		c-0.7,0.1-1.7,0.1-1.6,1.1c0.2,0.9,0.8,2,1.5,2.2c1.5,0.5,3.1,0.2,4.3-0.9c1.7-1.5,2.3-3.4,2.2-5.5c-0.1-5-2.9-8.5-6.8-11
		c-1.7-1.1-3.8-0.7-5.2,0.7c-1.4,1.4-2.7,3-3.5,4.8c-1.6,3.7-1.4,7.8-0.8,11.8c0.1,0.5,0.2,1.2,0,1.6c-1.3,1.7-2.6,3.4-4.2,4.8
		c-1.3,1.2-2.8,0.5-3.2-1.3c-0.2-1.1-0.4-2.3-0.2-3.3c0.9-4,1.8-8.1,2.8-12c0.5-2.1,1.3-5.2-0.5-6.4c-3.9-2.4-8.5-1.9-11.3-5.7
		c-1.2-1.6-2.4-3.3-2.9-5.7c1.5,0.3,1.6,1.4,2.1,2.3c0.7,1.3,1.5,2.6,2.4,3.8c0.5,0.6,1.2,0.7,1.4-0.4c0.7-4-2.6-9.3-6.6-10.4
		c-2-0.5-3.6,0.5-3.4,2.6c0.1,1.6,0.4,3.2,1,4.5c0.9,1.9,2.2,3.7,3.5,5.4c0.8,1,0.8,1.9,0.2,2.9c-2.2,4.3-1.5,3.3-4,7.8
		c0,1.4,3.9,0.4,3.9,1.8c2.6-4.7,1.9-3.6,2.7-5.6c0.5-0.8,0.9-1.6,1.5-2.5c1,0.8,1.9,0.9,2.7,1.7c0.3,0.3,1.9,1.2,1.8,1.7
		c-0.7,2.5-2.1,5-2.7,7.5c-1.3,5.5-1.1,10.6,3.4,14.4c3.3,2.7,5.8,2.8,8.9,0c1-0.9,1.9-1.9,2.8-2.7c1.9,1.9,3.4,3.9,5.4,5.4
		c4.4,3.4,11.9,1.1,15-3.6c0.5-0.7,0.5-1.1,0.9-1.8C-1073,180-1073.7,176.2-1074.6,170.5z"/>
	<path class="st1" d="M-1049.8,173.1c-0.5-1-1.5-1.9-2.4-2.6c-0.6-0.5-1.5-0.5-2.2-0.7c-0.2-0.1-0.8,0.2-0.9,0.4
		c-0.1,0.3,0,0.8,0.2,1.1c0.4,0.6,0.9,1.2,1.3,1.9c1.5,2.8,2.2,5.8,2.4,8.9c0.1,1.4,0,2.8-0.3,4.2c-0.3,1.6-1.3,1.9-2.4,0.7
		c-1-1.1-1.9-2.4-2.6-3.8c-1.4-3.3-2-7-2.1-10.6c-0.2-4.3-0.2-8.6,0-12.9c0.2-2.5-0.9-4.1-2.5-5.6c-0.4-0.4-1.2-0.7-1.7-0.5
		c-0.4,0.2-0.6,1-0.8,1.6c-0.2,0.5-0.2,1-0.2,1.8c-0.8-1.2-1.3-2.2-2-3.2c-2.5-3-4.6-2.6-6.1,0.7c-0.1,0.1-0.1,0.2-0.2,0.3
		c-0.4,1.9-0.9,3.8-1.2,5.7c-0.5,3.8-0.9,7.7-1.5,11.6c-0.2,1.5-0.9,2.9-1.4,4.3c-0.2,0.4,1.6,7,2.7,3.6c0.4-1.1,0.6-2.2,1-3.6
		c0.3,0.8,0.5,1.3,0.8,1.9c0.5,0.9,1,2,1.8,2.8c1.3,1.5,2.5,1.2,3.4-0.5c0.8-1.6,1.5-3.1,2.2-4.7c0.3-0.6,0.5-1.3,0.8-1.9
		c0.1,0,0.2,0,0.2,0.1c0.1,0.2,0.2,0.5,0.2,0.8c0.5,2.2,0.9,4.5,1.7,6.7c1.5,4,3.7,7.3,7.4,9.2c3.1,1.6,5.8,0.3,6.7-3.2
		C-1045.9,182.2-1047.3,177.6-1049.8,173.1z M-1064.5,166.2c-1.2,3-2.2,6.1-3.3,9.2c-0.1,0.2-0.2,0.4-0.3,0.6c-0.1,0-0.2,0-0.3,0
		c-0.1-0.5-0.2-1-0.2-1.5c-0.3-5-0.3-9.9,0.5-14.7c0.2-0.7,0.3-1.4,0.5-2.1c0.2-0.8,0.9-0.9,1.2-0.2
		C-1065.1,160.3-1063.3,162.9-1064.5,166.2z"/>
	<path class="st1" d="M-1162.6,205.4c-0.7-1.9-1.4-3.3-1.9-4.8c-0.5-1.5,0.5-3.4,2.1-4.5c1.3-0.9,1.9-0.7,2.1,0.5
		c0.5,2.2,1,4.4,1.7,6.5c0.4,1.2,1.2,2.2,2.2,3c1.9,1.7,5,0.9,6.9-1.8c1.2-1.7,2.2-3.6,2.9-5.4c1.3-3.6,2-7.2,1.9-10.6
		c-0.1-2.3-0.5-4.5-2.2-6.1c-0.2-0.2-0.2-0.7-0.1-0.9c0.3-0.3,0.9-0.8,1.2-0.8c0.9,0,1.7,0.2,2.4,0.5c2,1,3,2.8,3.5,4.9
		c1.2,5.4,0.3,11.2-2.6,17.1c-3.9,7.9-11.4,9.2-16.1,6.1C-1160.3,208-1161.5,206.5-1162.6,205.4z"/>
	<path class="st1" d="M-1162,173.1c0.2-6.1,0.5-12,0.9-18.1c0.2-4.7-1.6-8.7-5-11.9c-1.5-1.4-2.4-1.4-3.6,0.1
		c-1.2,1.4-2.1,3-2.9,4.7c-0.9,1.9-1.6,4-2.5,6.1c0-1.6,0.1-3.2,0.4-4.7c0.3-1.6,0.1-3.1-1.2-4.3c-1.2-1.1-2.3-2.2-3.6-3.1
		c-1-0.6-1.5-0.1-1.4,1.2c0.2,1.4,0.2,2.9,0.2,4.3c-0.1,1.4-0.3,2.9-0.5,4.3c-0.3,4.1-0.6,8.3-2.2,12.2c-1.1,2.6-2.2,5.3-3.5,7.8
		c-0.2,0.2-2.6,3.6-2,5.5s2.1,0.2,3-0.9c0.8-0.9,1.5-1.8,2-2.8c0.6-1,1-2.1,1.6-3.3c0.2,1.1,0,1.9,0.5,2.9c0.5,1,3.3,4.1,4.4,4.3
		c1.1,0.1,1.3,0.3,1.2-0.9c0-1.2-0.2-2.3,0-3.4c0.7-4,1.3-8,2.2-11.9c0.8-3.6,1.9-7.1,4.1-10.1c0.5-0.7,1.5-1.5,2-1.4
		c1.1,0.2,1,1.5,1,2.3c-0.2,3.4-0.4,6.9-0.7,10.3c-1,11-1.2,22,0.5,32.9c2.1,0,4-0.5,5.7-1.3C-1162.3,187-1162.3,180.1-1162,173.1z"
		/>
	<path class="st1" d="M-1183.1,154.1c-3.5-0.1-8.2-0.3-11.7-0.5c-0.1,0.3-0.2,0.1-0.1-0.2c0.6-3.3,1.2-6.7,1.9-10.1
		c1.8-8.1,3.6-16.4,5.4-24.5c0.8-3.5-0.3-6.4-2.9-8.8c-1-0.9-2.2-1.3-3.6-0.8c-3,1.3-6.1,1.2-9.3,0.8c-6.9-0.9-13.4-3.3-19.8-6.1
		c-8-3.6-15.9-7.6-24-11c-8.4-3.6-17.1-6.1-26.4-5.6c-6.7,0.3-13,2.1-18.3,6.5c-4.3,3.6-7.3,7.9-8.3,13.5c-0.3,1.9-0.2,3.8,1.1,5.4
		c0.9,1,1.2,0.9,1.9-0.2c1.4-1.9,2.8-3.9,4.4-5.5c5-4.9,11.3-7.1,18.2-8.1c7.1-1,14.2-0.5,21.1,1.3c10.7,2.9,21.3,6.1,31.9,9.3
		c6.8,2,13.6,4.4,20.8,5c0.9,0.1,1.8,0.2,2.7,0.3c-0.2,0.3-0.2,0.4-0.2,0.5c-9.6,13.4-19.9,26.4-31,38.6c-0.3,0.3-0.9,0.6-1.4,0.6
		c-3.4,0.1-6.7,0.2-10.2,0.2c-5.1,0.1-10.2,0.1-15.3,0.2c-0.8,0-2,0.5-2.1,0.8c-0.2,1.2-0.1,2.6,0.2,3.7c0.2,1,1.3,1.1,2.3,1.1
		c8.5-0.2,16.8-0.4,25.3-0.6c12.9-0.3,25.8-0.5,38.6-0.9c2.3-0.1,5,0.2,4.6,0.1C-1186.6,159.3-1182.8,154.1-1183.1,154.1z
		 M-1202.7,130.5c-1.9,7.3-3.6,14.5-5.4,21.8c-0.2,0.7-0.2,1.3-1.2,1.3c-5.4,0-10.9,0.2-16.3,0.2c-0.1,0-0.2-0.1-0.2-0.1
		c8.8-11,17.5-22.1,26-32.8C-1200.7,123.9-1201.8,127.2-1202.7,130.5z"/>
	<path class="st1" d="M-1116,112.2c-1.2-2.6-2.9-5-4.7-7.1c-1.7-2.1-3.6-1.9-5.4,0c-2.5,2.5-3.8,5.7-5,9c-3.2,8.8-4.7,17.8-5.1,27.1
		c-0.3,5.7-0.5,11.6,0.8,17.2c0.5,2,0.3,3.6-0.9,5.1c-0.8,0.9-1.4,2.1-2.2,2.9c-1.5,1.5-3,2.9-4.7,4c-3,1.8-5.2,0.3-6.4-2.9
		s-0.8-1.9-0.9-4.5c-3.2,1.4-5.9,0-8.9,1.5c0.6,3.7,2.2,7.1,5.5,9.4c6,4.3,10.9,3.8,15.3-0.5c1.7-1.7,3.3-3.6,4.9-5.4
		c0.3-0.4,0.7-0.8,1.1-1.3c0.5,0.7,0.8,1.2,1.2,1.6c1.4,1.5,2.7,3.1,4.3,4.3s3,1.8,4.5,1.7c0.5-1.9,0.6-3.7,0.5-5.7
		c-1.3,0.6-2.6,0.1-3.5-1.6c-0.4-0.7-0.9-1.6-1-2.3c-0.6-3.3-1.4-6.5-1.6-9.9c-0.6-11.6,0.5-23.1,4-34.2c0.8-2.5,2.2-4.8,3.4-7.1
		c0.2-0.4,1-0.8,1.2-0.6c0.4,0.2,0.9,0.9,0.9,1.4c0,1.2-0.2,2.4-0.3,3.6c-1.6,8.4-4.2,16.5-7.2,24.5c-1,2.7-0.6,5.3,0.5,7.8
		c0.2,0.3,0.4,0.5,0.8,1c0.3-0.7,0.6-1.2,0.9-1.8c1.2-3.5,2.6-6.9,3.6-10.4c2.2-7.1,4.3-14.2,5-21.6
		C-1115.4,115.7-1115.3,113.7-1116,112.2z"/>
	<path class="st1" d="M-1235.8,134.9c-2.4-4-6.3-4.3-10.4-3.8c-5.1,0.6-9.9,3.3-14.4,6.5c-9.4,6.9-16.8,15.5-21.5,26.2
		c-2.4,5.5-3.7,11.1-2.8,16.6c0.7,4.2,3.4,6.4,7.2,7.5c4.6,1.2,9-0.2,13.4-2.9c7.3-4.4,13.7-10.1,19.8-16.1c2.6-2.5,5.1-5.1,7.6-7.7
		c0.7-0.8,1.4-1.2,2.3-1c1.2,0.3,2.3,0.7,3.4,1.2c0.5,0.2,0.6,0.7,0,1.2c-5.4,5.3-10.6,10.7-16.1,15.8c-4.8,4.5-10.1,8.5-15.7,11.7
		c-5.3,3-10.6,5.1-16.1,4.2c-8.4-1.4-14.7-5.4-17.5-13.7c-1.6-4.9-1-10.2,0.6-15.5c4.1-13.7,12.3-24.7,23.7-33.6
		c5.4-4.3,11.2-7.4,17.6-8.5c7.2-1.2,13.5-0.1,17.9,5.2c1.1,1.2,1.7,2.7,1.5,4.7C-1235.1,133.6-1235.4,134.1-1235.8,134.9z"/>
	<path class="st1" d="M-1150.6,163.2c0,0-0.6-5.4,4-6.7s6.8-0.8,6.8-0.8s1.2-0.5,0-1.3c-1.2-0.9-5.6-3-9.5-2.5
		c-4,0.5-5.8,2.2-6.8,3.3c-1,1.1-2.7,4.2-3.1,6c-0.4,1.8-0.4,3.6-0.4,3.6L-1150.6,163.2z"/>
	<path class="st1" d="M-1150.6,163.2c0-0.6-4,0-4,0l-0.6,0.6l1,0.8l2.2-0.3l1-0.8L-1150.6,163.2z"/>
	<path class="st1" d="M-1124.4,168.7c0,0,1.6,0.6,2.2,0.1c0.6-0.5,1.8-2.2,4-6.8s3.4,2.2,3.4,2.2s-1.2,3.6-2.6,5.6
		c-1.5,2-2.8,4.7-5.4,4.6"/>
	<g>
		<path class="st1" d="M-1075.9,189.7c-0.1-0.3-0.5-0.7-0.8-0.6c-0.4,0.1-0.8,0.4-0.9,0.7c-0.4,0.9-0.6,1.8-1.1,2.6
			c-0.9,2-2.4,3.3-4.8,4.4c-2.4,1.1-5.4,1.3-7.1,1.3c-1.6-0.1-1.2,0-1.6-0.1c-3.7-0.6-7.4-0.9-11-1.9c-6.7-1.8-13.2-3.9-19.8-5.8
			c-8.1-2.3-16.3-4.4-24.8-4.7c-6.4-0.2-12.4,0.9-18,3.8c-5.5,2.9-9.6,7.1-12.2,12.4c-1.1,2.2-2,4.7-1.6,7.2c0.1,0.7,0.8,1.3,1.2,2
			c0.5-0.5,1-1,1.3-1.6c1.9-3.6,4.3-5,8.1-4c1.6,0.4,3.3,1.3,4.5,2.3c3.6,2.9,5.3,6.8,6.7,10.9c1.9,5.9,2.2,12,2,18.2
			c-0.2,6.1-1.2,12-4.4,17.5c-1.6,2.6-3.6,4.7-6.5,5.9c-6.7,2.6-12.6,1-17.8-3.1c-5.9-4.7-8.8-11.1-11.2-17.8
			c-3-8.8-4.3-17.8-4.7-27c-0.3-6.8-0.2-13.7,0.2-20.4c0.4-7.1,1.2-14,2-21c0.2-1.9-0.2-3.3-1.5-4.7c-1.2-1.2-2.6-2.3-4-3.3
			c-1.2-0.8-2.6-1.2-4.1-1.8c-0.2,0.5-0.3,0.9-0.4,1.2c-0.6,3.4-1.4,6.8-1.9,10.2c-2.2,13.8-3.7,27.7-2.6,41.7
			c0.8,10,2.8,19.8,7.4,29c4.4,8.8,10.5,16.4,20.6,20.6c8,3.3,16.1,3.7,24.1-0.2c6.9-3.3,11.1-8.8,13.7-15.3
			c4.5-11.6,3.6-23.3-1.4-34.6c-2.8-6.3-7.8-10.8-15-12.9c-1.9-0.5-4-0.8-6.4-1.3c2.4-1.4,4.3-2.9,6.5-3.9c4.8-2.3,9.9-3.2,15-3.1
			l0.2-0.3c0,0,0.4-0.8,1.5-1.9c1.1-1.2,1.8-3.8,1.8-4.3c0,0,1.4,4-0.1,6.7l0,0c1.2,0.1,2.6,0.2,3.9,0.5c7.1,1.2,13.9,3.6,20.6,6.1
			c6.7,2.4,13.4,4.9,20.2,7.2c4,1.3,8,2.3,12.3,2.2c3.3-0.1,6.4-0.9,9-2.9C-1074.8,202.2-1074.3,193.9-1075.9,189.7z"/>
	</g>
	<g>
		<path class="st1" d="M-1138.5-157.5c-0.1-0.1-0.3-0.2-0.4-0.2c-0.2,0-0.4,0.2-0.4,0.3c-0.2,0.3-0.3,0.6-0.4,0.9
			c-0.4,0.7-1.1,1.2-2.2,1.7c-0.1-0.1-0.1-0.3-0.2-0.3c-0.9-2.4-1.3-4.9-1.5-7.3c-0.2-2.1-0.2-4.2-0.3-6.3c0-1.7-1.3-2.9-3.4-3.8
			c-0.9-0.4-1.4-0.3-2,0.3s-1.1,1.2-1.4,1.8c-0.5,0.7-0.8,1.5-1.2,2.2c0-0.5,0.2,7,0.3,6.7c0.2-1.4,0.4-2.9,0.8-4.3
			c0.3-1.3,0.8-2.6,1.9-3.8c0.3-0.3,0.7-0.6,1.1-0.6c0.6,0,0.6,0.4,0.6,0.7c0,1.2,0,2.4,0.1,3.6c-0.1,4,0.2,7.9,1.9,11.6
			c0,0.1,1.3,3.2,2.2,3.5c0.9,0.3,2.6-0.6,3.6-1.4C-1137.4-153.6-1137.6-156.2-1138.5-157.5z"/>
		<path class="st1" d="M-1150.8-161.5c-0.2-2.1-0.2-4.2-0.3-6.3c0-1.7-1.3-2.9-3.4-3.8c-0.9-0.4-1.4-0.3-2,0.3s-1.1,1.2-1.4,1.8
			c-0.5,0.7-0.8,1.5-1.2,2.2c0-0.5-0.1-1.1,0-1.7c0.1-0.6-0.1-1.1-0.9-1.4c-0.7-0.3-1.4-0.6-2.2-0.8c-0.6-0.2-0.8,0.1-0.8,0.5
			c0.1,0.5,0.3,1,0.3,1.4s-0.1,1-0.1,1.5c0,1.1,0.2,6.8,0.6,7.5c0.4,0.6,1.7,0.8,2.7,1.1c0.5,0.2,0.7,0,0.7-0.4
			c-0.1-0.4-0.2-0.8-0.1-1.2c0.2-1.4,0.4-2.9,0.8-4.3c0.3-1.3,0.8-2.6,1.9-3.8c0.3-0.3,0.7-0.6,1.1-0.6c0.6,0,0.6,0.4,0.6,0.7
			c0,1.2,0,2.4,0.1,3.6C-1154.4-160.8-1150.5-159-1150.8-161.5z"/>
	</g>
	<path class="st1" d="M-843.7-93.7c-0.9,0.3-1.8,0.4-2.7,0.6c0-1.2,0-2.3,0-3.4c0-3.9,0.1-7.7,0.2-11.6c0.1-2.9-1.9-4.2-4.1-5.5
		c-0.7-0.4-1.1-0.1-1,0.7c0,0.9,0.1,1.8,0.1,2.7c-0.1,2.3-0.2,4.6-0.2,6.9c0,3.7,0,7.3,0,11c0,0.2-0.2,0.7-0.4,0.8
		c-2,0.5-4,0.9-6,1.3c0,0.2,0,0.1-0.1,0c-0.1-1.9-0.2-3.7-0.2-5.5c-0.1-4.5-0.2-9.1-0.2-13.6c0-1.9-1-3.3-2.8-4.2
		c-0.7-0.3-1.5-0.3-2.2,0.1c-1.6,1.1-3.3,1.6-5.2,1.8c-4.1,0.5-8.1,0.3-12.1-0.2c-5.1-0.7-10-1.6-15.1-2.2c-5.3-0.6-10.5-0.6-15.8,1
		c-3.8,1.2-7.1,3.1-9.5,6.1c-2,2.5-3.1,5.2-2.9,8.3c0.1,1,0.4,2,1.3,2.6c0.6,0.4,0.8,0.2,1.1-0.4c0.5-1.2,1-2.4,1.8-3.5
		c2.2-3.3,5.5-5.4,9.2-6.9c3.9-1.6,8-2.4,12.2-2.5c6.5-0.1,12.9,0,19.4,0.1c4.2,0.1,8.3,0.2,12.5-0.5c0.5-0.1,1.7-0.8,2.4-0.4
		c0.7,0.4,0.3,8.4,0.2,10.2c-0.1,3.7-0.1,7.4-0.1,11c0,0.4,0.1,0.6-0.5,0.8c-1.9,0.5-3.7,1-5.6,1.5c-3.7,1.1-8.1,2.2-8.3,2.2
		c-1.9,0.6-3.8,1.1-5.7,1.6c-2.9,0.8-5.8,1.6-8.6,2.4c-0.4,0.1-1.1,0.5-1.1,0.7c0.1,0.6,0.3,1.3,0.6,1.9c0.3,0.5,0.9,0.4,1.4,0.2
		c4.7-1.4,9.5-2.7,14.3-4.1c7.3-2.1,14.6-4.2,21.9-6.2c1.3-0.4,2.7-0.7,4-0.9c0.3,1.5,0.5,3,0.9,4.6c0.7,2.4,2,4.4,4.7,5.2
		c0.3,0.1,0.7,0.2,1,0.3c0.1-1.2,0.3-2.4,0.6-3.7c0-0.1-0.1-0.1-0.1-0.2c-0.7-1.4-1-3-1.5-4.5c-0.1-0.4-0.3-0.7-0.6-1
		c-1-0.9-2.2-1.1-3.6-1c-0.2,0-0.5,0-0.8,0c1.5-0.6,3-1,4.5-1.4c1.4-0.4,2.7-0.8,4.1-1.2c0.3-0.1,0.7-0.4,0.7-0.7
		C-841.4-93.3-842.5-94-843.7-93.7z"/>
	<path class="st1" d="M-858.5-85.1c-0.8,0.2-1.5,0.4-2.2,0.7c-0.8,0.4-1.6,0.9-2.2,1.4c-0.7,0.6-1,1.3-1,2.1c0,3.3,0.1,6.6-0.1,9.9
		c-0.2,3.2-0.5,6.4-1,9.6c-0.7,4.3-1.8,8.5-3.8,12.5c-1.5,3.1-3.4,6-6.7,8c-2.9,1.8-6,2.4-9.2,1c-1.4-0.6-2.4-1.7-3-2.9
		c-1.4-2.6-1.5-5.5-1.3-8.3c0.2-2.8,0.7-5.7,2-8.5c0.9-1.9,2-3.7,4-5c0.7-0.4,1.6-0.8,2.4-1c2-0.3,3.2,0.4,3.9,2.1
		c0.1,0.3,0.4,0.5,0.6,0.8c0.3-0.3,0.6-0.6,0.7-0.9c0.3-1.2,0-2.3-0.4-3.4c0-0.1-0.1-0.3-0.2-0.4c-1.2-0.5-2.6-0.8-4-1
		c0.1,0,0.1,0.1,0.2,0.1c-1.3,0.2-2.4,0.2-3.4,0.4c-3.8,0.8-6.6,2.8-8.3,5.6c-3.2,5.2-4.3,10.6-2.6,16.1c0.9,3.2,2.8,5.8,6.1,7.5
		c3.9,2,8,2,12.3,0.7c5.3-1.7,8.8-5.1,11.6-9.1c2.8-4.2,4.4-8.7,5.3-13.4c1.3-6.5,1.3-13,0.9-19.6c-0.1-1.6-0.3-3.2-0.4-4.8
		C-858.4-84.7-858.4-84.8-858.5-85.1z"/>
	<path class="st1" d="M-844.3-82.5c0,0,1.5,1.6,2.9,0.5s1.9-2,1.9-2s0.3-0.2,0.4,0.4c0.1,0.6,0.2,2,0.2,2s0.2,0.3-0.4,0.8
		c-0.6,0.5-2.3,1.6-3.3,1.9s-1.8,0.4-2.2,0.3C-845.3-78.8-844.3-82.5-844.3-82.5z"/>
	<g>
		<path class="st1" d="M-635,7.3c-0.5,1.8-0.7,3.8-1.9,5.4c-1,1.4-2.2,1.5-3.4,0.4c-0.4-0.3-0.8-0.7-1-1.2c-0.9-1.8-1.8-3.7-2.4-5.6
			c-2-6.9-2.9-13.9-2-21.2c0.2-1.6,0.8-3.3,1.3-4.8c0.1-0.2,0.6-0.6,0.8-0.6c0.3,0.1,0.7,0.4,0.8,0.7c0.2,0.7,0.3,1.5,0.2,2.2
			c0.1,5.3-0.6,10.6-1.5,15.9c-0.3,1.8,0.3,3.3,1.4,4.6c0.1,0.2,0.4,0.3,0.7,0.5c0.2-0.5,0.3-0.8,0.3-1.2c0.3-2.3,0.8-4.5,1-6.8
			c0.5-4.6,0.9-9.2,0.4-13.8c-0.1-1.1-0.4-2.4-1-3.1c-1.2-1.3-2.6-2.5-4.2-3.5c-1.4-0.9-2.7-0.6-3.7,0.9c-1.3,1.9-1.8,4.1-2.2,6.2
			c-0.9,5.8-0.6,11.5,0.3,17.1c0.6,3.5,1.3,7,2.9,10.2c0.6,1.2,2.3,3.9,2.7,4.3s1,0.8,1.3,1c1.1,0.7,2.2,1.4,3.5,1.9
			c2.4,1,4.4,0.4,5.7-1.6c0.5-0.7,0.8-1.4,1.1-2.2c0.3-0.8,0.6-1.4,0.7-2.5c0.1-1.1-0.9-3.5-1.6-4.8C-634.6,5.8-634.9,7.1-635,7.3z"
			/>
		<path class="st1" d="M-608.7-0.2c-1.1-2.7-2.4-5.1-5-6.4c0-0.4-0.1-1-0.4-1.2c-3-1.7-6.2-1.6-7.4,2.5c-0.9,3.3-0.3,6.5,1.2,9.4
			c1.4,2.7,3.5,4.9,6.5,6.2c2.7,1.1,4.8,0.2,5.6-2.5c0.3-1,0.3-1.9,0.4-2.9c0-0.7-0.3-0.9-1-1c-0.7,0-1.3,0.1-1.5,0.9
			c-0.1,0.4-0.1,0.8-0.2,1.2c-0.4,1.2-1.5,1.7-2.7,1.1c-0.4-0.3-0.8-0.6-1.2-0.9c-2.5-2.7-2.4-6.1-2.9-9.3c1,2.5,2.8,4.1,5.4,5.2
			c1.3,0.5,2.7,0.8,4,0.4C-608.1,1.3-608.7-0.3-608.7-0.2z M-611.6-0.4c-1.3-0.5-2.1-1.5-2.6-2.6c-0.1-0.2,0.1-0.5,0.2-0.8
			c0.2,0.1,0.7,0,0.8,0.2c0.7,1,1.4,2,2.1,2.9C-611.3-0.6-611.5-0.5-611.6-0.4z"/>
		<path class="st1" d="M-621.3,4.2c-0.6,1.8-1.1,3.7-2.4,5.3c-1.1,1.3-2.3,1.3-3.4,0.1c-0.3-0.4-0.7-0.9-0.9-1.3
			c-0.7-2-1.5-3.8-1.9-5.9c-1.4-7-1.5-14.2,0-21.3c0.4-1.6,1.1-3.2,1.8-4.7c0.1-0.2,0.7-0.6,0.8-0.5c0.3,0.1,0.7,0.5,0.7,0.8
			c0.1,0.7,0.1,1.5,0,2.2c-0.5,5.3-1.6,10.5-3,15.7c-0.5,1.8,0,3.3,0.9,4.7c0.1,0.2,0.3,0.3,0.6,0.5c0.2-0.5,0.3-0.8,0.4-1.2
			c0.6-2.2,1.2-4.5,1.6-6.8c1-4.6,1.8-9.1,1.7-13.8c0-1.1-0.1-2.3-0.7-3.2c-1-1.4-2.4-2.7-3.7-3.9c-1.3-1.1-2.6-0.8-3.7,0.6
			c-1.5,1.8-2.2,3.9-2.7,6c-1.5,5.7-1.8,11.4-1.3,17.2c0.2,3.6,0.6,7.1,1.9,10.5c0.5,1.2,2.5,4.9,3.5,5.7s2.1,1.6,3.3,2.2
			c2.3,1.1,4.4,0.7,5.8-1.1c0.5-0.7,1-1.4,1.3-2.1c0.4-0.8,0.7-1.6,1-2.4c-0.5-1.3-1-2.6-1.5-3.8C-621.2,3.9-621.2,4-621.3,4.2z"/>
		<g>
			<path class="st1" d="M-654.3,17.7c-1.6,1-3,0.5-3.4-1.2c-0.2-1.2-0.2-2.6,0-3.9c-1.3,0-2.6,0.1-3.8,0.5c0.3,2.4,1.3,4.5,3.3,6.4
				c1.1,1,2.2,1.3,3.6,1c0.3-1.1,0.7-2.2,0.9-3.3C-653.9,17.5-654.1,17.7-654.3,17.7z"/>
			<path class="st1" d="M-657.7,12.5c0.2-2.1,1.1-4,2.4-5.7c0.3-0.4,1-0.5,1.5-0.8c0.2,0.5,0.5,0.9,0.5,1.3c0,0.7-0.2,1.3-0.5,2
				c-0.3,0.8-0.8,1.3-1.8,1.4c-0.6,0.1-1,0.3-1,0.9c0,0.7,0.3,1,1,1.1c1.3,0.2,2.8-0.5,3.4-1.9c1.5-3.1,0.7-5.8-1.1-8.3
				c-1.2-1.7-2.8-1.9-4.6-0.5c-0.5,0.4-0.9,0.8-1.3,1.2c-1.4,1.8-1.9,3.8-2.3,5.8c-0.3,1.4-0.4,2.8-0.2,4.1c1.2-0.3,2.5-0.5,3.8-0.5
				C-657.7,12.7-657.7,12.5-657.7,12.5z"/>
			<path class="st1" d="M-649.3,11.8c-0.1,0.1-0.1,0.1-0.1,0.2c-1.2,2-2.4,3.9-4.4,5.4c-0.3,1.1-0.7,2.2-0.9,3.3
				c0.3-0.1,0.7-0.3,1.1-0.5c1.9-1,3.2-2.4,4.3-4.1c0.6-0.9,1.1-1.8,1.8-2.8c0-0.9-0.1-2.1-0.6-3.4
				C-648.2,10.1-649.1,11.6-649.3,11.8z"/>
		</g>
		<path class="st1" d="M-607.8,2.2c0,0,2.5-0.7,3.4-2.8s1.2-3.6,0.7-5.4c-0.5-1.7-0.7,0-0.7,0s0,0-0.2,1.8c-0.3,1.6-0.4,2.2-2.1,3.1
			s-2.9,0.8-2.9,0.8L-607.8,2.2z"/>
	</g>
	<g>
		<path class="st1" d="M-1232.6,35.5c-1.3,1.6-2.2,3.3-4.8,4.6c-1.5,0.8-3,1.1-4.8,0.9c-0.6-0.1-1.1-0.4-0.2-0.5
			c3.4-0.8,4.8-2.4,7.1-3.6c0.9-0.5,1.2-1,1.9-1.6C-1233.1,35.2-1232.8,35.4-1232.6,35.5z"/>
		<path class="st1" d="M-1235.3,30c-4.8,1-9.3,2.5-13.8,1.3c-0.9-0.2-1.5-1.2-1.2-2.4c0.5-1.7,1.2-0.3,1.9-0.3c3.5-0.1,7-0.1,10.5,0
			C-1237,28.6-1236,28.3-1235.3,30z"/>
		<path class="st1" d="M-1238.9,15.9c2.2,3.7,5.7,5,8.6,7.7c-4.3,2-6.6-0.8-9-2.9C-1240.4,19.7-1240.1,17.9-1238.9,15.9z"/>
	</g>
	<g>
		<path class="st1" d="M-1076.6,34.1c-2.7,1.9-5.7,2.6-8.8,2.2c-0.4-0.1-0.9-0.1-0.9-0.6c0-0.5,0.2-0.8,0.7-1c0.5-0.2,1-0.5,1.6-0.5
			C-1081.6,34.1-1079.1,34.1-1076.6,34.1z"/>
		<path class="st1" d="M-1088.8,33.6c0.5-1.5,1.5-2.6,2.9-3.7c0.2-0.2,0.4-0.3,1-0.2c0.5,0.1,0.4,0.3,0.3,0.4c-0.5,1-1.1,2-1.7,3
			C-1086.6,33.5-1087.6,33.5-1088.8,33.6z"/>
		<path class="st1" d="M-1094.6,24.7c1.4,0.2,1.8,1.1,2.1,1.9c0.6,1.5,1.1,3,1.7,4.5c0.2,0.7,0,1.2-0.6,1.5c-0.9,0.2-0.9-0.5-1.1-1
			C-1093.2,29.4-1094.2,27.2-1094.6,24.7z"/>
	</g>
	<g>
		<path class="st1" d="M-1175.6-160.9c-2.5,0.4-4.8,1.5-6.9,2.9c-1.3,1.1-3.5,2.7-4.9,3.7c-1.5,1-2.4,1.4-3.3,2.1
			c-3.2,2.2-6.8,3-10.5,3.4c-4.1,0.4-8.2-2.1-9.7-5.9c-0.7-1.9-1.4-1.5-2.4-0.7c-0.7,0.6-1.2,1.5-1.3,2.8
			c-0.3,5.5,4.9,12.4,9.5,12.6c3.4,0.1,6.6-0.7,9.6-2.5c2.4-1.4,6.6-4.4,9.2-6.2c3.3-3.1,2.8-2.9,9.3-7.1c0.6-0.4,1.4-0.9,2,0
			s0.6,2-0.1,3c0.3,0.8,5.1,8.2,5.9,0.1C-1168.1-161-1174.4-161.1-1175.6-160.9z"/>
		<path class="st1" d="M-1198.2-178.4c-1.9,0.3-3.9,0.9-6.1,1.2c-7,0.8-13.1-3.4-16.3-11.2c-0.4-1-0.8-2.1-1-3.1
			c-0.1-0.3,0.1-0.9,0.3-1s0.8,0.1,1,0.3c3.6,6.9,9.1,7.8,14.9,7.7c3.5-0.1,6.7-1.4,9.6-3.1c8.3-4.7,17.8,1.2,21.3,8.2
			c0.3,0.6,0.5,1.1,0.7,1.7c0.1,0.3,0,0.7-0.1,1.1c-0.3-0.2-0.7-0.2-0.8-0.5c-1.6-2.3-3.7-3.7-5.9-4.8c-4.1-2-7.9-1.3-11.6,0.6
			c-0.3,0.1-0.5,0.7-0.5,1.1c0.4,4.7-4.2,9.3-4.9,5C-1197.7-176.1-1198-177.2-1198.2-178.4z"/>
		<path class="st1" d="M-1194.4-183.7c0.8-0.1,1.2,0.5,1.4,1.4c1,9.7,1.9,19.5,2.8,29.2c0.2,1.9-1.4,4.4-2.9,4.7
			c-0.8,0.2-0.9-0.5-1-1.2c-0.3-2.6-0.8-5.3-1-8c-0.8-7-1.6-14-2.4-21.1C-1197.8-180.2-1200.5-182.9-1194.4-183.7z"/>
	</g>
	<g>
		<path class="st1" d="M-1262.2-99.6c0.8-1.5,1.2-2.9,1.2-4.4c0-1.5-0.2-2.7-0.8-3.7c-0.6-1-1.5-1.5-2.8-1.7
			c-1.3-0.1-2.9,0.4-4.7,1.6c-2.7,1.9-5,4.5-6.9,7.8c-1.9,3.3-3.5,6.9-4.6,10.8c-1.1,3.9-1.8,7.8-2.1,11.8c-0.2,4,0,7.6,0.6,10.8
			c0.6,3.2,1.8,5.8,3.4,7.8c1.7,2,3.8,2.9,6.4,2.8c2.2,0.1,4.1-1.4,5.7-4.6c1.6-3.2,3.3-8.6,5.1-16.1c0.2-1.1,0.4-2,0.5-2.8
			c0.1-0.7,0.1-1.4,0-2c-0.1-0.6-0.1-1.2-0.2-1.7c-0.1-0.6-0.1-1.3,0-2.1c0.6-1.2,1.4-2,2.5-2.5c1.1-0.5,2.2-0.6,3.4-0.5
			c1.2,0.1,2.2,0.4,3.1,0.9c0.9,0.5,1.5,1.2,1.7,2c0.3,0.9,0.7,2.4,1,4.5c0.4,2.1,0.8,4.5,1.1,7c0.4,2.5,0.7,5.1,1.2,7.6
			c0.4,2.5,0.9,4.7,1.4,6.5c0.5,1.8,1,3.1,1.6,3.8c0.6,0.7,1.3,0.4,2.1-0.8c0.2-0.3,0.3-0.6,0.5-1c0.2-0.4,0.3-0.9,0.6-1.5
			c1-2.6,1.9-5.3,2.7-8.2c0.8-2.9,1.6-5.7,2.2-8.4c0.7-2.7,1.3-5.2,1.7-7.4c0.5-2.2,0.9-4.1,1.3-5.6l3.5,0.3
			c-0.2,1.8-0.6,4.3-1.1,7.3c-0.6,3-1.3,6.3-2.1,9.8c-0.9,3.5-1.9,7-3,10.4c-1.1,3.4-2.3,6.4-3.6,9c-1,2.1-2.2,3.8-3.5,5.2
			c-2,1.8-3.7,2.7-5.2,2.4c-1.5-0.2-2.8-1.1-3.9-2.6c-1.1-1.5-2.1-3.4-3-5.7c-0.8-2.3-1.6-4.7-2.1-7.1c-0.6-2.4-1-4.7-1.4-6.9
			c-0.3-2.2-0.6-3.8-0.8-4.8c-0.9,2.7-1.9,5.7-3.1,9.2c-1.2,3.5-2.7,6.6-4.6,9.5c-1.9,2.9-4.2,5.1-7,6.6c-2.8,1.5-6.1,1.6-10.1,0.3
			c-3.6-1.3-6.4-3.8-8.4-7.5c-2-3.7-3.2-8.1-3.6-13.1c-0.4-5-0.1-10.2,0.9-15.6c1.1-5.5,2.8-10.5,5.2-15.1c2.4-4.6,5.6-8.5,9.4-11.7
			c3.8-3.2,8.3-5,13.3-5.3c2.7-0.2,5,0.3,7,1.6c2,1.3,3.2,2.9,3.6,4.9c0.7,3.3,0,6.5-2.1,9.7c-0.8,0.2-1.6,0-2.4-0.6
			C-1261.7-98.9-1262-99.2-1262.2-99.6z"/>
		<path class="st1" d="M-1208.1-82.9c0.1,2.2,0,4.4-0.3,6.7c-0.3,2.2-0.6,4.3-0.9,6c-0.2,1.8-0.3,3.3-0.2,4.4
			c0.1,1.2,0.6,1.8,1.7,1.9c0.4,0.1,0.8,0,1.2-0.3c0.4-0.3,0.7-0.6,1-1.1c0.6-0.9,1.1-2.1,1.5-3.6c0.5-1.5,0.9-3,1.2-4.7
			c0.3-1.6,0.6-3.1,0.9-4.6c0.2-1.4,0.5-2.5,0.7-3.2l1.5,0.6c-0.2,0.8-0.4,1.9-0.6,3.3c-0.2,1.4-0.5,2.9-0.8,4.5
			c-0.3,1.6-0.8,3.3-1.3,4.9c-0.5,1.7-1.2,3.2-1.9,4.6c-0.8,1.5-1.9,2.5-3.1,3c-1.3,0.5-2.5,0.6-3.7,0.4c-1.2-0.2-2.1-0.6-2.8-1.3
			c-0.7-0.7-1.2-1.4-1.6-2.3c-0.4-0.9-0.6-1.8-0.7-2.8c-0.1-1-0.1-2-0.1-2.9c0-1.3,0.1-2.6,0.2-3.9c0.1-1.3,0.2-2.6,0.4-3.9
			c0.1-1.2,0.3-2.4,0.4-3.4c0.1-1.1,0.1-2,0.1-2.7c0-1.3-0.4-2-1-1.9c-0.6,0.1-1.2,0.6-1.7,1.6c-0.6,1.1-1.2,2.6-1.9,4.3
			c-0.7,1.8-1.3,3.5-1.9,5.2c-0.6,1.7-1.1,3.2-1.4,4.6c-0.4,1.3-0.5,2.1-0.5,2.3c0.2,1.1,0.4,1.9,0.5,2.4c0.1,0.5,0.1,0.9,0.2,1.3
			c0,0.3,0.1,0.7,0.2,1.1c0.1,0.4,0.2,1,0.4,1.9c0,0.1-0.2,0.3-0.7,0.4c-0.5,0.1-1.1,0.2-1.8,0.3c-0.7,0.1-1.3,0.1-1.9,0.1
			c-0.6,0-1,0-1.1,0c-0.6-1.7-1.3-3.7-2-6.2c-0.7-2.5-1.3-5-1.8-7.5c-0.6-2.5-1-4.9-1.4-7.1c-0.3-2.2-0.5-4-0.5-5.2
			c0-0.1,0.2-0.2,0.5-0.3c0.4-0.1,0.8-0.2,1.4-0.3c0.6-0.1,1.1-0.1,1.8-0.2c0.6-0.1,1.1-0.1,1.6-0.1c0.2,0.6,0.5,1.5,0.8,2.7
			c0.3,1.1,0.6,2.4,0.9,3.8c0.3,1.4,0.7,2.9,1.1,4.5c0.4,1.6,0.8,3.2,1.1,4.7c0-0.6,0.2-1.5,0.6-2.8c0.4-1.3,0.9-2.7,1.5-4.2
			c0.6-1.6,1.3-3.2,2-4.8c0.7-1.7,1.6-3.2,2.4-4.5c1.3-2.1,2.5-3.4,3.7-3.8c1.2-0.4,2.2-0.3,3.1,0.3c0.9,0.7,1.7,1.8,2.2,3.2
			C-1208.5-86.2-1208.2-84.6-1208.1-82.9z"/>
		<path class="st1" d="M-1172-85.7l1.4,0.1c0,0.2-0.1,0.9-0.3,2c-0.2,1.1-0.4,2.4-0.8,3.9c-0.3,1.5-0.8,3.1-1.3,4.7
			c-0.5,1.6-1.2,3.1-2,4.3c-0.3,0.5-0.7,0.9-1.1,1.4c-0.5,0.5-0.9,0.9-1.4,1.2c-0.5,0.3-1,0.6-1.6,0.7c-0.6,0.1-1.1,0-1.7-0.2
			c-0.7-0.3-1.3-0.8-1.8-1.5c-0.6-0.8-1.1-1.6-1.5-2.7c-0.4-1-0.8-2.1-1.2-3.3c-0.3-1.2-0.6-2.3-0.9-3.4c-0.5,0.8-1,1.8-1.5,2.9
			c-0.5,1.1-1.2,2.1-1.8,3.2c-0.7,1-1.4,2-2.2,2.9c-0.8,0.9-1.6,1.6-2.4,2.1c-0.8,0.5-1.7,0.7-2.6,0.7c-0.9,0-1.8-0.5-2.7-1.3
			c-1-0.9-1.8-2-2.4-3.5c-0.6-1.5-0.9-3-1-4.7c-0.1-1.7,0-3.4,0.3-5.1c0.3-1.8,0.8-3.4,1.5-5c0.3-0.7,0.8-1.5,1.6-2.5
			c0.7-1,1.6-1.9,2.5-2.7c0.9-0.8,1.9-1.3,2.9-1.5c1-0.2,1.9,0.1,2.6,1c0.3,0.3,0.5,0.8,0.8,1.3c0.3,0.5,0.5,1.3,0.8,2.4
			c0,0.5-0.2,0.8-0.7,1c-0.5,0.1-0.8,0-0.9-0.5c-0.2-1-0.4-1.7-0.7-2.3c-0.3-0.6-0.8-0.8-1.7-0.6c-0.5,0.1-1,0.4-1.3,0.9
			c-0.4,0.5-0.7,1-1,1.7c-0.6,1.3-1.1,2.9-1.3,4.8c-0.3,1.9-0.4,3.8-0.3,5.6c0.1,1.8,0.4,3.5,0.8,4.9c0.4,1.4,1.1,2.3,2,2.6
			c0.8,0.3,1.9-0.5,3.3-2.4c1.4-2,3-4.9,4.8-8.7c-0.5-2.5-0.9-5.3-1.3-8.2c-0.4-3-0.7-5.9-1-9c-0.3-3-0.5-6-0.6-8.9
			c-0.1-2.9-0.1-5.5,0-8c0.1-2.4,0.4-4.5,0.9-6.2c0.5-1.7,1.1-3,2-3.7c1.6-1.3,3.3-1.9,5.2-1.6c1.8,0.2,3.3,1.2,4.4,2.8
			c1,1.5,1.6,3.3,1.8,5.4c0.3,2.1,0.3,4.4,0.1,6.9c-0.2,2.5-0.5,5-1.1,7.5c-0.5,2.6-1.1,5-1.8,7.2c-0.6,2.3-1.3,4.3-1.9,6.1
			c-0.6,1.8-1.1,3.2-1.5,4.1c0.2,1,0.4,2.2,0.5,3.5c0.1,1.3,0.3,2.7,0.5,4c0.2,1.3,0.4,2.6,0.7,3.7c0.3,1.1,0.7,1.9,1.2,2.4
			c0.6,0.6,1.1,0.8,1.7,0.5c0.5-0.3,1-0.8,1.5-1.7c0.5-0.8,0.9-1.8,1.2-3c0.4-1.2,0.7-2.3,1-3.4c0.3-1.1,0.5-2.1,0.7-3
			C-1172.2-84.8-1172.1-85.4-1172-85.7z M-1182-90.4c0.8-2.1,1.6-4.4,2.3-7c0.7-2.5,1.3-5.2,1.8-7.8c0.5-2.7,0.8-5.3,1-7.9
			c0.2-2.6,0.1-4.9-0.2-7.1c-0.1-0.9-0.5-1.7-1-2.6c-0.5-0.9-1.1-1.5-1.7-1.9c-0.6-0.4-1.3-0.5-1.9-0.4c-0.6,0.2-1.1,0.9-1.4,2
			c-0.4,1.2-0.6,2.7-0.6,4.6c-0.1,1.9-0.1,4,0,6.2c0.1,2.3,0.2,4.5,0.4,6.9c0.2,2.3,0.3,4.5,0.6,6.5c0.2,2,0.4,3.8,0.5,5.3
			C-1182.2-92-1182.1-91-1182-90.4z"/>
		<path class="st1" d="M-1170.7-95.7c-0.5-0.4-1-0.7-1.6-1c-0.6-0.3-1.1-0.6-1.7-1s-0.9-0.7-1.3-1.2c-0.3-0.5-0.4-1.1-0.3-1.8
			c0.1-0.5,0.2-0.9,0.5-1.3c0.3-0.4,0.6-0.7,1-1c0.4-0.3,0.8-0.5,1.2-0.6c0.4-0.1,0.8-0.2,1.1-0.1c0.8,0.1,1.4,0.4,1.8,1
			c0.4,0.5,0.6,1.1,0.7,1.8c0.1,0.7,0.2,1.4,0.1,2.1c0,0.7,0,1.4-0.1,1.9c0.3,0.1,0.6,0.2,0.9,0.4c0.3,0.2,0.6,0.3,1,0.5
			c2.1,1.2,3.7,2.4,4.7,3.5c1,1.2,1.7,2.3,2,3.5c0.3,1.2,0.3,2.4,0,3.5c-0.3,1.2-0.7,2.4-1.1,3.6c-0.5,1.2-1,2.5-1.5,3.8
			c-0.5,1.3-0.9,2.6-1.1,4c-0.1,0.6-0.1,1.1-0.2,1.6c0,0.5,0,1,0.1,1.4c0.1,0.4,0.3,0.6,0.6,0.8c0.3,0.2,0.7,0.1,1.2-0.1
			c0.8-0.3,1.6-1,2.4-2.1c0.8-1.2,1.4-2.5,2.1-4.1c0.6-1.6,1.2-3.2,1.6-5c0.5-1.7,0.9-3.3,1.2-4.8c0.3-1.4,0.7-3.1,1-5l1.5,0.5
			c-0.2,0.9-0.4,2.3-0.8,4.4c-0.4,2.1-0.9,4.2-1.7,6.5c-0.7,2.3-1.6,4.5-2.6,6.6c-1,2.1-2.2,3.6-3.6,4.7c-0.8,0.6-1.7,0.9-2.7,1.2
			c-1,0.2-1.9,0.2-2.8,0c-0.9-0.2-1.7-0.6-2.4-1.1c-0.7-0.6-1.1-1.3-1.3-2.3c-0.2-1-0.1-2.1,0.1-3.3c0.2-1.2,0.6-2.5,1-3.9
			c0.4-1.3,0.9-2.7,1.5-4c0.5-1.4,1-2.6,1.4-3.8c0.4-1.2,0.7-2.3,0.9-3.4c0.2-1,0.1-1.9-0.2-2.6c-0.1-0.7-0.6-1.3-1.3-1.9
			c-0.7-0.6-1.4-1-2.2-1.4c-0.1,0.9-0.1,1.8-0.2,2.8c-0.1,1-0.2,2-0.3,3c-0.1,1-0.3,1.9-0.4,2.8c-0.1,0.9-0.3,1.6-0.5,2.3
			c-0.2-0.1-0.4-0.1-0.6-0.1c-0.3,0-0.5-0.1-0.8-0.2c0.1-0.6,0.2-1.5,0.3-2.6c0.1-1.1,0.3-2.3,0.5-3.4c0.2-1.2,0.3-2.2,0.5-3.1
			C-1170.8-94.9-1170.7-95.5-1170.7-95.7z M-1170.4-97.6c0-0.4,0-0.9,0-1.4c0-0.5,0-1.1-0.1-1.6c-0.1-0.5-0.3-0.9-0.5-1.3
			c-0.3-0.4-0.7-0.6-1.2-0.6c-0.2,0-0.5,0.1-0.6,0.3c-0.2,0.2-0.3,0.5-0.4,0.8c-0.1,0.3-0.1,0.7,0,1c0.1,0.4,0.3,0.7,0.6,1.1
			c0.2,0.3,0.5,0.6,1,0.8C-1171.3-98.2-1170.9-97.9-1170.4-97.6z"/>
		<path class="st1" d="M-1149.5-93.2c-0.5,1.9-0.8,4-1,6.2c-0.2,2.3,0,4.3,0.5,6.1c0.4,1.3,1,2.2,1.9,2.8c0.9,0.6,1.9,0.9,2.9,0.9
			c1,0,2.1-0.2,3.1-0.6c1.1-0.4,1.9-1.1,2.6-1.9c0.7-0.8,1.2-1.7,1.6-2.6c0.4-1,0.7-2,1-3c0.3-1.4,0.6-2.7,0.8-4.1
			c0.2-1.4,0.5-2.6,0.7-3.6l1.5-0.1c-0.2,1.1-0.4,2.4-0.7,3.8c-0.2,1.4-0.5,2.8-0.9,4.2c-0.5,2.3-1.3,4.3-2.3,6
			c-1,1.7-2.4,2.9-4.2,3.9c-1.4,0.7-2.8,1.1-4.1,1.1c-1.3,0-2.5-0.2-3.6-0.7c-1.1-0.5-2-1.2-2.8-2.2c-0.8-1-1.5-2.2-1.9-3.6
			c-0.7-2.1-1.2-4.7-1.3-7.8c-0.1-3.1,0.3-6.1,1.2-9.2c0.4-1.2,0.8-2.4,1.4-3.7c0.6-1.3,1.3-2.4,2.2-3.4c0.8-1,1.8-1.7,2.9-2.1
			c1.1-0.4,2.4-0.3,3.9,0.2c1.2,0.5,2.2,1.3,3,2.4c0.7,1.1,1.2,2.3,1.4,3.6c0.2,1.3,0.1,2.5-0.3,3.8c-0.4,1.2-1,2.2-1.9,2.9
			c-0.8,0.6-1.9,1-3.3,1.2C-1146.5-92.6-1148-92.7-1149.5-93.2z M-1149.2-94.7c1.5,0.5,2.9,0.6,3.9,0.4c1.1-0.2,1.9-0.6,2.5-1.2
			c0.6-0.6,1-1.4,1.2-2.5c0.2-1.1,0.1-2-0.1-3c-0.2-0.9-0.7-1.7-1.2-2.2c-0.6-0.5-1.3-0.6-2.3-0.2c-0.5,0.2-0.9,0.6-1.3,1.1
			c-0.4,0.6-0.7,1.2-1.1,2c-0.3,0.8-0.6,1.7-0.9,2.6C-1148.7-96.7-1149-95.7-1149.2-94.7z"/>
		<path class="st1" d="M-1122.1-104.3c0.3-0.6,0.5-1.2,0.5-1.9c0-0.6-0.1-1.1-0.3-1.5c-0.2-0.4-0.6-0.6-1.2-0.7
			c-0.5-0.1-1.2,0.2-2,0.7c-1.1,0.8-2.1,1.9-2.9,3.3c-0.8,1.4-1.4,2.9-1.9,4.5c-0.5,1.6-0.8,3.3-0.9,4.9c-0.1,1.7,0,3.2,0.2,4.5
			c0.3,1.3,0.7,2.4,1.4,3.2c0.7,0.8,1.6,1.2,2.7,1.2c0.9,0.1,1.7-0.6,2.4-1.9c0.7-1.3,1.4-3.6,2.1-6.7c0.1-0.5,0.2-0.9,0.2-1.2
			c0-0.3,0-0.6,0-0.8c0-0.2-0.1-0.5-0.1-0.7c0-0.2,0-0.5,0-0.9c0.2-0.5,0.6-0.8,1.1-1c0.5-0.2,0.9-0.3,1.4-0.2
			c0.5,0,0.9,0.2,1.3,0.4c0.4,0.2,0.6,0.5,0.7,0.8c0.1,0.4,0.3,1,0.4,1.9c0.2,0.9,0.3,1.9,0.5,2.9c0.1,1.1,0.3,2.1,0.5,3.2
			c0.2,1.1,0.4,2,0.6,2.7c0.2,0.8,0.4,1.3,0.7,1.6c0.2,0.3,0.5,0.2,0.9-0.3c0.1-0.1,0.1-0.3,0.2-0.4c0.1-0.2,0.1-0.4,0.2-0.6
			c0.4-1.1,0.8-2.2,1.1-3.5c0.3-1.2,0.7-2.4,0.9-3.5c0.3-1.1,0.5-2.2,0.7-3.1c0.2-0.9,0.4-1.7,0.6-2.4l1.4,0.1
			c-0.1,0.8-0.2,1.8-0.5,3.1c-0.2,1.3-0.5,2.6-0.9,4.1c-0.4,1.5-0.8,2.9-1.2,4.4c-0.5,1.4-1,2.7-1.5,3.7c-0.4,0.9-0.9,1.6-1.5,2.2
			c-0.8,0.8-1.6,1.1-2.2,1c-0.6-0.1-1.2-0.5-1.6-1.1c-0.5-0.6-0.9-1.4-1.2-2.4c-0.4-1-0.7-2-0.9-3c-0.2-1-0.4-2-0.6-2.9
			c-0.1-0.9-0.3-1.6-0.3-2c-0.4,1.1-0.8,2.4-1.3,3.9c-0.5,1.4-1.1,2.8-1.9,4c-0.8,1.2-1.8,2.1-2.9,2.8c-1.2,0.6-2.6,0.7-4.2,0.1
			c-1.5-0.5-2.7-1.6-3.5-3.1c-0.8-1.6-1.3-3.4-1.5-5.5c-0.2-2.1-0.1-4.3,0.4-6.5c0.4-2.3,1.2-4.4,2.2-6.3c1-1.9,2.3-3.6,3.9-4.9
			c1.6-1.3,3.5-2.1,5.6-2.2c1.1-0.1,2.1,0.1,2.9,0.7c0.8,0.5,1.3,1.2,1.5,2.1c0.3,1.4,0,2.7-0.9,4.1c-0.3,0.1-0.7,0-1-0.2
			C-1121.9-104-1122-104.2-1122.1-104.3z"/>
	</g>
	<path class="st1" d="M-673,28.2c1.3,0.5,2.2-0.1,2.7-1.7c0.5-1.6,0.8-3.8,0.8-6.7c0-2.9-0.2-6.2-0.7-10c-0.4-3.8-1-7.6-1.6-11.6
		c-1.3,0.3-2.6,0.6-3.8,0.9c-1.2,0.3-2.4,0.6-3.6,1c-1.2,0.3-2.4,0.7-3.7,1.1c-1.3,0.4-2.6,0.9-3.9,1.5c0.3,3.7,0.5,7.5,0.6,11.2
		c0,3.8-0.2,7.2-0.6,10.4c-0.4,3.2-1.2,5.9-2.2,8.2c-1,2.3-2.4,3.8-4.1,4.6c-0.5,0.2-1.2,0.3-2.2,0.3c-1,0-2.1-0.1-3.2-0.2
		c-1.1-0.1-2.2-0.3-3.2-0.6c-1-0.2-1.8-0.5-2.3-0.7c-0.2-0.1-0.3-0.3-0.3-0.6c0-0.3,0-0.7,0-1c0-0.4,0.1-0.7,0.3-0.9
		c0.1-0.2,0.2-0.3,0.4-0.2c0.6,0.2,1.2,0.4,1.7,0.6c0.6,0.2,1.2,0.4,1.7,0.5c0.6,0.1,1.2,0.2,1.8,0.2c0.6,0,1.2-0.2,1.7-0.5
		c1-0.3,1.7-1,2.2-2.1c0.5-1.1,0.9-2.5,1.1-4.1c0.2-1.6,0.3-3.4,0.2-5.4c-0.1-2-0.2-4-0.3-6c-0.1-2-0.3-4-0.5-5.9
		c-0.2-1.9-0.3-3.6-0.4-5.1c-2.8,1.6-4.3,3.6-4.6,5.8c-0.3,2.2,0.7,4.9,3.2,7.9c0.3,0.3,0.3,0.6,0.2,0.9c-0.1,0.2-0.4,0.4-0.7,0.6
		c-0.3,0.1-0.7,0.2-1.1,0.1c-0.4-0.1-0.7-0.3-0.8-0.6c-1.5-1.7-2.5-3.5-2.9-5.2c-0.4-1.7-0.4-3.3,0-4.8c0.4-1.5,1.2-2.8,2.3-4.1
		c1.1-1.2,2.5-2.2,4.1-3.1c-0.4-3.6-0.9-7.2-1.4-10.7c-0.6-3.5-1.2-6.8-1.8-9.7c-0.6-3-1.2-5.6-1.8-7.8c-0.6-2.2-1-3.9-1.3-4.9
		c0-0.5,0.3-0.9,1.1-1.1c0.8-0.3,1.6-0.4,2.5-0.4c0.9,0,1.8,0.2,2.6,0.5c0.8,0.3,1.3,0.7,1.5,1.3c0.3,1.4,0.8,3.2,1.4,5.3
		c0.6,2.1,1.2,4.5,1.7,7.2c0.6,2.6,1.2,5.4,1.8,8.4c0.6,3,1.1,6.1,1.5,9.2c2.8-0.9,5.3-1.7,7.6-2.3c2.3-0.6,4.8-1.2,7.4-1.6
		c-0.6-3.1-1.2-6.1-1.8-9.1c-0.6-3-1.1-5.7-1.6-8.2c-0.5-2.5-0.9-4.8-1.3-6.8c-0.4-2-0.8-3.6-1.1-4.8l3.4-0.6c0.1,0.8,0.4,2.2,0.8,4
		c0.4,1.8,0.9,4,1.4,6.6c0.5,2.5,1.1,5.3,1.7,8.4c0.6,3.1,1.2,6.2,1.7,9.4c0.1,0,0.4-0.1,0.9-0.2c0.5-0.1,1-0.2,1.5-0.3
		c0.5-0.1,1-0.2,1.5-0.2s0.8-0.1,1-0.1c0.1,0,0.2,0.1,0.3,0.3c0.1,0.2,0.1,0.4,0.2,0.6c0,0.2,0,0.4,0,0.6c0,0.2-0.1,0.3-0.2,0.3
		c-0.5,0.1-1.2,0.2-2.1,0.4c-0.9,0.2-1.7,0.5-2.6,0.9c0.6,3.9,1.2,7.8,1.6,11.7c0.4,3.9,0.6,7.4,0.6,10.5c0,3.1-0.4,5.8-1.2,7.9
		c-0.7,2.1-1.9,3.4-3.5,3.7c-0.5,0.1-0.9-0.1-1.4-0.5c-0.4-0.4-0.8-0.9-1-1.3c-0.2-0.5-0.3-0.9-0.3-1.2
		C-673.7,28.1-673.5,28-673,28.2z"/>
	<path class="st1" d="M-1246.5-132.4c-1.5-1.2-2.5-2.7-3.1-4.6c-0.6-1.9-1-3.9-1.4-6c-0.4-2.2-0.6-4.4-0.6-6.6c0-2.3,0-4.6,0.1-7
		c0-0.7,0-1.4,0.1-2.2c0.1-0.7,0.2-1.5,0.3-2.4c0-0.4,0.4-0.8,1.1-1.3c0.7-0.5,1.4-0.8,2.1-1c0.7-0.2,1.4-0.2,2,0
		c0.6,0.2,0.8,0.8,0.7,1.8c-0.1,0.7-0.1,1.7-0.1,3.1c0,1.4,0.1,2.9,0.2,4.6c0.1,1.7,0.2,3.4,0.4,5.2c0.2,1.8,0.4,3.5,0.6,5
		c0.3,1.9,0.7,3.4,1.1,4.6c0.4,1.2,1,1.6,1.6,1.2c0.5-1.2,1-2.4,1.4-3.7c0.4-1.3,0.8-2.6,1.2-3.8c0.4-1.2,0.7-2.3,0.9-3.4
		c0.3-1,0.5-1.9,0.7-2.5l1.6,0.2c-0.1,0.8-0.4,1.9-0.7,3.3c-0.3,1.4-0.7,2.9-1.2,4.4c-0.5,1.6-1,3.2-1.6,4.7c-0.6,1.6-1.2,2.9-1.8,4
		c-0.3,0.5-0.6,1-1,1.5c-0.4,0.5-0.9,0.8-1.4,1.1c-0.5,0.3-1,0.4-1.6,0.4C-1245.3-131.6-1245.9-131.9-1246.5-132.4z M-1246.9-166.7
		c-1.3,0.9-2.3,1.1-3.1,0.6c-0.8-0.4-1.3-1.1-1.5-2c-0.2-0.9-0.1-1.9,0.4-2.8c0.5-1,1.4-1.6,2.6-1.9c0.6,0,1.1,0.2,1.7,0.8
		c0.5,0.6,0.9,1.2,1,2c0.1,0.7,0,1.4-0.2,2C-1246.3-167.4-1246.6-166.9-1246.9-166.7z"/>
	<path class="st1" d="M-1192.4,28.9c-0.1,3.7-0.8,8.5-1.5,10.7l-2.3,0.9c0.3-2.6,0.3-7.1,0-10.2L-1192.4,28.9z"/>
	<g>
		<path class="st1" d="M-657.6,31.4c-0.2-0.1-0.6,0-0.9,0.1c0.1,0.2,0,0.6,0.1,0.8c2.1,2.3,3.7,5.7,3.4,7.9s1.5,3.5,3.1,1.7
			c0-4-0.4-5.4-3.1-8.6C-655.7,32.5-656.7,32-657.6,31.4z"/>
		<path class="st1" d="M-664.3,71.6c1.7,0.3,3,0.4,3.9,0c0.9-0.3,1.5-0.8,1.9-1.5c0.4-0.7,0.6-1.5,0.6-2.5c0-1,0-2,0.1-3.1
			c0-1.5-0.1-3.2-0.3-5c-0.2-1.8-0.5-3.6-0.8-5.4c-0.3-1.8-0.7-3.6-1.2-5.3c-0.5-1.7-1-3.3-1.7-4.7c-0.6-1.3-1.3-2.4-2-3.2
			c-0.8-0.8-1.5-1.2-2.2-1.3c-0.7-0.1-1.3,0.3-1.9,1c-0.6,0.8-1,2-1.3,3.8c-0.1,0.6-0.2,1.4-0.2,2.4c0,1,0,2,0.1,3
			c0.1,1,0.3,2,0.6,2.9c0.3,0.9,0.8,1.5,1.4,1.9c0.3,0.2,0.6,0.3,1,0.3c0.4,0,0.8,0,1.3-0.2c-0.1-0.2-0.3-0.6-0.6-1.2
			c-0.3-0.5-0.6-1.1-0.8-1.6c-0.2-0.6-0.3-1.1-0.3-1.6c0-0.5,0.3-0.9,0.9-1.1c0.5-0.1,1,0.1,1.4,0.4c0.5,0.4,0.8,0.9,1.1,1.4
			c0.3,0.6,0.4,1.2,0.4,1.9c0,0.7-0.3,1.3-0.8,1.9c0.1,0.2,0.1,0.5,0.2,0.8c0.1,0.3,0.2,0.5,0.4,0.8l-0.9,0.3l-0.7-1.2
			c-0.8,0.2-1.4,0.3-2,0.2c-0.5-0.1-1-0.2-1.4-0.5c-0.6-0.4-1.1-1.1-1.5-1.9c-0.4-0.9-0.6-1.8-0.8-2.8c-0.2-1-0.3-2.1-0.3-3.1
			c0-1,0-1.9,0-2.7c0-0.6,0.1-1.3,0.2-2.1c0.1-0.8,0.4-1.5,0.7-2.2c0.3-0.7,0.8-1.4,1.4-2c0.6-0.6,1.3-1.2,2.2-1.6
			c1.1-0.5,2.2-0.4,3.3,0.4c0.8,0.5,1.7,1.4,2.5,2.6c0.9,1.3,1.7,2.9,2.5,4.7c0.8,1.8,1.4,3.8,2,5.9c0.6,2.1,1,4.2,1.3,6.4
			c0.3,2.2,0.5,4.2,0.5,6.1c0,2.1-0.2,3.9-0.5,5.3c-0.3,1.4-0.9,2.5-1.8,3.4c-0.8,0.8-1.9,1.3-3.3,1.5c-1.4,0.2-3.1,0.1-5.1-0.2
			c-0.2,0-0.3-0.1-0.3-0.2c0-0.1,0-0.3,0-0.4c0.1-0.2,0.1-0.3,0.2-0.4C-664.6,71.6-664.5,71.6-664.3,71.6z M-664.3,54.4
			c0.3-0.1,0.5-0.4,0.5-0.9c0-0.5,0-1-0.2-1.6c-0.2-0.6-0.4-1-0.7-1.4c-0.3-0.4-0.7-0.5-1.1-0.4c-0.1,0-0.2,0.3,0,0.7
			c0.1,0.4,0.3,0.9,0.5,1.4c0.2,0.5,0.4,1,0.6,1.4C-664.4,54.1-664.3,54.3-664.3,54.4z"/>
		<path class="st1" d="M-645.8,47.3l2.5,10.4c0.2-0.5,0.3-1.3,0.3-2.2c0-0.9,0.1-1.9,0.1-2.9c0-1.1,0.1-2.1,0.2-3.2
			c0.1-1.1,0.3-2,0.6-2.9c0.3-0.9,0.7-1.6,1.2-2.1c0.5-0.6,1.3-0.8,2.2-0.9c0.9,0,1.6,0.4,2.1,1.1c0.5,0.7,1,1.6,1.3,2.7
			c0.3,1.1,0.6,2.3,0.8,3.5c0.2,1.2,0.4,2.4,0.6,3.3c0.2,1,0.4,1.5,0.7,1.5c0.3-0.1,0.6-0.7,0.9-1.8c0.3-1,0.5-2.2,0.7-3.5
			c0.2-1.3,0.4-2.5,0.6-3.7c0.2-1.2,0.5-2.3,0.7-3.2c0.3-0.9,0.6-1.6,1.1-2c0.6-0.4,1.1-0.8,1.5-1c0.5-0.2,0.9-0.3,1.3-0.2
			c0.4,0.1,0.7,0.2,1,0.5c0.3,0.2,0.6,0.6,0.8,0.9c0.6,1,1,2.1,1.2,3.2c0.2,1.1,0.4,2.2,0.4,3.4c0.1,1.1,0.1,2.3,0.2,3.4
			c0.1,1.1,0.3,2.2,0.6,3.2c0.1,0.5,0.3,0.9,0.5,1.2c0.2,0.3,0.4,0.5,0.7,0.6c0.2,0.1,0.5,0,0.8-0.2c0.3-0.2,0.6-0.7,0.9-1.3
			c0.3-0.7,0.6-1.6,0.9-2.6c0.3-1,0.5-1.9,0.7-2.9c0.2-0.9,0.4-1.8,0.5-2.6c0.1-0.8,0.2-1.3,0.2-1.6l1,0c-0.1,0.7-0.2,1.4-0.4,2.3
			c-0.1,0.9-0.3,1.8-0.5,2.7c-0.2,0.9-0.4,1.9-0.7,2.8c-0.3,0.9-0.6,1.8-1,2.6c-0.2,0.4-0.5,0.9-0.8,1.4c-0.3,0.5-0.7,0.9-1.2,1.2
			c-0.4,0.4-0.9,0.7-1.4,0.9c-0.5,0.2-1,0.3-1.5,0.3c-0.6,0-1.2-0.2-1.8-0.7c-0.6-0.4-1.1-1.2-1.5-2.3c-0.3-0.8-0.5-1.7-0.6-2.7
			c-0.1-1-0.1-1.9-0.1-2.9c0-1,0-1.9,0.1-2.8c0-0.9,0-1.8-0.1-2.5c-0.1-0.6-0.2-1-0.4-1.4c-0.2-0.4-0.4-0.6-0.6-0.7
			c-0.2-0.1-0.5-0.2-0.7-0.1c-0.2,0.1-0.4,0.3-0.5,0.6c-0.1,0.4-0.3,1.2-0.5,2.3c-0.2,1.1-0.3,2.3-0.5,3.6c-0.2,1.3-0.4,2.6-0.7,3.9
			c-0.3,1.3-0.6,2.4-0.9,3.2c-0.2,0.5-0.5,0.9-0.9,1.2c-0.3,0.3-0.7,0.4-1.1,0.5c-0.4,0-0.7,0-1.1-0.2c-0.4-0.2-0.7-0.5-0.9-0.8
			c-0.5-0.6-0.9-1.4-1.2-2.4c-0.3-1-0.6-2-0.9-3c-0.3-1-0.5-2-0.7-2.9c-0.2-0.9-0.4-1.6-0.6-2.2c-0.2-0.5-0.4-0.8-0.6-0.7
			c-0.2,0-0.5,0.5-0.8,1.3c-0.4,1.1-0.6,2.2-0.7,3.3c-0.1,1.1-0.2,2.2-0.2,3.3c0,1.1-0.1,2.3-0.1,3.4c0,1.1-0.2,2.3-0.3,3.5
			c0,0.1-0.1,0.2-0.4,0.4c-0.3,0.1-0.6,0.2-1,0.3c-0.4,0.1-0.9,0.2-1.5,0.3l-4-14.1c0,0,0.1-0.2,0.5-0.4c0.3-0.2,0.7-0.4,1.1-0.6
			c0.4-0.2,0.8-0.3,1.2-0.3C-646.1,47-645.9,47.1-645.8,47.3z"/>
	</g>
	<g>
		<path class="st1" d="M130.6,70.5C130.5,70.7,130.7,70.3,130.6,70.5c-1.2,3.3-1.6,4.4-3.1,8.4c-1.5,4-3.2,8.1-5,12.4
			c-1.8,4.3-3.7,8.3-5.6,12c-0.5,0.9-0.8,1.7-1.1,2.2c-0.3,0.6-0.6,1-0.9,1.4c-1.4,1.7-2.5,2-3.2,0.8c-0.7-1.2-1.2-3.2-1.6-6.1
			c-0.4-2.8-0.6-6.2-0.8-10.2c-0.1-3.9-0.2-7.9-0.2-11.9c0-4-0.1-7.6-0.3-10.9c-0.2-3.3-0.4-5.7-0.7-7.1c-0.1-1.3-0.8-2.4-2.1-3.4
			c-1.3-1-2.8-1.7-4.5-2.1c-1.7-0.4-3.4-0.4-5.1,0.1c-1.7,0.5-3.1,1.6-4.2,3.3c-0.3,1.3-0.4,2.4-0.4,3.3c0,0.9,0,1.8-0.1,2.7
			c0,0.9-0.2,1.9-0.4,3c-0.3,1.1-0.7,2.5-1.3,4.1c-4.1,11.1-7.6,18.9-10.7,23.5c-3.1,4.5-6.2,6.5-9.4,5.8c-3.9-0.4-6.9-2.3-8.9-5.7
			c-2.1-3.4-3.3-7.5-3.6-12.6c-0.3-5,0.1-10.5,1.2-16.6c1.1-6,2.9-11.9,5.4-17.5c2.5-5.7,5.4-10.8,8.9-15.5
			c3.5-4.7,7.4-8.2,11.8-10.5c3-1.5,5.5-2,7.4-1.5c1.9,0.5,3.1,1.5,3.8,3.1c0.6,1.6,0.8,3.5,0.4,5.8c-0.4,2.3-1.2,4.5-2.7,6.5
			c0.2,0.5,0.6,1,1.2,1.5c1.1,1,2.3,1.4,3.5,1.4c3.7-4.4,5.3-9.2,4.9-14.4c-0.2-3.2-1.7-6-4.4-8.3c-2.7-2.3-6.1-3.6-10.1-3.8
			c-7.5-0.5-14.5,1.3-20.8,5.3c-6.3,4.1-11.7,9.4-16.2,15.9c-4.5,6.5-8,13.9-10.7,22c-2.6,8.1-4.1,16-4.4,23.7
			c-0.3,7.7,0.7,14.6,2.9,20.7c2.2,6.1,5.9,10.5,10.9,13.2c5.6,2.8,10.6,3.3,15,1.6c4.4-1.8,8.3-4.7,11.7-8.7
			c3.4-4,6.3-8.6,8.7-13.6c2.4-5,4.5-9.5,6.3-13.4c0.1,1.6,0.2,4.1,0.3,7.5c0.1,3.4,0.3,7,0.7,10.9c0.4,3.8,1,7.6,1.8,11.3
			c0.8,3.7,1.9,6.8,3.3,9.3c1.4,2.5,3.2,4.1,5.3,4.7c2.1,0.6,4.9-0.2,8.2-2.6c2.3-1.8,4.4-4.2,6.3-7.2c2.4-3.6,4.7-7.9,7-12.9
			c2.3-5,3.9-11.1,5.5-16.5c2.1-6.9,2.3-8.6,3.7-13.2C134.3,71.6,132.3,71.6,130.6,70.5z"/>
		<path class="st1" d="M171.7,87.6c-0.5,3.4-1.4,6.7-2.6,10c-1.2,3.3-2.3,6.2-3.2,8.9c-0.9,2.6-1.5,4.8-1.7,6.6
			c-0.2,1.8,0.4,2.9,1.9,3.3c0.6,0.2,1.2,0.2,1.9-0.1c0.6-0.3,1.3-0.8,1.9-1.4c1.1-1.2,2.3-2.9,3.4-5c1.2-2.1,2.2-4.3,3.3-6.7
			c1-2.3,1.9-4.5,2.8-6.6c0.8-2.1,1.5-3.6,2-4.7l2,1.3c-0.5,1.1-1.2,2.7-1.9,4.7c-0.7,2-1.6,4.2-2.6,6.5c-1,2.3-2.2,4.7-3.5,7.1
			c-1.3,2.4-2.8,4.5-4.3,6.3c-1.7,2-3.6,3.1-5.7,3.5c-2.1,0.4-4,0.2-5.7-0.6c-1.7-0.7-3-1.6-3.8-2.8c-0.8-1.2-1.4-2.5-1.7-4
			c-0.3-1.5-0.4-3-0.2-4.5c0.2-1.5,0.4-3,0.7-4.5c0.4-1.9,1-3.8,1.6-5.8c0.6-2,1.2-3.9,1.8-5.7c0.6-1.8,1.1-3.5,1.6-5.1
			c0.5-1.6,0.8-2.9,1.1-4.1c0.4-2,0.1-3.1-0.9-3.2c-1-0.1-2,0.5-3,1.9c-1.2,1.5-2.6,3.5-4.2,5.9c-1.6,2.4-3.1,4.9-4.5,7.3
			c-1.4,2.4-2.6,4.6-3.6,6.4c-1,1.9-1.5,3-1.5,3.4c0,1.7,0,3-0.1,3.8c0,0.8-0.1,1.4-0.1,2c0,0.5-0.1,1.1-0.1,1.7c0,0.6,0,1.6,0.1,3
			c0,0.2-0.4,0.3-1.2,0.3c-0.8,0-1.7-0.1-2.8-0.2c-1-0.1-2-0.2-2.9-0.4c-0.9-0.2-1.5-0.3-1.6-0.3c-0.5-2.7-0.8-6-1-10
			c-0.2-3.9-0.4-7.9-0.4-11.9c0-4,0-7.7,0.2-11.2c0.2-3.5,9.3-5.3,9.4-3.5c0.1,1.8,0.1,3.8,0.2,6.1c0,2.3,0.1,4.6,0.2,7.2
			c0.1,2.5,0.2,5,0.2,7.5c0.2-0.9,0.8-2.2,1.8-4c1-1.8,2.2-3.7,3.5-5.9c1.4-2.2,2.9-4.4,4.6-6.7c1.6-2.3,3.3-4.3,5.1-6.1
			c2.6-2.8,4.9-4.3,6.8-4.6c1.9-0.3,3.5,0.2,4.6,1.5c1.2,1.3,1.9,3.2,2.3,5.6C172.1,82.4,172.1,85,171.7,87.6z"/>
		<path class="st1" d="M227.1,94.7l2.1,0.6c-0.1,0.3-0.4,1.3-1,2.9c-0.6,1.6-1.4,3.5-2.4,5.6c-1,2.1-2.1,4.4-3.4,6.7
			c-1.3,2.3-2.8,4.2-4.3,5.8c-0.6,0.6-1.3,1.2-2.1,1.7c-0.8,0.6-1.7,1-2.5,1.4c-0.9,0.3-1.7,0.5-2.6,0.5s-1.7-0.3-2.5-0.9
			c-0.9-0.6-1.7-1.6-2.3-2.9c-0.6-1.3-1.1-2.8-1.4-4.5c-0.3-1.7-0.6-3.5-0.7-5.4c-0.2-1.9-0.2-3.7-0.2-5.4c-1,1.1-2,2.4-3.2,3.9
			c-1.2,1.5-2.4,2.9-3.8,4.2c-1.4,1.4-2.7,2.6-4.2,3.7c-1.4,1.1-2.9,1.9-4.3,2.4c-1.4,0.5-2.8,0.6-4.1,0.2c-1.3-0.3-2.5-1.3-3.7-2.8
			c-1.3-1.7-2.1-3.7-2.5-6c-0.4-2.4-0.4-4.8,0-7.4c0.4-2.6,1.1-5.1,2.1-7.7c1-2.6,2.3-4.9,3.9-7c0.7-0.9,1.7-2,3.2-3.3
			c1.4-1.3,3-2.4,4.6-3.2c1.7-0.9,3.3-1.3,4.8-1.4c1.6,0,2.8,0.7,3.6,2.3c0.3,0.6,0.6,1.3,0.8,2.2c0.3,0.9,0.4,2.2,0.4,3.9
			c-0.2,0.8-0.6,1.2-1.4,1.2c-0.8,0.1-1.1-0.3-1.1-1c0-1.5-0.1-2.7-0.4-3.7c-0.3-0.9-1-1.4-2.3-1.4c-0.8,0-1.6,0.3-2.3,0.9
			c-0.7,0.6-1.4,1.4-2.1,2.3c-1.4,1.8-2.5,4.1-3.5,6.9c-1,2.8-1.7,5.6-2.2,8.3c-0.4,2.8-0.6,5.3-0.3,7.6c0.2,2.3,0.9,3.8,2.1,4.6
			c1.1,0.8,3-0.1,5.7-2.7c2.7-2.5,6-6.4,10-11.7c0.1-4,0.3-8.3,0.6-12.9c0.3-4.6,0.8-9.2,1.3-13.9c0.5-4.7,1.2-9.2,1.9-13.6
			c0.7-4.4,1.6-8.4,2.6-12c1-3.6,2.1-6.7,3.4-9.1c1.3-2.5,2.7-4.1,4.2-5c2.9-1.5,5.6-1.8,8.3-0.9c2.7,0.9,4.6,2.8,5.8,5.7
			c1,2.6,1.3,5.5,1,8.8c-0.3,3.3-1,6.8-2,10.4c-1,3.6-2.4,7.3-4,11c-1.6,3.7-3.3,7.1-4.9,10.4c-1.7,3.2-3.3,6.1-4.8,8.7
			c-1.5,2.6-2.7,4.5-3.5,5.8c0,1.6-0.1,3.4-0.3,5.5c-0.2,2.1-0.4,4.1-0.6,6.2c-0.1,2.1-0.2,4-0.1,5.8c0.1,1.8,0.4,3.1,1,4
			c0.7,1.1,1.5,1.6,2.4,1.3c0.9-0.3,1.8-0.9,2.8-2c0.9-1.1,1.9-2.4,2.8-4.1c0.9-1.6,1.8-3.2,2.5-4.9c0.7-1.6,1.4-3.1,2-4.3
			C226.5,95.9,226.9,95.1,227.1,94.7z M213.4,84.4c1.9-2.9,3.8-6.2,5.7-9.8c1.9-3.6,3.7-7.4,5.2-11.2c1.6-3.9,2.9-7.7,3.9-11.6
			c1-3.8,1.7-7.4,1.9-10.8c0.1-1.4-0.1-2.8-0.6-4.2c-0.5-1.5-1.2-2.6-2-3.4c-0.8-0.8-1.7-1.2-2.7-1.1c-1,0.1-1.9,0.9-2.8,2.6
			c-0.9,1.7-1.7,3.9-2.4,6.8c-0.7,2.9-1.4,6-2,9.4c-0.6,3.4-1.1,6.9-1.6,10.5c-0.5,3.6-0.9,6.9-1.2,10c-0.3,3.1-0.6,5.8-0.9,8.2
			C213.7,82,213.5,83.6,213.4,84.4z"/>
		<path class="st1" d="M232.1,80c-0.6-0.7-1.3-1.4-2.1-2.1c-0.8-0.6-1.5-1.3-2.2-2c-0.7-0.7-1.2-1.4-1.5-2.2
			c-0.3-0.8-0.3-1.7,0.1-2.9c0.2-0.7,0.6-1.3,1.2-1.7c0.6-0.5,1.2-0.9,1.9-1.2c0.7-0.3,1.4-0.5,2-0.6c0.7-0.1,1.2,0,1.7,0.2
			c1.2,0.4,2,1.1,2.4,2c0.4,0.9,0.5,1.9,0.5,2.9c0,1.1-0.2,2.1-0.4,3.2c-0.3,1.1-0.5,2-0.7,2.9c0.4,0.2,0.8,0.5,1.2,0.8
			c0.4,0.3,0.8,0.7,1.3,1.1c2.8,2.5,4.8,4.7,5.9,6.8c1.2,2.1,1.8,4,1.9,5.9c0.1,1.9-0.3,3.7-1.1,5.4c-0.8,1.7-1.7,3.4-2.9,5.1
			c-1.1,1.7-2.3,3.4-3.4,5.2c-1.2,1.8-2.1,3.7-2.9,5.6c-0.3,0.8-0.6,1.6-0.8,2.4c-0.2,0.8-0.3,1.5-0.2,2.1c0.1,0.6,0.3,1.1,0.7,1.4
			c0.4,0.3,1,0.4,1.8,0.3c1.4-0.2,2.8-1,4.3-2.5c1.5-1.5,3-3.3,4.4-5.5c1.4-2.2,2.8-4.5,4-7c1.3-2.5,2.4-4.8,3.4-6.8
			c1-2.1,2-4.5,3.1-7.3l2.1,1.2c-0.5,1.3-1.4,3.4-2.6,6.4c-1.2,3-2.8,6.1-4.6,9.3c-1.8,3.2-3.8,6.3-6,9.1c-2.2,2.8-4.5,4.8-7,5.9
			c-1.4,0.6-2.8,0.9-4.4,0.9c-1.6,0-3-0.3-4.3-0.8c-1.3-0.6-2.4-1.4-3.2-2.5c-0.9-1.1-1.3-2.4-1.2-3.9c0.1-1.5,0.5-3.2,1.2-5
			c0.7-1.8,1.7-3.6,2.8-5.5c1.1-1.9,2.2-3.8,3.5-5.6c1.2-1.9,2.4-3.7,3.4-5.4c1-1.7,1.8-3.3,2.4-4.8c0.6-1.5,0.8-2.8,0.6-3.9
			c0-1.1-0.4-2.1-1.3-3.2c-0.9-1.1-1.8-2-2.9-2.8c-0.4,1.3-0.8,2.7-1.2,4.1c-0.4,1.5-0.9,2.9-1.5,4.4c-0.5,1.5-1,2.8-1.5,4.1
			c-0.5,1.3-1,2.4-1.4,3.3c-0.2-0.1-0.5-0.3-0.9-0.4c-0.4-0.1-0.8-0.3-1.1-0.6c0.3-0.9,0.7-2.2,1.3-3.8c0.6-1.7,1.2-3.3,1.8-5
			c0.6-1.7,1.2-3.2,1.7-4.6C231.8,81.2,232.1,80.3,232.1,80z M233.1,77.3c0.1-0.6,0.2-1.3,0.4-2.1c0.2-0.8,0.3-1.6,0.3-2.4
			c0-0.8-0.1-1.5-0.4-2.1c-0.3-0.6-0.9-1.1-1.7-1.3c-0.4-0.1-0.7,0-1.1,0.3c-0.3,0.3-0.6,0.6-0.8,1.1c-0.2,0.5-0.3,1-0.3,1.6
			c0,0.6,0.2,1.2,0.6,1.8c0.2,0.5,0.6,1.1,1.2,1.6C232,76.1,232.5,76.7,233.1,77.3z"/>
		<path class="st1" d="M263.3,90.5c-1.3,2.7-2.5,5.7-3.5,9.1c-1,3.3-1.3,6.5-1.1,9.4c0.2,2,0.8,3.6,2,4.8c1.2,1.2,2.5,1.9,4.1,2.3
			c1.5,0.4,3.2,0.4,4.9,0c1.7-0.3,3.2-1,4.5-2c1.3-1,2.4-2.1,3.3-3.4c0.9-1.3,1.7-2.7,2.5-4.2c0.9-2,1.7-3.9,2.5-5.9
			c0.7-2,1.5-3.7,2.2-5.2l2.4,0.3c-0.7,1.7-1.4,3.5-2.2,5.5c-0.8,2-1.7,4-2.6,6c-1.5,3.3-3.3,6.1-5.4,8.4c-2,2.2-4.5,3.7-7.5,4.5
			c-2.4,0.6-4.6,0.7-6.6,0.3c-2-0.4-3.7-1.1-5.2-2.2c-1.5-1.1-2.7-2.5-3.6-4.3c-0.9-1.8-1.5-3.8-1.8-6c-0.5-3.4-0.3-7.4,0.5-12.1
			c0.8-4.7,2.4-9.2,4.8-13.5c0.9-1.7,2-3.4,3.3-5.1c1.3-1.8,2.8-3.3,4.3-4.5c1.6-1.2,3.3-1.9,5.1-2.2c1.8-0.3,3.7,0.2,5.8,1.5
			c1.7,1.1,3,2.6,3.7,4.5c0.8,1.9,1.1,3.8,1,5.8c-0.1,2-0.6,3.9-1.6,5.6c-0.9,1.7-2.2,3-3.8,3.8c-1.4,0.7-3.1,0.9-5.3,0.7
			C267.6,92.3,265.4,91.6,263.3,90.5z M264.3,88.3c2.2,1.2,4.1,1.8,5.8,1.8s3.1-0.3,4.2-1c1.1-0.7,2-1.8,2.6-3.3
			c0.6-1.5,0.9-3,0.8-4.5c-0.1-1.5-0.5-2.7-1.2-3.7c-0.7-1-1.8-1.4-3.3-1.1c-0.8,0.2-1.6,0.6-2.4,1.3c-0.8,0.7-1.5,1.6-2.3,2.7
			c-0.8,1.1-1.5,2.3-2.2,3.7C265.6,85.4,264.9,86.8,264.3,88.3z"/>
		<path class="st1" d="M308.2,82.3c0.7-0.8,1.1-1.7,1.3-2.7c0.2-0.9,0.2-1.7,0-2.4c-0.2-0.7-0.7-1.1-1.5-1.4
			c-0.8-0.3-1.9-0.1-3.2,0.4c-2,0.8-3.8,2.2-5.4,4c-1.7,1.8-3.1,3.9-4.3,6.2c-1.2,2.3-2.2,4.7-2.9,7.2c-0.7,2.5-1,4.8-1.1,6.9
			c0,2.1,0.3,3.9,1.1,5.4c0.8,1.5,2,2.3,3.7,2.6c1.4,0.4,2.8-0.3,4.2-2.1c1.5-1.8,3.2-5,5.3-9.5c0.3-0.7,0.5-1.2,0.7-1.7
			c0.1-0.5,0.2-0.9,0.3-1.2c0-0.4,0.1-0.8,0.1-1.1c0-0.4,0.1-0.8,0.3-1.4c0.5-0.7,1.2-1.1,1.9-1.2c0.8-0.2,1.5-0.1,2.2,0.1
			c0.7,0.2,1.3,0.6,1.9,1c0.5,0.5,0.8,0.9,0.8,1.5c0.1,0.6,0.1,1.6,0.1,3c0,1.4-0.1,2.9-0.2,4.6c-0.1,1.7-0.2,3.3-0.3,5
			c-0.1,1.7-0.1,3.1,0,4.3c0.1,1.2,0.2,2.1,0.5,2.6c0.3,0.5,0.7,0.4,1.4-0.2c0.1-0.1,0.3-0.3,0.5-0.6c0.1-0.2,0.3-0.5,0.6-0.9
			c1-1.5,1.9-3.1,2.8-4.9c0.9-1.7,1.7-3.4,2.5-5c0.8-1.6,1.5-3.1,2.1-4.5c0.6-1.4,1.1-2.5,1.6-3.4l2.1,0.7c-0.4,1.1-0.9,2.6-1.7,4.5
			c-0.7,1.8-1.6,3.8-2.6,5.9c-1,2.1-2.1,4.2-3.3,6.2c-1.2,2-2.3,3.8-3.4,5.2c-0.9,1.2-1.9,2.1-2.9,2.8c-1.5,0.9-2.7,1.2-3.6,0.9
			c-0.9-0.3-1.6-1.1-2.1-2.1c-0.5-1.1-0.9-2.4-1.1-4c-0.2-1.6-0.4-3.2-0.4-4.8c0-1.6,0-3.1,0-4.6c0.1-1.4,0.1-2.5,0.1-3.2
			c-0.9,1.6-2,3.4-3.1,5.4c-1.2,2-2.6,3.8-4.2,5.4c-1.6,1.6-3.3,2.7-5.3,3.3c-2,0.6-4.1,0.2-6.4-1.1c-2.1-1.3-3.5-3.2-4.3-5.9
			c-0.8-2.6-0.9-5.5-0.6-8.7c0.4-3.2,1.2-6.4,2.6-9.8c1.4-3.3,3.1-6.3,5.3-8.9c2.1-2.6,4.6-4.6,7.5-6.2c2.9-1.5,5.9-2,9.1-1.6
			c1.7,0.2,3.1,0.9,4.2,1.9c1.1,1.1,1.6,2.3,1.6,3.6c0,2.2-0.9,4.1-2.6,5.9c-0.5,0-1-0.2-1.5-0.7C308.5,82.8,308.3,82.6,308.2,82.3z
			"/>
	</g>
</g>
<g id="Capa_1" class="st2">
	
		<image style="display:inline;overflow:visible;" width="498" height="456" xlink:href="1B21E9C.png"  transform="matrix(1 0 0 1 -74 -3)">
	</image>
</g>
</svg>
