<?xml version="1.0" encoding="utf-8"?>
<!-- Generator: Adobe Illustrator 20.0.0, SVG Export Plug-In . SVG Version: 6.00 Build 0)  -->
<svg version="1.1" id="Capa_1" xmlns="http://www.w3.org/2000/svg" xmlns:xlink="http://www.w3.org/1999/xlink" x="0px" y="0px"
	 viewBox="0 0 498 127" style="enable-background:new 0 0 498 127;" xml:space="preserve">
<style type="text/css">
	.st0{fill:url(#SVGID_1_);}
	.st1{fill:url(#SVGID_2_);}
	.st2{fill:url(#SVGID_3_);}
	.st3{fill:url(#SVGID_4_);}
	.st4{fill:url(#SVGID_5_);}
	.st5{fill:url(#SVGID_6_);}
</style>
<g>
	<g>
		<linearGradient id="SVGID_1_" gradientUnits="userSpaceOnUse" x1="11.1313" y1="62.9071" x2="489.7133" y2="62.9071">
			<stop  offset="0" style="stop-color:#FB2700"/>
			<stop  offset="5.742788e-02" style="stop-color:#F52709"/>
			<stop  offset="0.153" style="stop-color:#E52523"/>
			<stop  offset="0.2749" style="stop-color:#CA234C"/>
			<stop  offset="0.4168" style="stop-color:#A62185"/>
			<stop  offset="0.5" style="stop-color:#8E1FAA"/>
			<stop  offset="0.9944" style="stop-color:#610971"/>
		</linearGradient>
		<path class="st0" d="M92.6,105.7c-0.4,1-1.1,1.8-2.1,2.2c-0.7,0.2-1.2,0.3-1.6,0.3c-1.7,0-2.9-0.8-3.6-2.3L52.1,31L35.3,68.5h18.9
			c1.2,0,2.1,0.4,2.9,1.1c0.8,0.7,1.1,1.6,1.1,2.7c0,1-0.4,2-1.1,2.7c-0.8,0.8-1.7,1.2-2.9,1.2H31.8l-13.2,29.7
			c-0.7,1.5-1.9,2.3-3.6,2.3c-0.4,0-0.9-0.1-1.6-0.3c-1-0.4-1.7-1.2-2.1-2.2c-0.4-1-0.4-2,0.1-3l14.2-31.9l22.8-50.9
			c0.5-1.3,1.6-2.1,3.3-2.3h0.4c1.6,0.2,2.7,0.9,3.5,2.3l36.9,82.8C93,103.7,93,104.7,92.6,105.7z"/>
		<linearGradient id="SVGID_2_" gradientUnits="userSpaceOnUse" x1="11.1313" y1="62.9071" x2="489.7133" y2="62.9071">
			<stop  offset="0" style="stop-color:#FB2700"/>
			<stop  offset="5.742788e-02" style="stop-color:#F52709"/>
			<stop  offset="0.153" style="stop-color:#E52523"/>
			<stop  offset="0.2749" style="stop-color:#CA234C"/>
			<stop  offset="0.4168" style="stop-color:#A62185"/>
			<stop  offset="0.5" style="stop-color:#8E1FAA"/>
			<stop  offset="0.9944" style="stop-color:#610971"/>
		</linearGradient>
		<path class="st1" d="M105.1,17.6c1.1,0,2,0.4,2.7,1.1s1.1,1.7,1.1,2.7v82.8c0,1.1-0.4,2-1.1,2.7c-0.8,0.8-1.7,1.1-2.7,1.1
			s-2-0.4-2.7-1.1c-0.8-0.8-1.1-1.7-1.1-2.7V21.5c0-1.1,0.4-2,1.1-2.7C103.1,18,104,17.6,105.1,17.6z M165.1,17.6
			c1.1,0,2,0.4,2.7,1.1c0.8,0.8,1.1,1.7,1.1,2.7V104c0,1.1-0.4,2-1.1,2.7c-0.8,0.8-1.7,1.1-2.7,1.1H165c-1.5,0-2.6-0.5-3.2-1.6
			l-44.6-62.2c-0.6-1-0.8-2-0.7-3c0.2-1,0.7-1.8,1.6-2.5c0.9-0.7,1.9-1,2.9-0.8c1.1,0.2,1.9,0.8,2.5,1.7l37.7,52.6V21.5
			c0-1.1,0.4-2,1.1-2.7C163.1,18,164,17.6,165.1,17.6z"/>
		<linearGradient id="SVGID_3_" gradientUnits="userSpaceOnUse" x1="11.1313" y1="62.9071" x2="489.7133" y2="62.9071">
			<stop  offset="0" style="stop-color:#FB2700"/>
			<stop  offset="5.742788e-02" style="stop-color:#F52709"/>
			<stop  offset="0.153" style="stop-color:#E52523"/>
			<stop  offset="0.2749" style="stop-color:#CA234C"/>
			<stop  offset="0.4168" style="stop-color:#A62185"/>
			<stop  offset="0.5" style="stop-color:#8E1FAA"/>
			<stop  offset="0.9944" style="stop-color:#610971"/>
		</linearGradient>
		<path class="st2" d="M202.6,17.6c6.2,0,12.1,1.2,17.6,3.6c5.5,2.4,10.4,5.6,14.4,9.7s7.3,8.9,9.7,14.4c2.4,5.5,3.6,11.4,3.6,17.6
			c0,5.3-0.9,10.4-2.7,15.3s-4.2,9.3-7.4,13.2c-3.2,3.9-6.9,7.2-11.2,10c-4.3,2.8-9.1,4.7-14.2,5.9c-0.1,0-0.8,0.1-2.3,0.4
			c-1.4,0.3-3,0.4-4.7,0.4h-19.4c-1.1,0-2-0.4-2.7-1.1c-0.8-0.7-1.1-1.6-1.1-2.7c0-1.1,0.4-2.1,1.1-2.8c0.8-0.7,1.7-1.1,2.7-1.1
			h19.4c1.9,0,3.5-0.2,4.9-0.5c4.3-0.9,8.3-2.5,12-4.7c3.6-2.3,6.8-5.1,9.5-8.3c2.7-3.3,4.7-7,6.2-11c1.5-4.1,2.2-8.3,2.2-12.8
			c0-5.2-1-10-3-14.6s-4.7-8.6-8.1-12c-3.4-3.4-7.4-6.1-12-8.1c-4.6-2-9.5-3-14.7-3c-1.8,0-3.4,0.3-4.9,1s-2.8,1.6-3.9,2.7
			c-1.1,1.1-2,2.4-2.7,4c-0.7,1.6-1,3.2-1,4.9v48.9c0,1.2-0.4,2.1-1.1,2.9c-0.7,0.8-1.7,1.1-2.8,1.1c-1,0-1.9-0.4-2.7-1.1
			c-0.7-0.8-1.1-1.7-1.1-2.9V37.9c0-2.7,0.5-5.4,1.6-7.9c1.1-2.5,2.5-4.6,4.4-6.5c1.9-1.8,4-3.3,6.5-4.3
			C197.2,18.2,199.8,17.6,202.6,17.6z"/>
		<linearGradient id="SVGID_4_" gradientUnits="userSpaceOnUse" x1="11.1313" y1="62.9071" x2="489.7133" y2="62.9071">
			<stop  offset="0" style="stop-color:#FB2700"/>
			<stop  offset="5.742788e-02" style="stop-color:#F52709"/>
			<stop  offset="0.153" style="stop-color:#E52523"/>
			<stop  offset="0.2749" style="stop-color:#CA234C"/>
			<stop  offset="0.4168" style="stop-color:#A62185"/>
			<stop  offset="0.5" style="stop-color:#8E1FAA"/>
			<stop  offset="0.9944" style="stop-color:#610971"/>
		</linearGradient>
		<path class="st3" d="M310,20.4c4.3,1.8,8,4.3,11.2,7.5c3.2,3.2,5.7,6.9,7.6,11.2c1.9,4.3,2.8,8.8,2.8,13.7c0,4.4-0.8,8.7-2.4,12.6
			c-1.6,4-3.8,7.5-6.5,10.6c-2.7,3.1-6,5.7-9.8,7.7c-3.8,2-7.8,3.3-12.2,3.9l17.2,13.2c0.9,0.7,1.4,1.6,1.5,2.6c0.1,1-0.2,2-0.9,2.9
			c-0.8,1-1.8,1.5-3.1,1.5c-1,0-1.8-0.3-2.4-0.8l-44-34.1v31.4c0,1.1-0.4,2-1.1,2.7c-0.8,0.8-1.7,1.1-2.7,1.1c-1.1,0-2-0.4-2.7-1.1
			c-0.8-0.8-1.1-1.7-1.1-2.7v-65c0-1.1,0.4-2,1.1-2.7c0.8-0.8,1.7-1.1,2.7-1.1c1.1,0,2,0.4,2.7,1.1c0.8,0.8,1.1,1.7,1.1,2.7v23.8
			l18.2,14c1.2,1,2.7,1.7,4.3,2.3c1.6,0.5,3.2,0.8,4.9,0.8c3.7,0,7.3-0.7,10.6-2.2c3.3-1.5,6.2-3.4,8.7-5.9c2.5-2.5,4.4-5.4,5.9-8.7
			c1.4-3.3,2.1-6.9,2.1-10.6s-0.7-7.3-2.1-10.6c-1.4-3.3-3.4-6.2-5.9-8.7c-2.5-2.5-5.4-4.5-8.7-5.9c-3.3-1.5-6.9-2.2-10.6-2.2h-31.3
			c-1.1,0-2-0.4-2.7-1.1c-0.8-0.8-1.1-1.7-1.1-2.7s0.4-2,1.1-2.7c0.8-0.8,1.7-1.1,2.7-1.1h31.2C301.2,17.6,305.7,18.6,310,20.4z"/>
		<linearGradient id="SVGID_5_" gradientUnits="userSpaceOnUse" x1="11.1313" y1="62.9071" x2="489.7133" y2="62.9071">
			<stop  offset="0" style="stop-color:#FB2700"/>
			<stop  offset="5.742788e-02" style="stop-color:#F52709"/>
			<stop  offset="0.153" style="stop-color:#E52523"/>
			<stop  offset="0.2749" style="stop-color:#CA234C"/>
			<stop  offset="0.4168" style="stop-color:#A62185"/>
			<stop  offset="0.5" style="stop-color:#8E1FAA"/>
			<stop  offset="0.9944" style="stop-color:#610971"/>
		</linearGradient>
		<path class="st4" d="M348.8,25.4c-1.1,0-2-0.4-2.7-1.1c-0.8-0.8-1.1-1.7-1.1-2.7s0.4-2,1.1-2.7c0.8-0.8,1.7-1.1,2.7-1.1h37.3
			c1.1,0,2,0.4,2.7,1.1c0.8,0.8,1.1,1.7,1.1,2.7s-0.4,2-1.1,2.7c-0.8,0.8-1.7,1.1-2.7,1.1H348.8z M390.7,100.4
			c1.2,0,2.1,0.4,2.9,1.1c0.8,0.8,1.1,1.7,1.1,2.7c0,1.1-0.4,2-1.1,2.7c-0.8,0.8-1.7,1.1-2.9,1.1h-28.6h-0.3
			c-2.3-0.1-4.5-0.6-6.5-1.5c-2-0.9-3.8-2.1-5.3-3.5c-1.5-1.5-2.7-3.2-3.7-5.1c-0.9-2-1.4-4.1-1.5-6.4v-0.4V39.3v-1.2
			c0-1.1,0.4-2,1.1-2.7c0.8-0.8,1.7-1.1,2.7-1.1c1.1,0,2,0.4,2.7,1.1c0.8,0.8,1.1,1.7,1.1,2.7v1.2V59h17.2c1.1,0,2,0.4,2.7,1.1
			c0.8,0.8,1.1,1.7,1.1,2.7c0,1.1-0.4,2-1.1,2.7c-0.8,0.8-1.7,1.1-2.7,1.1h-17.2v24.1c0,2.7,0.9,4.9,2.8,6.8
			c1.9,1.9,4.1,2.8,6.8,2.8H390.7z"/>
		<linearGradient id="SVGID_6_" gradientUnits="userSpaceOnUse" x1="11.1313" y1="62.9071" x2="489.7133" y2="62.9071">
			<stop  offset="0" style="stop-color:#FB2700"/>
			<stop  offset="5.742788e-02" style="stop-color:#F52709"/>
			<stop  offset="0.153" style="stop-color:#E52523"/>
			<stop  offset="0.2749" style="stop-color:#CA234C"/>
			<stop  offset="0.4168" style="stop-color:#A62185"/>
			<stop  offset="0.5" style="stop-color:#8E1FAA"/>
			<stop  offset="0.9944" style="stop-color:#610971"/>
		</linearGradient>
		<path class="st5" d="M489.4,105.7c-0.4,1-1.1,1.8-2.1,2.2c-0.7,0.2-1.2,0.3-1.6,0.3c-1.7,0-2.9-0.8-3.6-2.3L448.9,31l-16.8,37.5
			H451c1.2,0,2.1,0.4,2.9,1.1c0.8,0.7,1.1,1.6,1.1,2.7c0,1-0.4,2-1.1,2.7c-0.8,0.8-1.7,1.2-2.9,1.2h-22.4l-13.2,29.7
			c-0.7,1.5-1.9,2.3-3.6,2.3c-0.4,0-0.9-0.1-1.6-0.3c-1-0.4-1.7-1.2-2.1-2.2c-0.4-1-0.4-2,0.1-3l14.2-31.9l22.8-50.9
			c0.5-1.3,1.6-2.1,3.3-2.3h0.4c1.6,0.2,2.8,0.9,3.5,2.3l36.9,82.8C489.8,103.7,489.8,104.7,489.4,105.7z"/>
	</g>
</g>
</svg>
