<?xml version="1.0" encoding="utf-8"?>
<!-- Generator: Adobe Illustrator 20.0.0, SVG Export Plug-In . SVG Version: 6.00 Build 0)  -->
<svg version="1.1" id="Capa_1" xmlns="http://www.w3.org/2000/svg" xmlns:xlink="http://www.w3.org/1999/xlink" x="0px" y="0px"
	 viewBox="0 0 498 116" style="enable-background:new 0 0 498 116;" xml:space="preserve">
<style type="text/css">
	.st0{fill:#FFFFFF;}
</style>
<g>
	<path class="st0" d="M89.4,99.5c-0.4,1-1.1,1.8-2.1,2.2c-0.7,0.2-1.3,0.3-1.6,0.3c-1.7,0-2.9-0.8-3.6-2.3L48.5,24.2L31.6,62h19.1
		c1.2,0,2.1,0.4,2.9,1.1c0.8,0.7,1.1,1.6,1.1,2.7c0,1.1-0.4,2-1.1,2.8c-0.8,0.8-1.7,1.2-2.9,1.2H28.1L14.9,99.7
		c-0.7,1.5-1.9,2.3-3.6,2.3c-0.4,0-0.9-0.1-1.6-0.3c-1-0.4-1.7-1.2-2.1-2.2c-0.4-1-0.4-2,0.1-3L22,64.3l22.9-51.3
		c0.5-1.3,1.7-2.1,3.4-2.3h0.4c1.6,0.2,2.8,0.9,3.5,2.3l37.2,83.5C89.8,97.5,89.8,98.5,89.4,99.5z"/>
	<path class="st0" d="M101.9,10.8c1.1,0,2,0.4,2.8,1.1c0.8,0.8,1.1,1.7,1.1,2.7v83.5c0,1.1-0.4,2-1.1,2.7c-0.8,0.8-1.7,1.1-2.8,1.1
		c-1.1,0-2-0.4-2.7-1.1c-0.8-0.8-1.1-1.7-1.1-2.7V14.7c0-1.1,0.4-2,1.1-2.7C99.9,11.2,100.9,10.8,101.9,10.8z M162.4,10.8
		c1.1,0,2,0.4,2.8,1.1c0.8,0.8,1.1,1.7,1.1,2.7v83.2c0,1.1-0.4,2-1.1,2.8c-0.8,0.8-1.7,1.1-2.8,1.1h-0.1c-1.5,0-2.6-0.5-3.2-1.6
		l-44.9-62.7c-0.6-1-0.9-2-0.7-3c0.2-1,0.7-1.9,1.6-2.5c0.9-0.7,1.9-1,3-0.8c1.1,0.2,1.9,0.8,2.5,1.7l38,53V14.7
		c0-1.1,0.4-2,1.1-2.7C160.4,11.2,161.4,10.8,162.4,10.8z"/>
	<path class="st0" d="M200.3,10.8c6.3,0,12.2,1.2,17.8,3.6c5.6,2.4,10.4,5.7,14.6,9.8c4.1,4.1,7.4,9,9.8,14.6
		c2.4,5.6,3.6,11.5,3.6,17.8c0,5.4-0.9,10.5-2.7,15.4c-1.8,4.9-4.3,9.3-7.4,13.3c-3.2,3.9-7,7.3-11.3,10.1
		c-4.4,2.8-9.2,4.7-14.4,5.9c-0.1,0-0.9,0.1-2.3,0.4c-1.4,0.3-3,0.4-4.7,0.4h-19.6c-1.1,0-2-0.4-2.7-1.1c-0.8-0.7-1.1-1.6-1.1-2.7
		c0-1.1,0.4-2.1,1.1-2.8c0.8-0.7,1.7-1.1,2.7-1.1h19.6c1.9,0,3.5-0.2,5-0.5c4.4-0.9,8.4-2.5,12.1-4.8c3.7-2.3,6.8-5.1,9.5-8.4
		c2.7-3.3,4.8-7,6.2-11.1c1.5-4.1,2.2-8.4,2.2-12.9c0-5.2-1-10.1-3-14.7c-2-4.6-4.7-8.6-8.1-12.1c-3.4-3.4-7.4-6.1-12.1-8.1
		c-4.7-2-9.6-3-14.8-3c-1.8,0-3.5,0.3-5,1c-1.5,0.7-2.8,1.6-4,2.7c-1.1,1.1-2,2.5-2.7,4c-0.7,1.6-1,3.2-1,4.9v49.2
		c0,1.2-0.4,2.1-1.1,2.9c-0.7,0.8-1.7,1.1-2.8,1.1c-1.1,0-2-0.4-2.7-1.1c-0.7-0.8-1.1-1.7-1.1-2.9V31.2c0-2.8,0.5-5.4,1.6-7.9
		c1.1-2.5,2.5-4.7,4.4-6.5c1.9-1.9,4-3.3,6.5-4.4C194.7,11.3,197.4,10.8,200.3,10.8z"/>
	<path class="st0" d="M308.4,13.5c4.3,1.8,8,4.4,11.2,7.6c3.2,3.2,5.8,7,7.6,11.3c1.9,4.3,2.8,8.9,2.8,13.8c0,4.5-0.8,8.7-2.4,12.7
		c-1.6,4-3.8,7.6-6.6,10.7c-2.8,3.1-6,5.7-9.8,7.8c-3.8,2.1-7.9,3.4-12.3,3.9l17.3,13.3c0.9,0.7,1.4,1.6,1.5,2.6
		c0.1,1-0.2,2-0.9,2.9c-0.8,1-1.8,1.5-3.1,1.5c-1,0-1.8-0.3-2.4-0.8l-44.3-34.3v31.7c0,1.1-0.4,2-1.1,2.7c-0.8,0.8-1.7,1.1-2.8,1.1
		c-1.1,0-2-0.4-2.7-1.1c-0.8-0.8-1.1-1.7-1.1-2.7V32.7c0-1.1,0.4-2,1.1-2.8c0.8-0.8,1.7-1.1,2.7-1.1c1.1,0,2,0.4,2.8,1.1
		c0.8,0.8,1.1,1.7,1.1,2.8v24l18.4,14.1c1.3,1,2.7,1.7,4.3,2.3c1.6,0.5,3.3,0.8,5,0.8c3.8,0,7.3-0.7,10.7-2.2c3.4-1.5,6.3-3.5,8.8-6
		c2.5-2.5,4.5-5.4,5.9-8.8c1.4-3.4,2.1-6.9,2.1-10.7c0-3.8-0.7-7.3-2.1-10.7c-1.4-3.4-3.4-6.3-5.9-8.8c-2.5-2.5-5.4-4.5-8.8-6
		c-3.4-1.5-6.9-2.2-10.7-2.2h-31.5c-1.1,0-2-0.4-2.7-1.1c-0.8-0.8-1.1-1.7-1.1-2.8c0-1.1,0.4-2,1.1-2.7c0.8-0.8,1.7-1.1,2.7-1.1
		h31.5C299.6,10.8,304.2,11.7,308.4,13.5z"/>
	<path class="st0" d="M347.6,18.6c-1.1,0-2-0.4-2.7-1.1c-0.8-0.8-1.1-1.7-1.1-2.8c0-1.1,0.4-2,1.1-2.7c0.8-0.8,1.7-1.1,2.7-1.1h37.6
		c1.1,0,2,0.4,2.8,1.1c0.8,0.8,1.1,1.7,1.1,2.7c0,1.1-0.4,2-1.1,2.8c-0.8,0.8-1.7,1.1-2.8,1.1H347.6z M389.8,94.2
		c1.2,0,2.1,0.4,2.9,1.1s1.1,1.7,1.1,2.7c0,1.1-0.4,2-1.1,2.7c-0.8,0.8-1.7,1.1-2.9,1.1H361h-0.3c-2.3-0.1-4.5-0.6-6.5-1.5
		c-2-0.9-3.8-2.1-5.3-3.6c-1.5-1.5-2.7-3.2-3.7-5.2c-0.9-2-1.5-4.1-1.5-6.4V85V32.7v-1.2c0-1.1,0.4-2,1.1-2.7
		c0.8-0.8,1.7-1.1,2.7-1.1c1.1,0,2,0.4,2.8,1.1c0.8,0.8,1.1,1.7,1.1,2.7v1.2v19.9h17.3c1.1,0,2,0.4,2.7,1.1c0.8,0.8,1.1,1.7,1.1,2.8
		c0,1.1-0.4,2-1.1,2.8c-0.8,0.8-1.7,1.1-2.7,1.1h-17.3v24.3c0,2.7,0.9,5,2.8,6.8c1.9,1.9,4.2,2.8,6.8,2.8H389.8z"/>
	<path class="st0" d="M489.3,99.5c-0.4,1-1.1,1.8-2.1,2.2c-0.7,0.2-1.3,0.3-1.6,0.3c-1.7,0-2.9-0.8-3.6-2.3l-33.5-75.5L431.6,62
		h19.1c1.2,0,2.1,0.4,2.9,1.1c0.8,0.7,1.1,1.6,1.1,2.7c0,1.1-0.4,2-1.1,2.8c-0.8,0.8-1.7,1.2-2.9,1.2h-22.5l-13.3,29.9
		c-0.7,1.5-1.9,2.3-3.6,2.3c-0.4,0-0.9-0.1-1.6-0.3c-1-0.4-1.7-1.2-2.1-2.2c-0.4-1-0.4-2,0.1-3l14.4-32.2l22.9-51.3
		c0.5-1.3,1.7-2.1,3.4-2.3h0.4c1.6,0.2,2.8,0.9,3.5,2.3l37.2,83.5C489.7,97.5,489.7,98.5,489.3,99.5z"/>
</g>
</svg>
