<?xml version="1.0" encoding="utf-8"?>
<!-- Generator: Adobe Illustrator 20.0.0, SVG Export Plug-In . SVG Version: 6.00 Build 0)  -->
<svg version="1.1" id="Capa_1" xmlns="http://www.w3.org/2000/svg" xmlns:xlink="http://www.w3.org/1999/xlink" x="0px" y="0px"
	 viewBox="0 0 595.3 841.9" style="enable-background:new 0 0 595.3 841.9;" xml:space="preserve">
<style type="text/css">
	.st0{fill:#FFFFFF;}
	.st1{fill:#58167D;}
</style>
<g>
	<path class="st0" d="M413.5,474.3c-0.2,2.2-1.7,5-2.4,7.3c-2.2,4.2-3.9,6.4-6.8,9.2c-4.1,4-9,3.1-11.5-2c-0.3-0.5-0.5-1-0.7-1.6
		c-2.1-7.3-1.6-14.3,1.8-21.1c0.5-1,1.4-2,2.3-2.7c1.3-0.9,2.6-0.7,3.5,0.7c2.4,3.4,0,8.9-4.1,9.6c-1.1,0.2-2.5,0.1-2.3,1.6
		c0.3,1.2,1.1,2.9,2.1,3.3c2.2,0.8,4.5,0.3,6.4-1.3c2.4-2.1,3.4-5,3.3-8.1c-0.1-7.3-4.3-12.3-10-16.1c-2.4-1.6-5.5-1-7.6,1
		c-2,2-3.9,4.4-5.1,7c-2.4,5.5-2,11.3-1.1,17.2c0.1,0.8,0.4,1.8,0,2.3c-1.9,2.5-3.8,5-6.1,7.1c-1.9,1.7-4.1,0.6-4.7-1.9
		c-0.3-1.6-0.5-3.3-0.2-4.9c1.2-5.9,2.6-11.7,4.1-17.6c0.8-3.1,1.9-7.6-0.8-9.3c-5.7-3.6-12.4-2.8-16.5-8.2
		c-1.8-2.4-3.5-4.9-4.1-8.3c2.2,0.5,2.3,2.1,3,3.4c1,1.9,2.2,3.8,3.5,5.5c0.7,0.9,1.8,1.1,2.1-0.6c1-5.8-3.9-13.6-9.6-15.2
		c-2.9-0.8-5.2,0.7-5,3.7c0.1,2.2,0.5,4.6,1.5,6.6c1.4,2.8,3.2,5.4,5.1,7.9c1.1,1.5,1.1,2.7,0.3,4.3c-3.3,6.3-2.1,4.7-5.8,11.3
		c0,2,5.6,0.6,5.6,2.6c3.8-6.8,2.7-5.2,3.9-8.1c0.7-1.1,1.4-2.3,2.1-3.6c1.5,1.2,2.9,1.3,4,2.5c0.5,0.5,2.8,1.8,2.7,2.5
		c-1,3.7-3.1,7.3-4,11c-2,8.1-1.6,15.6,4.9,21c4.8,4,8.4,4.1,13.1-0.1c1.5-1.3,2.8-2.8,4-4c2.7,2.7,5,5.7,7.8,7.8
		c6.5,4.9,17.4,1.6,21.9-5.2c0.7-1,0.7-1.6,1.3-2.6C415.9,488.1,415,482.6,413.5,474.3z"/>
	<path class="st0" d="M449.7,478.2c-0.8-1.5-2.2-2.7-3.5-3.7c-0.9-0.7-2.1-0.8-3.3-1.1c-0.4-0.1-1.1,0.2-1.3,0.6
		c-0.1,0.4,0,1.2,0.3,1.6c0.6,0.9,1.4,1.7,1.9,2.7c2.2,4,3.1,8.5,3.5,13c0.2,2,0,4.1-0.4,6.1c-0.5,2.3-2,2.8-3.5,1
		c-1.5-1.6-2.9-3.5-3.7-5.6c-2.1-4.9-2.9-10.2-3.1-15.5c-0.2-6.3-0.3-12.5,0-18.8c0.2-3.6-1.4-6-3.6-8.1c-0.6-0.6-1.8-1.1-2.5-0.8
		c-0.6,0.2-0.9,1.5-1.2,2.3c-0.2,0.7-0.2,1.5-0.3,2.6c-1.1-1.8-1.9-3.3-2.9-4.6c-3.6-4.4-6.7-3.7-9,1c-0.1,0.2-0.2,0.3-0.2,0.5
		c-0.6,2.8-1.3,5.5-1.7,8.3c-0.8,5.6-1.3,11.3-2.1,16.8c-0.3,2.2-1.2,4.3-2,6.4c-0.2,0.6,2.3,10.2,4,5.2c0.5-1.6,0.9-3.2,1.4-5.2
		c0.5,1.1,0.7,2,1.2,2.7c0.8,1.4,1.5,2.9,2.6,4.1c1.9,2.1,3.7,1.8,5-0.7c1.2-2.2,2.1-4.6,3.1-6.9c0.4-0.9,0.7-1.9,1.1-2.8
		c0.1,0,0.2,0.1,0.4,0.1c0.1,0.4,0.2,0.7,0.3,1.1c0.8,3.2,1.4,6.6,2.5,9.7c2.1,5.8,5.4,10.6,10.9,13.4c4.5,2.3,8.5,0.4,9.8-4.6
		C455.4,491.4,453.4,484.6,449.7,478.2z M428.3,468.2c-1.7,4.4-3.2,8.9-4.7,13.4c-0.1,0.3-0.3,0.6-0.5,0.9c-0.2,0-0.3,0-0.5,0
		c-0.1-0.7-0.3-1.4-0.3-2.2c-0.5-7.2-0.5-14.4,0.8-21.5c0.2-1,0.5-2.1,0.8-3.1c0.4-1.1,1.2-1.3,1.7-0.3
		C427.5,459.4,430.1,463.2,428.3,468.2z"/>
	<path class="st0" d="M285.2,525.2c-1.1-2.7-2-4.8-2.8-7c-0.7-2.1,0.7-5,3.1-6.6c2-1.3,2.7-1,3.1,0.7c0.7,3.2,1.4,6.5,2.5,9.5
		c0.6,1.7,1.8,3.2,3.1,4.4c2.8,2.5,7.3,1.3,10-2.6c1.7-2.5,3.2-5.2,4.2-7.9c1.9-5.3,2.9-10.5,2.7-15.6c-0.2-3.4-0.8-6.6-3.1-8.9
		c-0.3-0.3-0.4-1-0.1-1.3c0.4-0.5,1.3-1.2,1.7-1.1c1.2,0,2.5,0.2,3.5,0.7c3,1.4,4.4,4.1,5.1,7.2c1.7,7.9,0.5,16.3-3.8,25
		c-5.7,11.5-16.7,13.4-23.4,8.9C288.5,529,286.8,526.8,285.2,525.2z"/>
	<path class="st0" d="M286,478.2c0.3-8.8,0.8-17.6,1.2-26.3c0.3-6.9-2.3-12.6-7.3-17.3c-2.1-2-3.5-2-5.2,0.1
		c-1.7,2.1-3.1,4.4-4.2,6.8c-1.4,2.9-2.4,5.9-3.6,8.9c0-2.3,0.1-4.6,0.5-6.9c0.4-2.4,0.1-4.5-1.8-6.2c-1.7-1.5-3.4-3.3-5.3-4.5
		c-1.5-0.9-2.2-0.1-2,1.7c0.2,2.1,0.3,4.1,0.3,6.2c-0.1,2.1-0.5,4.2-0.7,6.2c-0.5,6-0.9,12.1-3.2,17.7c-1.6,3.9-3.3,7.7-5.1,11.5
		c-0.2,0.4-3.8,5.2-2.9,8c0.8,2.8,3,0.2,4.4-1.3c1.2-1.2,2.1-2.6,2.9-4.1c0.9-1.5,1.5-3,2.4-4.8c0.3,1.6,0,2.8,0.8,4.2
		c0.8,1.4,4.8,6.1,6.4,6.2c1.6,0.2,1.9,0.4,1.9-1.2c0-1.7-0.2-3.4,0-5c1-5.8,2-11.7,3.3-17.4c1.2-5.2,2.9-10.3,5.9-14.7
		c0.7-1,2.1-2.2,3-2.1c1.6,0.2,1.5,2.1,1.4,3.4c-0.2,5-0.5,10-1,15c-1.4,16-1.8,32.1,0.8,48c3,0,5.8-0.6,8.4-1.9
		C285.7,498.5,285.7,488.3,286,478.2z"/>
	<path class="st0" d="M255.4,450.4c-5.1-0.1-12-0.4-17.1-0.7c-0.1,0.4-0.2,0.1-0.1-0.2c0.9-4.9,1.8-9.8,2.8-14.7
		c2.6-11.9,5.2-23.8,7.8-35.8c1.1-5.1-0.5-9.3-4.2-12.8c-1.5-1.4-3.3-1.9-5.2-1.1c-4.4,1.9-9,1.8-13.6,1.2
		c-10.1-1.4-19.6-4.7-28.8-8.9c-11.7-5.3-23.1-11.1-34.9-16.1c-12.2-5.2-24.9-8.8-38.5-8.2c-9.9,0.5-18.9,3.1-26.7,9.5
		c-6.3,5.2-10.6,11.6-12.1,19.7c-0.5,2.8-0.3,5.5,1.6,7.8c1.2,1.4,1.8,1.2,2.9-0.3c2.1-2.8,4-5.7,6.5-8.1
		c7.4-7.1,16.6-10.4,26.5-11.7c10.4-1.4,20.8-0.8,30.8,1.9c15.6,4.2,31,8.9,46.5,13.6c10,3,19.8,6.4,30.3,7.3c1.3,0.1,2.6,0.3,4,0.4
		c-0.2,0.4-0.2,0.6-0.3,0.7c-14,19.6-29.1,38.4-45.3,56.3c-0.5,0.5-1.4,0.8-2.1,0.9c-4.9,0.2-9.9,0.2-14.8,0.3
		c-7.4,0.1-14.8,0.2-22.2,0.4c-1.1,0-3,0.6-3.1,1.2c-0.3,1.8-0.1,3.7,0.3,5.4c0.4,1.4,1.9,1.6,3.4,1.6c12.3-0.3,24.6-0.6,36.9-0.9
		c18.8-0.4,37.5-0.8,56.3-1.2c3.4-0.1,7.2,0.2,6.6,0.1C250.1,458.1,255.8,450.4,255.4,450.4z M226.7,416
		c-2.7,10.6-5.3,21.2-7.9,31.8c-0.3,1-0.3,2-1.8,2c-7.9,0-15.8,0.2-23.7,0.3c-0.1,0-0.2-0.1-0.2-0.1c12.7-16.1,25.5-32.2,37.9-47.9
		C229.6,406.3,228,411.1,226.7,416z"/>
	<path class="st0" d="M353.1,389.3c-1.7-3.7-4.2-7.2-6.7-10.4c-2.5-3-5.2-2.9-7.9,0c-3.6,3.7-5.6,8.3-7.3,13.1
		c-4.7,12.8-6.7,26.1-7.4,39.6c-0.4,8.4-0.7,16.9,1.1,25.2c0.6,3,0.5,5.3-1.4,7.5c-1.2,1.4-2,3.1-3.3,4.3c-2.2,2.1-4.4,4.3-6.9,5.8
		c-4.4,2.6-7.6,0.5-9.2-4.3s-1.1-2.8-1.2-6.5c-4.6,2-8.5,0-13,2.2c0.9,5.5,3.3,10.3,8.1,13.7c8.7,6.2,15.8,5.5,22.3-0.8
		c2.5-2.5,4.7-5.3,7.1-8c0.5-0.6,1-1.2,1.6-1.9c0.7,1,1.1,1.7,1.7,2.4c2,2.2,3.9,4.5,6.2,6.3c2.2,1.8,4.4,2.6,6.5,2.5
		c0.8-2.7,0.9-5.5,0.8-8.2c-1.9,0.9-3.8,0.1-5.1-2.3c-0.6-1.1-1.2-2.2-1.4-3.4c-0.9-4.8-2-9.6-2.3-14.4c-0.9-17,0.7-33.7,5.9-49.9
		c1.2-3.7,3.2-7,5-10.4c0.3-0.5,1.5-1.1,1.8-0.9c0.6,0.4,1.2,1.4,1.2,2.1c0,1.8-0.2,3.5-0.5,5.3c-2.4,12.3-6.1,24.1-10.5,35.8
		c-1.5,4-0.9,7.6,0.7,11.3c0.2,0.4,0.6,0.7,1.1,1.5c0.5-1.1,0.9-1.8,1.2-2.6c1.8-5.1,3.7-10.1,5.3-15.2c3.3-10.3,6.2-20.8,7.4-31.6
		C354,394.5,354.1,391.5,353.1,389.3z"/>
	<path class="st0" d="M411.7,502.3c-0.1-0.4-0.8-1-1.1-1c-0.5,0.1-1.1,0.5-1.4,1c-0.6,1.2-1,2.6-1.5,3.8c-1.4,2.9-3.5,4.9-7.1,6.5
		s-7.9,2-10.3,1.9c-2.4-0.1-1.7,0-2.4-0.1c-5.4-0.8-10.9-1.3-16.1-2.7c-9.7-2.6-19.2-5.7-28.8-8.5c-11.8-3.4-23.8-6.4-36.2-6.9
		c-9.3-0.3-18.1,1.3-26.3,5.6c-8.1,4.3-14,10.4-17.7,18.2c-1.6,3.3-2.9,6.8-2.4,10.6c0.1,1,1.1,2,1.7,2.9c0.6-0.8,1.4-1.5,1.9-2.3
		c2.7-5.2,6.4-7.2,11.9-5.8c2.4,0.6,4.7,1.9,6.6,3.4c5.2,4.2,7.7,10,9.7,16c2.8,8.6,3.3,17.5,2.9,26.5c-0.3,8.8-1.8,17.5-6.5,25.4
		c-2.2,3.7-5.2,6.9-9.6,8.6c-9.7,3.8-18.3,1.5-25.9-4.6c-8.6-6.9-12.9-16.2-16.3-25.9c-4.5-12.8-6.3-26-6.9-39.4
		c-0.4-9.9-0.3-19.9,0.2-29.8c0.5-10.2,1.7-20.5,2.9-30.7c0.3-2.8-0.2-4.9-2.2-6.8c-1.8-1.7-3.8-3.4-5.9-4.7c-1.8-1.1-3.9-1.7-6-2.6
		c-0.3,0.8-0.5,1.2-0.5,1.7c-1,5-2,10-2.8,15c-3.3,20.2-5.4,40.4-3.8,60.8c1.1,14.6,4,28.9,10.8,42.3c6.5,12.9,15.4,23.9,30,30
		c11.7,4.9,23.5,5.4,35.1-0.2c10-4.9,16.2-12.8,19.9-22.3c6.6-17,5.3-34-2.1-50.5c-4.1-9.1-11.3-15.7-21.8-18.8
		c-2.8-0.8-5.7-1.2-9.4-1.9c3.5-2.1,6.3-4.2,9.6-5.7c10.3-4.9,21.2-5.4,32.4-3.6c10.5,1.7,20.2,5.3,30,8.8
		c9.8,3.5,19.5,7.2,29.4,10.6c5.7,2,11.7,3.4,17.9,3.2c4.9-0.1,9.3-1.2,13.1-4.3C413.4,520.6,414,508.5,411.7,502.3z"/>
	<path class="st0" d="M178.4,422.4c-3.6-5.9-9.1-6.3-15.1-5.5c-7.5,0.9-14.4,4.7-20.9,9.5c-13.7,10.1-24.5,22.7-31.3,38.3
		c-3.5,8-5.5,16.2-4.1,24.2c1.1,6.1,5,9.4,10.6,10.9c6.6,1.9,13.1-0.3,19.6-4.2c10.6-6.4,19.9-14.8,28.9-23.5
		c3.8-3.7,7.4-7.4,11.1-11.2c1.1-1.1,2.1-1.8,3.4-1.5c1.7,0.5,3.4,1,5,1.7c0.8,0.3,0.9,1,0,1.9c-7.8,7.7-15.5,15.6-23.4,23.1
		c-7,6.6-14.7,12.4-22.9,17.1c-7.7,4.4-15.5,7.4-23.6,6.1c-12.2-2-21.5-7.8-25.5-20c-2.4-7.1-1.5-14.8,0.9-22.7
		c6-19.9,18-36,34.7-49c7.9-6.2,16.4-10.7,25.7-12.3c10.5-1.8,19.7-0.1,26.2,7.6c1.5,1.8,2.5,4,2.1,6.8
		C179.5,420.4,178.9,421.2,178.4,422.4z"/>
	<path class="st0" d="M302.7,463.7c0,0-0.9-7.8,5.9-9.8c6.8-2,9.9-1.2,9.9-1.2s1.8-0.7,0-1.9c-1.8-1.2-8.2-4.4-13.9-3.6
		c-5.8,0.8-8.5,3.2-9.9,4.8c-1.4,1.6-4,6.1-4.5,8.7c-0.5,2.6-0.5,5.2-0.5,5.2L302.7,463.7z"/>
	<path class="st0" d="M302.7,463.7c0-0.9-5.9,0-5.9,0l-0.9,1l1.5,1.1l3.2-0.4l1.5-1.1L302.7,463.7z"/>
	<path class="st0" d="M340.9,471.8c0,0,2.3,0.9,3.1,0.1s2.6-3.3,5.8-9.9c3.3-6.6,5,3.3,5,3.3s-1.7,5.2-3.9,8.2
		c-2.1,3-4.1,6.8-7.9,6.7"/>
	<path class="st1" d="M310.8,497.3c0,0,2.1,5.8-0.1,9.7s-6.1,1.6-6.1,1.6l1.5-2.3c0,0,0.6-1.2,2.2-2.8S310.8,497.9,310.8,497.3z"/>
</g>
<path class="st0" d="M331.4,332.9c-0.3-0.3-0.9-0.2-1.4-0.3c0,0.4-0.2,0.8-0.1,1.1c2,4,3.1,9.4,1.7,12.4c-1.4,3.1,0.8,5.5,3.7,3.6
	c1.4-5.7,1.5-7.7-1.2-13.3C333.6,335.1,332.4,334,331.4,332.9z"/>
<g>
	<path class="st0" d="M371.5,377.2c-0.1-0.1-0.4-0.4-0.5-0.4c-0.3,0-0.6,0.1-0.7,0.3c-0.3,0.4-0.5,0.8-0.9,1.2
		c-0.8,0.9-2,1.4-3.6,1.7c-0.1-0.3-0.1-0.4-0.2-0.6c-0.6-3.7-0.3-7.3,0.2-10.9c0.4-3,1-6,1.6-9.1c0.4-2.4-0.9-4.5-3.6-6.4
		c-1.1-0.8-1.9-0.9-3-0.2c-1,0.6-1.9,1.4-2.6,2.1c-0.9,0.9-1.6,1.9-2.4,2.9c0.1-0.8-1.9,10.1-1.7,9.6c0.8-2,1.5-3.9,2.4-5.9
		c0.8-1.7,2-3.4,3.9-4.8c0.4-0.3,1.3-0.6,1.8-0.6c0.9,0.2,0.8,0.8,0.7,1.3c-0.3,1.7-0.6,3.4-1.1,5.1c-1.4,5.6-2.1,11.3-1,17.1
		c0,0.1,0.8,5,2,5.7c1.2,0.6,3.9-0.1,5.5-0.8C371.7,383.1,372.4,379.3,371.5,377.2z"/>
	<path class="st0" d="M355.3,367.7c0.4-3,1-6,1.6-9.1c0.4-2.4-0.9-4.5-3.6-6.4c-1.1-0.8-1.9-0.9-3-0.2c-1,0.6-1.9,1.4-2.6,2.1
		c-0.9,0.9-1.6,1.9-2.4,2.9c0.1-0.8,0.2-1.6,0.5-2.4c0.3-0.8,0.2-1.6-0.8-2.3c-0.9-0.6-1.8-1.3-2.9-1.8c-0.8-0.4-1.3-0.2-1.2,0.5
		c0,0.7,0.1,1.5,0,2.2c-0.1,0.7-0.4,1.4-0.6,2.1c-0.4,1.6-1.8,9.7-1.4,10.8c0.4,1.1,2.2,1.7,3.5,2.5c0.7,0.4,1.1,0.2,1.1-0.3
		c0-0.6,0-1.2,0.2-1.7c0.8-2,1.5-3.9,2.4-5.9c0.8-1.7,2-3.4,3.9-4.8c0.4-0.3,1.3-0.6,1.8-0.6c0.9,0.2,0.8,0.8,0.7,1.3
		c-0.3,1.7-0.6,3.4-1.1,5.1C349.9,367.5,354.8,371.3,355.3,367.7z"/>
</g>
<g>
	<path class="st0" d="M339.2,287.3c-1.4,2.6-2.7,5.4-5.1,7.4c-2,1.7-4,1.3-5.3-0.8c-0.4-0.7-0.9-1.5-1-2.3c-0.5-3.2-1.3-6.4-1.4-9.6
		c-0.2-11.3,1.4-22.4,5.8-33c1-2.4,2.6-4.6,4-6.8c0.2-0.3,1.2-0.7,1.4-0.5c0.5,0.3,0.9,0.9,0.9,1.4c0,1.2-0.2,2.4-0.5,3.5
		c-2.1,8.1-5.3,15.9-8.9,23.5c-1.3,2.6-0.9,5.1,0.2,7.5c0.1,0.3,0.4,0.5,0.8,1c0.4-0.7,0.7-1.2,1-1.7c1.5-3.3,3.1-6.6,4.4-10
		c2.7-6.8,5.2-13.6,6.4-20.8c0.3-1.7,0.4-3.7-0.3-5.2c-1.2-2.5-3-4.9-4.8-7.1c-1.8-2.1-3.8-2-6-0.2c-2.8,2.4-4.4,5.4-5.9,8.5
		c-3.9,8.4-5.8,17.2-6.7,26.2c-0.5,5.6-1,11.2,0.2,16.8c0.4,2,1.8,6.9,2.4,7.7c0.6,0.8,1.1,1.7,1.6,2.1c1.5,1.5,2.8,3.1,4.5,4.4
		c3.3,2.4,6.6,2.4,9.3,0c1-0.8,1.8-1.8,2.6-2.8c0.8-1.1,1.5-1.9,2.2-3.5c0.7-1.6,0.1-5.8-0.4-7.9C340.4,285.2,339.4,287,339.2,287.3
		z"/>
	<path class="st0" d="M293.1,270.2c-1.8,0-3.6-0.2-5.6-0.3c0.6-2.2,1.2-4.4,1.9-6.6c2.3-7.4,4.6-14.7,7-22.1
		c1.8-5.4-1.1-9.2-4.7-12.8c-1.1-1.1-2-0.8-2.4,0.8c-0.4,1.7-0.8,3.5-1.3,5.2c-1.4,4.4-3.1,8.7-4.4,13.1c-2.2,7-4.2,14-6.3,21
		c-0.1,0.5-0.8,1.2-1.2,1.2c-4.1-0.2-8.1-0.6-12.2-0.9c-0.1,0.3-0.2,0.1-0.1-0.2c0.9-3.6,1.7-7.2,2.7-10.8
		c2.4-8.7,4.9-17.4,7.4-26.1c1.1-3.7-0.1-6.9-3-9.6c-1.1-1.1-2.6-1.5-4.1-1c-3.6,1.3-7.3,1.1-11,0.5c-8.1-1.3-15.6-4-22.9-7.3
		c-9.3-4.2-18.3-8.8-27.6-12.8c-9.7-4.2-19.8-7.1-30.7-7c-8,0.1-15.3,1.8-21.8,6.3c-5.2,3.6-8.9,8.2-10.3,14.2c-0.5,2-0.4,4,1,5.8
		c0.9,1.1,1.4,0.9,2.3-0.1c1.7-2,3.4-4.1,5.5-5.8c6.1-5,13.6-7.2,21.7-7.9c8.4-0.8,16.7,0,24.7,2.2c12.4,3.5,24.7,7.4,37,11.2
		c7.9,2.5,15.8,5.3,24.2,6.2c1,0.1,3.7-0.4,4.8,0.7c1.1,1.1-4.3,16.3-5.4,19.5c-2.2,7-4.3,14-6.4,21c-0.2,0.7-0.2,1.3-1.3,1.3
		c-3.8-0.1-7.7-0.2-11.5-0.3c-7.8,0-16.7-0.4-17-0.4c-4,0-8-0.1-11.9-0.2c-6-0.1-11.9-0.3-17.9-0.3c-0.9,0-2.4,0.4-2.5,0.8
		c-0.3,1.3-0.2,2.7,0.1,4c0.3,1.1,1.5,1.2,2.7,1.2c9.9,0.1,19.8,0.2,29.7,0.3c15.1,0.2,30.2,0.4,45.3,0.6c2.8,0,5.5,0.3,8.1,0.4
		c-0.3,3.1-0.8,6.1-0.8,9.2c0,5,1.4,9.5,6,12.6c0.6,0.4,1.2,0.8,1.8,1.1c1-2.3,1.9-4.6,3.3-6.6c0-0.2-0.1-0.3-0.1-0.5
		c-0.5-3.1-0.2-6.2-0.4-9.4c0-0.7-0.1-1.6-0.5-2.2c-1.4-2.2-3.6-3.4-6.3-4c-0.5-0.1-0.9-0.2-1.4-0.3c3.2-0.2,6.3-0.1,9.4-0.1
		c2.9,0,5.7,0.1,8.6,0c0.6,0,1.5-0.5,1.7-0.9C297.3,272.3,295.5,270.3,293.1,270.2z"/>
	<path class="st0" d="M259.9,278.2c-1.6,0-3.2-0.1-4.6,0.1c-1.8,0.3-3.5,0.8-5.1,1.4c-1.7,0.6-2.7,1.8-3.1,3.5
		c-1.8,6.3-3.6,12.7-5.9,18.9c-2.2,6-4.6,12-7.4,17.7c-3.8,7.8-8.3,15.2-14.5,21.7c-4.7,5-9.9,9.5-17.3,11.5
		c-6.5,1.8-12.8,1.2-18.2-3.4c-2.4-2-3.6-4.6-4.1-7.3c-1.1-5.8,0.2-11.3,2.2-16.6c2-5.4,4.6-10.5,8.7-15c2.8-3.1,5.9-5.9,10.4-7.2
		c1.6-0.5,3.5-0.7,5.2-0.5c4,0.5,5.9,2.5,6.3,6.2c0.1,0.6,0.4,1.2,0.7,1.8c0.6-0.4,1.5-0.8,1.8-1.3c1.3-2.1,1.3-4.5,1.1-6.8
		c0-0.3-0.1-0.5-0.1-0.8c-2-1.7-4.5-3-7-4c0.1,0.1,0.2,0.2,0.3,0.3c-2.6-0.4-4.6-0.9-6.6-1.1c-7.7-0.6-14.1,1.6-19.1,6
		c-9,8.1-14.2,17.8-14.2,29.4c0,6.5,2.1,12.7,7.4,17.9c6.2,6.1,14.1,8.5,23,8.4c11.1-0.2,19.8-4.6,27.3-10.7
		c7.8-6.4,13.3-14.2,17.8-22.6c6.2-11.7,10-24.2,12.9-37c0.7-3.2,1.3-6.4,1.9-9.5C259.9,279,259.9,278.8,259.9,278.2z"/>
	<path class="st0" d="M382.4,286.8c-0.5-4.6-1.5-8.7-4.9-11.9c0.1-0.7,0.3-1.6-0.1-2c-3.8-3.8-8.8-5-12.2,0.7
		c-2.8,4.7-3.1,9.7-2,14.9c1,4.7,3.2,8.9,7.4,12.1c3.6,2.8,7.3,2.2,9.6-1.5c0.8-1.3,1.2-2.9,1.8-4.3c0.4-1-0.1-1.6-1.2-1.9
		c-1.1-0.3-2.1-0.4-2.6,0.7c-0.3,0.5-0.5,1.1-0.8,1.7c-1.1,1.7-3,2-4.5,0.5c-0.6-0.5-1-1.2-1.4-1.9c-2.7-5.1-1.2-10.3-0.5-15.4
		c0.4,4.2,2.6,7.5,6,10.1c1.7,1.3,3.8,2.3,5.9,2.3C382.8,289.4,382.6,286.7,382.4,286.8z M378.1,285.3c-1.6-1.4-2.4-3.1-2.8-5.1
		c-0.1-0.3,0.3-0.7,0.5-1.1c0.4,0.2,1,0.3,1.1,0.6c0.7,1.8,1.3,3.6,1.9,5.4C378.6,285.2,378.3,285.2,378.1,285.3z"/>
	<path class="st0" d="M361.4,288.3c-1.7,2.5-3.2,5.2-5.8,7c-2.2,1.5-4.1,1-5.2-1.2c-0.4-0.8-0.7-1.6-0.8-2.4
		c-0.2-3.2-0.7-6.5-0.4-9.7c0.8-11.3,3.6-22.2,8.9-32.4c1.2-2.3,3-4.4,4.7-6.5c0.3-0.3,1.2-0.6,1.5-0.4c0.4,0.3,0.8,1,0.7,1.5
		c-0.1,1.2-0.4,2.3-0.9,3.4c-2.9,7.9-6.8,15.4-11.1,22.7c-1.5,2.5-1.3,5-0.5,7.5c0.1,0.3,0.4,0.5,0.7,1.1c0.5-0.7,0.8-1.1,1.1-1.6
		c1.8-3.2,3.7-6.3,5.4-9.6c3.4-6.5,6.5-13.2,8.4-20.2c0.4-1.7,0.8-3.6,0.2-5.2c-1-2.6-2.5-5.1-4.1-7.4c-1.6-2.2-3.6-2.3-5.9-0.7
		c-3,2.1-4.9,5-6.7,8c-4.7,8-7.4,16.6-9.2,25.5c-1.1,5.5-2,11.1-1.4,16.7c0.2,2,1.8,8.6,3,10.1s2.5,3.3,4.1,4.7
		c3,2.7,6.3,2.9,9.3,0.8c1-0.8,2-1.7,2.8-2.6c0.9-1,1.7-2.1,2.5-3.3c-0.3-2.1-0.4-4.3-0.7-6.5C361.7,287.8,361.6,288,361.4,288.3z"
		/>
	<g>
		<path class="st0" d="M305.4,295.1c-2.9,0.8-4.9-0.4-4.6-3.1c0.2-2,0.8-4,1.6-5.9c-1.9-0.6-4-0.9-6-0.9c-0.6,3.7,0.1,7.4,2.4,11.1
			c1.2,2,2.8,3,5,3c0.9-1.5,1.9-3.1,2.8-4.6C306.1,294.9,305.8,295,305.4,295.1z"/>
		<path class="st0" d="M302.6,285.6c1.3-3,3.3-5.7,6-7.7c0.6-0.5,1.7-0.4,2.6-0.6c0.1,0.8,0.5,1.6,0.3,2.3c-0.3,1-0.9,2-1.6,2.9
			c-0.8,1-1.8,1.6-3.3,1.4c-0.9-0.2-1.7,0-2,1c-0.2,1,0,1.7,1,2.2c2,0.9,4.5,0.3,6-1.5c3.6-4,3.5-8.5,1.8-13.1
			c-1.1-3.1-3.4-4.1-6.8-2.7c-0.9,0.4-1.7,0.9-2.4,1.4c-2.8,2.1-4.5,4.9-6,7.9c-1,2.1-1.7,4.1-2,6.1c2.1,0,4.1,0.2,6,0.9
			C302.4,286,302.5,285.8,302.6,285.6z"/>
		<path class="st0" d="M315.7,288.2c-0.1,0.1-0.1,0.2-0.2,0.2c-2.7,2.5-5.4,5-9,6.3c-0.9,1.5-1.9,3.1-2.8,4.6c0.6,0,1.2-0.1,1.9-0.2
			c3.3-0.7,5.9-2.4,8.3-4.4c1.3-1.1,2.5-2.3,3.8-3.5c0.5-1.3,0.7-3.3,0.6-5.4C318.1,286.1,316,287.9,315.7,288.2z"/>
	</g>
	<path class="st0" d="M285.5,291.2c0,0,2.1,3.9,5.3,2.5c3.3-1.4,4.8-2.8,4.8-2.8s0.7-0.2,0.5,1s-0.7,4-0.7,4s0.3,0.6-1.2,1.4
		s-5.3,1.9-7.3,1.7s-3.7-0.2-4.5-0.7S285.5,291.2,285.5,291.2z"/>
	<path class="st0" d="M382.7,290.9c0,0,4.1,0,6.4-2.9s3.2-5,3.3-7.9c0.1-2.9-1-0.3-1-0.3s0,0-1.2,2.8c-1.2,2.3-1.6,3.1-4.6,3.8
		c-3,0.7-4.7,0-4.7,0L382.7,290.9z"/>
</g>
<g>
	<path class="st0" d="M183.2,277.3c-1.9,2.3-3.2,4.7-7,6.7c-2.1,1.1-4.4,1.6-7,1.2c-0.9-0.1-1.6-0.6-0.4-0.8c4.9-1.2,7-3.5,10.4-5.3
		c1.2-0.6,1.8-1.5,2.7-2.3C182.3,277,182.8,277.1,183.2,277.3z"/>
	<path class="st0" d="M179.2,269.4c-7,1.5-13.6,3.6-20.1,1.9c-1.3-0.3-2.2-1.8-1.7-3.6c0.6-2.5,1.9-0.4,2.8-0.5
		c5.1-0.1,10.2-0.1,15.3,0C176.6,267.3,178.1,266.8,179.2,269.4z"/>
	<path class="st0" d="M173.9,248.8c3.2,5.5,8.2,7.2,12.5,11.2c-6.3,2.9-9.6-1.1-13.1-4.2C171.7,254.3,172.2,251.7,173.9,248.8z"/>
</g>
<g>
	<path class="st0" d="M410.6,275.2c-3.9,2.9-8.2,3.7-12.7,3.2c-0.6-0.1-1.3-0.1-1.3-0.9c0-0.7,0.3-1.2,1-1.4
		c0.7-0.3,1.5-0.8,2.2-0.8C403.4,275.2,407,275.2,410.6,275.2z"/>
	<path class="st0" d="M392.8,274.6c0.7-2.1,2.2-3.8,4.2-5.5c0.3-0.2,0.6-0.4,1.5-0.2c0.6,0.2,0.6,0.4,0.5,0.6
		c-0.8,1.5-1.6,2.9-2.5,4.4C396.2,274.5,394.7,274.5,392.8,274.6z"/>
	<path class="st0" d="M384.5,261.6c2.1,0.3,2.6,1.6,3.1,2.8c0.9,2.2,1.6,4.4,2.5,6.5c0.4,1,0,1.9-1,2.2c-1.2,0.4-1.3-0.7-1.5-1.4
		C386.5,268.4,385,265.3,384.5,261.6z"/>
</g>
<g>
	<path class="st0" d="M319.7,360.7c-3.6-0.2-7.2,0.5-10.7,1.9c-2.2,1.1-5.7,2.7-8.2,3.7c-2.5,1-3.9,1.3-5.3,1.9
		c-5.2,2.1-10.6,2.2-16,1.5c-6-0.8-11-5.5-12-11.6c-0.5-2.9-1.6-2.6-3.2-1.7c-1.2,0.7-2.2,1.8-2.7,3.5c-2.2,7.7,3.1,19.3,9.6,21
		c4.8,1.3,9.7,1.1,14.5-0.5c3.8-1.3,10.9-4.2,15-5.9c5.7-3.4,4.9-3.2,15.5-7.2c1-0.4,2.3-0.9,2.9,0.6c0.6,1.5,0.3,3.1-1,4.1
		c0.2,1.2,4.6,13.2,8.4,2.1C330.3,362.9,321.4,360.8,319.7,360.7z"/>
	<path class="st0" d="M293,328.7c-2.8-0.1-5.9,0.1-9-0.2c-10.2-1-17.6-9-19.7-21c-0.3-1.6-0.4-3.1-0.5-4.7c0-0.5,0.5-1.3,0.8-1.3
		c0.4-0.1,1.1,0.4,1.2,0.8c3,10.9,10.5,14,18.7,15.6c5,1,10,0.1,14.8-1.3c13.3-4,25,7.4,27.7,18.5c0.2,0.9,0.4,1.7,0.4,2.6
		c0,0.5-0.3,1-0.4,1.5c-0.4-0.3-0.9-0.5-1-0.9c-1.6-3.7-4-6.4-6.9-8.7c-5.2-4.2-10.9-4.3-16.8-2.8c-0.4,0.1-0.9,0.9-1,1.5
		c-0.9,6.7-8.9,11.9-8.5,5.6C293,332.1,293,330.4,293,328.7z"/>
	<path class="st0" d="M300.1,322.3c1.3,0.1,1.6,1.1,1.4,2.5c-1.7,14.2-3.5,28.4-5.2,42.5c-0.3,2.8-3.4,5.8-5.6,5.8
		c-1.2,0-1.1-1.1-1.1-2c0.3-3.9,0.6-7.8,1-11.7c1.1-10.3,2.2-20.5,3.3-30.8C294.2,326.1,291.2,321.5,300.1,322.3z"/>
</g>
</svg>
