<?xml version="1.0" encoding="utf-8"?>
<!-- Generator: Adobe Illustrator 20.0.0, SVG Export Plug-In . SVG Version: 6.00 Build 0)  -->
<svg version="1.1" id="Capa_1" xmlns="http://www.w3.org/2000/svg" xmlns:xlink="http://www.w3.org/1999/xlink" x="0px" y="0px"
	 viewBox="0 0 334.6 380.1" style="enable-background:new 0 0 334.6 380.1;" xml:space="preserve">
<style type="text/css">
	.st0{fill:#FFFFFF;}
</style>
<path class="st0" d="M295.4,252.7c-0.1,2-1.5,4.4-2.1,6.4c-1.9,3.7-3.5,5.7-6,8.1c-3.6,3.5-8,2.7-10.2-1.8c-0.2-0.5-0.4-0.9-0.6-1.4
	c-1.8-6.4-1.4-12.7,1.6-18.7c0.5-0.9,1.2-1.8,2.1-2.4c1.1-0.8,2.3-0.6,3.1,0.6c2.1,3,0,7.9-3.6,8.5c-0.9,0.1-2.2,0.1-2,1.4
	c0.2,1.1,1,2.6,1.9,2.9c1.9,0.7,4,0.3,5.6-1.2c2.2-1.9,3-4.4,2.9-7.1c-0.1-6.5-3.8-10.9-8.8-14.2c-2.2-1.4-4.9-0.9-6.7,0.9
	c-1.8,1.8-3.5,3.9-4.5,6.2c-2.1,4.8-1.8,10-1,15.2c0.1,0.7,0.3,1.6,0,2c-1.7,2.2-3.3,4.4-5.4,6.2c-1.7,1.5-3.6,0.6-4.1-1.7
	c-0.3-1.4-0.5-3-0.2-4.3c1.1-5.2,2.3-10.4,3.6-15.5c0.7-2.7,1.7-6.7-0.7-8.2c-5-3.1-10.9-2.5-14.6-7.3c-1.6-2.1-3.1-4.3-3.7-7.3
	c1.9,0.4,2.1,1.8,2.7,3c0.9,1.7,1.9,3.4,3.1,4.9c0.6,0.8,1.6,0.9,1.8-0.5c0.9-5.2-3.4-12-8.5-13.4c-2.6-0.7-4.6,0.6-4.4,3.3
	c0.1,2,0.5,4.1,1.3,5.8c1.2,2.5,2.9,4.8,4.5,7c1,1.3,1,2.4,0.3,3.8c-2.9,5.5-1.9,4.2-5.1,10c0,1.8,5,0.5,5,2.3
	c3.4-6,2.4-4.6,3.5-7.2c0.6-1,1.2-2,1.9-3.2c1.3,1,2.5,1.2,3.5,2.2c0.4,0.4,2.5,1.6,2.3,2.2c-0.9,3.2-2.7,6.5-3.5,9.7
	c-1.7,7.1-1.4,13.7,4.4,18.6c4.2,3.5,7.5,3.6,11.5,0c1.3-1.2,2.5-2.4,3.6-3.5c2.4,2.4,4.4,5,6.9,6.9c5.7,4.4,15.4,1.4,19.3-4.6
	c0.6-0.9,0.6-1.4,1.2-2.3C297.5,264.9,296.6,260,295.4,252.7z"/>
<path class="st0" d="M327.4,256.1c-0.7-1.3-1.9-2.4-3.1-3.3c-0.8-0.6-1.9-0.7-2.9-0.9c-0.3-0.1-1,0.2-1.1,0.5c-0.1,0.4,0,1,0.3,1.4
	c0.5,0.8,1.2,1.5,1.7,2.4c1.9,3.6,2.8,7.5,3.1,11.5c0.1,1.8,0,3.6-0.4,5.4c-0.4,2-1.7,2.4-3.1,0.9c-1.3-1.4-2.5-3.1-3.3-4.9
	c-1.8-4.3-2.6-9-2.7-13.7c-0.2-5.5-0.3-11.1,0-16.6c0.2-3.2-1.2-5.3-3.2-7.2c-0.5-0.5-1.6-0.9-2.2-0.7c-0.5,0.2-0.8,1.3-1,2
	c-0.2,0.6-0.2,1.3-0.2,2.3c-1-1.6-1.7-2.9-2.6-4.1c-3.2-3.9-5.9-3.3-7.9,0.9c-0.1,0.1-0.1,0.3-0.2,0.4c-0.5,2.4-1.2,4.9-1.5,7.3
	c-0.7,4.9-1.1,9.9-1.9,14.9c-0.3,1.9-1.1,3.8-1.8,5.6c-0.2,0.5,2,9,3.5,4.6c0.5-1.4,0.8-2.8,1.3-4.6c0.4,1,0.7,1.7,1,2.4
	c0.7,1.2,1.3,2.6,2.3,3.6c1.7,1.9,3.2,1.6,4.4-0.6c1-2,1.9-4,2.8-6.1c0.4-0.8,0.7-1.7,1-2.5c0.1,0,0.2,0,0.3,0.1
	c0.1,0.3,0.2,0.6,0.3,1c0.7,2.9,1.2,5.8,2.2,8.6c1.9,5.1,4.8,9.4,9.6,11.8c4,2,7.5,0.4,8.7-4.1C332.4,267.8,330.6,261.8,327.4,256.1
	z M308.4,247.2c-1.5,3.9-2.8,7.9-4.2,11.8c-0.1,0.3-0.3,0.5-0.4,0.8c-0.1,0-0.3,0-0.4,0c-0.1-0.6-0.3-1.3-0.3-1.9
	c-0.4-6.4-0.4-12.7,0.7-19c0.2-0.9,0.4-1.8,0.7-2.7c0.3-1,1.1-1.1,1.5-0.3C307.7,239.5,310,242.9,308.4,247.2z"/>
<path class="st0" d="M182,297.7c-0.9-2.4-1.8-4.2-2.4-6.2c-0.6-1.9,0.6-4.4,2.7-5.8c1.7-1.1,2.4-0.9,2.7,0.6
	c0.6,2.8,1.3,5.7,2.2,8.4c0.5,1.5,1.6,2.8,2.8,3.9c2.5,2.2,6.5,1.2,8.9-2.3c1.5-2.2,2.8-4.6,3.7-7c1.7-4.7,2.6-9.3,2.4-13.7
	c-0.1-3-0.7-5.8-2.8-7.9c-0.2-0.2-0.3-0.9-0.1-1.2c0.4-0.4,1.1-1,1.5-1c1.1,0,2.2,0.2,3.1,0.6c2.6,1.3,3.9,3.6,4.5,6.3
	c1.5,7,0.4,14.4-3.4,22.1c-5,10.2-14.7,11.8-20.7,7.8C184.9,301,183.4,299.1,182,297.7z"/>
<path class="st0" d="M182.7,256.1c0.2-7.8,0.7-15.5,1.1-23.3c0.3-6.1-2-11.2-6.4-15.3c-1.9-1.8-3.1-1.8-4.6,0.1
	c-1.5,1.8-2.7,3.9-3.7,6.1c-1.2,2.5-2.1,5.2-3.2,7.8c0-2.1,0.1-4.1,0.5-6.1c0.4-2.1,0.1-4-1.6-5.5c-1.5-1.4-3-2.9-4.7-4
	c-1.3-0.8-1.9-0.1-1.8,1.5c0.2,1.8,0.3,3.7,0.2,5.5c-0.1,1.8-0.4,3.7-0.6,5.5c-0.4,5.3-0.8,10.7-2.9,15.7c-1.4,3.4-2.9,6.8-4.5,10.1
	c-0.2,0.3-3.3,4.6-2.6,7.1c0.7,2.5,2.7,0.2,3.9-1.1c1-1.1,1.9-2.3,2.6-3.6c0.8-1.3,1.3-2.7,2.1-4.2c0.2,1.4,0,2.5,0.7,3.7
	c0.7,1.3,4.3,5.3,5.7,5.5c1.4,0.1,1.7,0.4,1.6-1.1c0-1.5-0.2-3,0-4.4c0.9-5.1,1.7-10.3,2.9-15.4c1-4.6,2.5-9.1,5.3-13
	c0.6-0.9,1.9-1.9,2.6-1.8c1.4,0.2,1.3,1.9,1.3,3c-0.2,4.4-0.5,8.9-0.9,13.3c-1.3,14.2-1.6,28.3,0.7,42.4c2.7,0,5.2-0.6,7.4-1.7
	C182.4,274,182.4,265.1,182.7,256.1z"/>
<path class="st0" d="M155.6,231.5c-4.5-0.1-10.6-0.4-15.1-0.6c-0.1,0.4-0.2,0.1-0.1-0.2c0.8-4.3,1.6-8.7,2.5-13
	c2.3-10.5,4.6-21.1,6.9-31.6c1-4.5-0.4-8.2-3.7-11.4c-1.3-1.2-2.9-1.7-4.6-1c-3.9,1.7-7.9,1.6-12,1c-8.9-1.2-17.3-4.2-25.5-7.8
	c-10.3-4.7-20.5-9.8-30.9-14.2c-10.8-4.6-22-7.8-34-7.2c-8.7,0.4-16.7,2.7-23.6,8.4c-5.6,4.6-9.4,10.2-10.7,17.4
	c-0.4,2.4-0.3,4.9,1.4,6.9c1.1,1.3,1.6,1.1,2.5-0.3c1.8-2.4,3.6-5,5.7-7.1c6.5-6.3,14.6-9.2,23.4-10.4c9.2-1.3,18.3-0.7,27.2,1.7
	c13.8,3.7,27.4,7.9,41.1,12c8.8,2.6,17.5,5.7,26.8,6.5c1.1,0.1,2.3,0.2,3.5,0.4c-0.2,0.4-0.2,0.5-0.3,0.6
	c-12.4,17.3-25.7,34-40,49.7c-0.4,0.4-1.2,0.8-1.8,0.8c-4.4,0.1-8.7,0.2-13.1,0.3c-6.6,0.1-13.1,0.1-19.7,0.3c-1,0-2.6,0.6-2.7,1
	c-0.2,1.6-0.1,3.3,0.3,4.8c0.3,1.3,1.7,1.4,3,1.4c10.9-0.3,21.7-0.5,32.6-0.8c16.6-0.4,33.2-0.7,49.7-1.1c3-0.1,6.4,0.2,5.9,0.1
	C151,238.3,156,231.5,155.6,231.5z M130.3,201.1c-2.4,9.4-4.7,18.7-7,28.1c-0.2,0.9-0.2,1.7-1.6,1.7c-7,0-14,0.2-21,0.2
	c-0.1,0-0.2-0.1-0.2-0.1c11.3-14.2,22.5-28.5,33.5-42.3C132.9,192.6,131.4,196.8,130.3,201.1z"/>
<path class="st0" d="M242,177.5c-1.5-3.3-3.7-6.4-6-9.2c-2.2-2.7-4.6-2.5-7,0c-3.2,3.2-4.9,7.4-6.5,11.6c-4.1,11.3-6,23-6.6,35
	c-0.4,7.4-0.6,14.9,1,22.2c0.6,2.6,0.4,4.6-1.2,6.6c-1,1.2-1.8,2.7-2.9,3.8c-1.9,1.9-3.9,3.8-6.1,5.1c-3.9,2.3-6.7,0.4-8.2-3.8
	s-1-2.4-1.1-5.8c-4.1,1.8-7.6,0-11.5,1.9c0.8,4.8,2.9,9.1,7.1,12.1c7.7,5.5,14,4.9,19.7-0.7c2.2-2.2,4.2-4.7,6.3-7
	c0.4-0.5,0.9-1,1.4-1.7c0.6,0.9,1,1.5,1.5,2.1c1.8,1.9,3.5,4,5.5,5.6c2,1.6,3.9,2.3,5.8,2.2c0.7-2.4,0.8-4.8,0.7-7.3
	c-1.7,0.8-3.3,0.1-4.5-2.1c-0.5-0.9-1.1-2-1.3-3c-0.8-4.2-1.8-8.4-2-12.7c-0.8-15,0.6-29.8,5.2-44.1c1-3.2,2.8-6.2,4.4-9.2
	c0.2-0.5,1.3-1,1.6-0.8c0.5,0.3,1.1,1.2,1.1,1.8c0,1.6-0.2,3.1-0.4,4.7c-2.1,10.8-5.4,21.3-9.3,31.6c-1.3,3.5-0.8,6.8,0.6,10
	c0.2,0.4,0.5,0.7,1,1.3c0.4-0.9,0.8-1.6,1.1-2.3c1.6-4.5,3.3-8.9,4.7-13.4c2.9-9.1,5.5-18.3,6.5-27.9
	C242.8,182.1,242.9,179.5,242,177.5z"/>
<path class="st0" d="M87.6,206.8c-3.1-5.2-8.1-5.6-13.4-4.9c-6.6,0.8-12.7,4.2-18.5,8.4c-12.1,8.9-21.6,20-27.7,33.8
	c-3.1,7.1-4.8,14.3-3.6,21.4c0.9,5.4,4.4,8.3,9.3,9.7c5.9,1.6,11.6-0.3,17.3-3.7c9.4-5.7,17.6-13,25.5-20.8c3.3-3.2,6.6-6.6,9.8-9.9
	c0.9-1,1.8-1.6,3-1.3c1.5,0.4,3,0.9,4.4,1.5c0.7,0.3,0.8,0.9,0,1.6c-6.9,6.8-13.7,13.8-20.7,20.4c-6.2,5.8-13,10.9-20.2,15.1
	c-6.8,3.9-13.7,6.6-20.8,5.4c-10.8-1.8-19-6.9-22.6-17.6c-2.1-6.3-1.3-13.1,0.8-20c5.3-17.6,15.9-31.8,30.6-43.3
	c7-5.5,14.5-9.5,22.7-10.9c9.3-1.6,17.4-0.1,23.1,6.7c1.4,1.6,2.2,3.5,1.9,6C88.5,205.1,88.1,205.8,87.6,206.8z"/>
<path class="st0" d="M197.4,243.3c0,0-0.8-6.9,5.2-8.7c6-1.8,8.8-1,8.8-1s1.6-0.7,0-1.7c-1.6-1.1-7.2-3.9-12.3-3.2s-7.5,2.8-8.8,4.2
	c-1.3,1.4-3.5,5.4-4,7.7c-0.5,2.3-0.5,4.6-0.5,4.6L197.4,243.3z"/>
<path class="st0" d="M197.4,243.3c0-0.8-5.2,0-5.2,0l-0.8,0.8l1.3,1l2.8-0.4l1.3-1L197.4,243.3z"/>
<path class="st0" d="M231.2,250.4c0,0,2,0.8,2.8,0.1c0.8-0.7,2.3-2.9,5.2-8.8s4.4,2.9,4.4,2.9s-1.5,4.6-3.4,7.2
	c-1.9,2.6-3.6,6-6.9,5.9"/>
<g>
	<path class="st0" d="M293.8,277.4c-0.1-0.4-0.7-0.9-1-0.8c-0.5,0.1-1,0.5-1.2,0.9c-0.5,1.1-0.8,2.3-1.4,3.4
		c-1.2,2.6-3.1,4.3-6.2,5.7s-7,1.7-9.1,1.7c-2.1-0.1-1.5,0-2.1-0.1c-4.8-0.8-9.6-1.2-14.2-2.4c-8.6-2.3-17-5-25.5-7.5
		c-10.4-3-21-5.7-32-6.1c-8.2-0.3-16,1.1-23.2,4.9c-7.1,3.8-12.4,9.2-15.7,16c-1.4,2.9-2.6,6-2.1,9.3c0.1,0.9,1,1.7,1.5,2.6
		c0.6-0.7,1.3-1.3,1.7-2c2.4-4.6,5.6-6.4,10.5-5.1c2.1,0.5,4.2,1.7,5.8,3c4.6,3.8,6.8,8.8,8.6,14.1c2.5,7.6,2.9,15.5,2.6,23.4
		c-0.3,7.8-1.6,15.5-5.7,22.5c-2,3.3-4.6,6.1-8.4,7.6c-8.6,3.4-16.2,1.3-22.9-4c-7.6-6.1-11.4-14.3-14.4-22.9
		c-3.9-11.3-5.6-23-6.1-34.8c-0.4-8.8-0.2-17.6,0.2-26.3c0.5-9.1,1.5-18.1,2.6-27.1c0.3-2.4-0.2-4.3-1.9-6c-1.6-1.5-3.3-3-5.2-4.2
		c-1.6-1-3.4-1.5-5.3-2.3c-0.2,0.7-0.4,1.1-0.5,1.5c-0.8,4.4-1.8,8.8-2.5,13.2c-2.9,17.8-4.8,35.7-3.4,53.7
		c1,12.9,3.6,25.5,9.5,37.4c5.7,11.4,13.6,21.1,26.5,26.5c10.3,4.3,20.8,4.8,31.1-0.2c8.9-4.3,14.3-11.3,17.6-19.7
		c5.8-15,4.7-30-1.8-44.6c-3.6-8.1-10-13.9-19.3-16.6c-2.5-0.7-5.1-1-8.3-1.7c3.1-1.8,5.6-3.7,8.4-5c6.2-3,12.7-4.1,19.3-4l0.3-0.4
		c0,0,0.5-1,1.9-2.5c1.4-1.5,2.3-4.9,2.3-5.5c0,0,1.8,5.1-0.1,8.6c0,0,0,0,0,0c1.6,0.1,3.3,0.3,5,0.6c9.2,1.5,17.9,4.7,26.5,7.8
		c8.7,3.1,17.3,6.3,26,9.3c5.1,1.7,10.3,3,15.8,2.9c4.3-0.1,8.3-1.1,11.6-3.8C295.2,293.6,295.8,282.9,293.8,277.4z"/>
</g>
<path class="st0" d="M222.8,127.7c-0.2-0.2-0.8-0.2-1.2-0.2c0,0.3-0.2,0.7-0.1,1c1.8,3.5,2.7,8.3,1.5,11s0.7,4.8,3.3,3.2
	c1.3-5,1.3-6.8-1-11.7C224.7,129.7,223.7,128.7,222.8,127.7z"/>
<g>
	<path class="st0" d="M258.2,166.9c-0.1-0.1-0.3-0.3-0.4-0.3c-0.2,0-0.5,0.1-0.6,0.2c-0.3,0.3-0.5,0.7-0.8,1
		c-0.7,0.8-1.7,1.2-3.2,1.5c-0.1-0.2-0.1-0.4-0.2-0.5c-0.5-3.3-0.3-6.5,0.2-9.6c0.4-2.7,0.9-5.3,1.4-8c0.4-2.1-0.8-4-3.2-5.7
		c-1-0.7-1.7-0.8-2.6-0.2c-0.9,0.6-1.7,1.2-2.3,1.9c-0.8,0.8-1.4,1.7-2.1,2.5c0.1-0.7-1.7,8.9-1.5,8.5c0.7-1.7,1.3-3.5,2.2-5.2
		c0.7-1.5,1.7-3,3.4-4.2c0.4-0.3,1.1-0.6,1.6-0.5c0.8,0.2,0.7,0.7,0.6,1.1c-0.3,1.5-0.6,3-0.9,4.5c-1.2,5-1.9,10-0.9,15.1
		c0,0.1,0.7,4.4,1.8,5c1.1,0.6,3.4-0.1,4.9-0.7C258.5,172.1,259,168.8,258.2,166.9z"/>
	<path class="st0" d="M243.9,158.5c0.4-2.7,0.9-5.3,1.4-8c0.4-2.1-0.8-4-3.2-5.7c-1-0.7-1.7-0.8-2.6-0.2c-0.9,0.6-1.7,1.2-2.3,1.9
		c-0.8,0.8-1.4,1.7-2.1,2.5c0.1-0.7,0.2-1.4,0.5-2.1c0.3-0.7,0.2-1.4-0.7-2c-0.8-0.6-1.6-1.2-2.6-1.6c-0.7-0.4-1.1-0.1-1.1,0.4
		c0,0.6,0.1,1.3,0,1.9c-0.1,0.6-0.4,1.2-0.5,1.9c-0.3,1.4-1.6,8.6-1.3,9.6c0.3,0.9,1.9,1.5,3.1,2.2c0.6,0.4,0.9,0.2,1-0.3
		c0-0.5,0-1,0.2-1.5c0.7-1.7,1.3-3.5,2.2-5.2c0.7-1.5,1.7-3,3.4-4.2c0.4-0.3,1.1-0.6,1.6-0.5c0.8,0.2,0.7,0.7,0.6,1.1
		c-0.3,1.5-0.6,3-0.9,4.6C239.2,158.3,243.5,161.7,243.9,158.5z"/>
</g>
<g>
	<path class="st0" d="M229.7,87.4c-1.3,2.3-2.3,4.8-4.5,6.6c-1.8,1.5-3.5,1.2-4.7-0.7c-0.4-0.6-0.8-1.3-0.9-2
		c-0.5-2.8-1.1-5.7-1.2-8.5c-0.2-10,1.3-19.8,5.1-29.2c0.9-2.1,2.3-4.1,3.6-6c0.2-0.3,1-0.6,1.3-0.5c0.4,0.2,0.8,0.8,0.8,1.3
		c0,1-0.2,2.1-0.5,3.1c-1.9,7.2-4.7,14-7.9,20.8c-1.1,2.3-0.8,4.5,0.2,6.7c0.1,0.3,0.4,0.5,0.7,0.9c0.4-0.6,0.7-1,0.9-1.5
		c1.3-2.9,2.7-5.8,3.9-8.8c2.4-6,4.6-12.1,5.6-18.4c0.2-1.5,0.4-3.3-0.2-4.6c-1.1-2.2-2.6-4.3-4.3-6.2c-1.6-1.8-3.4-1.8-5.3-0.2
		c-2.5,2.1-3.9,4.8-5.2,7.5c-3.4,7.4-5.1,15.2-5.9,23.1c-0.5,4.9-0.8,9.9,0.2,14.8c0.4,1.8,1.6,6.1,2.1,6.8s1,1.5,1.4,1.9
		c1.3,1.3,2.5,2.7,4,3.9c2.9,2.2,5.8,2.1,8.2,0c0.9-0.7,1.6-1.6,2.3-2.5c0.7-1,1.3-1.6,1.9-3.1c0.6-1.4,0.1-5.1-0.4-7
		C230.8,85.6,229.9,87.2,229.7,87.4z"/>
	<path class="st0" d="M189,72.3c-1.6,0-3.2-0.2-4.9-0.3c0.6-2,1.1-3.9,1.7-5.8c2-6.5,4-13,6.2-19.5c1.6-4.8-1-8.1-4.2-11.3
		c-1-1-1.8-0.7-2.1,0.7c-0.4,1.5-0.7,3.1-1.2,4.6c-1.3,3.9-2.7,7.7-3.9,11.6c-1.9,6.2-3.7,12.4-5.6,18.6c-0.1,0.4-0.7,1.1-1,1.1
		c-3.6-0.2-7.2-0.5-10.8-0.8c-0.1,0.3-0.1,0.1-0.1-0.1c0.8-3.2,1.5-6.4,2.4-9.5c2.1-7.7,4.3-15.4,6.5-23.1c0.9-3.3-0.1-6.1-2.6-8.5
		c-1-0.9-2.3-1.3-3.7-0.9c-3.2,1.1-6.4,1-9.7,0.4c-7.1-1.2-13.8-3.5-20.3-6.4c-8.2-3.7-16.2-7.7-24.4-11.3
		c-8.6-3.7-17.5-6.3-27.2-6.2c-7,0.1-13.6,1.6-19.2,5.5c-4.6,3.2-7.9,7.3-9.1,12.5c-0.4,1.8-0.4,3.6,0.9,5.1c0.8,1,1.2,0.8,2-0.1
		c1.5-1.8,3-3.6,4.8-5.1c5.4-4.4,12-6.4,19.1-7c7.4-0.7,14.8,0,21.9,2c11,3.1,21.8,6.5,32.7,9.9c7,2.2,13.9,4.6,21.4,5.5
		c0.9,0.1,3.3-0.4,4.2,0.6c1,1-3.8,14.4-4.7,17.3c-2,6.2-3.8,12.4-5.7,18.5c-0.2,0.6-0.2,1.1-1.2,1.1c-3.4-0.1-6.8-0.2-10.2-0.2
		c-6.9,0-14.8-0.4-15.1-0.4c-3.5,0-7-0.1-10.5-0.2c-5.3-0.1-10.6-0.2-15.8-0.3c-0.8,0-2.1,0.3-2.2,0.7c-0.2,1.1-0.2,2.4,0.1,3.5
		c0.2,0.9,1.3,1.1,2.3,1.1c8.7,0.1,17.5,0.2,26.2,0.3c13.4,0.2,26.7,0.3,40.1,0.6c2.4,0,4.9,0.2,7.2,0.4c-0.3,2.7-0.7,5.4-0.7,8.2
		c0,4.4,1.2,8.4,5.3,11.2c0.5,0.4,1,0.7,1.6,1c0.8-2,1.7-4,2.9-5.9c0-0.1-0.1-0.3-0.1-0.4c-0.5-2.7-0.2-5.5-0.3-8.3
		c0-0.7-0.1-1.4-0.5-1.9c-1.2-2-3.2-3-5.6-3.5c-0.4-0.1-0.8-0.2-1.3-0.3c2.8-0.2,5.6-0.1,8.3-0.1c2.5,0,5,0.1,7.6,0
		c0.5,0,1.4-0.4,1.5-0.8C192.7,74.2,191.1,72.4,189,72.3z"/>
	<path class="st0" d="M159.6,79.4c-1.4,0-2.8-0.1-4.1,0.1c-1.5,0.3-3.1,0.7-4.5,1.2c-1.5,0.6-2.4,1.6-2.8,3.1
		c-1.6,5.6-3.2,11.2-5.2,16.7c-1.9,5.3-4.1,10.6-6.6,15.7c-3.3,6.9-7.4,13.4-12.8,19.2c-4.1,4.4-8.7,8.4-15.3,10.2
		c-5.8,1.6-11.3,1-16-3c-2.1-1.8-3.2-4.1-3.6-6.5c-1-5.1,0.2-10,1.9-14.7c1.8-4.7,4.1-9.3,7.6-13.3c2.5-2.7,5.2-5.2,9.2-6.4
		c1.4-0.4,3.1-0.6,4.6-0.4c3.5,0.4,5.2,2.2,5.6,5.5c0.1,0.5,0.4,1.1,0.6,1.6c0.6-0.4,1.3-0.7,1.6-1.2c1.1-1.8,1.2-3.9,1-6
		c0-0.2,0-0.5-0.1-0.7c-1.8-1.5-4-2.6-6.2-3.6c0.1,0.1,0.1,0.2,0.2,0.3c-2.3-0.4-4.1-0.8-5.9-1c-6.8-0.6-12.5,1.4-16.9,5.3
		c-8,7.1-12.6,15.7-12.5,26c0,5.8,1.8,11.2,6.6,15.8c5.5,5.4,12.5,7.5,20.4,7.4c9.8-0.2,17.5-4.1,24.2-9.5
		c6.9-5.6,11.8-12.5,15.7-19.9c5.5-10.4,8.8-21.4,11.4-32.7c0.7-2.8,1.2-5.6,1.7-8.4C159.6,80.1,159.6,79.9,159.6,79.4z"/>
	<path class="st0" d="M267.9,87c-0.5-4-1.4-7.7-4.4-10.5c0.1-0.6,0.3-1.4-0.1-1.8c-3.4-3.4-7.8-4.4-10.8,0.6
		c-2.5,4.1-2.8,8.6-1.8,13.1c0.9,4.2,2.9,7.9,6.5,10.7c3.2,2.4,6.4,2,8.5-1.3c0.7-1.2,1.1-2.5,1.6-3.8c0.3-0.9-0.1-1.4-1-1.7
		c-0.9-0.3-1.8-0.3-2.3,0.6c-0.3,0.5-0.4,1-0.7,1.5c-1,1.5-2.6,1.8-4,0.5c-0.5-0.5-0.9-1.1-1.2-1.7c-2.4-4.5-1-9.1-0.4-13.6
		c0.4,3.7,2.3,6.6,5.3,9c1.5,1.2,3.3,2.1,5.2,2C268.2,89.3,268,86.9,267.9,87z M264,85.7c-1.5-1.2-2.2-2.8-2.5-4.5
		c-0.1-0.3,0.3-0.7,0.5-1c0.3,0.2,0.9,0.3,1,0.5c0.6,1.6,1.1,3.2,1.7,4.7C264.5,85.5,264.3,85.6,264,85.7z"/>
	<path class="st0" d="M249.3,88.3c-1.5,2.2-2.8,4.6-5.2,6.2c-1.9,1.3-3.6,0.9-4.6-1.1c-0.3-0.7-0.6-1.4-0.7-2.1
		c-0.2-2.9-0.6-5.7-0.4-8.6c0.7-10,3.2-19.6,7.9-28.6c1.1-2,2.7-3.9,4.1-5.7c0.2-0.3,1.1-0.5,1.3-0.4c0.4,0.3,0.7,0.9,0.6,1.3
		c-0.1,1-0.4,2.1-0.8,3c-2.6,7-6,13.6-9.9,20c-1.3,2.2-1.2,4.4-0.5,6.7c0.1,0.3,0.3,0.5,0.6,0.9c0.4-0.6,0.7-1,1-1.4
		c1.6-2.8,3.3-5.6,4.7-8.5c3-5.8,5.8-11.6,7.4-17.9c0.4-1.5,0.7-3.2,0.2-4.6c-0.8-2.3-2.2-4.5-3.6-6.6c-1.4-2-3.2-2.1-5.2-0.6
		c-2.7,1.9-4.4,4.4-5.9,7.1c-4.1,7.1-6.6,14.7-8.1,22.6c-1,4.9-1.8,9.8-1.3,14.8c0.2,1.8,1.6,7.6,2.6,8.9c1,1.3,2.2,2.9,3.6,4.2
		c2.7,2.4,5.6,2.6,8.2,0.7c0.9-0.7,1.8-1.5,2.5-2.3c0.8-0.9,1.5-1.9,2.2-2.9c-0.2-1.9-0.4-3.8-0.6-5.7
		C249.6,87.9,249.5,88.1,249.3,88.3z"/>
	<g>
		<path class="st0" d="M199.9,94.3c-2.5,0.7-4.3-0.4-4.1-2.8c0.2-1.7,0.7-3.5,1.4-5.2c-1.7-0.5-3.5-0.8-5.3-0.8
			c-0.5,3.3,0.1,6.6,2.1,9.8c1.1,1.8,2.5,2.6,4.4,2.7c0.8-1.4,1.7-2.7,2.5-4.1C200.5,94.1,200.2,94.3,199.9,94.3z"/>
		<path class="st0" d="M197.3,86c1.1-2.7,2.9-5,5.3-6.8c0.6-0.4,1.5-0.3,2.3-0.5c0.1,0.7,0.4,1.4,0.2,2c-0.3,0.9-0.8,1.7-1.4,2.5
			c-0.7,0.9-1.6,1.4-2.9,1.2c-0.8-0.1-1.5,0-1.7,0.9c-0.2,0.9,0,1.5,0.9,1.9c1.7,0.8,3.9,0.3,5.3-1.3c3.2-3.6,3.1-7.5,1.6-11.6
			c-1-2.8-3-3.6-6-2.4c-0.8,0.3-1.5,0.8-2.2,1.2c-2.5,1.9-4,4.4-5.3,7c-0.9,1.8-1.5,3.6-1.8,5.4c1.8,0,3.6,0.2,5.3,0.8
			C197.2,86.3,197.3,86.1,197.3,86z"/>
		<path class="st0" d="M208.9,88.2c-0.1,0.1-0.1,0.1-0.2,0.2c-2.3,2.2-4.7,4.4-7.9,5.6c-0.8,1.4-1.7,2.7-2.5,4.1
			c0.5,0,1.1-0.1,1.7-0.2c2.9-0.6,5.2-2.1,7.3-3.9c1.1-1,2.2-2,3.4-3.1c0.4-1.2,0.6-2.9,0.5-4.8C211,86.4,209.2,88,208.9,88.2z"/>
	</g>
	<path class="st0" d="M182.3,90.9c0,0,1.8,3.5,4.7,2.3s4.2-2.4,4.2-2.4s0.6-0.1,0.4,0.9c-0.2,1-0.6,3.5-0.6,3.5s0.2,0.6-1.1,1.2
		s-4.7,1.6-6.5,1.5s-3.3-0.2-3.9-0.6C178.8,96.8,182.3,90.9,182.3,90.9z"/>
	<path class="st0" d="M268.2,90.6c0,0,3.6,0,5.6-2.5c2-2.5,2.9-4.4,2.9-7c0-2.5-0.9-0.3-0.9-0.3s0,0-1,2.4c-1,2-1.4,2.8-4,3.4
		c-2.6,0.6-4.2,0-4.2,0L268.2,90.6z"/>
</g>
<g>
	<path class="st0" d="M91.8,78.6c-1.7,2-2.9,4.2-6.2,5.9c-1.9,1-3.9,1.4-6.2,1.1c-0.8-0.1-1.4-0.5-0.3-0.7c4.4-1,6.2-3.1,9.2-4.7
		c1.1-0.6,1.6-1.3,2.4-2C91.1,78.3,91.5,78.5,91.8,78.6z"/>
	<path class="st0" d="M88.3,71.6c-6.2,1.3-12,3.2-17.8,1.7c-1.2-0.3-1.9-1.6-1.5-3.1c0.6-2.2,1.6-0.4,2.4-0.4c4.5-0.1,9-0.1,13.5,0
		C86,69.7,87.4,69.4,88.3,71.6z"/>
	<path class="st0" d="M83.6,53.4c2.8,4.8,7.3,6.4,11.1,9.9c-5.6,2.6-8.5-1-11.6-3.7C81.7,58.3,82.1,56,83.6,53.4z"/>
</g>
<g>
	<path class="st0" d="M292.8,76.8c-3.5,2.5-7.3,3.3-11.3,2.9c-0.5-0.1-1.1-0.1-1.1-0.8c0-0.6,0.3-1,0.9-1.3c0.7-0.2,1.3-0.7,2-0.7
		C286.4,76.8,289.6,76.8,292.8,76.8z"/>
	<path class="st0" d="M277.1,76.2c0.6-1.9,1.9-3.4,3.7-4.8c0.2-0.2,0.5-0.4,1.3-0.2c0.6,0.1,0.5,0.4,0.4,0.5
		c-0.7,1.3-1.4,2.6-2.2,3.9C280,76.1,278.7,76.1,277.1,76.2z"/>
	<path class="st0" d="M269.7,64.7c1.8,0.3,2.3,1.4,2.7,2.5c0.8,1.9,1.4,3.9,2.2,5.8c0.3,0.9,0,1.6-0.8,1.9c-1.1,0.3-1.2-0.6-1.4-1.3
		C271.5,70.8,270.2,68,269.7,64.7z"/>
</g>
<g>
	<path class="st0" d="M212.5,152.3c-3.2-0.2-6.4,0.5-9.5,1.7c-2,1-5.1,2.4-7.2,3.3c-2.2,0.8-3.4,1.1-4.7,1.7
		c-4.6,1.9-9.4,1.9-14.1,1.3c-5.3-0.7-9.7-4.9-10.6-10.2c-0.4-2.6-1.4-2.3-2.8-1.5c-1.1,0.6-2,1.6-2.4,3.1c-1.9,6.8,2.7,17,8.5,18.5
		c4.3,1.1,8.5,1,12.8-0.4c3.4-1.1,9.6-3.7,13.3-5.2c5-3,4.3-2.9,13.7-6.3c0.9-0.3,2-0.8,2.5,0.5c0.5,1.3,0.2,2.7-0.9,3.7
		c0.2,1.1,4.1,11.7,7.4,1.8C221.9,154.3,214,152.4,212.5,152.3z"/>
	<path class="st0" d="M188.9,124c-2.5-0.1-5.2,0.1-8-0.2c-9-0.9-15.5-7.9-17.4-18.6c-0.2-1.4-0.4-2.8-0.4-4.2c0-0.4,0.4-1.1,0.7-1.2
		c0.3-0.1,1,0.4,1.1,0.7c2.6,9.7,9.3,12.3,16.6,13.8c4.4,0.9,8.8,0.1,13-1.2c11.7-3.6,22.1,6.5,24.5,16.3c0.2,0.8,0.3,1.5,0.4,2.3
		c0,0.4-0.2,0.9-0.4,1.3c-0.3-0.3-0.8-0.5-0.9-0.8c-1.4-3.3-3.6-5.7-6.1-7.7c-4.6-3.7-9.6-3.8-14.8-2.5c-0.4,0.1-0.8,0.8-0.9,1.3
		c-0.8,6-7.9,10.5-7.5,4.9C188.9,127,188.9,125.5,188.9,124z"/>
	<path class="st0" d="M195.2,118.3c1.1,0.1,1.4,1,1.3,2.2c-1.5,12.5-3.1,25.1-4.6,37.6c-0.3,2.5-3,5.1-4.9,5.1c-1.1,0-1-0.9-0.9-1.8
		c0.3-3.4,0.5-6.9,0.9-10.3c0.9-9.1,1.9-18.1,2.9-27.2C189.9,121.8,187.3,117.6,195.2,118.3z"/>
</g>
</svg>
