<?xml version="1.0" encoding="utf-8"?>
<!-- Generator: Adobe Illustrator 20.0.0, SVG Export Plug-In . SVG Version: 6.00 Build 0)  -->
<svg version="1.1" id="Capa_1" xmlns="http://www.w3.org/2000/svg" xmlns:xlink="http://www.w3.org/1999/xlink" x="0px" y="0px"
	 viewBox="0 0 216 144" style="enable-background:new 0 0 216 144;" xml:space="preserve">
<style type="text/css">
	.st0{fill:#747776;}
	.st1{fill:#FFFFFF;}
	.st2{fill:none;stroke:#747776;stroke-miterlimit:10;}
	.st3{fill:#A13CD6;}
	.st4{opacity:0.7;fill:#FB2700;}
	.st5{fill:#54EAB4;}
	.st6{fill:none;stroke:#747776;stroke-width:2;stroke-miterlimit:10;}
	.st7{fill:none;stroke:#747776;stroke-width:3;stroke-linecap:round;stroke-linejoin:round;}
	.st8{fill:none;stroke:#686A69;stroke-width:2;stroke-miterlimit:10;}
	.st9{fill:#686A69;}
	.st10{fill:none;stroke:#747776;stroke-width:2.2;stroke-linecap:round;stroke-linejoin:round;}
	.st11{fill:none;stroke:#747776;stroke-width:2.5;stroke-miterlimit:10;}
	.st12{fill:#605D5D;}
	.st13{fill:#610971;}
	.st14{fill:#8C62C3;}
	.st15{opacity:0.7;fill:#8E1FAA;}
	.st16{opacity:0.7;fill:#610971;}
	.st17{opacity:0.7;}
	.st18{fill:#8E1FAA;}
	.st19{opacity:0.54;}
</style>
<g>
	<path class="st0" d="M50.9-29.3C50.9-29.3,50.9-29.3,50.9-29.3c0.5,0.1,1-0.2,1.2-0.7c0.1-0.5,0.3-1,0.6-1.4
		c0.3-0.5,0.2-1.1-0.3-1.4c-0.5-0.3-1.1-0.2-1.4,0.3c-0.4,0.6-0.7,1.3-0.9,2C50-29.9,50.3-29.4,50.9-29.3z"/>
	<path class="st0" d="M66.6-42.3c-5.3,0-10.1,2.4-13.3,6.2c0,0,0,0-0.1,0.1c0,0-0.1,0.1-0.1,0.1c0,0-0.2,0.2-0.2,0.7
		c0,0.7,0.5,1.2,1.2,1.2c0.4,0,0.7-0.2,0.9-0.4c2.8-3.3,7-5.4,11.6-5.4c8.4,0,15.2,6.8,15.2,15.2c0,8.4-6.8,15.2-15.2,15.2
		c-8.4,0-15.2-6.8-15.2-15.2c0-0.3,0-1,0-1c0,0,0,0,0,0c0-0.7-0.5-1.2-1.2-1.2s-1.2,0.5-1.2,1.1c0,0,0,0.1,0,0.1c0,0.3,0,0.6,0,1
		c0,9.7,7.9,17.6,17.6,17.6c9.7,0,17.6-7.9,17.6-17.6S76.3-42.3,66.6-42.3z"/>
	<path class="st0" d="M50.3-27c-0.7,0-1.1,0.5-1.2,1.1c0,0.1,0,0.1,0,0.1"/>
</g>
<path class="st1" d="M-132-144h31c0,0-0.5,10.6,0,13.3s1.6,6.1,6.4,6.1s5.5,4.6,5.5,4.6H-144c0,0,2.8-3.6,6.2-4.7
	c3.4-1.1,6-2.1,6-6.3C-131.8-135.2-132-144-132-144z"/>
<g>
	<ellipse class="st2" cx="-189.8" cy="-231.7" rx="2.8" ry="2.6"/>
	<ellipse class="st2" cx="-180.3" cy="-231.7" rx="2.8" ry="2.6"/>
	<ellipse class="st2" cx="-170.9" cy="-231.7" rx="2.8" ry="2.6"/>
</g>
<ellipse class="st3" cx="-180.3" cy="-231.7" rx="1.9" ry="1.8"/>
<ellipse class="st4" cx="-189.8" cy="-231.7" rx="1.9" ry="1.8"/>
<ellipse class="st5" cx="-170.9" cy="-231.7" rx="1.9" ry="1.8"/>
<path class="st0" d="M-41.3-222.2h-151.1c-0.7,0-1.3-0.6-1.3-1.3v0c0-0.7,0.6-1.3,1.3-1.3h151.1c0.7,0,1.3,0.6,1.3,1.3v0
	C-40-222.7-40.6-222.2-41.3-222.2z"/>
<path class="st0" d="M-99-159.9h-12.9c-0.9,0-1.7-0.8-1.7-1.7l0,0c0-0.9,0.8-1.7,1.7-1.7H-99c0.9,0,1.7,0.8,1.7,1.7l0,0
	C-97.3-160.7-98.1-159.9-99-159.9z"/>
<path class="st0" d="M-134-189.9h-16.2c-0.9,0-1.7-0.8-1.7-1.7l0,0c0-0.9,0.8-1.7,1.7-1.7h16.2c0.9,0,1.7,0.8,1.7,1.7l0,0
	C-132.3-190.7-133.1-189.9-134-189.9z"/>
<path class="st0" d="M-134-160.2h-16.2c-0.9,0-1.7-0.8-1.7-1.7l0,0c0-0.9,0.8-1.7,1.7-1.7h16.2c0.9,0,1.7,0.8,1.7,1.7l0,0
	C-132.3-161-133.1-160.2-134-160.2z"/>
<path class="st0" d="M-81.7-166.7h-25.9c-0.9,0-1.7-0.8-1.7-1.7l0,0c0-0.9,0.8-1.7,1.7-1.7h25.9c0.9,0,1.7,0.8,1.7,1.7l0,0
	C-80-167.5-80.7-166.7-81.7-166.7z"/>
<path class="st0" d="M-107.1-189.9h-10.6c-0.9,0-1.7-0.8-1.7-1.7l0,0c0-0.9,0.8-1.7,1.7-1.7h10.6c0.9,0,1.7,0.8,1.7,1.7l0,0
	C-105.4-190.7-106.2-189.9-107.1-189.9z"/>
<path class="st3" d="M-125-189.9h-2.7c-0.9,0-1.7-0.8-1.7-1.7l0,0c0-0.9,0.8-1.7,1.7-1.7h2.7c0.9,0,1.7,0.8,1.7,1.7l0,0
	C-123.3-190.7-124.1-189.9-125-189.9z"/>
<path class="st3" d="M-116.7-167h-2.7c-0.9,0-1.7-0.8-1.7-1.7l0,0c0-0.9,0.8-1.7,1.7-1.7h2.7c0.9,0,1.7,0.8,1.7,1.7l0,0
	C-115-167.8-115.8-167-116.7-167z"/>
<path class="st0" d="M-118-205.4h-32.7c-0.9,0-1.7-0.8-1.7-1.7v0c0-0.9,0.8-1.7,1.7-1.7h32.7c0.9,0,1.7,0.8,1.7,1.7v0
	C-116.3-206.2-117-205.4-118-205.4z"/>
<path class="st0" d="M-129.5-197.7h-10.9c-0.9,0-1.7-0.8-1.7-1.7l0,0c0-0.9,0.8-1.7,1.7-1.7h10.9c0.9,0,1.7,0.8,1.7,1.7l0,0
	C-127.8-198.4-128.6-197.7-129.5-197.7z"/>
<path class="st0" d="M-85.5-197.7h-37.2c-0.9,0-1.7-0.8-1.7-1.7l0,0c0-0.9,0.8-1.7,1.7-1.7h37.2c0.9,0,1.7,0.8,1.7,1.7l0,0
	C-83.8-198.4-84.6-197.7-85.5-197.7z"/>
<path class="st3" d="M-148.7-197.7h-1.7c-0.9,0-1.7-0.8-1.7-1.7l0,0c0-0.9,0.8-1.7,1.7-1.7h1.7c0.9,0,1.7,0.8,1.7,1.7l0,0
	C-147-198.4-147.8-197.7-148.7-197.7z"/>
<path class="st0" d="M-92-173.8h-58.3c-0.9,0-1.7-0.8-1.7-1.7l0,0c0-0.9,0.8-1.7,1.7-1.7H-92c0.9,0,1.7,0.8,1.7,1.7l0,0
	C-90.3-174.6-91-173.8-92-173.8z"/>
<path class="st3" d="M-123-159.9h-2.2c-0.9,0-1.7-0.8-1.7-1.7l0,0c0-0.9,0.8-1.7,1.7-1.7h2.2c0.9,0,1.7,0.8,1.7,1.7l0,0
	C-121.4-160.7-122.1-159.9-123-159.9z"/>
<path class="st0" d="M-129.5-167h-20.7c-0.9,0-1.7-0.8-1.7-1.7l0,0c0-0.9,0.8-1.7,1.7-1.7h20.7c0.9,0,1.7,0.8,1.7,1.7l0,0
	C-127.8-167.8-128.5-167-129.5-167z"/>
<path class="st6" d="M-162.4-210.9c0-0.5-1.9-0.8-1.9,1.2c0.1,2,0,8.6,0,8.6s-1.4,1-2.1,1.5c-0.6,0.6,1.8,1.4,1.9,2.6
	c0.1,1.2,0.1,8.1,0.1,8.1s-0.1,1.5,1.5,1.3"/>
<path class="st6" d="M-162.4-179.9c0-0.5-1.9-0.8-1.9,1.2s0,8.6,0,8.6s-1.4,1-2.1,1.5c-0.6,0.6,1.8,1.4,1.9,2.6
	c0.1,1.2,0.1,8.1,0.1,8.1s-0.1,1.5,1.5,1.3"/>
<g>
	<path class="st7" d="M-131.8-138.8v7.9c0,0,0,6.3-6.7,6.3"/>
	<path class="st7" d="M-94.6-124.7c-6.7,0-6.7-6.3-6.7-6.3v-7.9"/>
</g>
<path class="st8" d="M-205.7-161.8c0,0,4-4.6,5.8-9.1c1.8-4.5-1.8-8.4-5.5-8.6c-5-0.2-7.7,4.3-6.3,8.8
	C-210.7-167.7-205.7-161.8-205.7-161.8z"/>
<path class="st5" d="M-205.7-178.6c-1.8,0-3.3,0.7-4.2,2c-1.1,1.5-1.4,3.5-0.8,5.6c0.6,1.9,3.3,5.6,5,7.6c1.2-1.5,3.6-4.8,4.9-7.9
	c0.7-1.6,0.5-3.3-0.4-4.7c-0.9-1.5-2.6-2.4-4.3-2.5C-205.5-178.6-205.6-178.6-205.7-178.6z"/>
<path class="st8" d="M-207.7-147.6c-2.7,0-6.4-0.3-11.5,0.6c-4.7,0.8-7.9-5-6.7-8.5c1.6-4.7,7.1-5.5,11.2-2.4
	C-212-155.8-209.5-151.6-207.7-147.6z"/>
<path class="st5" d="M-220-158.7c-0.6,0-1.2,0.1-1.7,0.2c-1.1,0.3-2.6,1.2-3.3,3.3c-0.6,1.6,0,3.9,1.4,5.6c0.7,0.8,2.1,2,4.1,1.7
	c4.3-0.8,7.7-0.7,10.1-0.7c-1.9-3.9-4-6.9-6-8.4C-216.8-158.1-218.4-158.7-220-158.7z"/>
<path class="st8" d="M-204.1-154c2.7,0,6.4-0.3,11.5,0.6c4.7,0.8,7.9-5,6.7-8.5c-1.6-4.7-7.1-5.5-11.2-2.4
	C-199.8-162.2-202.3-158-204.1-154z"/>
<path class="st9" d="M-205.6-141.5h-0.2c-0.7,0-1.2-0.5-1.2-1.2v-19.6c0-0.7,0.5-1.2,1.2-1.2h0.2c0.7,0,1.2,0.5,1.2,1.2v19.6
	C-204.4-142-204.9-141.5-205.6-141.5z"/>
<path class="st9" d="M-190.5-134.7h1.1c0.6,0,1,0.5,0.9,1.1l-2.2,13.9c-0.1,0.9-0.8,1.4-1.5,1.4h-27c-0.8,0-1.5-0.5-1.6-1.4
	l-2.2-13.9c-0.1-0.6,0.3-1.1,0.9-1.1h1.1c0.6,0,1.1,0.4,1.2,1l2,12h24.2l1.9-12C-191.6-134.3-191.1-134.7-190.5-134.7z"/>
<path class="st9" d="M-185.3-138.6c0,0.9-0.8,1.6-1.6,1.6h-4.2h-29.2h-4.2c-0.9,0-1.6-0.8-1.6-1.6c0-0.9,0.8-1.6,1.6-1.6h2.3h33h2.3
	C-186-140.2-185.3-139.4-185.3-138.6z"/>
<g>
	<line class="st10" x1="-107.4" y1="-120.2" x2="-88.1" y2="-120.2"/>
	<line class="st10" x1="-116.9" y1="-120.2" x2="-115.6" y2="-120.2"/>
	<line class="st10" x1="-145.1" y1="-120.2" x2="-125.7" y2="-120.2"/>
</g>
<path class="st11" d="M-44-145h-145.2c-5.3,0-9.7-4.4-9.7-9.7v-77.9c0-5.3,4.4-9.7,9.7-9.7H-44c5.3,0,9.7,4.4,9.7,9.7v77.9
	C-34.3-149.4-38.6-145-44-145z"/>
<path class="st5" d="M-200.4-155c2.2,0,4.9,0.1,8.2,0.7c2,0.4,3.5-0.9,4.1-1.7c1.4-1.6,2-3.9,1.4-5.6c-0.7-2.1-2.2-3-3.3-3.3
	c-2-0.6-4.4-0.1-6.3,1.4c-2,1.5-4.1,4.5-6,8.4C-201.8-155-201.1-155-200.4-155z"/>
<g>
	<path class="st12" d="M-206-185L-206-185c-0.6,0-1-0.5-1-1v-9.6c0-0.6,0.5-1,1-1h0c0.6,0,1,0.5,1,1v9.6
		C-205-185.5-205.5-185-206-185z"/>
	<path class="st12" d="M-213.3-183.5L-213.3-183.5c-0.5,0.2-1.1,0.1-1.4-0.4l-2.5-4.5c-0.3-0.5-0.1-1.1,0.4-1.4l0,0
		c0.5-0.2,1.1-0.1,1.4,0.4l2.5,4.5C-212.6-184.4-212.8-183.7-213.3-183.5z"/>
	<path class="st12" d="M-221.5-172.1L-221.5-172.1c0,0.5-0.4,1-1,1l-5.4,0c-0.5,0-1-0.4-1-1l0,0c0-0.5,0.4-1,1-1l5.4,0
		C-221.9-173.1-221.5-172.7-221.5-172.1z"/>
	<path class="st12" d="M-198.3-183.2L-198.3-183.2c-0.5-0.3-0.7-0.9-0.4-1.4l2.7-4.4c0.3-0.5,0.9-0.6,1.4-0.4l0,0
		c0.5,0.3,0.7,0.9,0.4,1.4l-2.7,4.4C-197.2-183.1-197.8-183-198.3-183.2z"/>
	<path class="st12" d="M-190.5-172.1L-190.5-172.1c0-0.5,0.4-1,1-1l5.4,0c0.5,0,1,0.4,1,1v0c0,0.5-0.4,1-1,1l-5.4,0
		C-190-171.1-190.5-171.6-190.5-172.1z"/>
	<path class="st12" d="M-192.4-178.2L-192.4-178.2c-0.3-0.5-0.2-1.1,0.3-1.4l8.4-5.4c0.5-0.3,1.1-0.2,1.4,0.3v0
		c0.3,0.5,0.2,1.1-0.3,1.4l-8.4,5.4C-191.5-177.7-192.1-177.8-192.4-178.2z"/>
	<path class="st12" d="M-229-185.1L-229-185.1c0.3-0.4,1-0.5,1.4-0.2l8,5.9c0.5,0.3,0.5,1,0.2,1.4l0,0c-0.3,0.4-1,0.5-1.4,0.2
		l-8-5.9C-229.3-184-229.4-184.6-229-185.1z"/>
</g>
<path class="st1" d="M464.9,254h31c0,0-0.5,10.6,0,13.3s1.6,6.1,6.4,6.1s5.5,4.6,5.5,4.6h-54.8c0,0,0.8-4.3,6.2-4.7
	c3.5-0.3,6-2.1,6-6.3S464.9,254,464.9,254z"/>
<g>
	<path class="st0" d="M408.2,169.4c-1.8,0-3.3-1.4-3.3-3.1s1.5-3.1,3.3-3.1s3.3,1.4,3.3,3.1S410,169.4,408.2,169.4z M408.2,164.2
		c-1.3,0-2.3,1-2.3,2.1s1,2.1,2.3,2.1s2.3-1,2.3-2.1S409.4,164.2,408.2,164.2z"/>
	<path class="st0" d="M417.7,169.4c-1.8,0-3.3-1.4-3.3-3.1s1.5-3.1,3.3-3.1s3.3,1.4,3.3,3.1S419.5,169.4,417.7,169.4z M417.7,164.2
		c-1.3,0-2.3,1-2.3,2.1s1,2.1,2.3,2.1s2.3-1,2.3-2.1S419,164.2,417.7,164.2z"/>
	<path class="st0" d="M427.1,169.4c-1.8,0-3.3-1.4-3.3-3.1s1.5-3.1,3.3-3.1s3.3,1.4,3.3,3.1S428.9,169.4,427.1,169.4z M427.1,164.2
		c-1.3,0-2.3,1-2.3,2.1s1,2.1,2.3,2.1s2.3-1,2.3-2.1S428.3,164.2,427.1,164.2z"/>
</g>
<ellipse class="st3" cx="417.7" cy="166.3" rx="2.3" ry="2.1"/>
<ellipse class="st4" cx="408.2" cy="166.3" rx="2.3" ry="2.1"/>
<ellipse class="st13" cx="427.1" cy="166.3" rx="2.3" ry="2.1"/>
<path class="st0" d="M555.8,175.8H404.7c-0.7,0-1.3-0.6-1.3-1.3v0c0-0.7,0.6-1.3,1.3-1.3h151.1c0.7,0,1.3,0.6,1.3,1.3v0
	C557.1,175.3,556.5,175.8,555.8,175.8z"/>
<g>
	<path class="st0" d="M504.5,238.1h-12.9c-0.9,0-1.7-0.8-1.7-1.7l0,0c0-0.9,0.8-1.7,1.7-1.7h12.9c0.9,0,1.7,0.8,1.7,1.7l0,0
		C506.2,237.3,505.4,238.1,504.5,238.1z"/>
	<path class="st0" d="M469.5,208.1h-16.2c-0.9,0-1.7-0.8-1.7-1.7l0,0c0-0.9,0.8-1.7,1.7-1.7h16.2c0.9,0,1.7,0.8,1.7,1.7l0,0
		C471.2,207.3,470.4,208.1,469.5,208.1z"/>
	<path class="st0" d="M469.5,237.8h-16.2c-0.9,0-1.7-0.8-1.7-1.7l0,0c0-0.9,0.8-1.7,1.7-1.7h16.2c0.9,0,1.7,0.8,1.7,1.7l0,0
		C471.2,237,470.4,237.8,469.5,237.8z"/>
	<path class="st0" d="M521.8,231.3h-25.9c-0.9,0-1.7-0.8-1.7-1.7l0,0c0-0.9,0.8-1.7,1.7-1.7h25.9c0.9,0,1.7,0.8,1.7,1.7l0,0
		C523.5,230.5,522.8,231.3,521.8,231.3z"/>
	<path class="st0" d="M496.4,208.1h-10.6c-0.9,0-1.7-0.8-1.7-1.7l0,0c0-0.9,0.8-1.7,1.7-1.7h10.6c0.9,0,1.7,0.8,1.7,1.7l0,0
		C498.1,207.3,497.3,208.1,496.4,208.1z"/>
	<path class="st3" d="M478.5,208.1h-2.7c-0.9,0-1.7-0.8-1.7-1.7l0,0c0-0.9,0.8-1.7,1.7-1.7h2.7c0.9,0,1.7,0.8,1.7,1.7l0,0
		C480.2,207.3,479.4,208.1,478.5,208.1z"/>
	<path class="st3" d="M486.8,231h-2.7c-0.9,0-1.7-0.8-1.7-1.7l0,0c0-0.9,0.8-1.7,1.7-1.7h2.7c0.9,0,1.7,0.8,1.7,1.7l0,0
		C488.5,230.2,487.7,231,486.8,231z"/>
	<path class="st0" d="M485.5,192.6h-32.7c-0.9,0-1.7-0.8-1.7-1.7v0c0-0.9,0.8-1.7,1.7-1.7h32.7c0.9,0,1.7,0.8,1.7,1.7v0
		C487.2,191.8,486.5,192.6,485.5,192.6z"/>
	<path class="st0" d="M474,200.3h-10.9c-0.9,0-1.7-0.8-1.7-1.7l0,0c0-0.9,0.8-1.7,1.7-1.7H474c0.9,0,1.7,0.8,1.7,1.7l0,0
		C475.7,199.6,475,200.3,474,200.3z"/>
	<path class="st0" d="M518,200.3h-37.2c-0.9,0-1.7-0.8-1.7-1.7l0,0c0-0.9,0.8-1.7,1.7-1.7H518c0.9,0,1.7,0.8,1.7,1.7l0,0
		C519.7,199.6,518.9,200.3,518,200.3z"/>
	<path class="st3" d="M454.8,200.3h-1.7c-0.9,0-1.7-0.8-1.7-1.7l0,0c0-0.9,0.8-1.7,1.7-1.7h1.7c0.9,0,1.7,0.8,1.7,1.7l0,0
		C456.5,199.6,455.7,200.3,454.8,200.3z"/>
	<path class="st0" d="M511.5,224.2h-58.3c-0.9,0-1.7-0.8-1.7-1.7l0,0c0-0.9,0.8-1.7,1.7-1.7h58.3c0.9,0,1.7,0.8,1.7,1.7l0,0
		C513.2,223.4,512.5,224.2,511.5,224.2z"/>
	<path class="st3" d="M480.5,238.1h-2.2c-0.9,0-1.7-0.8-1.7-1.7l0,0c0-0.9,0.8-1.7,1.7-1.7h2.2c0.9,0,1.7,0.8,1.7,1.7l0,0
		C482.2,237.3,481.4,238.1,480.5,238.1z"/>
	<path class="st0" d="M474.1,231h-20.7c-0.9,0-1.7-0.8-1.7-1.7l0,0c0-0.9,0.8-1.7,1.7-1.7h20.7c0.9,0,1.7,0.8,1.7,1.7l0,0
		C475.7,230.2,475,231,474.1,231z"/>
	<path class="st0" d="M440.4,211.5c-0.8,0-1.3-0.3-1.6-0.6c-0.7-0.7-0.7-1.7-0.7-1.8c0-2.3,0-7-0.1-7.9c0-0.2-0.6-0.6-0.9-0.8
		c-0.6-0.4-1.1-0.9-1.1-1.6c0-0.4,0.1-0.7,0.4-1c0.5-0.4,1.2-1,1.7-1.3c0-1.6,0.1-6.4,0-8.1c-0.1-1.4,0.7-2.1,1.1-2.3
		c0.6-0.4,1.5-0.5,2.1-0.1c0.4,0.2,0.7,1.1,0.7,1.1h-2c0,1,0.3,0.7,0.4,0.7c0,0-0.1,0-0.1,0.1c0,0-0.1,0.2-0.1,0.6
		c0.1,2,0,8.4,0,8.7l0,0.5l-0.4,0.3c-0.3,0.2-0.8,0.6-1.3,0.9c0.7,0.5,1.5,1.2,1.6,2.3c0.1,1.2,0.1,7.9,0.1,8.1c0,0.1,0,0.3,0.1,0.3
		c0,0,0.1,0,0.3,0l0.2,2C440.6,211.5,440.5,211.5,440.4,211.5z"/>
	<path class="st0" d="M440.4,242.5c-0.8,0-1.3-0.3-1.6-0.6c-0.7-0.7-0.7-1.7-0.7-1.8c0-2.3,0-7-0.1-7.9c0-0.2-0.6-0.7-0.9-0.8
		c-0.6-0.4-1.1-0.9-1.1-1.6c0-0.4,0.1-0.7,0.4-1c0.5-0.4,1.2-1,1.7-1.3c0-1.6,0.1-6.4,0-8.1c-0.1-1.4,0.7-2.1,1.1-2.3
		c0.6-0.4,1.5-0.5,2.1-0.1c0.4,0.2,0.7,1.1,0.7,1.1h-2c0,0,0.3,0.7,0.4,0.7c0,0-0.1,0-0.1,0.1c0,0-0.1,0.2-0.1,0.5
		c0.1,2,0,8.4,0,8.7l0,0.5l-0.4,0.3c-0.3,0.2-0.8,0.6-1.3,0.9c0.7,0.5,1.5,1.2,1.6,2.3c0.1,1.2,0.1,7.9,0.1,8.1c0,0.1,0,0.3,0.1,0.3
		c0,0,0.1,0,0.3,0l0.2,2C440.6,242.5,440.5,242.5,440.4,242.5z"/>
</g>
<g>
	<path class="st0" d="M458.4,274.8c-0.8,0-1.5-0.7-1.5-1.5s0.7-1.5,1.5-1.5c5,0,5.2-4.3,5.2-4.8v-7.9c0-0.8,0.7-1.5,1.5-1.5
		s1.5,0.7,1.5,1.5v7.9C466.5,269.7,464.8,274.8,458.4,274.8z"/>
	<path class="st0" d="M502.2,274.8c-6.5,0-8.2-5.1-8.2-7.8v-7.9c0-0.8,0.7-1.5,1.5-1.5s1.5,0.7,1.5,1.5v7.9c0,0.8,0.3,4.8,5.2,4.8
		c0.8,0,1.5,0.7,1.5,1.5S503.1,274.8,502.2,274.8z"/>
</g>
<path class="st9" d="M389.3,237.8l-0.8-0.9c-0.2-0.2-5.2-6.1-6.2-9.2c-0.8-2.6-0.4-5.4,1.1-7.4c1.4-1.9,3.6-2.8,6.1-2.7
	c2.3,0.1,4.6,1.4,5.9,3.4c1.3,2,1.5,4.3,0.5,6.5c-1.9,4.7-5.8,9.2-6,9.4L389.3,237.8z M389.3,219.5c-1.8,0-3.3,0.7-4.2,2
	c-1.1,1.5-1.4,3.5-0.8,5.6c0.6,1.9,3.3,5.6,5,7.6c1.2-1.5,3.6-4.8,4.9-7.9c0.7-1.6,0.5-3.3-0.4-4.7c-0.9-1.5-2.6-2.4-4.3-2.5
	C389.5,219.5,389.4,219.5,389.3,219.5z"/>
<path class="st14" d="M389.3,219.4c-1.8,0-3.3,0.7-4.2,2c-1.1,1.5-1.4,3.5-0.8,5.6c0.6,1.9,3.3,5.6,5,7.6c1.2-1.5,3.6-4.8,4.9-7.9
	c0.7-1.6,0.5-3.3-0.4-4.7c-0.9-1.5-2.6-2.4-4.3-2.5C389.5,219.4,389.4,219.4,389.3,219.4z"/>
<path class="st9" d="M374.9,252.2c-1.8,0-3.6-0.8-4.9-2.4c-1.8-2.1-2.6-5.2-1.8-7.5c0.8-2.3,2.4-3.9,4.6-4.6
	c2.6-0.8,5.6-0.1,8.1,1.7c3.5,2.7,6.3,8.3,7.3,10.6l0.6,1.4h-1.5c-0.5,0-1,0-1.5,0c-2.5,0-5.7-0.1-9.8,0.6
	C375.6,252.1,375.2,252.2,374.9,252.2z M375.1,239.3c-0.6,0-1.2,0.1-1.7,0.2c-1.1,0.3-2.6,1.2-3.3,3.3c-0.6,1.6,0,3.9,1.4,5.6
	c0.7,0.8,2.1,2,4.1,1.7c4.3-0.8,7.7-0.7,10.1-0.7c-1.9-3.9-4-6.9-6-8.4C378.3,239.9,376.7,239.3,375.1,239.3z"/>
<path class="st14" d="M375,239.3c-0.6,0-1.2,0.1-1.7,0.2c-1.1,0.3-2.6,1.2-3.3,3.3c-0.6,1.6,0,3.9,1.4,5.6c0.7,0.8,2.1,2,4.1,1.7
	c4.3-0.8,7.7-0.7,10.1-0.7c-1.9-3.9-4-6.9-6-8.4C378.2,239.9,376.6,239.3,375,239.3z"/>
<path class="st9" d="M389.4,256.5h-0.2c-0.7,0-1.2-0.5-1.2-1.2v-19.6c0-0.7,0.5-1.2,1.2-1.2h0.2c0.7,0,1.2,0.5,1.2,1.2v19.6
	C390.6,256,390.1,256.5,389.4,256.5z"/>
<path class="st9" d="M404.2,262.6h1.1c0.6,0,1,0.5,0.9,1.1l-2.2,13.9c-0.1,0.9-0.8,1.4-1.5,1.4h-27c-0.8,0-1.5-0.5-1.6-1.4
	l-2.2-13.9c-0.1-0.6,0.3-1.1,0.9-1.1h1.1c0.6,0,1.1,0.4,1.2,1l2,12h24.2l1.9-12C403.1,263.1,403.6,262.6,404.2,262.6z"/>
<path class="st9" d="M409.7,259.4c0,0.9-0.8,1.6-1.6,1.6h-4.2h-29.2h-4.2c-0.9,0-1.6-0.8-1.6-1.6c0-0.9,0.8-1.6,1.6-1.6h2.3h33h2.3
	C409,257.8,409.7,258.6,409.7,259.4z"/>
<g>
	<path class="st0" d="M508.8,278.9h-19.4c-0.6,0-1.1-0.5-1.1-1.1s0.5-1.1,1.1-1.1h19.4c0.6,0,1.1,0.5,1.1,1.1
		S509.4,278.9,508.8,278.9z"/>
	<path class="st0" d="M481.3,278.9H480c-0.6,0-1.1-0.5-1.1-1.1s0.5-1.1,1.1-1.1h1.3c0.6,0,1.1,0.5,1.1,1.1S481.9,278.9,481.3,278.9z
		"/>
	<path class="st0" d="M471.2,278.9h-19.4c-0.6,0-1.1-0.5-1.1-1.1s0.5-1.1,1.1-1.1h19.4c0.6,0,1.1,0.5,1.1,1.1
		S471.8,278.9,471.2,278.9z"/>
</g>
<path class="st0" d="M552.9,254.3H407.7c-6,0-10.9-4.9-10.9-10.9v-77.9c0-6,4.9-10.9,10.9-10.9h145.2c6,0,10.9,4.9,10.9,10.9v77.9
	C563.8,249.3,558.9,254.3,552.9,254.3z M407.7,156.9c-4.7,0-8.4,3.8-8.4,8.4v77.9c0,4.7,3.8,8.4,8.4,8.4h145.2
	c4.7,0,8.4-3.8,8.4-8.4v-77.9c0-4.7-3.8-8.4-8.4-8.4H407.7z"/>
<g>
	<path class="st0" d="M389,214.4L389,214.4c-0.6,0-1-0.5-1-1v-9.6c0-0.6,0.5-1,1-1l0,0c0.6,0,1,0.5,1,1v9.6
		C390,213.9,389.5,214.4,389,214.4z"/>
	<path class="st0" d="M381.7,215.9L381.7,215.9c-0.5,0.2-1.1,0.1-1.4-0.4l-2.5-4.5c-0.3-0.5-0.1-1.1,0.4-1.4l0,0
		c0.5-0.2,1.1-0.1,1.4,0.4l2.5,4.5C382.4,215,382.2,215.6,381.7,215.9z"/>
	<path class="st0" d="M373.5,227.2L373.5,227.2c0,0.5-0.4,1-1,1l-5.4,0c-0.5,0-1-0.4-1-1l0,0c0-0.5,0.4-1,1-1l5.4,0
		C373.1,226.3,373.5,226.7,373.5,227.2z"/>
	<path class="st0" d="M396.7,216.1L396.7,216.1c-0.5-0.3-0.7-0.9-0.4-1.4l2.7-4.4c0.3-0.5,0.9-0.6,1.4-0.4v0
		c0.5,0.3,0.7,0.9,0.4,1.4l-2.7,4.4C397.8,216.2,397.2,216.4,396.7,216.1z"/>
	<path class="st0" d="M404.5,227.2L404.5,227.2c0-0.5,0.4-1,1-1l5.4,0c0.5,0,1,0.4,1,1v0c0,0.5-0.4,1-1,1l-5.4,0
		C405,228.2,404.5,227.8,404.5,227.2z"/>
	<path class="st0" d="M402.6,221.1L402.6,221.1c-0.3-0.5-0.2-1.1,0.3-1.4l8.4-5.4c0.5-0.3,1.1-0.2,1.4,0.3v0
		c0.3,0.5,0.2,1.1-0.3,1.4l-8.4,5.4C403.5,221.7,402.9,221.6,402.6,221.1z"/>
	<path class="st0" d="M366,214.3L366,214.3c0.3-0.4,1-0.5,1.4-0.2l8,5.9c0.5,0.3,0.5,1,0.2,1.4v0c-0.3,0.4-1,0.5-1.4,0.2l-8-5.9
		C365.7,215.4,365.6,214.7,366,214.3z"/>
</g>
<path class="st14" d="M394.6,243c2.2,0,4.9,0.1,8.2,0.7c2,0.4,3.5-0.9,4.1-1.7c1.4-1.6,2-3.9,1.4-5.6c-0.7-2.1-2.2-3-3.3-3.3
	c-2-0.6-4.4-0.1-6.3,1.4c-2,1.5-4.1,4.5-6,8.4C393.2,243,393.9,243,394.6,243z"/>
<path class="st9" d="M403.3,245.8c-0.4,0-0.7,0-1.1-0.1c-4.2-0.7-7.3-0.7-9.8-0.6c-0.5,0-1.1,0-1.5,0h-1.5l0.6-1.4
	c1-2.3,3.7-7.9,7.3-10.6c2.5-1.9,5.5-2.5,8.1-1.7c2.2,0.7,3.9,2.3,4.6,4.6c0.8,2.3,0.1,5.4-1.8,7.5
	C406.9,244.9,405.2,245.8,403.3,245.8z M394.4,243c2.2,0,4.9,0.1,8.2,0.7c2,0.4,3.5-0.9,4.1-1.7c1.4-1.6,2-3.9,1.4-5.6
	c-0.7-2.1-2.2-3-3.3-3.3c-2-0.6-4.4-0.1-6.3,1.4c-2,1.5-4.1,4.5-6,8.4C393.1,243,393.7,243,394.4,243z"/>
<path class="st15" d="M509.8,351h-47.3c-0.7,0-1.6,0.1-1.6,1v24.1c0,0.9,1,1.6,1.7,1.6l47.2,0c0.6,0,1.1-0.7,1.1-1.4l0-23.6
	C511,351.8,511,351,509.8,351z"/>
<path class="st16" d="M511,325.7c0-1-0.8-1.7-1.6-1.7l-77.6,0c-1.2,0-1.8,0.9-1.8,1.7v13.8c0,0.8,1,1.5,1.9,1.6h77.4
	c0.9,0,1.6-0.7,1.6-1.7V325.7z"/>
<path class="st1" d="M567.3,430.5c-0.9,1-2.3,1.5-3.6,1.5h-179c-1.4,0-2.7-0.5-3.6-1.5c-0.9-1-1.4-2.5-1.3-3.9
	c0.2-2.5,2.5-4.6,5.1-4.6h5.9h70.9h1.1c0.7,0,1.4,0,2,0h3h15.1h0.7c0.8,0,1.4,0,2,0h2.3h69.7h5.9c2.6,0,4.9,2.1,5.1,4.6
	C568.7,428,568.2,429.5,567.3,430.5z"/>
<path class="st9" d="M390,364.8c0.5,0,1-0.5,1-1v-1v-1.1v-3.5c0-0.6-0.5-1-1-1s-1,0.5-1,1v3.1v1.5v1
	C389,364.3,389.5,364.8,390,364.8z"/>
<path class="st9" d="M548,405.1c0.5,0,1-0.5,1-1v-0.3v-0.7v-0.6v0c0-0.6-0.5-1-1-1s-1,0.5-1,1v0.1v0.4v0.7v0.3
	C547,404.6,547.5,405.1,548,405.1z"/>
<path class="st9" d="M547,417.2c0,0.6,0.5,1,1,1s1-0.5,1-1v-1v-0.3v-0.7v0v-0.4l0-1.2c0-0.6-0.4-1-0.9-1c-0.5,0-1,0.4-1,1l-0.1,1.3
	v0.1v0.3l0,1c0,0,0,0,0,0v0V417.2z"/>
<path class="st9" d="M479.1,422.9L479.1,422.9c-0.4,0-0.8,0.3-0.9,0.6c-0.6,1.4-1.9,2.5-3.4,2.5h-10.3c-1.5,0-2.7-1.1-3.4-2.5
	c-0.2-0.4-0.5-0.6-0.9-0.6c-0.7,0-1.2,0.8-1,1.5c0.9,2.3,2.9,3.5,5.3,3.5h10.3c2.3,0,4.4-1.2,5.3-3.5
	C480.3,423.7,479.8,422.9,479.1,422.9z"/>
<path class="st9" d="M561.6,426.4c-0.3-3.5-3.3-6.4-6.8-6.4H551h-1.9c-0.7,0-1.4,0-1.9,0H393.4h-1.9c-0.7,0-1.4,0-1.9,0h-5
	c-3.5,0-6.5,2.9-6.8,6.4c-0.2,1.9,0.4,3.9,1.7,5.3c1.3,1.4,3,2.3,4.9,2.3H555c1.8,0,3.6-0.8,4.9-2.3
	C561.1,430.3,561.7,428.3,561.6,426.4z M558.4,430.4c-0.9,1-2.2,1.6-3.5,1.6H384.3c-1.3,0-2.6-0.5-3.5-1.6c-0.9-1-1.3-2.5-1.2-3.9
	c0.2-2.5,2.4-4.6,4.9-4.6h5.6h67.6h1c0.6,0,1.3,0,1.9,0h2.8h14.4h0.7c0.7,0,1.3,0,1.9,0h2.2h66.4h5.6c2.5,0,4.6,2.1,4.9,4.6
	C559.8,427.9,559.3,429.4,558.4,430.4z"/>
<path class="st9" d="M390.2,348c0.5,0,0.8-0.4,0.8-0.9c0,0-0.1,0-0.1,0V347v-10.7V319c0-4.4,4.4-8,8.6-8h140.1c4.2,0,7.3,3.6,7.3,8
	v63.4v1.3v1.8v1.1v0.1v0.3v0.4v0.6v0.7v1.8v1.1v0.4v1c0,0.6,0.5,1,1,1s1-0.5,1-1v-1v-0.6v-0.6v-2.2v-0.7v-0.6V387v-0.3v-0.2v-0.6
	v-2.2v-1.3v-63c0-5.5-4.1-10.4-9.3-10.4H399.6c-5.2,0-10.6,4.9-10.6,10.4v17v10.5v0.1C389,347.6,389.7,348,390.2,348z"/>
<path class="st9" d="M513,352.8c0-1.9-1.2-3.8-3.1-3.8h-47.5c-1.9,0-3.4,1.8-3.4,3.8V375c0,1.9,1.5,4,3.4,4h47.5c1.9,0,3.1-2,3.1-4
	V352.8z M511,375c0,0.8-0.3,2-1.1,2h-47.5c-0.8,0-1.4-1.2-1.4-2v-22.3c0-0.8,0.6-1.8,1.4-1.8h47.5c0.8,0,1.1,1,1.1,1.8V375z"/>
<path class="st9" d="M509.9,385h-47.5c-1.9,0-3.4,1.1-3.4,2.9v21.5c0,1.8,1.5,3.6,3.4,3.6h47.5c1.9,0,3.1-1.7,3.1-3.6v-21.5
	C513,386.1,511.8,385,509.9,385z M511,409.4c0,0.8-0.3,1.6-1.1,1.6h-47.5c-0.8,0-1.4-0.8-1.4-1.6v-21.5c0-0.8,0.6-0.9,1.4-0.9h47.5
	c0.8,0,1.1,0.2,1.1,0.9V409.4z"/>
<path class="st4" d="M511,409.7c0,0.8-0.5,1.3-1.3,1.3h-47.5c-0.8,0-1.2-0.5-1.2-1.3v-21.5c0-0.8,0.4-1.2,1.2-1.2h47.5
	c0.8,0,1.3,0.5,1.3,1.2V409.7z"/>
<path class="st9" d="M454,352.5c0-1.9-1.6-3.5-3.5-3.5h-19c-1.9,0-3.5,1.6-3.5,3.5v57c0,1.9,1.6,3.5,3.5,3.5h19
	c1.9,0,3.5-1.6,3.5-3.5V352.5z M452,408.5c0,0.8-0.7,1.5-1.5,1.5h-19c-0.8,0-1.5-0.7-1.5-1.5v-56c0-0.8,0.7-1.5,1.5-1.5h19
	c0.8,0,1.5,0.7,1.5,1.5V408.5z"/>
<path class="st9" d="M513,325.7c0-2-1.7-3.7-3.7-3.7h-77.6c-2,0-3.7,1.7-3.7,3.7v13.6c0,2,1.7,3.7,3.7,3.7h77.6c2,0,3.7-1.7,3.7-3.7
	V325.7z M511,339.3c0,0.9-0.7,1.7-1.7,1.7h-77.7c-0.9,0-1.7-0.7-1.7-1.7v-13.7c0-0.9,0.7-1.7,1.7-1.7h77.7c0.9,0,1.7,0.7,1.7,1.7
	V339.3z"/>
<path class="st9" d="M390,417.2c0.5,0,1-0.5,1-1v-0.3v-0.7v-1.1v-3.5v-33.5v-0.4v-1.7c0-0.6-0.5-1-1-1s-1,0.5-1,1v1.7v0.4v33.5v3.1
	v1.5v0.7v0.3C389,416.7,389.5,417.2,390,417.2z"/>
<path class="st9" d="M539.8,370.6l-4.2-4.2l1.1-1.1c0.4-0.4,0.6-1,0.4-1.5c-0.1-0.6-0.5-1-1-1.2l-5.5-2c-0.6-0.2-1.3-0.1-1.7,0.4
	c-0.5,0.5-0.6,1.1-0.4,1.8l2,5.5c0.2,0.5,0.6,0.9,1.2,1c0.1,0,0.2,0,0.4,0c0.4,0,0.9-0.2,1.2-0.5l1.1-1.1l4.2,4.2
	c0.2,0.2,0.4,0.2,0.6,0.2c0.2,0,0.4-0.1,0.6-0.2C540.1,371.4,540.1,370.9,539.8,370.6z M532,367.6L532,367.6l-2-5.5l5.5,2.1
	l-1.7,1.7c0,0,0,0,0,0c0,0-0.1,0-0.1,0L532,367.6z"/>
<g>
	<path class="st12" d="M528.3,360L528.3,360c-0.2,0.2-0.5,0.2-0.7,0l-3.1-3.2c-0.2-0.2-0.2-0.5,0-0.7l0,0c0.2-0.2,0.5-0.2,0.7,0
		l3.1,3.2C528.5,359.5,528.5,359.8,528.3,360z"/>
	<path class="st12" d="M526.4,362.9L526.4,362.9c-0.1,0.2-0.3,0.4-0.6,0.3l-2.3-0.7c-0.3-0.1-0.4-0.4-0.3-0.6l0,0
		c0.1-0.2,0.3-0.4,0.6-0.3l2.3,0.7C526.3,362.4,526.5,362.7,526.4,362.9z"/>
	<path class="st12" d="M527.4,369.4L527.4,369.4c0.2,0.2,0.2,0.5,0,0.7l-1.8,1.8c-0.2,0.2-0.5,0.2-0.6,0h0c-0.2-0.2-0.2-0.5,0-0.7
		l1.8-1.8C527,369.2,527.2,369.2,527.4,369.4z"/>
	<path class="st12" d="M531.3,358L531.3,358c-0.3,0.1-0.5-0.1-0.6-0.3l-0.6-2.4c-0.1-0.3,0.1-0.5,0.3-0.6l0,0
		c0.3-0.1,0.5,0.1,0.6,0.3l0.6,2.4C531.7,357.7,531.6,357.9,531.3,358z"/>
	<path class="st12" d="M537.5,359.1L537.5,359.1c-0.2-0.2-0.2-0.5,0-0.7l1.8-1.8c0.2-0.2,0.5-0.2,0.6,0l0,0c0.2,0.2,0.2,0.5,0,0.7
		l-1.8,1.8C537.9,359.3,537.6,359.3,537.5,359.1z"/>
	<path class="st12" d="M534.9,357.7L534.9,357.7c-0.3,0-0.4-0.3-0.4-0.6l1-4.6c0.1-0.2,0.3-0.4,0.5-0.4l0,0c0.3,0,0.4,0.3,0.4,0.6
		l-1,4.6C535.3,357.6,535.1,357.8,534.9,357.7z"/>
	<path class="st12" d="M520.8,367.6L520.8,367.6c0-0.2,0.1-0.5,0.4-0.5l4.5-0.7c0.3,0,0.5,0.1,0.5,0.4l0,0c0,0.2-0.1,0.5-0.4,0.5
		l-4.5,0.7C521.1,368,520.8,367.8,520.8,367.6z"/>
</g>
<g>
	<path class="st9" d="M543.5,399c0.8,0,1.5-0.7,1.5-1.5v-9.4c0-0.8-0.7-1.5-1.5-1.5s-1.5,0.7-1.5,1.5v9.4
		C542,398.3,542.7,399,543.5,399z"/>
	<path class="st9" d="M553.5,399.3c0.8,0,1.5-0.7,1.5-1.5v-9.5c0-0.8-0.7-1.5-1.5-1.5s-1.5,0.7-1.5,1.5v9.5
		C552,398.6,552.7,399.3,553.5,399.3z"/>
	<path class="st9" d="M533.5,399.3c0.8,0,1.5-0.7,1.5-1.5v-9.5c0-0.8-0.7-1.5-1.5-1.5s-1.5,0.7-1.5,1.5v9.5
		C532,398.6,532.7,399.3,533.5,399.3z"/>
	<path class="st9" d="M568.3,410H564v-5.4c0-0.8-0.4-1.6-1.2-1.6H524c-0.8,0-1,0.7-1,1.6v9.4c0,5.3,1.7,10.1,4.9,13.7
		c1.3,1.5,2.8,2.8,4.5,3.9c0,0,0,0,0,0c3.3,2,7.1,3.2,11.1,3.2c4.5,0,8.7-1.5,12.2-3.9c0,0,0,0,0,0c0.1,0,0.1-0.1,0.2-0.1
		c2.2-1.6,4.1-3.9,5.5-5.9h7c4,0,7.3-3.5,7.3-7.5S572.4,410,568.3,410z M561,414c0,7.1-3.9,13.2-9.9,16.1c-2.7,1.9-9.9,1.7-13.1,0.9
		c0,0,0,0,0,0c-2.2-0.7-4.2-1.9-5.9-3.4c-3.8-3.3-6.1-8.2-6.1-13.6v-8h35V414z M568.3,422h-5.5c1-3,1.2-5.4,1.2-8.1V413h4v-0.1
		c3,0,4.5,2.1,4.5,4.5S570.7,422,568.3,422z"/>
	<path class="st14" d="M561,414.4c0,7.1-3.5,12.9-9.5,15.9c-3.3,1.7-9.8,1.6-13.8,0.7c0,0-1.4,0-5.4-3.2c-4-3.2-6.3-8-6.3-13.4V406
		h35V414.4z"/>
</g>
<path class="st16" d="M56.3,113.2H33.5c-2,0-3.7-1.7-3.7-3.7v-0.4c0-2,1.7-3.7,3.7-3.7h22.8c2,0,3.7,1.7,3.7,3.7v0.4
	C60,111.5,58.3,113.2,56.3,113.2z"/>
<path class="st1" d="M77,119v6.4c0,3.6-2.7,6.6-6.4,6.6H18.9c-3.6,0-6.9-3-6.9-6.6V119H77z"/>
<path class="st1" d="M77,28v-6.9c0-3.6-2.7-7.1-6.4-7.1H18.9c-3.6,0-6.9,3.4-6.9,7.1V28H77z"/>
<path class="st0" d="M52.4,23h-9.9c-1,0-1.8-0.8-1.8-1.8V21c0-1,0.8-1.8,1.8-1.8h9.9c1,0,1.8,0.8,1.8,1.8v0.2
	C54.3,22.2,53.5,23,52.4,23z"/>
<path class="st0" d="M34.9,23h-0.2c-1,0-1.8-0.8-1.8-1.8V21c0-1,0.8-1.8,1.8-1.8h0.2c1,0,1.8,0.8,1.8,1.8v0.2
	C36.8,22.2,35.9,23,34.9,23z"/>
<g>
	<path class="st9" d="M49.9,126.2h-9.9c-1,0-1.8-0.8-1.8-1.8v0c0-1,0.8-1.8,1.8-1.8h9.9c1,0,1.8,0.8,1.8,1.8v0
		C51.7,125.4,50.9,126.2,49.9,126.2z"/>
	<path class="st9" d="M70.4,135h-51c-5.5,0-10-4.5-10-10V21.4c0-5.5,4.5-10,10-10h51c5.5,0,10,4.5,10,10V125
		C80.4,130.5,75.9,135,70.4,135z M19.4,14.3c-3.9,0-7.1,3.2-7.1,7.1V125c0,3.9,3.2,7.1,7.1,7.1h51c3.9,0,7.1-3.2,7.1-7.1V21.4
		c0-3.9-3.2-7.1-7.1-7.1H19.4z"/>
	<path class="st9" d="M74.8,29.2H15c-0.7,0-1.2-0.5-1.2-1.2v0c0-0.7,0.5-1.2,1.2-1.2h59.8c0.7,0,1.2,0.5,1.2,1.2v0
		C76,28.6,75.5,29.2,74.8,29.2z"/>
	<path class="st9" d="M74.8,119.7H15c-0.7,0-1.2-0.5-1.2-1.2v-0.1c0-0.7,0.5-1.2,1.2-1.2h59.8c0.7,0,1.2,0.5,1.2,1.2v0.1
		C76,119.2,75.5,119.7,74.8,119.7z"/>
</g>
<g>
	<path class="st0" d="M18.5,58.8h23.7c0.9,0,1.6,0.6,1.6,1.2v0c0,0.7-0.7,1.2-1.6,1.2H18.5c-0.9,0-1.6-0.6-1.6-1.2v0
		C16.8,59.4,17.6,58.8,18.5,58.8z"/>
</g>
<g>
	<path class="st0" d="M18.5,52.6h23.7c0.9,0,1.6,0.6,1.6,1.2v0c0,0.7-0.7,1.2-1.6,1.2H18.5c-0.9,0-1.6-0.6-1.6-1.2v0
		C16.8,53.1,17.6,52.6,18.5,52.6z"/>
</g>
<g>
	<path class="st0" d="M18.5,46.3h23.7c0.9,0,1.6,0.6,1.6,1.2l0,0c0,0.7-0.7,1.2-1.6,1.2H18.5c-0.9,0-1.6-0.6-1.6-1.2l0,0
		C16.8,46.9,17.6,46.3,18.5,46.3z"/>
</g>
<g>
	<path class="st0" d="M18.5,40.1h23.7c0.9,0,1.6,0.6,1.6,1.2v0c0,0.7-0.7,1.2-1.6,1.2H18.5c-0.9,0-1.6-0.6-1.6-1.2v0
		C16.8,40.6,17.6,40.1,18.5,40.1z"/>
</g>
<path class="st0" d="M69.1,100.2H20.7c-2.1,0-3.9-1.7-3.9-3.9V70.1c0-2.1,1.7-3.9,3.9-3.9h48.4c2.1,0,3.9,1.7,3.9,3.9v26.2
	C73,98.5,71.2,100.2,69.1,100.2z M20.7,68.2c-1.1,0-1.9,0.9-1.9,1.9v26.2c0,1.1,0.9,1.9,1.9,1.9h48.4c1.1,0,1.9-0.9,1.9-1.9V70.1
	c0-1.1-0.9-1.9-1.9-1.9H20.7z"/>
<path class="st0" d="M40.7,89.9c-0.4,0-0.7-0.1-1-0.3c-0.6-0.4-1-1-1-1.8v-9.4c0-0.7,0.4-1.4,1-1.8c0.6-0.4,1.4-0.4,2,0l8.4,4.7
	c0.6,0.4,1,1,1,1.8s-0.4,1.4-1,1.8l-8.4,4.7C41.4,89.9,41.1,89.9,40.7,89.9z M40.8,78.4l-0.1,0.1v9.4c0.1,0.1,0.1,0.1,0.1,0.1
	l8.4-4.7c0,0,0,0,0-0.1s0-0.1,0-0.1L40.8,78.4z"/>
<path class="st0" d="M69.1,61.3H52.7c-2.1,0-3.9-1.7-3.9-3.9V43.9c0-2.1,1.7-3.9,3.9-3.9h16.4c2.1,0,3.9,1.7,3.9,3.9v13.5
	C73,59.6,71.2,61.3,69.1,61.3z M52.7,42c-1.1,0-1.9,0.9-1.9,1.9v13.5c0,1.1,0.9,1.9,1.9,1.9h16.4c1.1,0,1.9-0.9,1.9-1.9V43.9
	c0-1.1-0.9-1.9-1.9-1.9H52.7z"/>
<g>
	<path class="st0" d="M148.5-20.1c3.3,0,6-2.7,6-6c0-3.3-2.7-6-6-6c-3.3,0-6,2.7-6,6C142.5-22.8,145.2-20.1,148.5-20.1z M148.5-30.1
		c2.2,0,4,1.8,4,4c0,2.2-1.8,4-4,4c-2.2,0-4-1.8-4-4C144.5-28.3,146.3-30.1,148.5-30.1z"/>
	<path class="st4" d="M148.5-30.1c2.2,0,4,1.8,4,4c0,2.2-1.8,4-4,4c-2.2,0-4-1.8-4-4C144.5-28.3,146.3-30.1,148.5-30.1z"/>
	<path class="st0" d="M156.1-17c-2.2-1.6-4.9-2.4-7.6-2.4c-2.7,0-5.3,0.8-7.6,2.4c-1.8,1.3-2.9,3.4-2.9,5.6c0,0.6,0.4,1,1,1
		c0.5,0,1-0.4,1-1c0-1.6,0.8-3.1,2-4c1.9-1.3,4.1-2,6.4-2c2.3,0,4.5,0.7,6.4,2c1.3,0.9,2,2.4,2,4c0,0.5,0.4,1,1,1c0.5,0,1-0.4,1-1
		C159-13.7,157.9-15.8,156.1-17z"/>
	<path class="st0" d="M148.5-39.1c-9.7,0-17.6,7.9-17.6,17.6S138.8-4,148.5-4S166-11.8,166-21.5S158.2-39.1,148.5-39.1z M148.5-6.3
		c-8.4,0-15.2-6.8-15.2-15.2s6.8-15.2,15.2-15.2s15.2,6.8,15.2,15.2S156.9-6.3,148.5-6.3z"/>
</g>
<path class="st0" d="M108.7-22.5c3,0,5.4-2.4,5.4-5.4c0-3-2.4-5.4-5.4-5.4c-3,0-5.4,2.4-5.4,5.4C103.2-24.9,105.7-22.5,108.7-22.5z
	 M108.7-31.6c2,0,3.6,1.6,3.6,3.6c0,2-1.6,3.6-3.6,3.6c-2,0-3.6-1.6-3.6-3.6C105.1-29.9,106.7-31.6,108.7-31.6z"/>
<path class="st0" d="M115.5-19.7c-2-1.4-4.4-2.2-6.9-2.2c-2.5,0-4.8,0.7-6.9,2.1c-1.6,1.2-2.6,3-2.6,5.1c0,0.5,0.4,0.9,0.9,0.9
	s0.9-0.4,0.9-0.9c0-1.4,0.7-2.8,1.8-3.6c1.7-1.2,3.7-1.8,5.8-1.8c2.1,0,4.1,0.6,5.8,1.8c1.2,0.8,1.8,2.1,1.8,3.6
	c0,0.5,0.4,0.9,0.9,0.9c0.5,0,0.9-0.4,0.9-0.9C118.2-16.7,117.2-18.6,115.5-19.7z"/>
<g class="st17">
	<circle class="st18" cx="66.6" cy="-29.1" r="4"/>
	<path class="st18" d="M66.6-39.7c-8.4,0-15.2,6.8-15.2,15.2c0,8.4,6.8,15.2,15.2,15.2s15.2-6.8,15.2-15.2
		C81.8-32.9,75-39.7,66.6-39.7z M66.6-35.1c3.3,0,6,2.7,6,6c0,3.3-2.7,6-6,6c-3.3,0-6-2.7-6-6C60.6-32.4,63.3-35.1,66.6-35.1z
		 M76.1-13.4c-0.5,0-1-0.4-1-1c0-1.6-0.8-3.1-2-4c-1.9-1.3-4.1-2-6.4-2c-2.3,0-4.5,0.7-6.4,2c-1.3,0.9-2,2.4-2,4c0,0.5-0.4,1-1,1
		c-0.5,0-1-0.4-1-1c0-2.2,1.1-4.3,2.9-5.6c2.2-1.5,4.9-2.4,7.6-2.4c2.7,0,5.3,0.8,7.6,2.4c1.8,1.3,2.9,3.3,2.9,5.6
		C77.1-13.9,76.7-13.4,76.1-13.4z"/>
</g>
<g>
	<g class="st19">
		<path class="st18" d="M203.9-22.2c0-8.3-6.8-15-14.9-15c-8.1,0-15.2,6.7-15.2,15c0,6.1,4.2,11.3,8.2,13.7v-3.2c0-3.3,3.7-6,7-6
			s7,2.7,7,6v3C200-11.2,203.9-16.3,203.9-22.2z M188.8-19.1c-2.4,0-4.4-2-4.4-4.5c0-2.5,2-4.5,4.4-4.5c2.4,0,4.4,2,4.4,4.5
			C193.2-21.1,191.2-19.1,188.8-19.1z"/>
		<path class="st18" d="M182-8.6L182-8.6c5,1.9,10,1.8,14,0v-0.2c-3,0.9-4.9,1.5-7.2,1.5C186.7-7.3,184-7.7,182-8.6z"/>
	</g>
	<path class="st0" d="M188.7-39.4c-9.5,0-17.2,7.7-17.2,17.2S179.2-5,188.7-5c9.5,0,17.2-7.7,17.2-17.2S198.2-39.4,188.7-39.4z
		 M188.7-7.3c-8.2,0-14.9-6.7-14.9-14.9s6.7-14.9,14.9-14.9c8.2,0,14.9,6.7,14.9,14.9S197-7.3,188.7-7.3z"/>
</g>
<path class="st0" d="M95.9,83.6c-5.1,0-9.2,0-10,0c-1,0-1.6-0.6-1.9-1c-0.7-0.9-0.7-2-0.7-2.1l0-20.3c0-1.6,0.4-2.9,1.1-3.7
	c0.5-0.6,1.5-1.3,3.2-1.2c1.1,0,2.8,0,4.4,0c1.2,0,2.2,0,2.9,0c0.3-0.2,0.9-1.2,1-1.5c0.6-1.7,1.6-3.1,3-4.1c0.4-0.3,1.5-1,2.2-0.2
	c0.4,0.5,0.4,1.4,0.1,2c-0.1,0.2-0.2,0.4-0.4,0.7c-0.3,0.5-0.6,1-0.6,1.7c0,0.5,0.1,1,0.3,1.3c1.6,0,16.7-0.2,19.3-0.2
	c0.8,0,1.4,0.3,1.8,0.8c0.6,0.8,0.7,2.1,0.7,3.2c0,3.6,0,13.7,0,18.6l0,2.5c0,1.3-0.3,2.2-0.8,2.9c-0.6,0.7-1.2,0.7-1.4,0.7
	C119.3,83.5,105.8,83.6,95.9,83.6z M87.3,57.2c-0.9,0-1.4,0.4-1.7,0.7c-0.4,0.5-0.6,1.2-0.6,2.3v20.3c0,0.4,0.1,1,1,1.1
	c2.3,0.1,33.9,0,34.2,0c0.2,0,0.5-0.5,0.5-1.6l0-2.5c0-4.9,0-15,0-18.6v0c0-1-0.1-1.5-0.2-1.8c-0.1-0.2-0.4-0.2-0.6-0.2
	c-2.7,0-18.7,0.2-19.4,0.2c-0.5,0-1-0.4-1.3-0.9c-0.2-0.5-0.5-1.4-0.5-2.4c0-0.8,0.2-1.4,0.4-1.9c-0.9,0.8-1.4,1.8-1.6,2.6
	c-0.1,0.3-1.3,2.8-2.4,2.8c-0.6,0-1.7,0-3,0c-1.5,0-3.2,0-4.3,0l-0.1,0C87.5,57.2,87.4,57.2,87.3,57.2z"/>
<path class="st4" d="M49.2,83.1c0,0-8.2-4.6-8.4-4.7c-0.2-0.1-0.1,0.1-0.1,0.3c0,0.4,0,7.9,0,9.1c0,0.1,0.1,0.2,0.2,0.1
	c0.2-0.1,8.4-4.7,8.4-4.7S49.3,83.2,49.2,83.1z"/>
<path class="st0" d="M114.9,73H90.7c-0.6,0-1.1-0.5-1.1-1.1v-0.1c0-0.6,0.5-1.1,1.1-1.1h24.2c0.6,0,1.1,0.5,1.1,1.1v0.1
	C116,72.5,115.5,73,114.9,73z"/>
<path class="st15" d="M52.7,42c-1.1,0-1.9,0.9-1.9,1.9v13.5c0,1.1,0.9,1.9,1.9,1.9h16.4c1.1,0,1.9-0.9,1.9-1.9V43.9
	c0-1.1-0.9-1.9-1.9-1.9H52.7z"/>
<path class="st0" d="M56.7,113.8H33c-2.2,0-4.1-1.8-4.1-4.1V109c0-2.2,1.8-4.1,4.1-4.1h23.7c2.2,0,4.1,1.8,4.1,4.1v0.8
	C60.8,112,59,113.8,56.7,113.8z M33,105.9c-1.7,0-3.1,1.4-3.1,3.1v0.8c0,1.7,1.4,3.1,3.1,3.1h23.7c1.7,0,3.1-1.4,3.1-3.1V109
	c0-1.7-1.4-3.1-3.1-3.1H33z"/>
<path class="st0" d="M101.1,66L101.1,66h-2.3h-8.3c-0.5,0-0.9,0.5-0.9,1s0.4,1,0.9,1h8.3h2.2h0.1c0.5,0,0.9-0.5,0.9-1
	S101.5,66,101.1,66z"/>
<path class="st0" d="M108.4,66h-1.8h-1h-0.1c-0.5,0-0.9,0.5-0.9,1c0,0.5,0.4,1,0.9,1h0.1l0,0h2.8c0.5,0,0.9-0.5,0.9-1
	S108.9,66,108.4,66z"/>
<path class="st0" d="M110.7,76H99.3h-2h-0.3c-0.5,0-0.9,0.4-0.9,1s0.4,1,0.9,1h0.3h2h11.5c0.5,0,0.9-0.4,0.9-1S111.2,76,110.7,76z"
	/>
<path class="st0" d="M93.2,76h-0.6h-1.7h-0.4c-0.5,0-0.9,0.4-0.9,1s0.4,1,0.9,1h0.4h1.7h0.6c0.5,0,0.9-0.4,0.9-1S93.7,76,93.2,76z"
	/>
<path class="st0" d="M114.1,62h-7.4h0h-2.3c-0.5,0-0.9,0.4-0.9,1s0.4,1,0.9,1h0.4h1.9h7.4c0.5,0,0.9-0.4,0.9-1
	C114.9,62.4,114.5,62,114.1,62z"/>
<path class="st0" d="M101.4,62h-2.3c-0.5,0-0.9,0.4-0.9,1s0.4,1,0.9,1h2.3c0.5,0,0.9-0.4,0.9-1S101.9,62,101.4,62z"/>
<path class="st0" d="M96.2,62h-2.8l0,0h-2.9c-0.5,0-0.9,0.4-0.9,1s0.4,1,0.9,1h2.9h3c0.5,0,0.7-0.5,0.7-1C97.1,62.3,96.9,62,96.2,62
	z"/>
<path class="st0" d="M161.5,73.5c-0.1,0-0.8,0-1.4-0.7c-0.5-0.6-0.8-1.6-0.8-2.9l0-2.5c0-4.9,0-15,0-18.6c0-1.1,0.1-2.4,0.7-3.2
	c0.4-0.5,1-0.8,1.8-0.8c2.6,0,17.7,0.2,19.3,0.2c0.1-0.3,0.3-0.8,0.3-1.3c0-0.7-0.3-1.2-0.6-1.7c-0.1-0.2-0.3-0.5-0.4-0.7
	c-0.3-0.6-0.3-1.5,0.1-2c0.7-0.8,1.8-0.1,2.2,0.2c1.4,1,2.4,2.4,3,4.1c0.1,0.3,0.7,1.3,1,1.5c0.6,0,1.7,0,2.9,0c1.5,0,3.2,0,4.4,0
	c1.7-0.1,2.6,0.6,3.2,1.2c0.7,0.9,1.1,2.1,1.1,3.7l0,20.3c0,0.1,0,1.3-0.7,2.1c-0.3,0.4-0.9,0.9-1.9,1c-0.8,0-4.9,0-10,0
	C175.9,73.6,162.4,73.5,161.5,73.5z M194.1,47.2l-0.1,0c-1.1,0-2.8,0-4.3,0c-1.3,0-2.4,0-3,0c-1.1,0-2.3-2.5-2.4-2.8
	c-0.2-0.7-0.7-1.7-1.6-2.6c0.2,0.5,0.4,1.1,0.4,1.9c0,1-0.3,1.8-0.5,2.4c-0.3,0.6-0.8,1-1.3,0.9c-0.7,0-16.7-0.2-19.4-0.2
	c-0.2,0-0.5,0-0.6,0.2c-0.2,0.2-0.3,0.8-0.2,1.8v0c0,3.5,0,13.7,0,18.6l0,2.5c0,1.1,0.3,1.6,0.5,1.6c0.3,0,31.9,0.1,34.2,0
	c0.9,0,1-0.7,1-1.1V50.1c0-1-0.2-1.8-0.6-2.3c-0.3-0.3-0.8-0.7-1.7-0.7C194.3,47.2,194.2,47.2,194.1,47.2z"/>
<path class="st0" d="M166.8,63H191c0.6,0,1.1-0.5,1.1-1.1v-0.1c0-0.6-0.5-1.1-1.1-1.1h-24.2c-0.6,0-1.1,0.5-1.1,1.1v0.1
	C165.7,62.5,166.2,63,166.8,63z"/>
<path class="st0" d="M180.6,56L180.6,56h2.3h8.3c0.5,0,0.9,0.5,0.9,1s-0.4,1-0.9,1h-8.3h-2.2h-0.1c-0.5,0-0.9-0.5-0.9-1
	S180.2,56,180.6,56z"/>
<path class="st0" d="M173.3,56h1.8h1h0.1c0.5,0,0.9,0.5,0.9,1s-0.4,1-0.9,1h-0.1l0,0h-2.8c-0.5,0-0.9-0.5-0.9-1S172.8,56,173.3,56z"
	/>
<path class="st0" d="M171,66h11.5h2h0.3c0.5,0,0.9,0.4,0.9,1s-0.4,1-0.9,1h-0.3h-2H171c-0.5,0-0.9-0.4-0.9-1S170.5,66,171,66z"/>
<path class="st0" d="M188.5,66h0.6h1.7h0.4c0.5,0,0.9,0.4,0.9,1s-0.4,1-0.9,1h-0.4h-1.7h-0.6c-0.5,0-0.9-0.4-0.9-1S188,66,188.5,66z
	"/>
<path class="st0" d="M167.6,52h7.4h0h2.3c0.5,0,0.9,0.4,0.9,1s-0.4,1-0.9,1h-0.4H175h-7.4c-0.5,0-0.9-0.4-0.9-1
	C166.8,52.4,167.2,52,167.6,52z"/>
<path class="st0" d="M180.3,52h2.3c0.5,0,0.9,0.4,0.9,1s-0.4,1-0.9,1h-2.3c-0.5,0-0.9-0.4-0.9-1S179.8,52,180.3,52z"/>
<path class="st0" d="M185.5,52h2.8l0,0h2.9c0.5,0,0.9,0.4,0.9,1s-0.4,1-0.9,1h-2.9h-3c-0.5,0-0.7-0.5-0.7-1
	C184.6,52.3,184.8,52,185.5,52z"/>
<path class="st0" d="M134.5,134.5c-0.1,0-0.8,0-1.4-0.7c-0.5-0.6-0.8-1.6-0.8-2.9l0-2.5c0-4.9,0-15,0-18.6c0-1.1,0.1-2.4,0.7-3.2
	c0.4-0.5,1-0.8,1.8-0.8c2.6,0,17.7,0.2,19.3,0.2c0.1-0.3,0.3-0.8,0.3-1.3c0-0.7-0.3-1.2-0.6-1.7c-0.1-0.2-0.3-0.5-0.4-0.7
	c-0.3-0.6-0.3-1.5,0.1-2c0.7-0.8,1.8-0.1,2.2,0.2c1.4,1,2.4,2.4,3,4.1c0.1,0.3,0.7,1.3,1,1.5c0.6,0,1.7,0,2.9,0c1.5,0,3.2,0,4.4,0
	c1.7-0.1,2.6,0.6,3.2,1.2c0.7,0.9,1.1,2.1,1.1,3.7l0,20.3c0,0.1,0,1.3-0.7,2.1c-0.3,0.4-0.9,0.9-1.9,1c-0.8,0-4.9,0-10,0
	C148.9,134.6,135.4,134.5,134.5,134.5z M167.1,108.2l-0.1,0c-1.1,0-2.8,0-4.3,0c-1.3,0-2.4,0-3,0c-1.1,0-2.3-2.5-2.4-2.8
	c-0.2-0.7-0.7-1.7-1.6-2.6c0.2,0.5,0.4,1.1,0.4,1.9c0,1-0.3,1.8-0.5,2.4c-0.3,0.6-0.8,1-1.3,0.9c-0.7,0-16.7-0.2-19.4-0.2
	c-0.2,0-0.5,0-0.6,0.2c-0.2,0.2-0.3,0.8-0.2,1.8v0c0,3.5,0,13.7,0,18.6l0,2.5c0,1.1,0.3,1.6,0.5,1.6c0.3,0,31.9,0.1,34.2,0
	c0.9,0,1-0.7,1-1.1v-20.3c0-1-0.2-1.8-0.6-2.3c-0.3-0.3-0.8-0.7-1.7-0.7C167.3,108.2,167.2,108.2,167.1,108.2z"/>
<path class="st0" d="M139.8,124H164c0.6,0,1.1-0.5,1.1-1.1v-0.1c0-0.6-0.5-1.1-1.1-1.1h-24.2c-0.6,0-1.1,0.5-1.1,1.1v0.1
	C138.7,123.5,139.2,124,139.8,124z"/>
<path class="st0" d="M153.6,117L153.6,117h2.3h8.3c0.5,0,0.9,0.5,0.9,1s-0.4,1-0.9,1h-8.3h-2.2h-0.1c-0.5,0-0.9-0.5-0.9-1
	S153.2,117,153.6,117z"/>
<path class="st0" d="M146.3,117h1.8h1h0.1c0.5,0,0.9,0.5,0.9,1c0,0.5-0.4,1-0.9,1h-0.1l0,0h-2.8c-0.5,0-0.9-0.5-0.9-1
	S145.8,117,146.3,117z"/>
<path class="st0" d="M144,127h11.5h2h0.3c0.5,0,0.9,0.4,0.9,1s-0.4,1-0.9,1h-0.3h-2H144c-0.5,0-0.9-0.4-0.9-1S143.5,127,144,127z"/>
<path class="st0" d="M161.5,127h0.6h1.7h0.4c0.5,0,0.9,0.4,0.9,1s-0.4,1-0.9,1h-0.4h-1.7h-0.6c-0.5,0-0.9-0.4-0.9-1
	S161,127,161.5,127z"/>
<path class="st0" d="M140.6,113h7.4h0h2.3c0.5,0,0.9,0.4,0.9,1s-0.4,1-0.9,1h-0.4H148h-7.4c-0.5,0-0.9-0.4-0.9-1
	C139.8,113.4,140.2,113,140.6,113z"/>
<path class="st0" d="M153.3,113h2.3c0.5,0,0.9,0.4,0.9,1s-0.4,1-0.9,1h-2.3c-0.5,0-0.9-0.4-0.9-1S152.8,113,153.3,113z"/>
<path class="st0" d="M158.5,113h2.8l0,0h2.9c0.5,0,0.9,0.4,0.9,1s-0.4,1-0.9,1h-2.9h-3c-0.5,0-0.7-0.5-0.7-1
	C157.6,113.3,157.8,113,158.5,113z"/>
<path class="st0" d="M95.4-32.6c-1.2-0.5,0.7-2.2,1.4-2.9c5.2-5.6,13.5-6.9,20.2-3.3c6.7,3.6,10.1,11.3,8.2,18.7
	c-1.8,7.4-8.4,12.6-16,12.7c-7.7,0.1-14.3-4.9-16.4-12.2c-0.2-0.8-0.9-2.3,0.2-2.5c0.7-0.1,0.9,1.2,1.2,2c2.2,7.5,8.7,11.8,16.6,11
	c6.5-0.6,12.4-6.2,13.2-12.6c1-7.8-3.1-14.5-10.3-16.7c-6-1.9-11.3-0.4-15.8,4C97.1-33.9,96-32.4,95.4-32.6z"/>
<path class="st0" d="M95.1-28.9c0,0.2-0.2,2.2-1.2,2.2c-0.4,0-0.8-0.5-0.7-1.1c0.2-0.9,0.4-2,1.2-2.1C95-30,95.2-29.6,95.1-28.9z"/>
<g>
	<path class="st0" d="M88.4,26.3C88.4,26.3,88.4,26.3,88.4,26.3c0.4,0.1,0.9-0.2,1-0.6c0.1-0.4,0.3-0.8,0.5-1.1
		c0.2-0.4,0.1-0.9-0.2-1.1s-0.9-0.1-1.1,0.2c-0.3,0.5-0.6,1.1-0.7,1.6C87.7,25.8,88,26.2,88.4,26.3z"/>
	<path class="st0" d="M101.3,15.9c-4.4,0-8.3,2-11,5.1c0,0,0,0,0,0.1c0,0-0.1,0.1-0.1,0.1c0,0-0.2,0.2-0.2,0.6c0,0.5,0.4,1,1,1
		c0.3,0,0.6-0.1,0.7-0.4c2.3-2.7,5.7-4.5,9.6-4.5c6.9,0,12.5,5.6,12.5,12.5c0,6.9-5.6,12.5-12.5,12.5c-6.9,0-12.4-5.6-12.4-12.5
		c0-0.3,0.1-0.8,0.1-0.8c0,0,0,0,0,0c0-0.5-0.5-1-1-1s-1,0.4-1,0.9c0,0,0,0.1,0,0.1c0,0.3,0,0.5,0,0.8c0,8,6.5,14.4,14.4,14.4
		c8,0,14.4-6.5,14.4-14.4S109.3,15.9,101.3,15.9z"/>
	<path class="st0" d="M87.9,28.5c-0.5,0-0.9,0.4-1,0.9c0,0.1,0,0.1,0,0.1"/>
</g>
<g>
	<path class="st0" d="M197.8,12.7h-11c-0.1,0-0.3-0.1-0.3-0.3v-1.2c0-0.1,0.1-0.3,0.3-0.3h11c0.1,0,0.3,0.1,0.3,0.3v1.2
		C198,12.6,197.9,12.7,197.8,12.7z"/>
	<path class="st0" d="M197.1,11h-9.8c-0.5,0-0.9,0.4-0.9,0.9c0,0.5,0.4,0.9,0.9,0.9h9.8c0.5,0,0.9-0.4,0.9-0.9
		C198,11.4,197.6,11,197.1,11L197.1,11z"/>
</g>
<g>
	<path class="st0" d="M205.5,28.7h-16.3c-0.1,0-0.3-0.1-0.3-0.3v-1.2c0-0.1,0.1-0.2,0.3-0.2h16.3c0.1,0,0.3,0.1,0.3,0.2v1.2
		C205.8,28.6,205.7,28.7,205.5,28.7z"/>
	<path class="st0" d="M204.9,27h-15.1c-0.5,0-0.9,0.4-0.9,0.9c0,0.5,0.4,0.9,0.9,0.9h15.1c0.5,0,0.9-0.4,0.9-0.9
		C205.8,27.4,205.4,27,204.9,27L204.9,27z"/>
</g>
<g>
	<path class="st0" d="M191.5,19.7h-2.2c-0.1,0-0.3-0.1-0.3-0.3v-1.2c0-0.1,0.1-0.3,0.3-0.3h2.2c0.1,0,0.3,0.1,0.3,0.3v1.2
		C191.7,19.6,191.6,19.7,191.5,19.7z"/>
	<path class="st0" d="M190.9,18h-1c-0.5,0-0.9,0.4-0.9,0.9c0,0.5,0.4,0.9,0.9,0.9h1c0.5,0,0.9-0.4,0.9-0.9
		C191.7,18.4,191.3,18,190.9,18L190.9,18z"/>
</g>
<g>
	<path class="st0" d="M125.8,19.7h-11c-0.1,0-0.3-0.1-0.3-0.2v-1.2c0-0.1,0.1-0.3,0.3-0.3h11c0.1,0,0.3,0.1,0.3,0.3v1.2
		C126,19.6,125.9,19.7,125.8,19.7z"/>
	<path class="st0" d="M125.1,18h-9.8c-0.5,0-0.9,0.4-0.9,0.9c0,0.5,0.4,0.9,0.9,0.9h9.8c0.5,0,0.9-0.4,0.9-0.9
		C126,18.4,125.6,18,125.1,18L125.1,18z"/>
</g>
<g>
	<path class="st0" d="M133.5,36h-16.3c-0.1,0-0.3-0.1-0.3-0.3v-1.2c0-0.1,0.1-0.3,0.3-0.3h16.3c0.1,0,0.3,0.1,0.3,0.3v1.2
		C133.8,35.9,133.7,36,133.5,36z"/>
	<path class="st0" d="M132.9,34.3h-15.1c-0.5,0-0.9,0.4-0.9,0.9c0,0.5,0.4,0.9,0.9,0.9h15.1c0.5,0,0.9-0.4,0.9-0.9
		C133.8,34.7,133.4,34.3,132.9,34.3L132.9,34.3z"/>
</g>
<g>
	<path class="st0" d="M125.8,27h-2.2c-0.1,0-0.3-0.1-0.3-0.3v-1.2c0-0.1,0.1-0.2,0.3-0.2h2.2c0.1,0,0.3,0.1,0.3,0.2v1.2
		C126,26.9,125.9,27,125.8,27z"/>
	<path class="st0" d="M125.1,25.3h-1c-0.5,0-0.9,0.4-0.9,0.9c0,0.5,0.4,0.9,0.9,0.9h1c0.5,0,0.9-0.4,0.9-0.9
		C126,25.7,125.6,25.3,125.1,25.3L125.1,25.3z"/>
</g>
<g>
	<path class="st15" d="M101.5,31.4c2.5,0,4.5-2,4.5-4.5c0-2.5-2-4.5-4.5-4.5c-2.5,0-4.5,2-4.5,4.5C97.1,29.4,99.1,31.4,101.5,31.4z
		 M101.5,24c1.7,0,3,1.3,3,3c0,1.7-1.3,3-3,3c-1.7,0-3-1.3-3-3C98.5,25.3,99.9,24,101.5,24z"/>
	<path class="st15" d="M107.2,33.7c-1.7-1.2-3.6-1.8-5.6-1.8c-2,0-4,0.6-5.6,1.8c-1.3,0.9-2.2,2.5-2.2,4.2c0,0.4,0.3,0.7,0.7,0.7
		s0.7-0.3,0.7-0.7c0-1.2,0.6-2.3,1.5-2.9c1.4-1,3.1-1.5,4.8-1.5c1.7,0,3.4,0.5,4.8,1.5c0.9,0.7,1.5,1.8,1.5,2.9
		c0,0.4,0.3,0.7,0.7,0.7c0.4,0,0.7-0.3,0.7-0.7C109.3,36.2,108.5,34.6,107.2,33.7z"/>
</g>
<g>
	<path class="st0" d="M130.1,82.3C130.1,82.3,130.2,82.3,130.1,82.3c0.4,0.1,0.9-0.2,1-0.6c0.1-0.4,0.3-0.8,0.5-1.1
		c0.2-0.4,0.1-0.9-0.2-1.1c-0.4-0.2-0.9-0.1-1.1,0.2c-0.3,0.5-0.6,1.1-0.7,1.6C129.4,81.8,129.7,82.3,130.1,82.3z"/>
	<path class="st0" d="M143.1,71.7c-4.4,0-8.3,2-11,5.1c0,0,0,0,0,0.1c0,0-0.1,0.1-0.1,0.1c0,0-0.2,0.2-0.2,0.6c0,0.5,0.4,1,1,1
		c0.3,0,0.6-0.1,0.7-0.4c2.3-2.7,5.7-4.5,9.6-4.5c6.9,0,12.5,5.6,12.5,12.5c0,6.9-5.6,12.5-12.5,12.5c-6.9,0-12.8-5.6-12.8-12.5
		c0-0.3-0.3-0.8-0.3-0.8c0,0,0,0,0,0c0-0.5-0.1-1-0.7-1s-0.8,0.4-0.8,0.9c0,0,0.1,0.1,0.1,0.1c0,0.3,0,0.5,0,0.8
		c0,8,6.5,14.4,14.5,14.4c8,0,14.5-6.5,14.5-14.4S151,71.7,143.1,71.7z"/>
	<path class="st0" d="M129.6,84.3c-0.5,0-0.9,0.4-1,0.9c0,0.1,0,0.1,0,0.1"/>
</g>
<g>
	<path class="st4" d="M143.2,87.1c2.5,0,4.5-2,4.5-4.5c0-2.5-2-4.5-4.5-4.5c-2.5,0-4.5,2-4.5,4.5C138.8,85,140.8,87.1,143.2,87.1z
		 M143.2,79.6c1.7,0,3,1.3,3,3c0,1.7-1.3,3-3,3c-1.7,0-3-1.3-3-3C140.3,80.9,141.6,79.6,143.2,79.6z"/>
	<path class="st4" d="M148.9,89.3c-1.7-1.2-3.6-1.8-5.6-1.8c-2,0-4,0.6-5.6,1.8c-1.3,0.9-2.2,2.5-2.2,4.2c0,0.4,0.3,0.7,0.7,0.7
		s0.7-0.3,0.7-0.7c0-1.2,0.6-2.3,1.5-2.9c1.4-1,3.1-1.5,4.8-1.5c1.7,0,3.4,0.5,4.8,1.5c0.9,0.7,1.5,1.8,1.5,2.9
		c0,0.4,0.3,0.7,0.7,0.7c0.4,0,0.7-0.3,0.7-0.7C151,91.8,150.2,90.3,148.9,89.3z"/>
</g>
<g>
	<path class="st0" d="M155.9,19.3C155.9,19.3,155.9,19.3,155.9,19.3c0.4,0.1,0.9-0.2,1-0.6c0.1-0.4,0.3-0.8,0.5-1.1
		c0.2-0.4,0.1-0.9-0.2-1.1c-0.4-0.2-0.9-0.1-1.1,0.2c-0.3,0.5-0.6,1.1-0.7,1.6C155.1,18.8,155.4,19.3,155.9,19.3z"/>
	<path class="st0" d="M168.8,8.9c-4.4,0-8.3,2-11,5.1c0,0,0,0,0,0.1c0,0-0.1,0.1-0.1,0.1c0,0-0.2,0.2-0.2,0.6c0,0.5,0.4,1,1,1
		c0.3,0,0.6-0.1,0.7-0.4c2.3-2.7,5.7-4.5,9.6-4.5c6.9,0,12.5,5.6,12.5,12.5c0,6.9-5.6,12.5-12.5,12.5c-6.9,0-12.2-5.6-12.2-12.5
		c0-0.3,0.4-0.8,0.4-0.8c0,0,0,0,0,0c0-0.5-0.8-1-1.3-1s-1.1,0.4-1.1,0.9c0,0-0.1,0.1-0.1,0.1c0,0.3-0.1,0.5-0.1,0.8
		c0,8,6.5,14.4,14.4,14.4c8,0,14.4-6.5,14.4-14.4S176.7,8.9,168.8,8.9z"/>
	<path class="st0" d="M155.3,21.5c-0.5,0-0.9,0.4-1,0.9c0,0.1,0,0.1,0,0.1"/>
</g>
<g>
	<path class="st16" d="M169,24.4c2.5,0,4.5-2,4.5-4.5c0-2.5-2-4.5-4.5-4.5c-2.5,0-4.5,2-4.5,4.5C164.5,22.4,166.5,24.4,169,24.4z
		 M169,17c1.7,0,3,1.3,3,3c0,1.7-1.3,3-3,3c-1.7,0-3-1.3-3-3C166,18.3,167.3,17,169,17z"/>
	<path class="st16" d="M174.6,26.7c-1.7-1.2-3.6-1.8-5.6-1.8c-2,0-4,0.6-5.6,1.8c-1.3,0.9-2.2,2.5-2.2,4.2c0,0.4,0.3,0.7,0.7,0.7
		s0.7-0.3,0.7-0.7c0-1.2,0.6-2.3,1.5-2.9c1.4-1,3.1-1.5,4.8-1.5c1.7,0,3.4,0.5,4.8,1.5c0.9,0.7,1.5,1.8,1.5,2.9
		c0,0.4,0.3,0.7,0.7,0.7c0.4,0,0.7-0.3,0.7-0.7C176.7,29.2,175.9,27.6,174.6,26.7z"/>
</g>
<g>
	<path class="st0" d="M170.8,81h-11c-0.1,0-0.3-0.1-0.3-0.3v-1.2c0-0.1,0.1-0.3,0.3-0.3h11c0.1,0,0.3,0.1,0.3,0.3v1.2
		C171,80.9,170.9,81,170.8,81z"/>
	<path class="st0" d="M170.1,79.3h-9.8c-0.5,0-0.9,0.4-0.9,0.9c0,0.5,0.4,0.9,0.9,0.9h9.8c0.5,0,0.9-0.4,0.9-0.9
		C171,79.7,170.6,79.3,170.1,79.3L170.1,79.3z"/>
</g>
<g>
	<path class="st0" d="M178.5,91.7h-16.3c-0.1,0-0.3-0.1-0.3-0.3v-1.2c0-0.1,0.1-0.3,0.3-0.3h16.3c0.1,0,0.3,0.1,0.3,0.3v1.2
		C178.8,91.6,178.7,91.7,178.5,91.7z"/>
	<path class="st0" d="M177.9,90h-15.1c-0.5,0-0.9,0.4-0.9,0.9c0,0.5,0.4,0.9,0.9,0.9h15.1c0.5,0,0.9-0.4,0.9-0.9
		C178.8,90.4,178.4,90,177.9,90L177.9,90z"/>
</g>
<g>
	<path class="st0" d="M164,86.2h-2.2c-0.1,0-0.3-0.1-0.3-0.3v-1.2c0-0.1,0.1-0.3,0.3-0.3h2.2c0.1,0,0.3,0.1,0.3,0.3v1.2
		C164.2,86,164.1,86.2,164,86.2z"/>
	<path class="st0" d="M163.4,84.4h-1c-0.5,0-0.9,0.4-0.9,0.9c0,0.5,0.4,0.9,0.9,0.9h1c0.5,0,0.9-0.4,0.9-0.9
		C164.2,84.8,163.8,84.4,163.4,84.4L163.4,84.4z"/>
</g>
</svg>
