<?xml version="1.0" encoding="utf-8"?>
<!-- Generator: Adobe Illustrator 20.0.0, SVG Export Plug-In . SVG Version: 6.00 Build 0)  -->
<svg version="1.1" xmlns="http://www.w3.org/2000/svg" xmlns:xlink="http://www.w3.org/1999/xlink" x="0px" y="0px"
	 viewBox="0 0 382.3 778" style="enable-background:new 0 0 382.3 778;" xml:space="preserve">
<style type="text/css">
	.st0{display:none;}
	.st1{display:inline;fill:#E5E5E5;}
	.st2{fill:#FFFFFF;}
	.st3{fill:none;stroke:#D0D2D3;stroke-width:3;stroke-linecap:round;stroke-linejoin:round;stroke-miterlimit:10;}
	.st4{fill:#FFFFFF;stroke:#D0D2D3;stroke-width:3;stroke-miterlimit:10;}
	.st5{fill:#F1F1F2;}
	.st6{fill:none;stroke:#DBDBDB;stroke-width:2;stroke-miterlimit:10;}
	.st7{fill:#F1F1F2;stroke:#DBDBDB;stroke-width:1.5;stroke-miterlimit:10;}
	.st8{fill:#B6B6B7;stroke:#FFFFFF;stroke-width:3;stroke-miterlimit:10;}
	.st9{fill:#E5E5E5;stroke:#DBDBDB;stroke-width:2;stroke-miterlimit:10;}
</style>
<g id="background" class="st0">
	<rect x="-512.3" y="-109.5" class="st1" width="1414" height="1000"/>
</g>
<g id="iPhone_6_-_4.7_x27__x27_">
	<g>
		<path class="st2" d="M45.7,119.5c0,1.1-0.9,2-2,2H3.5c-1.1,0-2-0.9-2-2V90.4c0-1.1,0.9-2,2-2h40.2c1.1,0,2,0.9,2,2V119.5z"/>
		<path class="st3" d="M45.7,119.5c0,1.1-0.9,2-2,2H3.5c-1.1,0-2-0.9-2-2V90.4c0-1.1,0.9-2,2-2h40.2c1.1,0,2,0.9,2,2V119.5z"/>
	</g>
	<g>
		<path class="st2" d="M45.7,215.5c0,1.1-0.9,2-2,2h-40c-1.1,0-2-0.9-2-2v-54.6c0-1.1,0.9-2,2-2h40c1.1,0,2,0.9,2,2V215.5z"/>
		<path class="st3" d="M45.7,215.5c0,1.1-0.9,2-2,2h-40c-1.1,0-2-0.9-2-2v-54.6c0-1.1,0.9-2,2-2h40c1.1,0,2,0.9,2,2V215.5z"/>
	</g>
	<g>
		<path class="st2" d="M380.8,214.5c0,1.6-1.3,3-3,3h-38c-1.7,0-3-1.4-3-3v-52.6c0-1.6,1.3-3,3-3h38c1.7,0,3,1.4,3,3V214.5z"/>
		<path class="st3" d="M380.8,214.5c0,1.6-1.3,3-3,3h-38c-1.7,0-3-1.4-3-3v-52.6c0-1.6,1.3-3,3-3h38c1.7,0,3,1.4,3,3V214.5z"/>
	</g>
	<g>
		<path class="st2" d="M45.8,287.8c0,1.1-0.9,2-2,2h-40c-1.1,0-2-0.9-2-2v-54.6c0-1.1,0.9-2,2-2h40c1.1,0,2,0.9,2,2V287.8z"/>
		<path class="st3" d="M45.8,287.8c0,1.1-0.9,2-2,2h-40c-1.1,0-2-0.9-2-2v-54.6c0-1.1,0.9-2,2-2h40c1.1,0,2,0.9,2,2V287.8z"/>
	</g>
	<path class="st4" d="M374.9,724.6c0,28.6-23.2,51.9-51.9,51.9H58.8c-28.6,0-51.9-23.2-51.9-51.9V53.5c0-28.6,23.2-51.9,51.9-51.9
		h264.3c28.6,0,51.9,23.2,51.9,51.9V724.6z"/>
	<g>
		<path class="st5" d="M362.7,684.5c0,1.7-1.3,3-3,3h-338c-1.6,0-3-1.3-3-3v-600c0-1.6,1.4-3,3-3h338c1.7,0,3,1.4,3,3V684.5z"/>
		<path class="st6" d="M362.7,684.5c0,1.7-1.3,3-3,3h-338c-1.6,0-3-1.3-3-3v-600c0-1.6,1.4-3,3-3h338c1.7,0,3,1.4,3,3V684.5z"/>
	</g>
	<circle class="st7" cx="128.5" cy="43.3" r="6.6"/>
	<circle class="st7" cx="190" cy="17" r="4"/>
	<circle class="st8" cx="190" cy="732.6" r="30.1"/>
	<circle class="st2" cx="190" cy="732.6" r="26.4"/>
	<path class="st9" d="M219.7,43.5c0,1.6-1.3,3-3,3h-54.1c-1.6,0-3-1.3-3-3v-0.1c0-1.6,1.3-3,3-3h54.1
		C218.3,40.5,219.7,41.8,219.7,43.5L219.7,43.5z"/>
</g>
</svg>
