<?xml version="1.0" encoding="utf-8"?>
<!-- Generator: Adobe Illustrator 20.0.0, SVG Export Plug-In . SVG Version: 6.00 Build 0)  -->
<svg version="1.1" id="Capa_1" xmlns="http://www.w3.org/2000/svg" xmlns:xlink="http://www.w3.org/1999/xlink" x="0px" y="0px"
	 viewBox="0 0 216 144" style="enable-background:new 0 0 216 144;" xml:space="preserve">
<style type="text/css">
	.st0{fill:#FFFFFF;}
	.st1{fill:none;stroke:#747776;stroke-miterlimit:10;}
	.st2{fill:#A13CD6;}
	.st3{opacity:0.7;fill:#FB2700;enable-background:new    ;}
	.st4{fill:#54EAB4;}
	.st5{fill:#747776;}
	.st6{fill:none;stroke:#747776;stroke-width:2;stroke-miterlimit:10;}
	.st7{fill:none;stroke:#747776;stroke-width:3;stroke-linecap:round;stroke-linejoin:round;}
	.st8{fill:none;stroke:#686A69;stroke-width:2;stroke-miterlimit:10;}
	.st9{fill:#686A69;}
	.st10{fill:none;stroke:#747776;stroke-width:2.2;stroke-linecap:round;stroke-linejoin:round;}
	.st11{fill:none;stroke:#747776;stroke-width:2.5;stroke-miterlimit:10;}
	.st12{fill:#605D5D;}
	.st13{fill:#610971;}
	.st14{fill:#8C62C3;}
	.st15{opacity:0.7;fill:#8E1FAA;enable-background:new    ;}
	.st16{opacity:0.7;fill:#610971;enable-background:new    ;}
</style>
<path class="st0" d="M454,60h31c0,0-0.5,10.6,0,13.3c0.5,2.7,1.6,6.1,6.4,6.1s5.5,4.6,5.5,4.6H442c0,0,2.8-3.6,6.2-4.7s6-2.1,6-6.3
	C454.2,68.8,454,60,454,60z"/>
<g>
	<ellipse class="st1" cx="396.2" cy="-27.7" rx="2.8" ry="2.6"/>
	<ellipse class="st1" cx="405.7" cy="-27.7" rx="2.8" ry="2.6"/>
	<ellipse class="st1" cx="415.1" cy="-27.7" rx="2.8" ry="2.6"/>
</g>
<ellipse class="st2" cx="405.7" cy="-27.7" rx="1.9" ry="1.8"/>
<ellipse class="st3" cx="396.2" cy="-27.7" rx="1.9" ry="1.8"/>
<ellipse class="st4" cx="415.1" cy="-27.7" rx="1.9" ry="1.8"/>
<path class="st5" d="M544.7-18.2H393.6c-0.7,0-1.3-0.6-1.3-1.3l0,0c0-0.7,0.6-1.3,1.3-1.3h151.1c0.7,0,1.3,0.6,1.3,1.3l0,0
	C546-18.7,545.4-18.2,544.7-18.2z"/>
<path class="st5" d="M487,44.1h-12.9c-0.9,0-1.7-0.8-1.7-1.7l0,0c0-0.9,0.8-1.7,1.7-1.7H487c0.9,0,1.7,0.8,1.7,1.7l0,0
	C488.7,43.3,487.9,44.1,487,44.1z"/>
<path class="st5" d="M452,14.1h-16.2c-0.9,0-1.7-0.8-1.7-1.7l0,0c0-0.9,0.8-1.7,1.7-1.7H452c0.9,0,1.7,0.8,1.7,1.7l0,0
	C453.7,13.3,452.9,14.1,452,14.1z"/>
<path class="st5" d="M452,43.8h-16.2c-0.9,0-1.7-0.8-1.7-1.7l0,0c0-0.9,0.8-1.7,1.7-1.7H452c0.9,0,1.7,0.8,1.7,1.7l0,0
	C453.7,43,452.9,43.8,452,43.8z"/>
<path class="st5" d="M504.3,37.3h-25.9c-0.9,0-1.7-0.8-1.7-1.7l0,0c0-0.9,0.8-1.7,1.7-1.7h25.9c0.9,0,1.7,0.8,1.7,1.7l0,0
	C506,36.5,505.3,37.3,504.3,37.3z"/>
<path class="st5" d="M478.9,14.1h-10.6c-0.9,0-1.7-0.8-1.7-1.7l0,0c0-0.9,0.8-1.7,1.7-1.7h10.6c0.9,0,1.7,0.8,1.7,1.7l0,0
	C480.6,13.3,479.8,14.1,478.9,14.1z"/>
<path class="st2" d="M461,14.1h-2.7c-0.9,0-1.7-0.8-1.7-1.7l0,0c0-0.9,0.8-1.7,1.7-1.7h2.7c0.9,0,1.7,0.8,1.7,1.7l0,0
	C462.7,13.3,461.9,14.1,461,14.1z"/>
<path class="st2" d="M469.3,37h-2.7c-0.9,0-1.7-0.8-1.7-1.7l0,0c0-0.9,0.8-1.7,1.7-1.7h2.7c0.9,0,1.7,0.8,1.7,1.7l0,0
	C471,36.2,470.2,37,469.3,37z"/>
<path class="st5" d="M468-1.4h-32.7c-0.9,0-1.7-0.8-1.7-1.7l0,0c0-0.9,0.8-1.7,1.7-1.7H468c0.9,0,1.7,0.8,1.7,1.7l0,0
	C469.7-2.2,469-1.4,468-1.4z"/>
<path class="st5" d="M456.5,6.3h-10.9c-0.9,0-1.7-0.8-1.7-1.7l0,0c0-0.9,0.8-1.7,1.7-1.7h10.9c0.9,0,1.7,0.8,1.7,1.7l0,0
	C458.2,5.6,457.4,6.3,456.5,6.3z"/>
<path class="st5" d="M500.5,6.3h-37.2c-0.9,0-1.7-0.8-1.7-1.7l0,0c0-0.9,0.8-1.7,1.7-1.7h37.2c0.9,0,1.7,0.8,1.7,1.7l0,0
	C502.2,5.6,501.4,6.3,500.5,6.3z"/>
<path class="st2" d="M437.3,6.3h-1.7c-0.9,0-1.7-0.8-1.7-1.7l0,0c0-0.9,0.8-1.7,1.7-1.7h1.7c0.9,0,1.7,0.8,1.7,1.7l0,0
	C439,5.6,438.2,6.3,437.3,6.3z"/>
<path class="st5" d="M494,30.2h-58.3c-0.9,0-1.7-0.8-1.7-1.7l0,0c0-0.9,0.8-1.7,1.7-1.7H494c0.9,0,1.7,0.8,1.7,1.7l0,0
	C495.7,29.4,495,30.2,494,30.2z"/>
<path class="st2" d="M463,44.1h-2.2c-0.9,0-1.7-0.8-1.7-1.7l0,0c0-0.9,0.8-1.7,1.7-1.7h2.2c0.9,0,1.7,0.8,1.7,1.7l0,0
	C464.6,43.3,463.9,44.1,463,44.1z"/>
<path class="st5" d="M456.5,37h-20.7c-0.9,0-1.7-0.8-1.7-1.7l0,0c0-0.9,0.8-1.7,1.7-1.7h20.7c0.9,0,1.7,0.8,1.7,1.7l0,0
	C458.2,36.2,457.5,37,456.5,37z"/>
<path class="st6" d="M423.6-6.9c0-0.5-1.9-0.8-1.9,1.2s0,8.6,0,8.6s-1.4,1-2.1,1.5C419,5,421.4,5.8,421.5,7s0.1,8.1,0.1,8.1
	s-0.1,1.5,1.5,1.3"/>
<path class="st6" d="M423.6,24.1c0-0.5-1.9-0.8-1.9,1.2s0,8.6,0,8.6s-1.4,1-2.1,1.5c-0.6,0.6,1.8,1.4,1.9,2.6s0.1,8.1,0.1,8.1
	s-0.1,1.5,1.5,1.3"/>
<g>
	<path class="st7" d="M454.2,65.2V73c0,0,0,6.3-6.7,6.3"/>
	<path class="st7" d="M491.4,79.3c-6.7,0-6.7-6.3-6.7-6.3v-7.9"/>
</g>
<path class="st8" d="M380.3,42.2c0,0,4-4.6,5.8-9.1s-1.8-8.4-5.5-8.6c-5-0.2-7.7,4.3-6.3,8.8C375.3,36.3,380.3,42.2,380.3,42.2z"/>
<path class="st4" d="M380.3,25.4c-1.8,0-3.3,0.7-4.2,2c-1.1,1.5-1.4,3.5-0.8,5.6c0.6,1.9,3.3,5.6,5,7.6c1.2-1.5,3.6-4.8,4.9-7.9
	c0.7-1.6,0.5-3.3-0.4-4.7c-0.9-1.5-2.6-2.4-4.3-2.5C380.5,25.4,380.4,25.4,380.3,25.4z"/>
<path class="st8" d="M378.3,56.4c-2.7,0-6.4-0.3-11.5,0.6c-4.7,0.8-7.9-5-6.7-8.5c1.6-4.7,7.1-5.5,11.2-2.4
	C374,48.2,376.5,52.4,378.3,56.4z"/>
<path class="st4" d="M366,45.3c-0.6,0-1.2,0.1-1.7,0.2c-1.1,0.3-2.6,1.2-3.3,3.3c-0.6,1.6,0,3.9,1.4,5.6c0.7,0.8,2.1,2,4.1,1.7
	c4.3-0.8,7.7-0.7,10.1-0.7c-1.9-3.9-4-6.9-6-8.4C369.2,45.9,367.6,45.3,366,45.3z"/>
<path class="st8" d="M381.9,50c2.7,0,6.4-0.3,11.5,0.6c4.7,0.8,7.9-5,6.7-8.5c-1.6-4.7-7.1-5.5-11.2-2.4
	C386.2,41.8,383.7,46,381.9,50z"/>
<path class="st9" d="M380.4,62.5h-0.2c-0.7,0-1.2-0.5-1.2-1.2V41.7c0-0.7,0.5-1.2,1.2-1.2h0.2c0.7,0,1.2,0.5,1.2,1.2v19.6
	C381.6,62,381.1,62.5,380.4,62.5z"/>
<path class="st9" d="M395.5,69.3h1.1c0.6,0,1,0.5,0.9,1.1l-2.2,13.9c-0.1,0.9-0.8,1.4-1.5,1.4h-27c-0.8,0-1.5-0.5-1.6-1.4L363,70.4
	c-0.1-0.6,0.3-1.1,0.9-1.1h1.1c0.6,0,1.1,0.4,1.2,1l2,12h24.2l1.9-12C394.4,69.7,394.9,69.3,395.5,69.3z"/>
<path class="st9" d="M400.7,65.4c0,0.9-0.8,1.6-1.6,1.6h-4.2h-29.2h-4.2c-0.9,0-1.6-0.8-1.6-1.6s0.8-1.6,1.6-1.6h2.3h33h2.3
	C400,63.8,400.7,64.6,400.7,65.4z"/>
<g>
	<line class="st10" x1="478.6" y1="83.8" x2="497.9" y2="83.8"/>
	<line class="st10" x1="469.1" y1="83.8" x2="470.4" y2="83.8"/>
	<line class="st10" x1="440.9" y1="83.8" x2="460.3" y2="83.8"/>
</g>
<path class="st11" d="M542,59H396.8c-5.3,0-9.7-4.4-9.7-9.7v-77.9c0-5.3,4.4-9.7,9.7-9.7H542c5.3,0,9.7,4.4,9.7,9.7v77.9
	C551.7,54.6,547.4,59,542,59z"/>
<path class="st4" d="M385.6,49c2.2,0,4.9,0.1,8.2,0.7c2,0.4,3.5-0.9,4.1-1.7c1.4-1.6,2-3.9,1.4-5.6c-0.7-2.1-2.2-3-3.3-3.3
	c-2-0.6-4.4-0.1-6.3,1.4c-2,1.5-4.1,4.5-6,8.4C384.2,49,384.9,49,385.6,49z"/>
<g>
	<path class="st12" d="M380,19L380,19c-0.6,0-1-0.5-1-1V8.3c0-0.6,0.5-1,1-1l0,0c0.6,0,1,0.5,1,1V18C381,18.5,380.5,19,380,19z"/>
	<path class="st12" d="M372.7,20.5L372.7,20.5c-0.5,0.2-1.1,0.1-1.4-0.4l-2.5-4.5c-0.3-0.5-0.1-1.1,0.4-1.4l0,0
		c0.5-0.2,1.1-0.1,1.4,0.4l2.5,4.5C373.4,19.6,373.2,20.3,372.7,20.5z"/>
	<path class="st12" d="M364.5,31.9L364.5,31.9c0,0.5-0.4,1-1,1h-5.4c-0.5,0-1-0.4-1-1l0,0c0-0.5,0.4-1,1-1h5.4
		C364.1,30.9,364.5,31.3,364.5,31.9z"/>
	<path class="st12" d="M387.7,20.8L387.7,20.8c-0.5-0.3-0.7-0.9-0.4-1.4L390,15c0.3-0.5,0.9-0.6,1.4-0.4l0,0
		c0.5,0.3,0.7,0.9,0.4,1.4l-2.7,4.4C388.8,20.9,388.2,21,387.7,20.8z"/>
	<path class="st12" d="M395.5,31.9L395.5,31.9c0-0.5,0.4-1,1-1h5.4c0.5,0,1,0.4,1,1l0,0c0,0.5-0.4,1-1,1h-5.4
		C396,32.9,395.5,32.4,395.5,31.9z"/>
	<path class="st12" d="M393.6,25.8L393.6,25.8c-0.3-0.5-0.2-1.1,0.3-1.4l8.4-5.4c0.5-0.3,1.1-0.2,1.4,0.3l0,0
		c0.3,0.5,0.2,1.1-0.3,1.4l-8.4,5.4C394.5,26.3,393.9,26.2,393.6,25.8z"/>
	<path class="st12" d="M357,18.9L357,18.9c0.3-0.4,1-0.5,1.4-0.2l8,5.9c0.5,0.3,0.5,1,0.2,1.4l0,0c-0.3,0.4-1,0.5-1.4,0.2l-8-5.9
		C356.7,20,356.6,19.4,357,18.9z"/>
</g>
<path class="st0" d="M464.9,254h31c0,0-0.5,10.6,0,13.3s1.6,6.1,6.4,6.1s5.5,4.6,5.5,4.6H453c0,0,0.8-4.3,6.2-4.7
	c3.5-0.3,6-2.1,6-6.3S464.9,254,464.9,254z"/>
<g>
	<path class="st5" d="M408.2,169.4c-1.8,0-3.3-1.4-3.3-3.1s1.5-3.1,3.3-3.1s3.3,1.4,3.3,3.1S410,169.4,408.2,169.4z M408.2,164.2
		c-1.3,0-2.3,1-2.3,2.1s1,2.1,2.3,2.1s2.3-1,2.3-2.1S409.4,164.2,408.2,164.2z"/>
	<path class="st5" d="M417.7,169.4c-1.8,0-3.3-1.4-3.3-3.1s1.5-3.1,3.3-3.1s3.3,1.4,3.3,3.1S419.5,169.4,417.7,169.4z M417.7,164.2
		c-1.3,0-2.3,1-2.3,2.1s1,2.1,2.3,2.1s2.3-1,2.3-2.1S419,164.2,417.7,164.2z"/>
	<path class="st5" d="M427.1,169.4c-1.8,0-3.3-1.4-3.3-3.1s1.5-3.1,3.3-3.1s3.3,1.4,3.3,3.1S428.9,169.4,427.1,169.4z M427.1,164.2
		c-1.3,0-2.3,1-2.3,2.1s1,2.1,2.3,2.1s2.3-1,2.3-2.1S428.3,164.2,427.1,164.2z"/>
</g>
<ellipse class="st2" cx="417.7" cy="166.3" rx="2.3" ry="2.1"/>
<ellipse class="st3" cx="408.2" cy="166.3" rx="2.3" ry="2.1"/>
<ellipse class="st13" cx="427.1" cy="166.3" rx="2.3" ry="2.1"/>
<path class="st5" d="M555.8,175.8H404.7c-0.7,0-1.3-0.6-1.3-1.3l0,0c0-0.7,0.6-1.3,1.3-1.3h151.1c0.7,0,1.3,0.6,1.3,1.3l0,0
	C557.1,175.3,556.5,175.8,555.8,175.8z"/>
<g>
	<path class="st5" d="M504.5,238.1h-12.9c-0.9,0-1.7-0.8-1.7-1.7l0,0c0-0.9,0.8-1.7,1.7-1.7h12.9c0.9,0,1.7,0.8,1.7,1.7l0,0
		C506.2,237.3,505.4,238.1,504.5,238.1z"/>
	<path class="st5" d="M469.5,208.1h-16.2c-0.9,0-1.7-0.8-1.7-1.7l0,0c0-0.9,0.8-1.7,1.7-1.7h16.2c0.9,0,1.7,0.8,1.7,1.7l0,0
		C471.2,207.3,470.4,208.1,469.5,208.1z"/>
	<path class="st5" d="M469.5,237.8h-16.2c-0.9,0-1.7-0.8-1.7-1.7l0,0c0-0.9,0.8-1.7,1.7-1.7h16.2c0.9,0,1.7,0.8,1.7,1.7l0,0
		C471.2,237,470.4,237.8,469.5,237.8z"/>
	<path class="st5" d="M521.8,231.3h-25.9c-0.9,0-1.7-0.8-1.7-1.7l0,0c0-0.9,0.8-1.7,1.7-1.7h25.9c0.9,0,1.7,0.8,1.7,1.7l0,0
		C523.5,230.5,522.8,231.3,521.8,231.3z"/>
	<path class="st5" d="M496.4,208.1h-10.6c-0.9,0-1.7-0.8-1.7-1.7l0,0c0-0.9,0.8-1.7,1.7-1.7h10.6c0.9,0,1.7,0.8,1.7,1.7l0,0
		C498.1,207.3,497.3,208.1,496.4,208.1z"/>
	<path class="st2" d="M478.5,208.1h-2.7c-0.9,0-1.7-0.8-1.7-1.7l0,0c0-0.9,0.8-1.7,1.7-1.7h2.7c0.9,0,1.7,0.8,1.7,1.7l0,0
		C480.2,207.3,479.4,208.1,478.5,208.1z"/>
	<path class="st2" d="M486.8,231h-2.7c-0.9,0-1.7-0.8-1.7-1.7l0,0c0-0.9,0.8-1.7,1.7-1.7h2.7c0.9,0,1.7,0.8,1.7,1.7l0,0
		C488.5,230.2,487.7,231,486.8,231z"/>
	<path class="st5" d="M485.5,192.6h-32.7c-0.9,0-1.7-0.8-1.7-1.7l0,0c0-0.9,0.8-1.7,1.7-1.7h32.7c0.9,0,1.7,0.8,1.7,1.7l0,0
		C487.2,191.8,486.5,192.6,485.5,192.6z"/>
	<path class="st5" d="M474,200.3h-10.9c-0.9,0-1.7-0.8-1.7-1.7l0,0c0-0.9,0.8-1.7,1.7-1.7H474c0.9,0,1.7,0.8,1.7,1.7l0,0
		C475.7,199.6,475,200.3,474,200.3z"/>
	<path class="st5" d="M518,200.3h-37.2c-0.9,0-1.7-0.8-1.7-1.7l0,0c0-0.9,0.8-1.7,1.7-1.7H518c0.9,0,1.7,0.8,1.7,1.7l0,0
		C519.7,199.6,518.9,200.3,518,200.3z"/>
	<path class="st2" d="M454.8,200.3h-1.7c-0.9,0-1.7-0.8-1.7-1.7l0,0c0-0.9,0.8-1.7,1.7-1.7h1.7c0.9,0,1.7,0.8,1.7,1.7l0,0
		C456.5,199.6,455.7,200.3,454.8,200.3z"/>
	<path class="st5" d="M511.5,224.2h-58.3c-0.9,0-1.7-0.8-1.7-1.7l0,0c0-0.9,0.8-1.7,1.7-1.7h58.3c0.9,0,1.7,0.8,1.7,1.7l0,0
		C513.2,223.4,512.5,224.2,511.5,224.2z"/>
	<path class="st2" d="M480.5,238.1h-2.2c-0.9,0-1.7-0.8-1.7-1.7l0,0c0-0.9,0.8-1.7,1.7-1.7h2.2c0.9,0,1.7,0.8,1.7,1.7l0,0
		C482.2,237.3,481.4,238.1,480.5,238.1z"/>
	<path class="st5" d="M474.1,231h-20.7c-0.9,0-1.7-0.8-1.7-1.7l0,0c0-0.9,0.8-1.7,1.7-1.7h20.7c0.9,0,1.7,0.8,1.7,1.7l0,0
		C475.7,230.2,475,231,474.1,231z"/>
	<path class="st5" d="M440.4,211.5c-0.8,0-1.3-0.3-1.6-0.6c-0.7-0.7-0.7-1.7-0.7-1.8c0-2.3,0-7-0.1-7.9c0-0.2-0.6-0.6-0.9-0.8
		c-0.6-0.4-1.1-0.9-1.1-1.6c0-0.4,0.1-0.7,0.4-1c0.5-0.4,1.2-1,1.7-1.3c0-1.6,0.1-6.4,0-8.1c-0.1-1.4,0.7-2.1,1.1-2.3
		c0.6-0.4,1.5-0.5,2.1-0.1c0.4,0.2,0.7,1.1,0.7,1.1h-2c0,1,0.3,0.7,0.4,0.7c0,0-0.1,0-0.1,0.1c0,0-0.1,0.2-0.1,0.6
		c0.1,2,0,8.4,0,8.7v0.5l-0.4,0.3c-0.3,0.2-0.8,0.6-1.3,0.9c0.7,0.5,1.5,1.2,1.6,2.3c0.1,1.2,0.1,7.9,0.1,8.1c0,0.1,0,0.3,0.1,0.3
		c0,0,0.1,0,0.3,0l0.2,2C440.6,211.5,440.5,211.5,440.4,211.5z"/>
	<path class="st5" d="M440.4,242.5c-0.8,0-1.3-0.3-1.6-0.6c-0.7-0.7-0.7-1.7-0.7-1.8c0-2.3,0-7-0.1-7.9c0-0.2-0.6-0.7-0.9-0.8
		c-0.6-0.4-1.1-0.9-1.1-1.6c0-0.4,0.1-0.7,0.4-1c0.5-0.4,1.2-1,1.7-1.3c0-1.6,0.1-6.4,0-8.1c-0.1-1.4,0.7-2.1,1.1-2.3
		c0.6-0.4,1.5-0.5,2.1-0.1c0.4,0.2,0.7,1.1,0.7,1.1h-2c0,0,0.3,0.7,0.4,0.7c0,0-0.1,0-0.1,0.1c0,0-0.1,0.2-0.1,0.5
		c0.1,2,0,8.4,0,8.7v0.5l-0.4,0.3c-0.3,0.2-0.8,0.6-1.3,0.9c0.7,0.5,1.5,1.2,1.6,2.3c0.1,1.2,0.1,7.9,0.1,8.1c0,0.1,0,0.3,0.1,0.3
		c0,0,0.1,0,0.3,0l0.2,2C440.6,242.5,440.5,242.5,440.4,242.5z"/>
</g>
<g>
	<path class="st5" d="M458.4,274.8c-0.8,0-1.5-0.7-1.5-1.5s0.7-1.5,1.5-1.5c5,0,5.2-4.3,5.2-4.8v-7.9c0-0.8,0.7-1.5,1.5-1.5
		s1.5,0.7,1.5,1.5v7.9C466.5,269.7,464.8,274.8,458.4,274.8z"/>
	<path class="st5" d="M502.2,274.8c-6.5,0-8.2-5.1-8.2-7.8v-7.9c0-0.8,0.7-1.5,1.5-1.5s1.5,0.7,1.5,1.5v7.9c0,0.8,0.3,4.8,5.2,4.8
		c0.8,0,1.5,0.7,1.5,1.5S503.1,274.8,502.2,274.8z"/>
</g>
<path class="st9" d="M389.3,237.8l-0.8-0.9c-0.2-0.2-5.2-6.1-6.2-9.2c-0.8-2.6-0.4-5.4,1.1-7.4c1.4-1.9,3.6-2.8,6.1-2.7
	c2.3,0.1,4.6,1.4,5.9,3.4s1.5,4.3,0.5,6.5c-1.9,4.7-5.8,9.2-6,9.4L389.3,237.8z M389.3,219.5c-1.8,0-3.3,0.7-4.2,2
	c-1.1,1.5-1.4,3.5-0.8,5.6c0.6,1.9,3.3,5.6,5,7.6c1.2-1.5,3.6-4.8,4.9-7.9c0.7-1.6,0.5-3.3-0.4-4.7c-0.9-1.5-2.6-2.4-4.3-2.5
	C389.5,219.5,389.4,219.5,389.3,219.5z"/>
<path class="st14" d="M389.3,219.4c-1.8,0-3.3,0.7-4.2,2c-1.1,1.5-1.4,3.5-0.8,5.6c0.6,1.9,3.3,5.6,5,7.6c1.2-1.5,3.6-4.8,4.9-7.9
	c0.7-1.6,0.5-3.3-0.4-4.7c-0.9-1.5-2.6-2.4-4.3-2.5C389.5,219.4,389.4,219.4,389.3,219.4z"/>
<path class="st9" d="M374.9,252.2c-1.8,0-3.6-0.8-4.9-2.4c-1.8-2.1-2.6-5.2-1.8-7.5c0.8-2.3,2.4-3.9,4.6-4.6
	c2.6-0.8,5.6-0.1,8.1,1.7c3.5,2.7,6.3,8.3,7.3,10.6l0.6,1.4h-1.5c-0.5,0-1,0-1.5,0c-2.5,0-5.7-0.1-9.8,0.6
	C375.6,252.1,375.2,252.2,374.9,252.2z M375.1,239.3c-0.6,0-1.2,0.1-1.7,0.2c-1.1,0.3-2.6,1.2-3.3,3.3c-0.6,1.6,0,3.9,1.4,5.6
	c0.7,0.8,2.1,2,4.1,1.7c4.3-0.8,7.7-0.7,10.1-0.7c-1.9-3.9-4-6.9-6-8.4C378.3,239.9,376.7,239.3,375.1,239.3z"/>
<path class="st14" d="M375,239.3c-0.6,0-1.2,0.1-1.7,0.2c-1.1,0.3-2.6,1.2-3.3,3.3c-0.6,1.6,0,3.9,1.4,5.6c0.7,0.8,2.1,2,4.1,1.7
	c4.3-0.8,7.7-0.7,10.1-0.7c-1.9-3.9-4-6.9-6-8.4C378.2,239.9,376.6,239.3,375,239.3z"/>
<path class="st9" d="M389.4,256.5h-0.2c-0.7,0-1.2-0.5-1.2-1.2v-19.6c0-0.7,0.5-1.2,1.2-1.2h0.2c0.7,0,1.2,0.5,1.2,1.2v19.6
	C390.6,256,390.1,256.5,389.4,256.5z"/>
<path class="st9" d="M404.2,262.6h1.1c0.6,0,1,0.5,0.9,1.1l-2.2,13.9c-0.1,0.9-0.8,1.4-1.5,1.4h-27c-0.8,0-1.5-0.5-1.6-1.4
	l-2.2-13.9c-0.1-0.6,0.3-1.1,0.9-1.1h1.1c0.6,0,1.1,0.4,1.2,1l2,12h24.2l1.9-12C403.1,263.1,403.6,262.6,404.2,262.6z"/>
<path class="st9" d="M409.7,259.4c0,0.9-0.8,1.6-1.6,1.6h-4.2h-29.2h-4.2c-0.9,0-1.6-0.8-1.6-1.6c0-0.9,0.8-1.6,1.6-1.6h2.3h33h2.3
	C409,257.8,409.7,258.6,409.7,259.4z"/>
<g>
	<path class="st5" d="M508.8,278.9h-19.4c-0.6,0-1.1-0.5-1.1-1.1s0.5-1.1,1.1-1.1h19.4c0.6,0,1.1,0.5,1.1,1.1
		S509.4,278.9,508.8,278.9z"/>
	<path class="st5" d="M481.3,278.9H480c-0.6,0-1.1-0.5-1.1-1.1s0.5-1.1,1.1-1.1h1.3c0.6,0,1.1,0.5,1.1,1.1S481.9,278.9,481.3,278.9z
		"/>
	<path class="st5" d="M471.2,278.9h-19.4c-0.6,0-1.1-0.5-1.1-1.1s0.5-1.1,1.1-1.1h19.4c0.6,0,1.1,0.5,1.1,1.1
		S471.8,278.9,471.2,278.9z"/>
</g>
<path class="st5" d="M552.9,254.3H407.7c-6,0-10.9-4.9-10.9-10.9v-77.9c0-6,4.9-10.9,10.9-10.9h145.2c6,0,10.9,4.9,10.9,10.9v77.9
	C563.8,249.3,558.9,254.3,552.9,254.3z M407.7,156.9c-4.7,0-8.4,3.8-8.4,8.4v77.9c0,4.7,3.8,8.4,8.4,8.4h145.2
	c4.7,0,8.4-3.8,8.4-8.4v-77.9c0-4.7-3.8-8.4-8.4-8.4H407.7z"/>
<g>
	<path class="st5" d="M389,214.4L389,214.4c-0.6,0-1-0.5-1-1v-9.6c0-0.6,0.5-1,1-1l0,0c0.6,0,1,0.5,1,1v9.6
		C390,213.9,389.5,214.4,389,214.4z"/>
	<path class="st5" d="M381.7,215.9L381.7,215.9c-0.5,0.2-1.1,0.1-1.4-0.4l-2.5-4.5c-0.3-0.5-0.1-1.1,0.4-1.4l0,0
		c0.5-0.2,1.1-0.1,1.4,0.4l2.5,4.5C382.4,215,382.2,215.6,381.7,215.9z"/>
	<path class="st5" d="M373.5,227.2L373.5,227.2c0,0.5-0.4,1-1,1h-5.4c-0.5,0-1-0.4-1-1l0,0c0-0.5,0.4-1,1-1h5.4
		C373.1,226.3,373.5,226.7,373.5,227.2z"/>
	<path class="st5" d="M396.7,216.1L396.7,216.1c-0.5-0.3-0.7-0.9-0.4-1.4l2.7-4.4c0.3-0.5,0.9-0.6,1.4-0.4l0,0
		c0.5,0.3,0.7,0.9,0.4,1.4l-2.7,4.4C397.8,216.2,397.2,216.4,396.7,216.1z"/>
	<path class="st5" d="M404.5,227.2L404.5,227.2c0-0.5,0.4-1,1-1h5.4c0.5,0,1,0.4,1,1l0,0c0,0.5-0.4,1-1,1h-5.4
		C405,228.2,404.5,227.8,404.5,227.2z"/>
	<path class="st5" d="M402.6,221.1L402.6,221.1c-0.3-0.5-0.2-1.1,0.3-1.4l8.4-5.4c0.5-0.3,1.1-0.2,1.4,0.3l0,0
		c0.3,0.5,0.2,1.1-0.3,1.4l-8.4,5.4C403.5,221.7,402.9,221.6,402.6,221.1z"/>
	<path class="st5" d="M366,214.3L366,214.3c0.3-0.4,1-0.5,1.4-0.2l8,5.9c0.5,0.3,0.5,1,0.2,1.4l0,0c-0.3,0.4-1,0.5-1.4,0.2l-8-5.9
		C365.7,215.4,365.6,214.7,366,214.3z"/>
</g>
<path class="st14" d="M394.6,243c2.2,0,4.9,0.1,8.2,0.7c2,0.4,3.5-0.9,4.1-1.7c1.4-1.6,2-3.9,1.4-5.6c-0.7-2.1-2.2-3-3.3-3.3
	c-2-0.6-4.4-0.1-6.3,1.4c-2,1.5-4.1,4.5-6,8.4C393.2,243,393.9,243,394.6,243z"/>
<path class="st9" d="M403.3,245.8c-0.4,0-0.7,0-1.1-0.1c-4.2-0.7-7.3-0.7-9.8-0.6c-0.5,0-1.1,0-1.5,0h-1.5l0.6-1.4
	c1-2.3,3.7-7.9,7.3-10.6c2.5-1.9,5.5-2.5,8.1-1.7c2.2,0.7,3.9,2.3,4.6,4.6c0.8,2.3,0.1,5.4-1.8,7.5
	C406.9,244.9,405.2,245.8,403.3,245.8z M394.4,243c2.2,0,4.9,0.1,8.2,0.7c2,0.4,3.5-0.9,4.1-1.7c1.4-1.6,2-3.9,1.4-5.6
	c-0.7-2.1-2.2-3-3.3-3.3c-2-0.6-4.4-0.1-6.3,1.4c-2,1.5-4.1,4.5-6,8.4C393.1,243,393.7,243,394.4,243z"/>
<path class="st15" d="M188.3-59h-47.2c-0.7,0-1.6,0.1-1.6,1v24.1c0,0.9,1,1.6,1.7,1.6h47.2c0.6,0,1.1-0.7,1.1-1.4v-23.6
	C189.5-58.2,189.5-59,188.3-59z"/>
<path class="st16" d="M101.5-41.3c0-1-0.8-1.7-1.6-1.7H22.3c-1.2,0-1.8,0.9-1.8,1.7v13.8c0,0.8,1,1.5,1.9,1.6h77.4
	c0.9,0,1.6-0.7,1.6-1.7L101.5-41.3L101.5-41.3z"/>
<path class="st0" d="M198.3,130.5c-0.9,1-2.3,1.5-3.6,1.5h-179c-1.4,0-2.7-0.5-3.6-1.5c-0.9-1-1.4-2.5-1.3-3.9
	c0.2-2.5,2.5-4.6,5.1-4.6h5.9h70.9h1.1c0.7,0,1.4,0,2,0h3h15.1h0.7c0.8,0,1.4,0,2,0h2.3h69.7h5.9c2.6,0,4.9,2.1,5.1,4.6
	C199.7,128,199.2,129.5,198.3,130.5z"/>
<path class="st9" d="M21,64.8c0.5,0,1-0.5,1-1v-1v-1.1v-3.5c0-0.6-0.5-1-1-1s-1,0.5-1,1v3.1v1.5v1C20,64.3,20.5,64.8,21,64.8z"/>
<path class="st9" d="M179,105.1c0.5,0,1-0.5,1-1v-0.3v-0.7v-0.6l0,0c0-0.6-0.5-1-1-1s-1,0.5-1,1v0.1v0.4v0.7v0.3
	C178,104.6,178.5,105.1,179,105.1z"/>
<path class="st9" d="M178,117.2c0,0.6,0.5,1,1,1s1-0.5,1-1v-1v-0.3v-0.7l0,0v-0.4v-1.2c0-0.6-0.4-1-0.9-1s-1,0.4-1,1l-0.1,1.3v0.1
	v0.3v1l0,0l0,0V117.2z"/>
<path class="st9" d="M110.1,122.9L110.1,122.9c-0.4,0-0.8,0.3-0.9,0.6c-0.6,1.4-1.9,2.5-3.4,2.5H95.5c-1.5,0-2.7-1.1-3.4-2.5
	c-0.2-0.4-0.5-0.6-0.9-0.6c-0.7,0-1.2,0.8-1,1.5c0.9,2.3,2.9,3.5,5.3,3.5h10.3c2.3,0,4.4-1.2,5.3-3.5
	C111.3,123.7,110.8,122.9,110.1,122.9z"/>
<path class="st9" d="M192.6,126.4c-0.3-3.5-3.3-6.4-6.8-6.4H182h-1.9c-0.7,0-1.4,0-1.9,0H24.4h-1.9c-0.7,0-1.4,0-1.9,0h-5
	c-3.5,0-6.5,2.9-6.8,6.4c-0.2,1.9,0.4,3.9,1.7,5.3s3,2.3,4.9,2.3H186c1.8,0,3.6-0.8,4.9-2.3C192.1,130.3,192.7,128.3,192.6,126.4z
	 M189.4,130.4c-0.9,1-2.2,1.6-3.5,1.6H15.3c-1.3,0-2.6-0.5-3.5-1.6c-0.9-1-1.3-2.5-1.2-3.9c0.2-2.5,2.4-4.6,4.9-4.6h5.6h67.6h1
	c0.6,0,1.3,0,1.9,0h2.8h14.4h0.7c0.7,0,1.3,0,1.9,0h2.2H180h5.6c2.5,0,4.6,2.1,4.9,4.6C190.8,127.9,190.3,129.4,189.4,130.4z"/>
<path class="st9" d="M21.2,48c0.5,0,0.8-0.4,0.8-0.9h-0.1V47V36.4V19c0-4.4,4.4-8,8.6-8h140.1c4.2,0,7.3,3.6,7.3,8v63.4v1.3v1.8v1.1
	v0.1V87v0.4V88v0.7v1.8v1.1V92v1c0,0.6,0.5,1,1,1s1-0.5,1-1v-1v-0.6v-0.6v-2.2v-0.7v-0.6V87v-0.3v-0.2v-0.6v-2.2v-1.3v-63
	c0-5.5-4.1-10.4-9.3-10.4h-140C25.4,9,20,13.9,20,19.4v17v10.5V47C20,47.6,20.7,48,21.2,48z"/>
<path class="st15" d="M144,52.8c0-1.9-1.2-3.8-3.1-3.8H93.4c-1.9,0-3.4,1.8-3.4,3.8V75c0,1.9,1.5,4,3.4,4h47.5c1.9,0,3.1-2,3.1-4
	V52.8z M142,75c0,0.8-0.3,2-1.1,2H93.4c-0.8,0-1.4-1.2-1.4-2V52.8c0-0.8,0.6-1.8,1.4-1.8h47.5c0.8,0,1.1,1,1.1,1.8V75z"/>
<path class="st3" d="M140.9,85H93.4c-1.9,0-3.4,1.1-3.4,2.9v21.5c0,1.8,1.5,3.6,3.4,3.6h47.5c1.9,0,3.1-1.7,3.1-3.6V87.9
	C144,86.1,142.8,85,140.9,85z M142,109.4c0,0.8-0.3,1.6-1.1,1.6H93.4c-0.8,0-1.4-0.8-1.4-1.6V87.9c0-0.8,0.6-0.9,1.4-0.9h47.5
	c0.8,0,1.1,0.2,1.1,0.9V109.4z"/>
<path class="st3" d="M-12.5-10.1c0,0.8-0.5,1.3-1.3,1.3h-47.5c-0.8,0-1.2-0.5-1.2-1.3v-21.5c0-0.8,0.4-1.2,1.2-1.2h47.5
	c0.8,0,1.3,0.5,1.3,1.2V-10.1z"/>
<path class="st9" d="M85,52.5c0-1.9-1.6-3.5-3.5-3.5h-19c-1.9,0-3.5,1.6-3.5,3.5v57c0,1.9,1.6,3.5,3.5,3.5h19c1.9,0,3.5-1.6,3.5-3.5
	V52.5z M83,108.5c0,0.8-0.7,1.5-1.5,1.5h-19c-0.8,0-1.5-0.7-1.5-1.5v-56c0-0.8,0.7-1.5,1.5-1.5h19c0.8,0,1.5,0.7,1.5,1.5V108.5z"/>
<path class="st16" d="M144,25.7c0-2-1.7-3.7-3.7-3.7H62.7c-2,0-3.7,1.7-3.7,3.7v13.6c0,2,1.7,3.7,3.7,3.7h77.6c2,0,3.7-1.7,3.7-3.7
	V25.7z M142,39.3c0,0.9-0.7,1.7-1.7,1.7H62.7c-0.9,0-1.7-0.7-1.7-1.7V25.7c0-0.9,0.7-1.7,1.7-1.7h77.7c0.9,0,1.7,0.7,1.7,1.7
	L142,39.3L142,39.3z"/>
<path class="st9" d="M21,117.2c0.5,0,1-0.5,1-1v-0.3v-0.7v-1.1v-3.5V77.1v-0.4V75c0-0.6-0.5-1-1-1s-1,0.5-1,1v1.7v0.4v33.5v3.1v1.5
	v0.7v0.3C20,116.7,20.5,117.2,21,117.2z"/>
<path class="st9" d="M170.8,70.6l-4.2-4.2l1.1-1.1c0.4-0.4,0.6-1,0.4-1.5c-0.1-0.6-0.5-1-1-1.2l-5.5-2c-0.6-0.2-1.3-0.1-1.7,0.4
	c-0.5,0.5-0.6,1.1-0.4,1.8l2,5.5c0.2,0.5,0.6,0.9,1.2,1c0.1,0,0.2,0,0.4,0c0.4,0,0.9-0.2,1.2-0.5l1.1-1.1l4.2,4.2
	c0.2,0.2,0.4,0.2,0.6,0.2s0.4-0.1,0.6-0.2C171.1,71.4,171.1,70.9,170.8,70.6z M163,67.6L163,67.6l-2-5.5l5.5,2.1l-1.7,1.7l0,0h-0.1
	L163,67.6z"/>
<path class="st15" d="M163,67.6L163,67.6l-2-5.5l5.5,2.1l-1.7,1.7l0,0h-0.1L163,67.6z"/>
<g>
	<path class="st12" d="M159.3,60L159.3,60c-0.2,0.2-0.5,0.2-0.7,0l-3.1-3.2c-0.2-0.2-0.2-0.5,0-0.7l0,0c0.2-0.2,0.5-0.2,0.7,0
		l3.1,3.2C159.5,59.5,159.5,59.8,159.3,60z"/>
	<path class="st12" d="M157.4,62.9L157.4,62.9c-0.1,0.2-0.3,0.4-0.6,0.3l-2.3-0.7c-0.3-0.1-0.4-0.4-0.3-0.6l0,0
		c0.1-0.2,0.3-0.4,0.6-0.3l2.3,0.7C157.3,62.4,157.5,62.7,157.4,62.9z"/>
	<path class="st12" d="M158.4,69.4L158.4,69.4c0.2,0.2,0.2,0.5,0,0.7l-1.8,1.8c-0.2,0.2-0.5,0.2-0.6,0l0,0c-0.2-0.2-0.2-0.5,0-0.7
		l1.8-1.8C158,69.2,158.2,69.2,158.4,69.4z"/>
	<path class="st12" d="M162.3,58L162.3,58c-0.3,0.1-0.5-0.1-0.6-0.3l-0.6-2.4c-0.1-0.3,0.1-0.5,0.3-0.6l0,0c0.3-0.1,0.5,0.1,0.6,0.3
		l0.6,2.4C162.7,57.7,162.6,57.9,162.3,58z"/>
	<path class="st12" d="M168.5,59.1L168.5,59.1c-0.2-0.2-0.2-0.5,0-0.7l1.8-1.8c0.2-0.2,0.5-0.2,0.6,0l0,0c0.2,0.2,0.2,0.5,0,0.7
		l-1.8,1.8C168.9,59.3,168.6,59.3,168.5,59.1z"/>
	<path class="st12" d="M165.9,57.7L165.9,57.7c-0.3,0-0.4-0.3-0.4-0.6l1-4.6c0.1-0.2,0.3-0.4,0.5-0.4l0,0c0.3,0,0.4,0.3,0.4,0.6
		l-1,4.6C166.3,57.6,166.1,57.8,165.9,57.7z"/>
	<path class="st12" d="M151.8,67.6L151.8,67.6c0-0.2,0.1-0.5,0.4-0.5l4.5-0.7c0.3,0,0.5,0.1,0.5,0.4l0,0c0,0.2-0.1,0.5-0.4,0.5
		l-4.5,0.7C152.1,68,151.8,67.8,151.8,67.6z"/>
</g>
<g>
	<path class="st9" d="M174.5,99c0.8,0,1.5-0.7,1.5-1.5v-9.4c0-0.8-0.7-1.5-1.5-1.5s-1.5,0.7-1.5,1.5v9.4C173,98.3,173.7,99,174.5,99
		z"/>
	<path class="st9" d="M184.5,99.3c0.8,0,1.5-0.7,1.5-1.5v-9.5c0-0.8-0.7-1.5-1.5-1.5s-1.5,0.7-1.5,1.5v9.5
		C183,98.6,183.7,99.3,184.5,99.3z"/>
	<path class="st9" d="M164.5,99.3c0.8,0,1.5-0.7,1.5-1.5v-9.5c0-0.8-0.7-1.5-1.5-1.5s-1.5,0.7-1.5,1.5v9.5
		C163,98.6,163.7,99.3,164.5,99.3z"/>
	<path class="st9" d="M199.3,110H195v-5.4c0-0.8-0.4-1.6-1.2-1.6H155c-0.8,0-1,0.7-1,1.6v9.4c0,5.3,1.7,10.1,4.9,13.7
		c1.3,1.5,2.8,2.8,4.5,3.9l0,0c3.3,2,7.1,3.2,11.1,3.2c4.5,0,8.7-1.5,12.2-3.9l0,0c0.1,0,0.1-0.1,0.2-0.1c2.2-1.6,4.1-3.9,5.5-5.9h7
		c4,0,7.3-3.5,7.3-7.5S203.4,110,199.3,110z M192,114c0,7.1-3.9,13.2-9.9,16.1c-2.7,1.9-9.9,1.7-13.1,0.9l0,0
		c-2.2-0.7-4.2-1.9-5.9-3.4c-3.8-3.3-6.1-8.2-6.1-13.6v-8h35V114z M199.3,122h-5.5c1-3,1.2-5.4,1.2-8.1V113h4v-0.1
		c3,0,4.5,2.1,4.5,4.5S201.7,122,199.3,122z"/>
	<path class="st14" d="M192,114.4c0,7.1-3.5,12.9-9.5,15.9c-3.3,1.7-9.8,1.6-13.8,0.7c0,0-1.4,0-5.4-3.2s-6.3-8-6.3-13.4v-4.5
		l35-0.3V114.4z"/>
</g>
</svg>
