<svg id="Capa_1" data-name="Capa 1" xmlns="http://www.w3.org/2000/svg" viewBox="0 0 255.76 125"><defs><style>.cls-1{fill:#54eab4;}.cls-2{fill:#8e1faa;}.cls-2,.cls-3,.cls-6{opacity:0.7;}.cls-3{fill:#610971;}.cls-4{fill:#fff;}.cls-5{fill:#686a69;}.cls-6{fill:#fb2700;}.cls-7{fill:#605d5d;}</style></defs><title>web-design</title><path class="cls-1" d="M206,102h45s1.33,11.83-7.5,21-28.17,5.55-33.17-3.81S206,102,206,102Z" transform="translate(-9.71 -12)"/><path class="cls-2" d="M143.84,54H96.58c-.7,0-1.27.14-1.27,1V79.05a1.62,1.62,0,0,0,1.57,1.62H144c.61,0,1-.69,1-1.42V55.65C145,54.8,145,54,143.84,54Z" transform="translate(-9.71 -12)"/><path class="cls-3" d="M145.31,28.66A1.77,1.77,0,0,0,143.54,27H66.07a1.68,1.68,0,0,0-1.76,1.66V42.45A1.64,1.64,0,0,0,65.94,44h77.44a1.87,1.87,0,0,0,1.92-1.72Z" transform="translate(-9.71 -12)"/><path class="cls-4" d="M199.29,133.52a4.81,4.81,0,0,1-3.63,1.48h-179A4.81,4.81,0,0,1,13,133.51,5.12,5.12,0,0,1,16.84,125H195.45a5.12,5.12,0,0,1,3.84,8.52Z" transform="translate(-9.71 -12)"/><path class="cls-5" d="M23.31,67.76a1,1,0,0,0,1-1v-5.6a1,1,0,1,0-2,0v5.6A1,1,0,0,0,23.31,67.76Z" transform="translate(-9.71 -12)"/><path class="cls-5" d="M188.31,107.07a1,1,0,0,0,1-1V104.5a1,1,0,1,0-2,0v1.57A1,1,0,0,0,188.31,107.07Z" transform="translate(-9.71 -12)"/><path class="cls-5" d="M187.31,119.17a1,1,0,1,0,2,0v-2.05h0v-.37l.07-1.16a1,1,0,0,0-1-1,1,1,0,0,0-1.05,1l0,1.25v1.32h0Z" transform="translate(-9.71 -12)"/><path class="cls-5" d="M116,125.91h0a1.1,1.1,0,0,0-1,.62,4.13,4.13,0,0,1-3.53,2.47H100.76a4.13,4.13,0,0,1-3.53-2.47,1.09,1.09,0,0,0-1-.6,1.12,1.12,0,0,0-1,1.55,5.64,5.64,0,0,0,5.51,3.52h10.77a5.65,5.65,0,0,0,5.51-3.53A1.13,1.13,0,0,0,116,125.91Z" transform="translate(-9.71 -12)"/><path class="cls-5" d="M202.55,129.39a7.21,7.21,0,0,0-7.1-6.39H16.84a7.21,7.21,0,0,0-7.1,6.39,7,7,0,0,0,6.9,7.61h179a7,7,0,0,0,6.9-7.61Zm-3.27,4a4.88,4.88,0,0,1-3.63,1.57h-179A4.88,4.88,0,0,1,13,133.43,5.06,5.06,0,0,1,16.84,125H195.45a5.06,5.06,0,0,1,3.84,8.43Z" transform="translate(-9.71 -12)"/><path class="cls-5" d="M23.23,51a1,1,0,0,0,1-.94h0V22c0-4.36,4-8,8.36-8h147a7.77,7.77,0,0,1,7.68,8V96a1,1,0,1,0,2,0V22.37c0-5.48-4.2-10.37-9.68-10.37h-147A10.7,10.7,0,0,0,22.31,22.37V50A.94.94,0,0,0,23.23,51Z" transform="translate(-9.71 -12)"/><path class="cls-5" d="M147.31,55.75A3.67,3.67,0,0,0,143.92,52H96.42c-1.89,0-3.11,1.84-3.11,3.75V78c0,1.91,1.22,4,3.11,4h47.5c1.89,0,3.38-2,3.38-4Zm-2,22.29c0,.79-.6,2-1.38,2H96.42c-.78,0-1.11-1.17-1.11-2V55.75c0-.79.33-1.75,1.11-1.75h47.5c.78,0,1.38,1,1.38,1.75Z" transform="translate(-9.71 -12)"/><path class="cls-5" d="M143.92,88H96.42a2.79,2.79,0,0,0-3.11,2.91v21.52A3.32,3.32,0,0,0,96.42,116h47.5a3.54,3.54,0,0,0,3.38-3.56V90.91C147.31,89.07,145.82,88,143.92,88Zm1.38,24.44a1.54,1.54,0,0,1-1.38,1.56H96.42c-.78,0-1.11-.8-1.11-1.56V90.91c0-.76.33-.91,1.11-.91h47.5c.78,0,1.38.15,1.38.91Z" transform="translate(-9.71 -12)"/><path class="cls-6" d="M145.31,112.74c0,.76-.81,1.26-1.59,1.26H96.21c-.78,0-.91-.5-.91-1.26V91.22c0-.76.13-1.22.91-1.22h47.5c.78,0,1.59.46,1.59,1.22Z" transform="translate(-9.71 -12)"/><path class="cls-5" d="M88.31,55.51A3.51,3.51,0,0,0,84.8,52h-19a3.51,3.51,0,0,0-3.51,3.51v57A3.51,3.51,0,0,0,65.82,116h19a3.51,3.51,0,0,0,3.51-3.51Zm-2,56A1.49,1.49,0,0,1,84.82,113h-19a1.49,1.49,0,0,1-1.49-1.49v-56A1.49,1.49,0,0,1,65.8,54h19a1.49,1.49,0,0,1,1.49,1.49Z" transform="translate(-9.71 -12)"/><path class="cls-5" d="M147.31,28.69A3.69,3.69,0,0,0,143.62,25H66a3.69,3.69,0,0,0-3.69,3.69V42.31A3.69,3.69,0,0,0,66,46h77.63a3.69,3.69,0,0,0,3.69-3.69Zm-2,13.64A1.67,1.67,0,0,1,143.64,44H66a1.67,1.67,0,0,1-1.67-1.67V28.67A1.67,1.67,0,0,1,66,27h77.66a1.67,1.67,0,0,1,1.67,1.67Z" transform="translate(-9.71 -12)"/><path class="cls-5" d="M23.31,120.18a1,1,0,0,0,1-1V77.93a1,1,0,1,0-2,0v41.24A1,1,0,0,0,23.31,120.18Z" transform="translate(-9.71 -12)"/><path class="cls-5" d="M174.71,97.16l-7.42-7.42,2-2a2.94,2.94,0,0,0-1.05-4.84l-9.75-3.64A2.94,2.94,0,0,0,154.72,83l3.64,9.75a2.92,2.92,0,0,0,2.13,1.84,3,3,0,0,0,.63.07,2.93,2.93,0,0,0,2.08-.86l2-2,7.42,7.42a1.47,1.47,0,1,0,2.08-2.08Zm-13.59-5.39h0L157.48,82l9.75,3.64-3,3,0,0,0,0Z" transform="translate(-9.71 -12)"/><path class="cls-5" d="M237,133H219.22a2,2,0,0,0-1.78,1.41,2,2,0,0,0,1.69,2.59H236.9a2,2,0,0,0,1.78-1.41A2,2,0,0,0,237,133Z" transform="translate(-9.71 -12)"/><path class="cls-5" d="M257.08,99H241.35a2,2,0,0,0,0,4h7.21s.74.1.74.12v2.65a20.51,20.51,0,0,1-21.22,20.52c-11.14-.38-19.78-9.9-19.78-21v-2.12s-.77-.12-.75-.12h20.61a2,2,0,0,0,0-4H205.77c-1,0-1.47,1.33-1.47,2.33v3.87c0,13.29,10.34,24.5,23.63,24.67A24.19,24.19,0,0,0,251.21,114c1.56-4.81,1.52-4.81,1.83-8.23.06-.66,0-2.65,0-2.65s3.86-.12,3.86-.12a5.23,5.23,0,0,1,5,3.84c.84,3.17-1,6.16-4.06,6.16h-.89a1.93,1.93,0,0,0-2,1.74,1.5,1.5,0,0,0,1.38,1.71v0a5.39,5.39,0,0,0,3.67-.62,9.15,9.15,0,0,0,5.19-5.88A8.67,8.67,0,0,0,257.08,99Z" transform="translate(-9.71 -12)"/><path class="cls-5" d="M219.58,91.56a1.78,1.78,0,0,0,0,2.41,1.73,1.73,0,0,0,2.5,0,5.07,5.07,0,0,0,0-7.14,1.67,1.67,0,0,1,0-2.32,1.65,1.65,0,0,0-1.56-2.79,2.16,2.16,0,0,0-1.22.79,5.07,5.07,0,0,0,.37,6.73A1.59,1.59,0,0,1,219.58,91.56Z" transform="translate(-9.71 -12)"/><path class="cls-5" d="M226.72,91.56a1.78,1.78,0,0,0,0,2.41,1.73,1.73,0,0,0,2.5,0,5.07,5.07,0,0,0,0-7.14,1.67,1.67,0,0,1,0-2.32,1.65,1.65,0,0,0-1.56-2.79,2.16,2.16,0,0,0-1.22.79,5.07,5.07,0,0,0,.37,6.73A1.59,1.59,0,0,1,226.72,91.56Z" transform="translate(-9.71 -12)"/><path class="cls-5" d="M233.87,91.56a1.78,1.78,0,0,0,0,2.41,1.73,1.73,0,0,0,2.5,0,5.07,5.07,0,0,0,0-7.14,1.67,1.67,0,0,1,0-2.32,1.65,1.65,0,0,0-1.56-2.79,2.16,2.16,0,0,0-1.22.79,5.07,5.07,0,0,0,.37,6.73A1.59,1.59,0,0,1,233.87,91.56Z" transform="translate(-9.71 -12)"/><path class="cls-5" d="M234.5,99a2,2,0,0,0,0,4h1.32a2,2,0,0,0,0-4Z" transform="translate(-9.71 -12)"/><path class="cls-7" d="M154.44,78.73h0a.46.46,0,0,1-.66,0l-3.11-3.21a.49.49,0,0,1,0-.68h0a.46.46,0,0,1,.66,0L154.44,78A.49.49,0,0,1,154.44,78.73Z" transform="translate(-9.71 -12)"/><path class="cls-7" d="M152.57,81.65h0A.46.46,0,0,1,152,82l-2.26-.69a.48.48,0,0,1-.31-.61h0a.47.47,0,0,1,.58-.31l2.26.69A.48.48,0,0,1,152.57,81.65Z" transform="translate(-9.71 -12)"/><path class="cls-7" d="M153.59,88.14h0a.47.47,0,0,1,0,.66l-1.76,1.8a.44.44,0,0,1-.64,0h0a.47.47,0,0,1,0-.66l1.76-1.8A.44.44,0,0,1,153.59,88.14Z" transform="translate(-9.71 -12)"/><path class="cls-7" d="M157.51,76.75h0a.46.46,0,0,1-.58-.34l-.57-2.36a.48.48,0,0,1,.33-.58h0a.46.46,0,0,1,.58.34l.57,2.36A.48.48,0,0,1,157.51,76.75Z" transform="translate(-9.71 -12)"/><path class="cls-7" d="M163.64,77.85h0a.47.47,0,0,1,0-.66l1.76-1.8a.44.44,0,0,1,.64,0h0a.47.47,0,0,1,0,.66l-1.76,1.8A.44.44,0,0,1,163.64,77.85Z" transform="translate(-9.71 -12)"/><path class="cls-7" d="M161,76.48h0a.47.47,0,0,1-.36-.56l1-4.6a.46.46,0,0,1,.53-.36h0a.46.46,0,0,1,.36.56l-1,4.6A.46.46,0,0,1,161,76.48Z" transform="translate(-9.71 -12)"/><path class="cls-7" d="M147,86.32h0a.48.48,0,0,1,.39-.52l4.52-.69a.46.46,0,0,1,.52.41h0A.47.47,0,0,1,152,86l-4.52.69A.46.46,0,0,1,147,86.32Z" transform="translate(-9.71 -12)"/></svg>